<svg xmlns="http://www.w3.org/2000/svg" xmlns:xlink="http://www.w3.org/1999/xlink" viewBox="0 0 123.22 102.62"><defs><style>.cls-1{mask:url(#mask);filter:url(#luminosity-noclip-2);}.cls-16,.cls-17,.cls-2,.cls-6,.cls-7,.cls-8{mix-blend-mode:multiply;}.cls-2{fill:url(#radial-gradient);}.cls-3{isolation:isolate;}.cls-4{fill:#00b0ef;}.cls-5{fill:#0065d0;}.cls-6{fill:url(#radial-gradient-2);}.cls-7{fill:#84d1f6;}.cls-8{fill:#1cb6f0;opacity:0.3;}.cls-9{fill:#72bb32;}.cls-10{fill:#098137;}.cls-11,.cls-14{mix-blend-mode:screen;}.cls-11{opacity:0.4;}.cls-12{fill:#b8d424;}.cls-13{mask:url(#mask-2);}.cls-14{fill:url(#radial-gradient-3);}.cls-15,.cls-18{fill:#fff;}.cls-15{mix-blend-mode:overlay;}.cls-16{fill:#22613c;opacity:0.7;}.cls-17{fill:#114a9d;}.cls-19{fill:#215a8c;}.cls-20{fill:#dbf1fc;}.cls-21{filter:url(#luminosity-noclip);}</style><filter id="luminosity-noclip" x="17.02" y="-8320.89" width="74.5" height="32766" filterUnits="userSpaceOnUse" color-interpolation-filters="sRGB"><feFlood flood-color="#fff" result="bg"/><feBlend in="SourceGraphic" in2="bg"/></filter><mask id="mask" x="17.02" y="-8320.89" width="74.5" height="32766" maskUnits="userSpaceOnUse"><g class="cls-21"/></mask><radialGradient id="radial-gradient" cx="109.76" cy="98.97" r="111.15" gradientUnits="userSpaceOnUse"><stop offset="0"/><stop offset="0.37" stop-color="#020202"/><stop offset="0.51" stop-color="#090909"/><stop offset="0.6" stop-color="#141414"/><stop offset="0.68" stop-color="#252525"/><stop offset="0.75" stop-color="#3b3b3b"/><stop offset="0.8" stop-color="#575757"/><stop offset="0.86" stop-color="#777"/><stop offset="0.91" stop-color="#9d9d9d"/><stop offset="0.95" stop-color="#c8c8c8"/><stop offset="0.99" stop-color="#f6f6f6"/><stop offset="1" stop-color="#fff"/></radialGradient><radialGradient id="radial-gradient-2" cx="42.62" cy="33.96" r="71.84" gradientUnits="userSpaceOnUse"><stop offset="0" stop-color="#fff"/><stop offset="0.39" stop-color="#fdfdfd"/><stop offset="0.53" stop-color="#f6f6f6"/><stop offset="0.63" stop-color="#ebebeb"/><stop offset="0.71" stop-color="#dadada"/><stop offset="0.77" stop-color="#c4c4c4"/><stop offset="0.84" stop-color="#a8a8a8"/><stop offset="0.89" stop-color="#888"/><stop offset="0.94" stop-color="#626262"/><stop offset="0.99" stop-color="#393939"/><stop offset="1" stop-color="#2b2b2b"/></radialGradient><filter id="luminosity-noclip-2" x="17.02" y="1.2" width="74.5" height="81.87" filterUnits="userSpaceOnUse" color-interpolation-filters="sRGB"><feFlood flood-color="#fff" result="bg"/><feBlend in="SourceGraphic" in2="bg"/></filter><mask id="mask-2" x="17.02" y="1.2" width="74.5" height="81.87" maskUnits="userSpaceOnUse"><g class="cls-1"><path class="cls-2" d="M90.8,11.1c-5.4-4.82-7-7.41-18.12-9.31C60.15-.37,46,3.53,35.77,11.47A49.33,49.33,0,0,0,20,32.7a46.19,46.19,0,0,0-2.91,12.81c-.57,8.38,1.33,16.83,4.09,24.71a22.5,22.5,0,0,0,10.18,12.7c1.31.72,2.82-1.24,2.44-2.42-2.07-6.5,1.05-12.6,3.33-18.6,1.4-3.68,3.12-7.4,2-11.39-1.2-4.21-7-3.8-9.37-6.74-2.21-2.74,1.34-7.51,3-9.54,3.28-4.07,6.69-5,11.57-3.46C53.1,33.53,54.63,20.09,62.08,20c2.34,0,4.21,2.28,6.12,3.32a8.45,8.45,0,0,0,5.23,1c1.72-.14,3.47-1.69,4.71-2.73a45.41,45.41,0,0,1,7.92-5.3C88.07,15.2,93.45,13.47,90.8,11.1Z"/></g></mask><radialGradient id="radial-gradient-3" cx="109.76" cy="98.97" r="111.15" gradientUnits="userSpaceOnUse"><stop offset="0" stop-color="#2b2b2b"/><stop offset="0.39" stop-color="#2d2d2d"/><stop offset="0.53" stop-color="#343434"/><stop offset="0.63" stop-color="#3f3f3f"/><stop offset="0.71" stop-color="#505050"/><stop offset="0.77" stop-color="#666"/><stop offset="0.84" stop-color="#828282"/><stop offset="0.89" stop-color="#a2a2a2"/><stop offset="0.94" stop-color="#c8c8c8"/><stop offset="0.99" stop-color="#f1f1f1"/><stop offset="1" stop-color="#fff"/></radialGradient></defs><g class="cls-3"><g id="Layer_2" data-name="Layer 2"><g id="Layer_1-2" data-name="Layer 1"><path class="cls-4" d="M117.1,51.4A50.54,50.54,0,1,1,66.57.86,50.53,50.53,0,0,1,117.1,51.4Z"/><path class="cls-5" d="M117.2,51.4l0,.91c0,.6,0,1.49-.1,2.65a48.87,48.87,0,0,1-1.64,10,51.94,51.94,0,0,1-6.28,14.36A51.24,51.24,0,0,1,95,94,53.34,53.34,0,0,1,84.61,99.4a49,49,0,0,1-12.23,2.91A50.17,50.17,0,0,1,45.91,98,52,52,0,0,1,15.57,51.4,59,59,0,0,1,16,43.9a54.14,54.14,0,0,1,1.56-7.34A51,51,0,0,1,45.74,4.4,49.55,49.55,0,0,1,59.08.53c1.13-.14,2.26-.3,3.39-.37.56,0,1.11-.09,1.67-.11l1.68,0C67,0,68,.05,69.11.06s2.21.14,3.28.28a50,50,0,0,1,12.24,3A52.3,52.3,0,0,1,95,8.8a50.9,50.9,0,0,1,14.13,14.71,51.47,51.47,0,0,1,6.28,14.36,48.1,48.1,0,0,1,1.64,10c.11,1.17.07,2.06.09,2.66Zm-.18,0s0-.31,0-.92,0-1.48-.14-2.64A47.69,47.69,0,0,0,115.11,38a43.52,43.52,0,0,0-2.46-6.72,48.39,48.39,0,0,0-4.12-7.32A50.86,50.86,0,0,0,72.2,2c-1-.13-2.08-.17-3.14-.26l-1.62,0-.82,0-.78,0-1.62,0c-.54,0-1.08.08-1.62.12-1.09.05-2.17.22-3.26.36a49.47,49.47,0,0,0-6.51,1.42c-1.09.29-2.14.68-3.23,1S47.48,5.49,46.45,6a50.28,50.28,0,0,0-30,45.42A55,55,0,0,0,17,58.76,52.12,52.12,0,0,0,18.5,66,49.87,49.87,0,0,0,24.68,79.2a49.32,49.32,0,0,0,21.59,18c1,.48,2.14.84,3.21,1.26s2.16.73,3.25,1a50.5,50.5,0,0,0,6.58,1.34c1.09.12,2.19.28,3.26.32.55,0,1.08.08,1.63.1l1.64,0c1.07,0,2.15,0,3.21-.06s2.12-.14,3.16-.27a51.25,51.25,0,0,0,36.33-22,49,49,0,0,0,4.12-7.33,43.72,43.72,0,0,0,2.47-6.73A48,48,0,0,0,116.86,55c.13-1.15.1-2,.14-2.65S117,51.4,117,51.4Z"/><path class="cls-6" d="M117.1,51.08A50.54,50.54,0,1,1,66.57.54,50.53,50.53,0,0,1,117.1,51.08Z"/><path class="cls-7" d="M54.76,99.75c.58.33,1.13.68,1.72,1a6.1,6.1,0,0,0,.57.29l.9.16,1.18-2.37a6.14,6.14,0,0,0-.39-1.19,10.5,10.5,0,0,1-.88-2.3,5.15,5.15,0,0,1,.68-4c1.05-1.45,2.92-3,3.21-4.89a3.18,3.18,0,0,1,.39-1.29c1.29-1.88,3.14-3.28,4.54-5.09,1.87-2.4,2.51-4.71,3.53-7.52.9-2.47,3.52-4.76,3.35-7.53-.23-3.71-4.33-3.9-7-5.15s-6-2.76-7.57-5.51c-1.47-2.51-2.3-6.62-4.85-8.27-1.2-.78-1.63.07-2.7-.19-.78-.18-1.48-.58-2.25-.79-2.38-.63-4.4,1.44-5.9,2.94-.6.61-2.62,2.72-3.59,1.44-1.58-2.11-2.44-7.69,1.66-6.83,2.42.51,5.48-1.85,4.27-4.48-.5-1.08-1.39-1.22-2.32-1.53a4.38,4.38,0,0,1-2.39-1.38c-.64-.86.84-1.84,1.43-2.08,1.53-.58,4.46-1.5,5.85-.18.92.88,2.33,3.12,3.72,2.9,3-.46,2.65-2.44,3.55-4.34,1-2.16,3.58-2,5.59-2,3.06.06,6-.82,8.94.22,2.39.83,3.06-1.25,3.86-3.11.51-1.18,1-2.37,1.43-3.55a21.55,21.55,0,0,0,1.53-4c.44-2.91-2.33-5.43-5.15-5.44-3.53,0-7,.81-10.54.28A4.67,4.67,0,0,1,58,12.56C56.84,11.17,56.28,9.22,54.2,9a.44.44,0,0,1-.32-.68c1.41-2.53,3.78-2,6.15-3,1.63-.7,2.4-2.43,3-4.32A50.55,50.55,0,0,0,21.28,29c1.29.06,3.22.12,3.81,1.09a4,4,0,0,1,.6,2.06c.15,1.82.77,2.33,2.25,2.9,4.5,1.73,2.51,9.23,5.28,12.35,1.1,1.24,4.18,4.79.87,5.69a20.88,20.88,0,0,1-3.88.32c-4.69.43-.19,4.76,1.36,6.14,3.22,2.93,1.29,4.88-.83,7.95-1.2,1.73,2,3.88,2.63,5.74,1,2.85.8,5.46,1.12,8.38.32,2.77,1.89,2.33,3.46,3.52a18.77,18.77,0,0,1,2.66,2.38c1.87,2,4.11,4,5.65,6.34,1.37,2.09,4.23,3,6.3,4.36C52.76,98.33,53.7,99,54.76,99.75Z"/><path class="cls-7" d="M94.57,9.32c-1.75,1.91-3,4-1.07,6.12,1.1,1.22,3.15,2.63,2.47,4.49-.28.79-1.49,1.31-2.24,1.44-2.84.5-2.4,4.35-2.31,6.55a25.06,25.06,0,0,1-.18,5c-.59,3.81,3.64,2.58,5.56,1.13.17-.13.55-.29.7,0a6.53,6.53,0,0,1,.59,2.72c.16,2.57,2.26,1.68,3.88,1.21s2.8-.76,4,.54c1,1.09-.39,3,2,3.53a3.11,3.11,0,0,1,2.09,1.37c1.25,1.54-.49,4.09-1,5.49-.11.34-.46.71-.84.49-1.92-1.12-5.3-3.94-6.77-1-.39.8-1,1.6-2,1.46-1.91-.26-5.59-3.31-6.68-.27a15.64,15.64,0,0,1-1.54,3.7A6.36,6.36,0,0,1,87.06,56c-4.59,1.21-1.48,4.28-.9,6.83A19.1,19.1,0,0,0,87,66.13c.67,1.6,2.28.55,3.25.44a3,3,0,0,1,2.72.76c1.55,1.62,3.92,4.1,2.36,6.43-.53.79-1.25,1.46-1.77,2.27-1.27,2-.15,3,.92,4.34a3.65,3.65,0,0,1,.83,3.48A6.86,6.86,0,0,1,93.93,86a10.91,10.91,0,0,0-1.93,4c-.36,1.33-.72,3-1.76,4-2,1.91-4.94,2-6.73,4.28-.23.3-.44.6-.66.91A50.55,50.55,0,0,0,94.57,9.32Zm9.07,17.08a10.09,10.09,0,0,1-3.12,4.29c-.21.17-.65.27-.75-.11a4.76,4.76,0,0,1,.34-3.79,3.51,3.51,0,0,1,3.19-1.34c.35,0,.44.29.36.56A.87.87,0,0,1,103.64,26.4Z"/><path class="cls-8" d="M40.06,35.66c-4.27-1.72-4.74-6.27-6.92-9.73a11.54,11.54,0,0,0-6.77-5.14A50.22,50.22,0,0,0,22.3,27c5.35-.34,10.29,2.23,10.64,9,.24,4.7-1.26,8.7-3.54,12.72C26.77,53.41,22.55,59,22.51,64.5c0,2.74,2.11,9.9,6.32,7.37,1.92-1.14,3.31-2.83,5-4.29,1.39-1.23,5.23-4.14,6.92-1.69,2.49,3.63-.45,8.51,2.87,12.21,6,6.7,10-3.49,12.29-7.92,1.26-2.5,3.07-5.55,6-6.25a9.47,9.47,0,0,1,4.17-.06c3.63.66,5.22-3.94,5-6.67-.23-3-2.85-12.68,1.77-14,3.34-.92,5.07,1.85,7.36,3.7,3.91,3.17,8.43-2.55,3.87-5.22a14.14,14.14,0,0,0-6.55-1.62c-4.39-.19-13.93.64-14-6,0-3.78,1.92-7.21,1.89-11,0-7.38-5.92-2.05-8.91.43-2.08,1.74-4.81,3.07-7.2,1-1-.87-1.48-2.35-2.09-3.5-.36-.67-.85-1.84-1.55-2.22-2.69-1.46-2.76,3-2.69,3.93.24,3.45,1.46,6.59.63,10C43.31,34.17,41.78,36.35,40.06,35.66Z"/><path class="cls-8" d="M23.52,47.08c2.06-3,4.21-6.68,2.84-10.43-1.55-4.3-5.08-4.89-7.58-1.67a50.31,50.31,0,0,0-2.06,24.71C18,54.73,20.63,51.24,23.52,47.08Z"/><path class="cls-8" d="M66.57.86A50.39,50.39,0,0,0,46.12,5.18c1.48,5,4.11,9.2,10.51,8.42,5.33-.67,9.86-4.09,15.31-2.42,3.22,1,4.58,4.09,4.57,7.16a15.38,15.38,0,0,1-1.81,5.93c-.84,1.83-2.52,4.89-.69,6.82a5.94,5.94,0,0,0,6.5,1.54c5.44-2.25.76-8.83,2.35-12.72,2.17-5.31,9.8-8,14.73-5.06,5.51,3.29,4,9.82-.1,13.67-3.08,2.88-11.35,9-4.51,12.68,3.29,1.76,7,1.59,10.35,2.88,5.87,2.24,6.67,7.45,2.74,12.07a14.62,14.62,0,0,1-8.82,4.68c-4.83.81-9.6-3.13-14.37-1.19-12.2,5,6.8,25.71-9.22,30.16-5.43,1.5-6-5.76-7.44-9.06-2.42-5.38-6-1.1-7.33,2.49-1.09,2.84-1.77,5.83-2.94,8.63-2.38,5.7-7.94,4.85-11.17.46-2.58-3.5-4.54-9.54-9.82-9.09-2.29.2-4.81.74-7.18.54A50.53,50.53,0,1,0,66.57.86Z"/><path class="cls-9" d="M47.72,29.78c1.37.31,1.84,2,2.46,3,1.86,3.18,2.25-.19,3-1.48s.52-2.13,2-2.82a17.64,17.64,0,0,1,4.7-1.25,23.71,23.71,0,0,1,6.45-.41c3.49.37,5.7.74,7.27-3.45.78-2,2.22-6.12-1.12-7-2.32-.62-4.29-.19-6.57.28a13.12,13.12,0,0,1-6.47,0c-1.7-.48-2.82-2.19-4.58-2.79-1.25-.43-3-.83-4-1.84-2.08-2.19.69-4.67,2.55-5.85a6.8,6.8,0,0,1,2.46-.56c2.71-.3,4-1.64,5.31-3.68l.52-.79A50.56,50.56,0,0,0,22,27.6a1.42,1.42,0,0,0,1,.33,4.37,4.37,0,0,1,.81,0c.56.15,1.42.36,1.7.93.85,1.73.85,4.88,3.52,5.12a3.94,3.94,0,0,1,2,.6c1.9,1.38.92,4.39,1.56,6.33a53.2,53.2,0,0,0,4.61,10.78A1,1,0,0,1,36.71,53c-1.79.8-3.62.79-5.49,1.26-3.88,1,2.37,4.79,3.09,5.64,3.08,3.63-.13,5.64-2.54,8.08a10.38,10.38,0,0,1,3.52,6c.72,3.92.59,8.13,3.78,11,2.88,2.63,5.88,4.85,8.5,7.76,3,3.34,6.73,4.74,10.53,6.62-.75-2.08-3.34-4.1-2.51-6.35,1-2.74,3.55-4.15,4.13-7.16.25-1.27,1.52-2.25,2.46-3,1.81-1.37,3.46-2.52,4.25-4.84a43.29,43.29,0,0,1,5.28-10.77c4.5-6.71-11.64-6.09-13.54-11.18-1.52-4-4.84-9-9.88-8.85-2.66.11-4.39,2.69-6.94,3.44-.32.75-.71,1.37-1.28,1.54-1.14.34-1.82-1-2.37-1.78C36.63,49,35.57,47.28,36,45.37s1.62-3.71,2.19-5.68c-.83-.58-2.59-1.31-2.74-2a17.82,17.82,0,0,1,0-4.38,1.12,1.12,0,0,1,.75-1C39.64,31.11,44,28.91,47.72,29.78Z"/><path class="cls-10" d="M47.72,29.78a3.11,3.11,0,0,1,1.81,1.71,9.67,9.67,0,0,0,1.3,2.19l.23.22.28.16a.6.6,0,0,0,.57-.15,3.66,3.66,0,0,0,.63-1.1c.15-.4.29-.81.48-1.2a12.2,12.2,0,0,0,.56-1.15,6.42,6.42,0,0,1,.54-1.16,2.63,2.63,0,0,1,1-.81c.37-.18.77-.32,1.18-.49l1.23-.35a45.42,45.42,0,0,1,5.07-.84,23.16,23.16,0,0,1,5.13.09,9,9,0,0,0,2.54,0,3.59,3.59,0,0,0,2.09-1.3,8,8,0,0,0,1.2-2.23,18.68,18.68,0,0,0,.77-2.44,6,6,0,0,0,.09-2.5,2.4,2.4,0,0,0-1.54-1.79,9.93,9.93,0,0,0-5-.22,34.58,34.58,0,0,1-5.08.76,12.56,12.56,0,0,1-2.59-.25,5.2,5.2,0,0,1-2.39-1c-.7-.51-1.34-1.08-2.06-1.51a11,11,0,0,0-2.36-.89,7.34,7.34,0,0,1-2.35-1.15,3.46,3.46,0,0,1-.46-.48,2.33,2.33,0,0,1-.36-.56A2.25,2.25,0,0,1,50,10a4.44,4.44,0,0,1,1.27-2.31,11.26,11.26,0,0,1,2-1.64,6.37,6.37,0,0,1,.6-.28l.67-.17c.43-.07.86-.13,1.29-.17a6.93,6.93,0,0,0,2.37-.71,6.3,6.3,0,0,0,1.89-1.6c.53-.65,1-1.38,1.45-2.09l.17.3-3.07.4-3,.58c-1,.24-2,.52-3,.78s-2,.64-2.94,1-1.92.76-2.88,1.14S44.94,6,44,6.45s-1.81,1-2.72,1.48S39.54,9,38.67,9.57s-1.67,1.2-2.51,1.8-1.59,1.31-2.4,2-1.52,1.4-2.28,2.09l-2.14,2.23-2,2.36L25.5,22.48l-1.71,2.58-1.53,2.68-.06-.37a1.06,1.06,0,0,0,.33.18l.2.05h.19l.89,0h0a3.51,3.51,0,0,1,1.68.78,1.79,1.79,0,0,1,.29.45,2.38,2.38,0,0,1,.16.4c.11.29.2.56.28.83A6.89,6.89,0,0,0,27.59,33a2.12,2.12,0,0,0,1.32.61,6.57,6.57,0,0,1,1.75.38l.42.23.1.06a.4.4,0,0,1,.11.09l.16.14a2.8,2.8,0,0,1,.6.76,4.91,4.91,0,0,1,.5,1.76c.13,1.17,0,2.31.23,3.35.11.48.35,1,.51,1.57l.56,1.61c.42,1,.79,2.11,1.24,3.14s.88,2.08,1.45,3l.81,1.49.1.17.07.15,0,.09a1.33,1.33,0,0,1,.08.32c0,.12,0,.2,0,.31a1.37,1.37,0,0,1-.58,1l-.14.08-.14.06-.21.07-.4.14c-.26.08-.52.2-.81.26-.57.12-1.18.27-1.73.35s-1.13.18-1.65.3a3.53,3.53,0,0,0-1.42.47.42.42,0,0,0-.18.4,1.39,1.39,0,0,0,.25.59,6.91,6.91,0,0,0,1.06,1.19c.81.75,1.71,1.4,2.61,2.15a2,2,0,0,1,.36.36l.27.34a5.73,5.73,0,0,1,.49.75A4,4,0,0,1,36,62.58a3.5,3.5,0,0,1-.43,1.84,6.83,6.83,0,0,1-1.06,1.46c-.78.87-1.65,1.6-2.44,2.39v-.55a17.85,17.85,0,0,1,1.83,2,9.89,9.89,0,0,1,1.32,2.46,13.46,13.46,0,0,1,.63,2.69l.38,2.67a15,15,0,0,0,1.43,5,7.75,7.75,0,0,0,1.55,2.05c.65.6,1.34,1.19,2,1.78l2,1.76c.68.58,1.35,1.21,2,1.81s1.27,1.27,1.92,1.9,1.24,1.27,1.89,1.9l1,.84c.36.27.72.51,1.08.76a26.52,26.52,0,0,0,2.29,1.36c.78.43,1.6.81,2.39,1.21l2.42,1.18-.39.34C57.28,98,56,96.8,55.4,95.16a3.52,3.52,0,0,1-.23-1.33,2.68,2.68,0,0,1,.11-.68l0-.16c0-.09.05-.1.07-.17l.13-.28.26-.57.34-.55a11.49,11.49,0,0,1,.73-1,11.76,11.76,0,0,0,2.5-4.15l.19-.61A2.6,2.6,0,0,1,59.8,85a4.57,4.57,0,0,1,.8-1,16.32,16.32,0,0,1,2-1.6,17,17,0,0,0,1.89-1.58,7.55,7.55,0,0,0,1.43-1.94c.65-1.48,1.12-3.11,1.83-4.63.36-.75.65-1.54,1.06-2.27s.8-1.48,1.21-2.2l1.33-2.12c.23-.35.44-.7.63-1.06a3.36,3.36,0,0,0,.36-1.11,2.19,2.19,0,0,0-.17-1.13,3,3,0,0,0-.71-.92,8,8,0,0,0-2.06-1.28c-1.51-.68-3.09-1.17-4.67-1.72a22.29,22.29,0,0,1-4.6-2,5.23,5.23,0,0,1-1.84-1.75,10.54,10.54,0,0,1-.5-1.17c-.17-.38-.32-.76-.51-1.13a17,17,0,0,0-2.75-4.1,8.85,8.85,0,0,0-4.1-2.6,6.24,6.24,0,0,0-2.43-.2l-.62.1-.56.21a6.5,6.5,0,0,0-1.09.54,20,20,0,0,1-4.32,2.51l.05-.05a4.59,4.59,0,0,1-.51,1,1.56,1.56,0,0,1-.89.65,1.35,1.35,0,0,1-1.06-.2,3.22,3.22,0,0,1-.74-.78c-.22-.28-.4-.59-.6-.87s-.41-.58-.6-.88-.36-.61-.53-.92a8.53,8.53,0,0,1-.4-1,5.35,5.35,0,0,1-.22-1v-.54a4.51,4.51,0,0,1,.07-.53,6.67,6.67,0,0,1,.29-1,8.49,8.49,0,0,1,.36-1l.84-1.94c.31-.64.5-1.31.75-2l0,.06c-.72-.49-1.54-.85-2.25-1.39a2,2,0,0,1-.45-.5,2.8,2.8,0,0,1-.12-.66,7.31,7.31,0,0,1-.07-1.32c0-.45,0-.89.05-1.33s0-.87.09-1.32a1.15,1.15,0,0,1,.81-1l1.24-.46L40,30.88c.42-.16.83-.29,1.26-.42a9.53,9.53,0,0,1,1.26-.37,9.61,9.61,0,0,1,1.29-.29,11.46,11.46,0,0,1,1.31-.18c.44,0,.89-.05,1.32,0Zm0,0-1.31-.17c-.43,0-.88,0-1.32,0a11.64,11.64,0,0,0-1.3.19,11.44,11.44,0,0,0-1.29.29c-.43.11-.85.23-1.27.37s-.84.27-1.24.43l-2.48.93-1.23.46a1.1,1.1,0,0,0-.79.93c0,.43,0,.88-.08,1.32s0,.88,0,1.32a7.11,7.11,0,0,0,.09,1.3,2.14,2.14,0,0,0,.11.64,1.45,1.45,0,0,0,.43.46c.69.54,1.51.89,2.25,1.38,0,0,0,0,0,.06-.25.66-.44,1.35-.75,2l-.83,1.94a9,9,0,0,0-.35,1,5.44,5.44,0,0,0-.28,1c0,.18-.06.34-.08.51l0,.52a4.42,4.42,0,0,0,.22,1,6.71,6.71,0,0,0,.4,1,8.21,8.21,0,0,0,.52.91c.18.3.4.58.6.87s.39.59.59.87a3.29,3.29,0,0,0,.71.73,1.18,1.18,0,0,0,1,.17,1.41,1.41,0,0,0,.77-.58,3.83,3.83,0,0,0,.48-.92s0,0,.07,0a19.75,19.75,0,0,0,4.25-2.52,9.32,9.32,0,0,1,1.14-.57l.61-.22.61-.1a6.43,6.43,0,0,1,2.51.2,9.06,9.06,0,0,1,4.23,2.65,17.19,17.19,0,0,1,2.82,4.15c.19.37.36.77.51,1.14s.32.79.5,1.13a5,5,0,0,0,1.75,1.65,23.12,23.12,0,0,0,4.54,1.93c1.58.54,3.18,1,4.71,1.71a8.39,8.39,0,0,1,2.17,1.33,3.75,3.75,0,0,1,.8,1,2.57,2.57,0,0,1,.2,1.31,3.86,3.86,0,0,1-.39,1.26c-.2.37-.43.74-.64,1.09l-1.32,2.11c-.41.72-.78,1.46-1.18,2.18s-.69,1.51-1,2.26c-.71,1.5-1.15,3.1-1.83,4.66a8.53,8.53,0,0,1-1.51,2.07,20,20,0,0,1-1.93,1.63c-1.31,1-2.75,2-3,3.61a12.19,12.19,0,0,1-2.58,4.34c-.24.33-.49.67-.69,1l-.31.51-.27.57-.12.29s-.06.11-.05.11l0,.14a1.76,1.76,0,0,0-.09.55A3,3,0,0,0,55.9,95c.55,1.48,1.82,2.67,2.47,4.32a.3.3,0,0,1-.16.37.31.31,0,0,1-.23,0h0l-2.42-1.16c-.82-.39-1.63-.77-2.43-1.2s-1.58-.88-2.34-1.38c-.37-.27-.75-.51-1.12-.78l-1.06-.89C48,93.63,47.32,93,46.7,92.33s-1.23-1.28-1.91-1.87-1.32-1.19-2-1.77l-2.05-1.76c-.66-.59-1.34-1.16-2-1.78A8.83,8.83,0,0,1,37,82.94a16.22,16.22,0,0,1-1.54-5.26L35.09,75a12.48,12.48,0,0,0-.6-2.55,9.61,9.61,0,0,0-1.22-2.25,17.12,17.12,0,0,0-1.77-2,.38.38,0,0,1,0-.54h0c.82-.83,1.69-1.57,2.42-2.38a3.92,3.92,0,0,0,1.26-2.74,3.13,3.13,0,0,0-.46-1.41,4,4,0,0,0-.43-.67L34,60.19s-.14-.14-.24-.22c-.85-.7-1.8-1.38-2.64-2.17a7.47,7.47,0,0,1-1.2-1.35,2.28,2.28,0,0,1-.37-1A1.32,1.32,0,0,1,30,54.39a4,4,0,0,1,1.77-.64c.58-.12,1.14-.21,1.69-.3s1.09-.21,1.63-.31c.26,0,.52-.18.79-.26l.41-.14.19-.06s.11,0,.06,0l0,0a.58.58,0,0,0,.25-.44s0-.09,0-.11,0,0,0-.1l0-.1h0s0,.08,0,0v0l0-.05-.1-.19-.82-1.51c-.57-1-1-2.07-1.45-3.11s-.84-2.13-1.26-3.19l-.54-1.61c-.17-.54-.39-1-.53-1.66-.23-1.2-.11-2.34-.23-3.43a4.26,4.26,0,0,0-.4-1.5,2.37,2.37,0,0,0-1.07-1,5.59,5.59,0,0,0-1.56-.33,2.92,2.92,0,0,1-1.7-.81,7.52,7.52,0,0,1-1.49-3.21c-.08-.26-.17-.54-.25-.78a3.89,3.89,0,0,0-.16-.38.83.83,0,0,0-.16-.28,3.2,3.2,0,0,0-1.38-.6h.05l-.76,0h0l-.3,0a1.08,1.08,0,0,1-.31-.07A1.34,1.34,0,0,1,22,28c-.1-.06-.18-.14-.28-.21a.29.29,0,0,1-.07-.36h0l1.56-2.71L25,22.13l1.89-2.49,2-2.37c.72-.75,1.44-1.51,2.18-2.24s1.52-1.43,2.3-2.11,1.61-1.33,2.44-2,1.68-1.23,2.55-1.81S40.13,8,41.05,7.5s1.81-1,2.74-1.48,1.87-.9,2.84-1.31,1.92-.78,2.91-1.13,2-.66,3-1,2-.53,3-.77l3.07-.57L61.69.9a.18.18,0,0,1,.22.16.14.14,0,0,1,0,.14h0a23,23,0,0,1-1.47,2.12A7,7,0,0,1,58.4,5a7.29,7.29,0,0,1-2.52.73c-.42,0-.85.1-1.25.16L54,6c-.18.09-.41.18-.56.26a10.37,10.37,0,0,0-1.95,1.58A3.93,3.93,0,0,0,50.33,10a2.3,2.3,0,0,0,.93,2.1,6.86,6.86,0,0,0,2.23,1.11,11.1,11.1,0,0,1,2.41.93c.76.45,1.39,1,2.08,1.52a5,5,0,0,0,2.29,1,11.9,11.9,0,0,0,2.52.25,36.33,36.33,0,0,0,5.05-.72,10,10,0,0,1,5.13.25,2.75,2.75,0,0,1,1.08.74,2.72,2.72,0,0,1,.56,1.19,6.12,6.12,0,0,1-.1,2.59,19.78,19.78,0,0,1-.77,2.44,8.84,8.84,0,0,1-1.24,2.28A3.78,3.78,0,0,1,70.31,27a8.86,8.86,0,0,1-2.57,0,22.32,22.32,0,0,0-5.1-.11,45.72,45.72,0,0,0-5.07.81l-1.23.35c-.39.16-.81.3-1.19.48a2.47,2.47,0,0,0-1,.78,5.29,5.29,0,0,0-.55,1.15,10.32,10.32,0,0,1-.58,1.15c-.18.38-.32.79-.48,1.19a3.83,3.83,0,0,1-.63,1.11.6.6,0,0,1-.61.15,1,1,0,0,1-.28-.16l-.24-.22a11.27,11.27,0,0,1-1.3-2.2A3.06,3.06,0,0,0,47.72,29.78Z"/><path class="cls-9" d="M115.73,51.46c-1.34-.48-3.43-2.35-4.76-.84-.21.24-.74.59-1.06.37l-.32.15-.17,0c0,.07,0,.14-.07.2-.18.43-.75.83-1.21.53a34.52,34.52,0,0,1-3.4-2.74c-1.34-1.12-3,1.48-3.75,2.32a.78.78,0,0,1-.75.22c-2.08-.63-6.29-2.54-6.85.77a4.59,4.59,0,0,1-1.59,2.93,23.47,23.47,0,0,1-4,2.71c-1.69,1.08-.41,6.73,2,6s4.62-.67,6.4,1.05c1.6,1.55,4.55,4.12,4.67,6.53a2.48,2.48,0,0,1-.62,1.9C98.5,75.26,97.26,77,98,79.45c1,3.23,1.21,3.91-.12,7.16A14.53,14.53,0,0,1,93.15,93,31.2,31.2,0,0,0,89,96.6a50.53,50.53,0,0,0,27.93-45A2.45,2.45,0,0,1,115.73,51.46Z"/><path class="cls-10" d="M115.73,51.46a24.64,24.64,0,0,0-2.92-1.32,2.18,2.18,0,0,0-.8-.07,1.4,1.4,0,0,0-.39.1,1.68,1.68,0,0,0-.34.2c-.21.15-.38.38-.61.53a.72.72,0,0,1-.77.1h0a2.22,2.22,0,0,1-.48.2h0a1.09,1.09,0,0,1-.86.84.73.73,0,0,1-.6-.21l-.5-.37-1-.76c-.33-.26-.64-.54-1-.81a12.53,12.53,0,0,0-1-.79,1.11,1.11,0,0,0-1.15,0,6.61,6.61,0,0,0-1.78,1.72l-.39.48a1.14,1.14,0,0,1-.5.42.94.94,0,0,1-.66,0l-.6-.2a21.9,21.9,0,0,0-2.4-.68,4.11,4.11,0,0,0-2.41.06,1.48,1.48,0,0,0-.5.3,1.85,1.85,0,0,0-.35.48l-.14.26c0,.09,0,.19-.07.29s-.1.41-.15.61a4.52,4.52,0,0,1-.15.61l-.24.61a6.06,6.06,0,0,1-.75,1c-.15.16-.27.31-.44.48l-.48.4a7.62,7.62,0,0,1-1,.76c-.72.49-1.45.89-2.15,1.33a1.57,1.57,0,0,0-.78.79A3.13,3.13,0,0,0,87.22,60a5.64,5.64,0,0,0,.45,2.36c.31.69.83,1.45,1.52,1.5a3.53,3.53,0,0,0,1.13-.24,10.52,10.52,0,0,1,1.27-.22,6.26,6.26,0,0,1,2.61.22A5.78,5.78,0,0,1,96.46,65c.6.57,1.22,1.14,1.81,1.75a9.63,9.63,0,0,1,2.81,4.33,4.07,4.07,0,0,1,.07.71,3.12,3.12,0,0,1-.05.66,2.57,2.57,0,0,1-.63,1.33,14.19,14.19,0,0,0-1.56,1.87,4.66,4.66,0,0,0-.72,2.17v.57a3,3,0,0,0,.11.58,8.23,8.23,0,0,0,.32,1.17,13.55,13.55,0,0,1,.55,2.55,6.43,6.43,0,0,1-.4,2.62c-.12.41-.29.8-.44,1.2s-.36.78-.53,1.17-.33.76-.55,1.13l-.69,1.11a7.24,7.24,0,0,1-.78,1c-.29.32-.55.66-.84,1-.66.57-1.29,1.18-1.94,1.68a29.59,29.59,0,0,0-3.79,3.21l-.43-.58,3-1.64,2.94-1.84,2.8-2c.87-.75,1.78-1.47,2.65-2.23s1.68-1.58,2.5-2.4,1.57-1.69,2.33-2.57,1.46-1.79,2.15-2.72,1.33-1.89,2-2.86,1.22-2,1.76-3,1.08-2.06,1.55-3.11.93-2.13,1.32-3.22.77-2.18,1.09-3.3.61-2.24.86-3.38.44-2.27.61-3.42.28-2.3.38-3.46l.16-3.48h-.58Zm0,0,.57.14h.58l-.11,3.48c-.1,1.16-.25,2.31-.37,3.47s-.4,2.28-.59,3.43-.57,2.26-.84,3.39-.72,2.21-1.07,3.32-.85,2.16-1.28,3.24-1,2.1-1.5,3.15-1.15,2-1.72,3-1.28,1.95-1.91,2.92-1.42,1.85-2.13,2.78-1.53,1.76-2.3,2.63-1.65,1.65-2.48,2.48-1.77,1.52-2.64,2.29l-2.81,2.1-2.94,1.91-3.07,1.7a.38.38,0,0,1-.5-.15.38.38,0,0,1,.06-.43h0A29.46,29.46,0,0,1,92.54,93c.66-.5,1.23-1.08,1.85-1.62.26-.3.51-.62.78-.93a6.25,6.25,0,0,0,.72-1l.65-1c.19-.35.35-.75.53-1.12s.38-.78.5-1.13A12.19,12.19,0,0,0,98,85.07a5.67,5.67,0,0,0,.36-2.31,10.88,10.88,0,0,0-.49-2.37,7.73,7.73,0,0,1-.45-2.59,5.31,5.31,0,0,1,.86-2.54,12.89,12.89,0,0,1,1.66-2,1.87,1.87,0,0,0,.43-.91,1.73,1.73,0,0,0,.06-.58,2.62,2.62,0,0,0-.06-.54,9.32,9.32,0,0,0-2.58-4c-.58-.6-1.18-1.17-1.77-1.76a5,5,0,0,0-2-1.26A5.69,5.69,0,0,0,91.65,64a8,8,0,0,0-1.18.19l-.62.16a1.83,1.83,0,0,1-.71.07,1.85,1.85,0,0,1-1.22-.7,3.84,3.84,0,0,1-.68-1.15A6,6,0,0,1,86.78,60a3.48,3.48,0,0,1,.28-1.29,1.58,1.58,0,0,1,.4-.59l.11-.1.1-.07,0-.05.28-.16c.72-.43,1.47-.82,2.16-1.27a7.4,7.4,0,0,0,1-.72l.48-.41c.14-.12.27-.29.41-.43a4,4,0,0,0,1.13-2.13c0-.21.09-.4.16-.62s0-.21.08-.3l.16-.3a2.06,2.06,0,0,1,.4-.52,2.43,2.43,0,0,1,.57-.35,4.4,4.4,0,0,1,2.54,0,19.72,19.72,0,0,1,2.41.73l.6.2a.69.69,0,0,0,.56,0c.37-.14.57-.55.86-.85A6.75,6.75,0,0,1,103.35,49a1.2,1.2,0,0,1,1.24,0c.36.24.64.53,1,.79s.64.56,1,.82l1,.76.5.38a.65.65,0,0,0,.55.2,1,1,0,0,0,.82-.8h0a2,2,0,0,0,.5-.21h0a.7.7,0,0,0,.74-.11c.22-.14.37-.36.61-.52a1.08,1.08,0,0,1,.35-.19A1.36,1.36,0,0,1,112,50a2.43,2.43,0,0,1,.81.07A24.12,24.12,0,0,1,115.73,51.46Z"/><path class="cls-9" d="M95.79,10.17a10,10,0,0,0-.74.7c-2.63,2.87,1.27,5.65,2.75,7.88.78,1.19,2.22,4.58,3.75,4.94s4.61.71,3.89,3c-.92,2.91-3.38,4.91-4.51,7.7v0a13.09,13.09,0,0,0-.44,1.29c-.17.62-.37,1.23.61,1.19a5.25,5.25,0,0,0,2.16-.68c1-.54,2-1.22,3-1.76a.8.8,0,0,1,.62-.07.49.49,0,0,1,.75.35c.5,2.08,3.53,1.12,3.73,3.34a16.46,16.46,0,0,1-.08,1.89,14.41,14.41,0,0,0,.64,1.65,2.78,2.78,0,0,0,.71.32l.09,0c1.23-.35,2.69-.48,3.43.68a5.12,5.12,0,0,1,.3.57A50.52,50.52,0,0,0,95.79,10.17Z"/><path class="cls-10" d="M95.79,10.17a4.68,4.68,0,0,0-1.45,2,3.11,3.11,0,0,0,.39,2.38,41.74,41.74,0,0,0,3.15,4c.49.72.87,1.48,1.31,2.2a11.43,11.43,0,0,0,1.44,2,2.3,2.3,0,0,0,.94.63c.38.1.81.17,1.23.27a5.2,5.2,0,0,1,2.43,1.05,1.79,1.79,0,0,1,.6,1.34,3.15,3.15,0,0,1-.11.73l-.23.6a12.46,12.46,0,0,1-1.22,2.31c-.47.72-1,1.41-1.45,2.1A17.82,17.82,0,0,0,101.54,34l-.25.57c-.06.14-.14.39-.21.57a12.09,12.09,0,0,0-.34,1.17c0,.19,0,.25,0,.23s.08,0,.12,0h.22a5.58,5.58,0,0,0,.61-.09c.17-.06.35-.08.55-.16a15.93,15.93,0,0,0,2.17-1.17l1.1-.66.55-.33.18-.08.27-.06A1.13,1.13,0,0,1,107,34l-.28,0a.89.89,0,0,1,.82,0,1,1,0,0,1,.47.64,1.53,1.53,0,0,0,.18.4.9.9,0,0,0,.24.29,5.94,5.94,0,0,0,1.73.78,2.84,2.84,0,0,1,1,.61,1.82,1.82,0,0,1,.57,1.12l0,.16a.79.79,0,0,1,0,.16V39c0,.35,0,.7-.07,1l0-.14.62,1.59-.14-.16a2.25,2.25,0,0,0,.31.16c.13,0,.23.1.37.13h-.22a7.09,7.09,0,0,1,1.15-.22,2.94,2.94,0,0,1,.6,0,2.64,2.64,0,0,1,.62.08,2.39,2.39,0,0,1,.62.21,1.2,1.2,0,0,1,.27.19,1.79,1.79,0,0,1,.26.2l.21.25.11.14,0,0,0,0h0l0,.06.26.48-.74.26-.45-2.44L115,38.43,114.32,36c-.25-.78-.54-1.56-.81-2.34s-.61-1.54-.92-2.3l-1-2.26c-.37-.75-.76-1.48-1.14-2.21s-.83-1.44-1.26-2.15-.89-1.39-1.34-2.09-1-1.34-1.45-2l-1.56-2-1.63-1.88-1.72-1.79-1.82-1.72-1.9-1.62Zm0,0,2,1.46,2,1.56,1.88,1.66,1.79,1.76,1.72,1.83,1.59,1.94c.49.67,1,1.33,1.51,2s.95,1.37,1.4,2.08.88,1.42,1.3,2.15.82,1.47,1.19,2.21.74,1.51,1.08,2.27.66,1.56,1,2.33.57,1.58.83,2.38l.72,2.41.6,2.45.48,2.47a.41.41,0,0,1-.31.46.39.39,0,0,1-.42-.2h0l-.25-.49,0-.06,0,0s0,0,0,0l0,0-.06-.09-.14-.17-.18-.13c-.07,0-.11-.1-.18-.11a1.62,1.62,0,0,0-.42-.15,1.91,1.91,0,0,0-.48-.06,2.8,2.8,0,0,0-.49,0,5.19,5.19,0,0,0-1,.21.61.61,0,0,1-.19,0h0c-.14,0-.31-.12-.46-.17a4,4,0,0,1-.46-.23.29.29,0,0,1-.14-.15v0l-.67-1.68a.36.36,0,0,1,0-.14h0c0-.34.06-.66.07-1V38.2s0-.12,0-.09l0-.1a1.07,1.07,0,0,0-.11-.37.78.78,0,0,0-.21-.3,2,2,0,0,0-.74-.44,6.2,6.2,0,0,1-2-.94,1.67,1.67,0,0,1-.41-.5,2.27,2.27,0,0,1-.23-.54,1.17,1.17,0,0,0-.07-.19.33.33,0,0,0-.17,0,.34.34,0,0,1-.22,0h-.06l-.14,0h0l-.14,0-.54.32-1.09.64-1.11.65a6.63,6.63,0,0,1-1.2.57c-.2.08-.46.13-.68.2s-.43.05-.64.08a2.8,2.8,0,0,1-.42,0,.65.65,0,0,1-.23-.06.48.48,0,0,1-.24-.13.73.73,0,0,1-.28-.5,1.24,1.24,0,0,1,0-.44,8.49,8.49,0,0,1,.38-1.26c.07-.21.11-.39.21-.63l.29-.59a15.39,15.39,0,0,1,1.34-2.22c.49-.71,1-1.38,1.48-2.07a12,12,0,0,0,1.19-2.17l.25-.59a1.7,1.7,0,0,0,.07-.51,1.13,1.13,0,0,0-.39-.92,4.65,4.65,0,0,0-2.16-1c-.41-.11-.82-.18-1.25-.3a2.78,2.78,0,0,1-1.14-.79A10.86,10.86,0,0,1,98.82,21c-.42-.74-.78-1.51-1.23-2.21a42.84,42.84,0,0,1-3-4.09,3.3,3.3,0,0,1-.33-2.51A4.81,4.81,0,0,1,95.79,10.17Z"/><path class="cls-9" d="M98.43,27.82a9.23,9.23,0,0,0-1.2-2.76,2.7,2.7,0,0,1-.14-.4,7.38,7.38,0,0,0-.81-2.09c-.64-1-2.07-.45-2.48.45a13.14,13.14,0,0,0-1.37,5c0,1.2-.08,2.7,1,3.48s2.69,0,3.63-.45A3.34,3.34,0,0,0,98.43,27.82Z"/><path class="cls-10" d="M98.43,27.82c-.16-.47-.33-.95-.51-1.42l-.74-1.31h0c-.19-.44-.3-.89-.47-1.31a4.39,4.39,0,0,0-.64-1.15c-.08-.07-.15-.19-.25-.22l-.23-.1-.27,0-.29,0a1.5,1.5,0,0,0-.87.72,4.75,4.75,0,0,0-.25.61l-.25.65-.41,1.28c-.1.43-.21.87-.29,1.31s-.11.86-.12,1.31a9.83,9.83,0,0,0,0,1.33,3.08,3.08,0,0,0,.31,1.2,1.54,1.54,0,0,0,.89.77,2.75,2.75,0,0,0,1.25,0,8.45,8.45,0,0,0,1.3-.39,2.54,2.54,0,0,0,1.12-.74,4.16,4.16,0,0,0,.63-1.22A3,3,0,0,0,98.43,27.82Zm0,0a2.93,2.93,0,0,1-.07,1.38,4.51,4.51,0,0,1-.58,1.26,2.74,2.74,0,0,1-1.1.87,7,7,0,0,1-1.32.54,3.07,3.07,0,0,1-1.49.09,2.06,2.06,0,0,1-1.24-.89,3.27,3.27,0,0,1-.52-1.43A10.12,10.12,0,0,1,92,28.2c0-.47.08-1,.12-1.45s.23-.93.34-1.39.32-.9.49-1.34a11.85,11.85,0,0,1,.64-1.29,2,2,0,0,1,1.3-.88l.41,0,.4.08a1.57,1.57,0,0,1,.38.22,1.45,1.45,0,0,1,.24.26,4.88,4.88,0,0,1,.59,1.33c.13.45.19.92.35,1.34h0L98,26.39C98.12,26.86,98.27,27.34,98.43,27.82Z"/><path class="cls-9" d="M44.54,38.76a2.12,2.12,0,0,0-3.22-.14.42.42,0,0,0-.23.28s0,.08,0,.12a1.48,1.48,0,0,0-.07.88A2.56,2.56,0,0,0,41.69,42c.81.74,2.41.25,3.08-.46A2.16,2.16,0,0,0,44.54,38.76Z"/><path class="cls-10" d="M44.54,38.76l-.35-.3c-.13-.09-.25-.16-.39-.24a3,3,0,0,0-.42-.14,3.32,3.32,0,0,0-.44-.06c-.15,0-.3,0-.44,0l-.4.16a4,4,0,0,0-.33.24l-.28.3-.08.06s-.06.07-.06.1,0,0,0,0v.12l0,.06c0,.12,0,.24,0,.35l.07.36v.08a3.86,3.86,0,0,0,.14,1,1.72,1.72,0,0,0,.42.76l0,0,0,0h0l0,0h0l.1.08a2,2,0,0,0,.23.14c.12,0,.18.09.35.09l.22,0h.25a3.93,3.93,0,0,0,.48-.06,3,3,0,0,0,.92-.4,1.58,1.58,0,0,0,.18-.15l.18-.2a1.65,1.65,0,0,0,.22-.44l0-.26v-.27a1.89,1.89,0,0,0-.08-.53A2.48,2.48,0,0,0,44.54,38.76Zm0,0a2.75,2.75,0,0,1,.32.44,2.27,2.27,0,0,1,.23.5,2.44,2.44,0,0,1,.14.53,2.72,2.72,0,0,1,0,.57,1.53,1.53,0,0,1-.16.58l-.14.23a1.29,1.29,0,0,1-.21.24,3.09,3.09,0,0,1-1,.67,3.16,3.16,0,0,1-.57.17,1.84,1.84,0,0,1-.62.06,2.38,2.38,0,0,1-.71-.15,2.75,2.75,0,0,1-.25-.15l-.12-.07h0l-.06,0v0l0,0-.06-.06a2.32,2.32,0,0,1-.61-1.14,3.74,3.74,0,0,1,0-1.2v-.45a3.8,3.8,0,0,1,.16-.51l0,.06,0-.13a.63.63,0,0,1,.1-.2.73.73,0,0,1,.29-.24l-.07.07.39-.32c.15-.08.31-.14.46-.21s.32-.06.47-.09l.48,0,.45.12.42.19c.13.08.26.16.38.25Z"/><g class="cls-11"><path class="cls-12" d="M36.2,32.29c3.44-1.18,7.79-3.38,11.52-2.51,1.37.31,1.84,2,2.46,3,1.86,3.18,2.25-.19,3-1.48s.52-2.13,2-2.82a17.64,17.64,0,0,1,4.7-1.25,23.71,23.71,0,0,1,6.45-.41c3.49.37,5.7.74,7.27-3.45.78-2,2.22-6.12-1.12-7-2.32-.62-4.29-.19-6.57.28a13.12,13.12,0,0,1-6.47,0c-1.7-.48-2.82-2.19-4.58-2.79-1.25-.43-3-.83-4-1.84-2.08-2.19.69-4.67,2.55-5.85a6.8,6.8,0,0,1,2.46-.56c2.71-.3,4-1.64,5.31-3.68l.52-.79A51.17,51.17,0,0,0,54.15,2.4a5.94,5.94,0,0,1-2,3.06c-2,1.5-10.15,5-5.82,7.75s4,3.41.57,6.47c-2.12,1.92-3.45,4.57-5.83,6.19a4.71,4.71,0,0,1-2.64.47,9,9,0,0,0-6.92,1.76c-.73.56-1.92,1.22-2.85.64-2.28-1.4-3.35-3.84-5.24-3.68-.51.83-1,1.67-1.46,2.54a1.42,1.42,0,0,0,1,.33,4.37,4.37,0,0,1,.81,0c.56.15,1.42.36,1.7.93.85,1.73.85,4.88,3.52,5.12a3.94,3.94,0,0,1,2,.6c1.9,1.38.92,4.39,1.56,6.33a53.2,53.2,0,0,0,4.61,10.78A1,1,0,0,1,36.71,53l-.42.17c1.54.6,2.87.32,4.93-.84,1.41-.8,3-1.91,4.69-2.15,3.43-.5,5.44,3.06,7,5.65,1.34,2.28-.7,4.58-2.33,6-2.87,2.55,3.22,7.84,3.3,11A2.82,2.82,0,0,1,53,75c-2.4,1.91-2.07,3.68-2.23,6.3a3.4,3.4,0,0,1-2.67,3c-1.45.23-2.35-2.55-2.74-3.49a15.35,15.35,0,0,0-1.85-3.9c-1.59-2-3.38,1.6-4.35,2.73-.24.3-.7.62-1.08.33a10,10,0,0,0-2-1.16,10.47,10.47,0,0,0,3,6.2c2.88,2.63,5.88,4.85,8.5,7.76,3,3.34,6.73,4.74,10.53,6.62-.75-2.08-3.34-4.1-2.51-6.35,1-2.74,3.55-4.15,4.13-7.16.25-1.27,1.52-2.25,2.46-3,1.81-1.37,3.46-2.52,4.25-4.84a43.29,43.29,0,0,1,5.28-10.77c4.5-6.71-11.64-6.09-13.54-11.18-1.52-4-4.84-9-9.88-8.85-2.66.11-4.39,2.69-6.94,3.44-.32.75-.71,1.37-1.28,1.54-1.14.34-1.82-1-2.37-1.78C36.63,49,35.57,47.28,36,45.37s1.62-3.71,2.19-5.68c-.83-.58-2.59-1.31-2.74-2a17.82,17.82,0,0,1,0-4.38A1.12,1.12,0,0,1,36.2,32.29Zm20-14a3.66,3.66,0,0,1,.5-.16c1.59-.33,3.28.77,4.59,1.51.41.24.19.83,0,1.14-1,1.68-3.28,2.94-5,3.76-1.23.59-3.82,1.9-5.14.8C48.65,23.21,53.23,17.27,56.17,18.27Z"/><path class="cls-12" d="M115.73,51.46c-1.34-.48-3.43-2.35-4.76-.84-.21.24-.74.59-1.06.37l-.32.15-.17,0c0,.07,0,.14-.07.2-.18.43-.75.83-1.21.53a34.52,34.52,0,0,1-3.4-2.74,1.1,1.1,0,0,0-.69-.27c.12.68.2,1.38.28,2.1.39,3.23,2.15,2.78,4.56,3.63,1.56.55,1.25,2.56,1,3.77-.78,4.52-1.85,8.52-7,9.14-.36,0-.57-.3-.59-.61-.21-2.3.8-4.59.56-6.87-.42-3.72-3.59-.07-4.81.3a5,5,0,0,1-3.95-.31c-3.07-1.37-4.89.66-6.31,3.14a1.63,1.63,0,0,0,1.88.9c2.26-.72,4.62-.67,6.4,1.05,1.6,1.55,4.55,4.12,4.67,6.53a2.48,2.48,0,0,1-.62,1.9C98.5,75.26,97.26,77,98,79.45c1,3.23,1.21,3.91-.12,7.16A14.53,14.53,0,0,1,93.15,93,31.2,31.2,0,0,0,89,96.6a50.53,50.53,0,0,0,27.93-45A2.45,2.45,0,0,1,115.73,51.46Z"/><path class="cls-12" d="M99.67,13.23c.1,1,.18,1.95.22,3,.16,4.54,5.14,2.65,6.77,5.95,1,2.06,2.08,6.9,1,9.11a4.44,4.44,0,0,1-2.26,2.39,7.51,7.51,0,0,0-3.23,3,6.09,6.09,0,0,0,1.12-.48c1-.54,2-1.22,3-1.76a.8.8,0,0,1,.62-.07.49.49,0,0,1,.75.35c.5,2.08,3.53,1.12,3.73,3.34a16.46,16.46,0,0,1-.08,1.89,14.41,14.41,0,0,0,.64,1.65,2.78,2.78,0,0,0,.71.32l.09,0c1.23-.35,2.69-.48,3.43.68a5.12,5.12,0,0,1,.3.57A50.51,50.51,0,0,0,99.67,13.23Z"/><path class="cls-12" d="M98.43,27.82a9.23,9.23,0,0,0-1.2-2.76,2.7,2.7,0,0,1-.14-.4,7.38,7.38,0,0,0-.81-2.09c-.64-1-2.07-.45-2.48.45a13.14,13.14,0,0,0-1.37,5c0,1.2-.08,2.7,1,3.48s2.69,0,3.63-.45A3.34,3.34,0,0,0,98.43,27.82Z"/><path class="cls-12" d="M44.54,38.76a2.12,2.12,0,0,0-3.22-.14.42.42,0,0,0-.23.28s0,.08,0,.12a1.48,1.48,0,0,0-.07.88A2.56,2.56,0,0,0,41.69,42c.81.74,2.41.25,3.08-.46A2.16,2.16,0,0,0,44.54,38.76Z"/></g><g class="cls-13"><path class="cls-14" d="M90.8,11.1c-5.4-4.82-7-7.41-18.12-9.31C60.15-.37,46,3.53,35.77,11.47A49.33,49.33,0,0,0,20,32.7a46.19,46.19,0,0,0-2.91,12.81c-.57,8.38,1.33,16.83,4.09,24.71a22.5,22.5,0,0,0,10.18,12.7c1.31.72,2.82-1.24,2.44-2.42-2.07-6.5,1.05-12.6,3.33-18.6,1.4-3.68,3.12-7.4,2-11.39-1.2-4.21-7-3.8-9.37-6.74-2.21-2.74,1.34-7.51,3-9.54,3.28-4.07,6.69-5,11.57-3.46C53.1,33.53,54.63,20.09,62.08,20c2.34,0,4.21,2.28,6.12,3.32a8.45,8.45,0,0,0,5.23,1c1.72-.14,3.47-1.69,4.71-2.73a45.41,45.41,0,0,1,7.92-5.3C88.07,15.2,93.45,13.47,90.8,11.1Z"/></g><path class="cls-15" d="M35.12,12.32s-31.65,26.6-11.81,62C23.31,74.32,8,40.08,35.12,12.32Z"/><path class="cls-16" d="M110.43,28.22s11.3,35.73-9.58,58.4C100.85,86.62,126.19,67.55,110.43,28.22Z"/><path class="cls-17" d="M117.15,51.08s0,.31,0,.91,0,1.5-.11,2.66a48.31,48.31,0,0,1-1.67,9.93,50.78,50.78,0,0,1-20.53,28.8,51.76,51.76,0,0,1-10.34,5.37,49.38,49.38,0,0,1-12.14,2.87,51.65,51.65,0,0,1-13.18-.25,49.2,49.2,0,0,1-6.65-1.47c-1.11-.29-2.19-.7-3.28-1.07S47,98,46,97.51A51.26,51.26,0,0,1,24.35,79.1,50.77,50.77,0,0,1,45.92,4.48a46.54,46.54,0,0,1,6.53-2.39A51,51,0,0,1,59.15.65a51.75,51.75,0,0,1,13.2-.2A49.91,49.91,0,0,1,84.49,3.39a50.85,50.85,0,0,1,30.87,34.19A47.68,47.68,0,0,1,117,47.51c.11,1.17.08,2.06.11,2.66S117.15,51.08,117.15,51.08Zm-.08,0s0-.31,0-.91,0-1.49-.13-2.65a48,48,0,0,0-1.72-9.89,48.89,48.89,0,0,0-6.52-14.13,50.56,50.56,0,0,0-49.4-22,48.74,48.74,0,0,0-6.57,1.42c-1.09.29-2.16.69-3.25,1.05s-2.15.79-3.19,1.28a50.08,50.08,0,0,0-.09,91.8c1.06.49,2.15.87,3.22,1.29s2.16.75,3.26,1a49.32,49.32,0,0,0,6.59,1.41,50.89,50.89,0,0,0,35.22-8,51.07,51.07,0,0,0,14.22-14.17,48.72,48.72,0,0,0,6.51-14.13,47.27,47.27,0,0,0,1.72-9.9c.12-1.15.09-2,.13-2.65S117.07,51.08,117.07,51.08Z"/><path class="cls-18" d="M24.57,52c-2.56-.87-3.68,1.73-5.89,2.31-1.31.35-3.26,1.4-4.56.85-.82-.35-1.77-1-2.72-.77A4.21,4.21,0,0,0,7.86,58.7a20.52,20.52,0,0,0-6.7,4.75c-1.37,1.41-.87,3.43.13,4.79C3,70.63,6.55,69.47,8.62,71.5c3.29,3.22,8.05.75,10.35-2.46,1.13-1.56,1.4-3.88,2.83-5.19.69-.63,3.09-.51,4-.8A4.6,4.6,0,0,0,28,61.52c1.55-1.92.67-3.68,3.56-4.42a3.41,3.41,0,0,0,2.51-2.77C35.26,49.18,26,52.55,24.57,52Z"/><path class="cls-19" d="M24.54,52.13a2.74,2.74,0,0,0-2.37.22c-.71.43-1.32,1-2,1.51a5.07,5.07,0,0,1-1.13.66c-.41.17-.81.29-1.19.45a10.87,10.87,0,0,1-2.49.83,5.9,5.9,0,0,1-.74,0,5,5,0,0,1-.77-.17c-.39-.15-.8-.34-1.15-.45a2.75,2.75,0,0,0-1-.16.44.44,0,0,1-.16,0l-.3.11a2.43,2.43,0,0,0-.56.21l-.44.22c-.14.09-.28.21-.41.31s-.24.24-.37.36a1.54,1.54,0,0,0-.3.42,1.12,1.12,0,0,0-.24.44,1.76,1.76,0,0,0-.18.5,5.12,5.12,0,0,0-.17,1.05l0,.48-.42.19c-.61.29-1.23.57-1.83.87s-1.2.68-1.77,1-1.14.8-1.67,1.24l-.79.69-.39.34-.21.17-.14.16a3.08,3.08,0,0,0-.18,3.61A3.57,3.57,0,0,0,2.46,69a6.12,6.12,0,0,0,1.91.68A9.77,9.77,0,0,1,8.54,71l.85.66a4.94,4.94,0,0,0,.82.49,4.67,4.67,0,0,0,1.88.37,6.92,6.92,0,0,0,3.63-1.29,9.63,9.63,0,0,0,2.73-2.78c.69-1.09,1-2.45,1.75-3.85a5.4,5.4,0,0,1,.72-1l.23-.24,0-.06h0c-.1.07.14-.12.13-.11h0l.12-.07a1.25,1.25,0,0,1,.25-.15c.13,0,.26-.11.4-.15a3,3,0,0,1,.65-.18l.58-.09c.38,0,.73-.08,1.08-.11a9.53,9.53,0,0,0,.95-.13l.1,0h.06l-.05,0h0l.25-.1a2,2,0,0,0,.44-.2,2.2,2.2,0,0,1,.3-.19l.33-.28c.11-.09.21-.21.31-.31l.13-.13.16-.21a6.41,6.41,0,0,0,.82-1.68A5.79,5.79,0,0,1,28.77,58a3,3,0,0,1,1-1,4.1,4.1,0,0,1,1.18-.53l.29-.08.07,0h.06s-.09,0,0,0l.13,0a3.56,3.56,0,0,0,.46-.15,2.62,2.62,0,0,0,1.19-1.07,4.27,4.27,0,0,0,.37-.84c0-.09.08-.32.13-.48a2.6,2.6,0,0,0,0-.4,1.24,1.24,0,0,0-.78-1.28,5,5,0,0,0-1.94-.4,16.72,16.72,0,0,0-2.11.07c-.7.07-1.4.15-2.1.25a6.48,6.48,0,0,1-2.16.1Zm.05-.16a7,7,0,0,0,2.07-.17l2.09-.38c.71-.11,1.41-.23,2.15-.28a6,6,0,0,1,2.24.21,2.36,2.36,0,0,1,1,.74,2.19,2.19,0,0,1,.49,1.24,3.53,3.53,0,0,1,0,.65c0,.2,0,.32-.08.56a5,5,0,0,1-.36,1.16,3.81,3.81,0,0,1-1.78,1.86,2.9,2.9,0,0,1-.54.23l-.5.17a3,3,0,0,0-.74.37,2.46,2.46,0,0,0-.83,1.36,8.14,8.14,0,0,1-1,2.14,5.61,5.61,0,0,1-1.92,1.7,2.83,2.83,0,0,1-.51.24l-.25.1h0l-.09,0,0,0H26l-.18,0a9.15,9.15,0,0,1-1.16.16l-1,.1c-.16,0-.34,0-.47.06a2.13,2.13,0,0,0-.38.08h-.11a1.47,1.47,0,0,0-.21.11l-.11.07,0,0s.21-.16.1-.08h0l0,0-.14.15a3.82,3.82,0,0,0-.54.7,19.32,19.32,0,0,0-.87,1.82,11,11,0,0,1-.45,1l-.28.54a4.43,4.43,0,0,1-.29.46A9,9,0,0,1,18.26,71a11.44,11.44,0,0,1-1.82,1.35,9.16,9.16,0,0,1-2.09.94,7.11,7.11,0,0,1-2.3.26,5.65,5.65,0,0,1-2.23-.63,6.61,6.61,0,0,1-1-.65l-.78-.72c-1-.86-2.44-1-3.83-1.36a6.57,6.57,0,0,1-2.07-.76A4.4,4.4,0,0,1,.66,67.78,4.9,4.9,0,0,1,0,65.62a4,4,0,0,1,.11-1.18l.26-.59a2.08,2.08,0,0,1,.3-.45,1.57,1.57,0,0,1,.18-.25L1,63l.38-.39.76-.78c.52-.5,1.08-1,1.63-1.45S5,59.48,5.6,59.05s1.3-.69,2-1l-.46.67a6.33,6.33,0,0,1,.21-1.43,3.4,3.4,0,0,1,.24-.7,3.24,3.24,0,0,1,.36-.66,3.68,3.68,0,0,1,.45-.59,4.43,4.43,0,0,1,.55-.51,7.45,7.45,0,0,1,.62-.42l.7-.32a3.36,3.36,0,0,1,.63-.18l.29-.08a2.58,2.58,0,0,1,.48-.06,3.31,3.31,0,0,1,1.49.34c.44.2.77.4,1.15.59a3.43,3.43,0,0,0,.45.16,3,3,0,0,0,.53,0,9.8,9.8,0,0,0,2.37-.51c.4-.13.82-.23,1.22-.32a5.08,5.08,0,0,0,1.1-.49c.71-.41,1.34-1,2.12-1.38a3.58,3.58,0,0,1,1.24-.38,3.37,3.37,0,0,1,1.27.18Z"/><path class="cls-18" d="M121.65,22c-2.8-2.27-5.65,1.53-8.27,1.64-2.3.1-4.93-.36-6.82.85a3.4,3.4,0,0,0-2.39.72c-1.18.93-1.07,2.62-2.1,3.48C100.46,30.09,99.14,31,98.31,33c-1.88,4.41-7.82,4.09-11.75,6.21-2.62,1.4-5.43,4-4.45,7.26a1.52,1.52,0,0,0,1.34,1.08,4.24,4.24,0,0,0,3-.74c2.28-1.28,4.35-1.35,6.9-1.26a12.06,12.06,0,0,0,5.16-1.07c2.23-.93,5.27.36,7.68.14,1.39-.13,2.62-1.65,3.49-2.58,1.81-2,3.22-4.13,5.31-5.91,2.64-2.27,5.31-3.93,7.14-7C123.34,27.14,123.59,23.59,121.65,22Z"/><path class="cls-19" d="M121.61,22.09a3.94,3.94,0,0,0-.84-.48,1.76,1.76,0,0,0-.46-.14,1.48,1.48,0,0,0-.47,0,2.78,2.78,0,0,0-1,.11,5.27,5.27,0,0,0-.92.33c-.6.28-1.16.62-1.74.95a11.34,11.34,0,0,1-1.8.94l-.5.16-.56.08-1,.06c-.68,0-1.35,0-2,.08-.33,0-.65,0-1,.08a7,7,0,0,0-.93.17,4.7,4.7,0,0,0-.85.28,6.07,6.07,0,0,0-.76.4l-.22.1h-.16a2.84,2.84,0,0,0-2.06.79,9.11,9.11,0,0,0-1.12,2.32,3.56,3.56,0,0,1-.52.74,3.4,3.4,0,0,1-.32.33l-.28.22-1.07.9a8.11,8.11,0,0,0-1.77,1.9,3.92,3.92,0,0,0-.33.56l-.34.63a6.91,6.91,0,0,1-.89,1.28,7.26,7.26,0,0,1-2.47,1.74,37,37,0,0,1-5.49,1.66,13.06,13.06,0,0,0-5,2.36,8,8,0,0,0-1.85,2,4.54,4.54,0,0,0-.75,2.5,4.48,4.48,0,0,0,.07.64c0,.11.06.21.08.32l0,.15v.1c0,.06,0-.06,0,0v0l.16.32c.06.12.12.09.17.16a.62.62,0,0,0,.19.12,1.45,1.45,0,0,0,.25.1l.25.07.36,0a2.27,2.27,0,0,0,.58,0,4.18,4.18,0,0,0,1.18-.42c.18-.11.39-.22.57-.34l.65-.36a7.24,7.24,0,0,1,.68-.31,4.28,4.28,0,0,1,.72-.28,11.1,11.1,0,0,1,2.94-.53c.5,0,1,0,1.46,0h.72l.66,0,.7,0,.62-.11a7.24,7.24,0,0,0,1.26-.31,10.71,10.71,0,0,0,1.27-.45l.32-.12.16-.06.08,0,.18-.05a5.41,5.41,0,0,1,.7-.19l.87-.1c.29,0,.52,0,.78,0,.52,0,1,.08,1.5.12.93.12,1.87.26,2.73.3a4.41,4.41,0,0,0,.63,0h.31l-.08,0h.07l.08,0,.17,0,.18,0,.09,0a.53.53,0,0,1,.17-.08c.14-.1.31-.19.46-.31a35.29,35.29,0,0,0,3.73-4c.58-.71,1.26-1.43,1.91-2.14a24.72,24.72,0,0,1,2.19-1.94c1.5-1.19,3.1-2.2,4.47-3.43a14.37,14.37,0,0,0,1.86-2,6.27,6.27,0,0,0,1.26-2.41,6.89,6.89,0,0,0,.17-2.75,3.92,3.92,0,0,0-1.26-2.39Zm.1-.13a4.12,4.12,0,0,1,1.38,2.49,7.44,7.44,0,0,1,0,2.86,6.22,6.22,0,0,1-.42,1.42A7.81,7.81,0,0,1,122,30a16.31,16.31,0,0,1-1.75,2.31c-1.32,1.43-2.8,2.65-4.19,3.89-.35.31-.67.63-1,1s-.65.63-.94,1c-.6.71-1.19,1.4-1.8,2.15s-1.21,1.46-1.81,2.19a14.28,14.28,0,0,1-2.13,2.13,6.49,6.49,0,0,1-.73.46l-.48.21-.23.09-.17,0-.17,0-.1,0h0c-.21,0-.07,0-.13,0l-.4,0a6.71,6.71,0,0,1-.78,0c-1,0-2-.24-2.88-.37a11.1,11.1,0,0,0-2.5-.13,5.83,5.83,0,0,0-.66.17l-.18.05-.08,0h0s.15,0,.06,0l0,0-.35.13a11.64,11.64,0,0,1-1.41.46,9.82,9.82,0,0,1-1.49.32l-.77.11-.71,0h-.76l-.7,0c-.46,0-.92,0-1.37,0a9.66,9.66,0,0,0-2.64.35,5.45,5.45,0,0,0-.61.2,3.65,3.65,0,0,0-.62.23l-.62.29c-.22.12-.44.22-.67.32a5,5,0,0,1-1.52.44,3.75,3.75,0,0,1-.82,0L83.4,48a3.6,3.6,0,0,1-.42-.13c-1.29-.42-1.44-1.81-1.42-2.75a5.29,5.29,0,0,1,1-2.81,9.33,9.33,0,0,1,2-2.1A14,14,0,0,1,87,38.67a22.28,22.28,0,0,1,2.68-1,28.71,28.71,0,0,0,5.24-1.95,6.6,6.6,0,0,0,2-1.63,5.4,5.4,0,0,0,.63-1.1l.29-.63a7.37,7.37,0,0,1,.34-.69,9.46,9.46,0,0,1,2-2.32c.36-.33.73-.61,1.09-.92l.27-.23a1,1,0,0,0,.18-.18,3.05,3.05,0,0,0,.29-.42c.17-.36.33-.78.53-1.25a7.28,7.28,0,0,1,.37-.74,3.39,3.39,0,0,1,.56-.67,4,4,0,0,1,3.12-1.05l-.38.1a7.67,7.67,0,0,1,1-.45,7.28,7.28,0,0,1,1.06-.24,7.71,7.71,0,0,1,1.06-.09c.35,0,.68,0,1,0,.68,0,1.34.07,2,.11l1,0,.44,0,.46-.1a36,36,0,0,0,3.59-1.6,7.8,7.8,0,0,1,1-.3,3.77,3.77,0,0,1,1-.1,1.79,1.79,0,0,1,.51.07,1.64,1.64,0,0,1,.49.15,3.72,3.72,0,0,1,.86.52Z"/><path class="cls-18" d="M64.88,61.39a1.79,1.79,0,0,0-2.58-1A12.83,12.83,0,0,0,60,61.76c-1.66,1.2-3.74-.11-5.5.19-2.47.41-4.44,1.39-7,1.6A8,8,0,0,0,42.25,66a20.44,20.44,0,0,0-2.49,3.36c-.86,1.36-2.73,2.11-4,3a3,3,0,0,0-1.15,2.43c-1.53.71-2.43,3.33-.16,3.66a16.82,16.82,0,0,0,8.27-1.27A18.81,18.81,0,0,0,46.35,75c2.62-1.74,4.84-2,7.82-2.26,3.17-.31,6.3-3.18,8.67-5A5.92,5.92,0,0,0,64.88,61.39Z"/><path class="cls-19" d="M64.79,61.42a1.4,1.4,0,0,0-.6-.87,2,2,0,0,0-1-.26,2.25,2.25,0,0,0-1,.34c-.32.2-.67.37-1,.58l-.9.69-.11.08-.13.09a1.46,1.46,0,0,1-.24.17,3,3,0,0,1-.62.26,5.85,5.85,0,0,1-2.42.09,6.51,6.51,0,0,0-2.1,0c-.66.19-1.47.36-2.16.6s-1.42.44-2.19.64a16.12,16.12,0,0,1-2.34.44l-.3,0-.26,0-.56.06a9.73,9.73,0,0,0-1,.21,6.92,6.92,0,0,0-1.94.78A5.9,5.9,0,0,0,43,66l-.39.33-.38.42a16.84,16.84,0,0,0-1.47,1.73l-.65.91a5.21,5.21,0,0,1-.79.91,10.67,10.67,0,0,1-1.92,1.36l-1,.59a3.75,3.75,0,0,0-.86.66,3,3,0,0,0-.65,1.91V75l-.21.11a2.42,2.42,0,0,0-1.21,1.84c-.05.74.47,1,1.33,1l.67,0,.63,0c.41,0,.84-.07,1.26-.11a15.87,15.87,0,0,0,2.53-.55c.84-.23,1.67-.53,2.48-.84a10.9,10.9,0,0,0,1.12-.58c.33-.21.66-.42,1-.68l1.11-.79c.43-.3.78-.5,1.17-.75a12.38,12.38,0,0,1,2.71-1.11c.46-.15.92-.22,1.39-.33s.93-.14,1.38-.18l1.35-.13.35,0h0s.08,0-.06,0h0l.08,0,.17,0,.66-.12a2.21,2.21,0,0,0,.58-.17l.54-.18c.38-.13.77-.34,1.15-.51s.76-.41,1.14-.61l1.13-.69c.73-.49,1.47-1,2.2-1.51.36-.26.78-.53,1.08-.78l.53-.42c.15-.15.28-.31.43-.46A5,5,0,0,0,64.85,64a7.06,7.06,0,0,0-.06-2.63Zm.17,0a8.47,8.47,0,0,1,.15,2.71,6.27,6.27,0,0,1-1,2.59l-.42.58-.48.48c-.35.36-.66.63-1,.93-.65.62-1.32,1.23-2,1.83-.35.29-.71.58-1.08.86s-.76.54-1.16.79-.82.47-1.28.67l-.71.29a4.74,4.74,0,0,1-.7.23l-.67.13-.16,0-.09,0-.15,0-.33,0c-.45,0-.89.1-1.32.17a18.12,18.12,0,0,0-2.52.48,11.67,11.67,0,0,0-2.27.9c-.37.22-.82.46-1.13.67l-1.12.73c-.36.26-.8.51-1.24.77a11.25,11.25,0,0,1-1.3.6,26.11,26.11,0,0,1-2.65.79,17.34,17.34,0,0,1-2.77.43,11.18,11.18,0,0,1-1.42,0l-.73,0L34.73,79l-.32,0c-.18,0-.28-.07-.42-.1a2.24,2.24,0,0,1-.77-.42,1.74,1.74,0,0,1-.57-1.63,3.17,3.17,0,0,1,1.81-2.35l-.18.3a3.6,3.6,0,0,1,.91-2.29,9.52,9.52,0,0,1,2-1.3,10.36,10.36,0,0,0,1.78-1.31A12.27,12.27,0,0,0,40.22,68a17.11,17.11,0,0,1,1.31-1.89l.34-.47.44-.46a8,8,0,0,1,.94-.8A8.61,8.61,0,0,1,46.64,63l.57-.09.31,0,.27-.06a16,16,0,0,0,2.13-.42c.72-.17,1.48-.38,2.24-.58s1.46-.29,2.3-.43a7.61,7.61,0,0,1,2.43.32,5.25,5.25,0,0,0,2.12.21,2.33,2.33,0,0,0,.47-.14,1.79,1.79,0,0,0,.24-.12l.1-.06.14-.07,1-.6,1-.5a2.49,2.49,0,0,1,1.16-.29,2.11,2.11,0,0,1,1.14.31,1.66,1.66,0,0,1,.67,1Z"/><path class="cls-20" d="M32.45,51.56c.3,1.75-.85,3.06-2.85,3.85-1.52.59-3.48.85-4.83,1.78-1.08.76-1.5,2.4-2.84,2.86-3,1.06-5.89,1.06-8.46,3.3-1.63,1.41-3.27,3.43-5.41,4.12s-5.18,0-7.62-1a4.81,4.81,0,0,0,.85,1.78C3,70.63,6.55,69.47,8.62,71.5c3.29,3.22,8.05.75,10.35-2.46,1.13-1.56,1.4-3.88,2.83-5.19.69-.63,3.09-.51,4-.8A4.6,4.6,0,0,0,28,61.52c1.55-1.92.67-3.68,3.56-4.42a3.41,3.41,0,0,0,2.51-2.77C34.46,52.61,33.7,51.84,32.45,51.56Z"/><path class="cls-20" d="M121.65,22a3,3,0,0,0-1.57-.71c1,1.86-.11,4.51-2.24,5.83C115,29,109,27,110.08,32.67c.46,2.34.24,4-1.4,5.76-1.37,1.47-4.05.09-5.73.73-2.54,1-4.54,3.36-7.24,3.9a8.28,8.28,0,0,1-3.47,0c-2.61-.55-4.39-.53-6.39,1.52-.9.91-1.83,1.78-3,1.26a5.35,5.35,0,0,0-.69.65,1.55,1.55,0,0,0,1.29,1,4.24,4.24,0,0,0,3-.74c2.28-1.28,4.35-1.35,6.9-1.26a12.06,12.06,0,0,0,5.16-1.07c2.23-.93,5.27.36,7.68.14,1.39-.13,2.62-1.65,3.49-2.58,1.81-2,3.22-4.13,5.31-5.91,2.64-2.27,5.31-3.93,7.14-7C123.34,27.14,123.59,23.59,121.65,22Z"/><path class="cls-20" d="M64.19,60.44A12.65,12.65,0,0,1,63.78,62a7.63,7.63,0,0,1-2.5,3.53,7.93,7.93,0,0,1-4.17,1.67c-2.15.21-3.34-.49-5.34-.87-3.13-.58-4.17,2.9-6.17,4.56a7.05,7.05,0,0,1-4.45,1.39c-1.7-.18-2.36,2.35-3.91,3A5.71,5.71,0,0,1,34,75.21c-1.1,1-1.46,2.94.47,3.22a16.82,16.82,0,0,0,8.27-1.27A18.81,18.81,0,0,0,46.35,75c2.62-1.74,4.84-2,7.82-2.26,3.17-.31,6.3-3.18,8.67-5a5.92,5.92,0,0,0,2-6.25A1.41,1.41,0,0,0,64.19,60.44Z"/></g></g></g></svg>