<svg xmlns="http://www.w3.org/2000/svg" xmlns:xlink="http://www.w3.org/1999/xlink" viewBox="0 0 104.36 105.46"><defs><style>.cls-1{mask:url(#mask);}.cls-16,.cls-17,.cls-2,.cls-3{mix-blend-mode:multiply;}.cls-2{fill:url(#radial-gradient);}.cls-19,.cls-3{fill:url(#radial-gradient-2);}.cls-4{isolation:isolate;}.cls-5{fill:#9c2b18;}.cls-6{fill:#1a1818;}.cls-7{fill:#eb482f;}.cls-8{fill:#ef6732;}.cls-9{fill:#e71b2c;}.cls-10{fill:#f27b34;}.cls-11{fill:#c20024;}.cls-12{fill:#f06b32;}.cls-13{fill:#ea3c2e;}.cls-14{fill:#6b0811;}.cls-15{fill:#830016;opacity:0.6;}.cls-16{fill:url(#radial-gradient-3);}.cls-17{fill:#4c1400;opacity:0.7;}.cls-18{mask:url(#mask-3);}.cls-19{mix-blend-mode:screen;}.cls-20{fill:#fff;}.cls-20,.cls-21{mix-blend-mode:overlay;}.cls-21{fill:#fffcd3;opacity:0.5;}.cls-22{filter:url(#luminosity-noclip);}</style><filter id="luminosity-noclip" x="1.12" y="-8439.08" width="76.35" height="32766" filterUnits="userSpaceOnUse" color-interpolation-filters="sRGB"><feFlood flood-color="#fff" result="bg"/><feBlend in="SourceGraphic" in2="bg"/></filter><mask id="mask" x="1.12" y="-8439.08" width="76.35" height="32766" maskUnits="userSpaceOnUse"><g class="cls-22"/></mask><radialGradient id="radial-gradient" cx="-77.57" cy="252.06" r="70.4" gradientTransform="translate(183.89 -165.06) rotate(10.02)" gradientUnits="userSpaceOnUse"><stop offset="0"/><stop offset="0.24" stop-color="#020202"/><stop offset="0.37" stop-color="#0b0b0b"/><stop offset="0.48" stop-color="#191919"/><stop offset="0.58" stop-color="#2d2d2d"/><stop offset="0.67" stop-color="#474747"/><stop offset="0.75" stop-color="#676767"/><stop offset="0.83" stop-color="#8c8c8c"/><stop offset="0.9" stop-color="#b8b8b8"/><stop offset="0.97" stop-color="#e9e9e9"/><stop offset="1" stop-color="#fff"/></radialGradient><radialGradient id="radial-gradient-2" cx="-73.39" cy="252.49" r="70.4" gradientTransform="translate(183.89 -165.06) rotate(10.02)" gradientUnits="userSpaceOnUse"><stop offset="0"/><stop offset="0.37" stop-color="#020202"/><stop offset="0.51" stop-color="#090909"/><stop offset="0.6" stop-color="#141414"/><stop offset="0.68" stop-color="#252525"/><stop offset="0.75" stop-color="#3b3b3b"/><stop offset="0.8" stop-color="#575757"/><stop offset="0.86" stop-color="#777"/><stop offset="0.91" stop-color="#9d9d9d"/><stop offset="0.95" stop-color="#c8c8c8"/><stop offset="0.99" stop-color="#f6f6f6"/><stop offset="1" stop-color="#fff"/></radialGradient><radialGradient id="radial-gradient-3" cx="-140.61" cy="209.02" r="100.29" gradientTransform="translate(183.89 -165.06) rotate(10.02)" gradientUnits="userSpaceOnUse"><stop offset="0.55" stop-color="#fff"/><stop offset="0.63" stop-color="#fdfcfc"/><stop offset="0.69" stop-color="#f8f2f3"/><stop offset="0.74" stop-color="#eee2e3"/><stop offset="0.79" stop-color="#e1cbcd"/><stop offset="0.84" stop-color="#d0aeb1"/><stop offset="0.88" stop-color="#bb898d"/><stop offset="0.92" stop-color="#a25e64"/><stop offset="0.97" stop-color="#852e35"/><stop offset="1" stop-color="#6b0009"/></radialGradient><mask id="mask-3" x="1.12" y="2.6" width="76.35" height="81.48" maskUnits="userSpaceOnUse"><g class="cls-1"><path class="cls-2" d="M7.17,72c-.56-2.09-.88-6,2.23-6s7.39.16,7.06-4.38c-.19-2.77-1.36-5.24-2.45-7.76-2.18-5-5.53-12.61.05-16.76,2.64-2,5.82-2.36,8.92-3.18,4.24-1.13,6.38-3.77,8.51-7.45.35-.59.93-2.31,1.74-2.51,1.49-.36.87-1.19.76-2.22-.15-1.26,1.39-3.6,2.19-4.59,2.11-2.63,7.08-1.85,10-1.49,4.12.51,27.49,5.78,25.19-3-.51-1.93-2.53-4.85.86-4.95a21.69,21.69,0,0,1,5.24.91,51.91,51.91,0,0,0-67.1,75.37C11.66,81.06,7.86,74.57,7.17,72Z"/></g></mask><filter id="luminosity-noclip-3" x="1.12" y="2.6" width="76.35" height="81.48" filterUnits="userSpaceOnUse" color-interpolation-filters="sRGB"><feFlood flood-color="#fff" result="bg"/><feBlend in="SourceGraphic" in2="bg"/></filter></defs><g class="cls-4"><g id="Layer_2" data-name="Layer 2"><g id="Layer_1-2" data-name="Layer 1"><path class="cls-5" d="M103.42,61.85A51.92,51.92,0,1,1,61.33,1.69,51.92,51.92,0,0,1,103.42,61.85Z"/><path class="cls-6" d="M103.5,61.86s-.06.32-.18.92-.26,1.51-.58,2.67a50.2,50.2,0,0,1-3.44,9.78,53.68,53.68,0,0,1-8.92,13.4A52.17,52.17,0,0,1,73.45,101,54.06,54.06,0,0,1,62,104.6a50.38,50.38,0,0,1-12.89.75,51.55,51.55,0,0,1-26-9.08A53.66,53.66,0,0,1,4.46,73.66,52.41,52.41,0,0,1,.42,59,55.85,55.85,0,0,1,0,51.36a58.63,58.63,0,0,1,.71-7.68A56.16,56.16,0,0,1,2.52,36.2a54,54,0,0,1,2.89-7.15A52.38,52.38,0,0,1,39.62,1.55,51,51,0,0,1,53.81,0c1.17.06,2.34.09,3.48.24.58.06,1.16.1,1.73.18l1.7.26c1.18.16,2.21.43,3.32.64s2.21.53,3.27.87a50.8,50.8,0,0,1,11.84,5.2,52.87,52.87,0,0,1,9.55,7.4,52.69,52.69,0,0,1,15.44,33.06A49.8,49.8,0,0,1,104,58.23c-.1,1.19-.29,2.09-.37,2.7Zm-.17,0s0-.31.13-.92.26-1.52.35-2.7a49.77,49.77,0,0,0,0-10.31,44.39,44.39,0,0,0-1.29-7.24,49.82,49.82,0,0,0-2.86-8.15A52.27,52.27,0,0,0,66.81,3.89c-1-.32-2.07-.55-3.12-.82-.55-.11-1.09-.23-1.64-.33l-.82-.17-.8-.12L58.79,2.2c-.55-.07-1.11-.11-1.67-.17-1.11-.13-2.23-.16-3.36-.21a50.67,50.67,0,0,0-6.84.27c-1.14.09-2.29.31-3.44.47s-2.3.4-3.43.72A51.58,51.58,0,0,0,1.63,43.87a57.1,57.1,0,0,0-.84,7.52A53,53,0,0,0,1.06,59a52,52,0,0,0,3.88,14.5,50.74,50.74,0,0,0,18.64,22c1,.68,2,1.24,3,1.85s2.06,1.12,3.11,1.59a50.46,50.46,0,0,0,6.41,2.53c1.09.33,2.17.68,3.26.91.54.13,1.07.28,1.62.39l1.66.32c1.07.24,2.18.34,3.25.52s2.18.24,3.26.28A52.55,52.55,0,0,0,89.83,88.12a48.2,48.2,0,0,0,5.48-6.68A44.45,44.45,0,0,0,99,75.08a49.65,49.65,0,0,0,3.53-9.68c.32-1.15.47-2.05.6-2.66S103.33,61.83,103.33,61.83Z"/><path class="cls-7" d="M14.75,64.22c5.32,2.43,11.64,2.8,17.38,2.6a45.68,45.68,0,0,1,15,2.17c5.42,1.64,10.83,3.73,16.49,4.37s10.74-1.25,16.16-2.17c5.23-.9,10.42-.35,15.63-1.49,2.13-.47,4.26-1,6.39-1.3.09-.28.19-.56.28-.85-5.37.86-10.94,2.75-16,1.66-5.59-1.22-9.26-5.24-14-8C66.75,58,61.44,56.34,55.27,58.05c-5.55,1.54-10.59,4.46-16.18,5.84a40.21,40.21,0,0,1-15,.58,41,41,0,0,1-15-4.82C6.25,58,3.4,56.13.41,54.64c0,.38,0,.76.06,1.14C5.53,57.74,10.22,62.16,14.75,64.22Z"/><path class="cls-7" d="M95.77,76a8.27,8.27,0,0,0,2.52.86c.26-.49.5-1,.74-1.48C98,75.6,96.86,75.78,95.77,76Z"/><path class="cls-8" d="M94,76.24c-.34-.27.08-.85.38-.93,1.72-.46,3.49-.7,5.23-1.07.69-1.54,1.32-3.11,1.87-4.73-3,.5-6.07,1.36-9.15,1.84-4.86.76-9.7.21-14.55,1.28s-9.64,2.49-14.56,1.79a93.39,93.39,0,0,1-14.59-3.79,60.68,60.68,0,0,0-18.74-2.7,43.2,43.2,0,0,1-13.08-1.76C12.57,64.85,9.12,62.24,5.39,60A55.06,55.06,0,0,0,.57,57.27a50.44,50.44,0,0,0,.92,6.19c3.78,2,7.66,3.81,11.6,5.49a63.06,63.06,0,0,1,7,3c1.84,1.07,3.7,2.33,5.9,2.45,4.2.22,8.48-1.44,12.66-.64a54.84,54.84,0,0,1,12,3.86c4.3,1.91,8.68,4.09,13.36,4.87a73.22,73.22,0,0,0,15,.55,142.16,142.16,0,0,0,16.73-1.84c.71-1.09,1.39-2.22,2-3.37A8.38,8.38,0,0,1,94,76.24Z"/><path class="cls-9" d="M5.63,75.06c4.31,3,8.19,4.48,13.57,4,4.62-.42,9.25-1.09,13.84,0s8.55,3.2,12.64,5.55c8.81,5,19.36,4,29.15,3.8,5.49-.12,11.29-.31,16.74-1.6a54,54,0,0,0,3.34-4.29,126.59,126.59,0,0,1-18.24,1.78c-4.64.08-9.6.25-14.15-.84a68.38,68.38,0,0,1-11.64-4.31C46.11,77,40.68,74.4,35.34,74.73c-3.88.25-7.79,1.38-11.64.43-1.88-.47-3.33-1.86-5.08-2.6-2.4-1-4.82-2-7.21-3.06-.74-.32-6.17-3-9.62-4.71a52.84,52.84,0,0,0,3.51,10Z"/><path class="cls-10" d="M12.59,86.22c6.39-.3,12.87-2.06,18.92.62,8.63,3.81,16.64,9.36,26.31,10.31,8.61.85,17.29-1.38,25.81-3A51.62,51.62,0,0,0,90.43,88a81.83,81.83,0,0,1-14.85,1.38C67,89.58,57.09,90.76,49,87.46c-5.29-2.15-9.68-5.89-15.37-7.18-5.32-1.22-10.27-.35-15.62-.1A17.82,17.82,0,0,1,6.4,77.05,52.68,52.68,0,0,0,12.59,86.22Z"/><path class="cls-7" d="M27.16,90.93c7.14.41,13,3.73,19.7,5.89,7.57,2.46,16.72,4.23,24.68,3.2,1.18-.16,2.37-.36,3.54-.58a52.71,52.71,0,0,0,6.66-3.9c-8.24,1.57-17,3.88-25.39,2.54a49.27,49.27,0,0,1-11.92-3.61c-4.31-1.87-8.33-4.31-12.61-6.21-6-2.66-12.13-1.32-18.29-1a54.93,54.93,0,0,0,4,4A69.47,69.47,0,0,1,27.16,90.93Z"/><path class="cls-11" d="M68.18,101.29a69.92,69.92,0,0,1-21.06-3.17C39.66,95.7,32.9,91.8,24.84,92c-2.07.05-4.12.2-6.17.37a51.76,51.76,0,0,0,52.59,8.8C70.24,101.23,69.21,101.29,68.18,101.29Z"/><path class="cls-12" d="M92.56,28.18c-4.58.91-8.8,2.61-13.27,3.85-8.15,2.25-15.56-1.71-23.46-3.15-4.5-.83-9.1-1.14-13.58-2.09a52.08,52.08,0,0,1-12-4.5c-4.69-2.25-9.41-4.35-13.8-7C15.2,16.48,14,17.72,12.89,19c2.14,4,4.78,6.29,9.71,7.23,10.48,2,20.32,5.86,30.63,8.55a129.87,129.87,0,0,0,31.29,3.83c5.31.07,12.25.73,17.06-2.09a52.3,52.3,0,0,0-4-9.09A44.77,44.77,0,0,0,92.56,28.18Z"/><path class="cls-11" d="M60.92,7.55c3.41.47,6.81,1.37,10.24,1.6,2.47.15,4.39-.28,6-1.88a51.69,51.69,0,0,0-31.29-6C48.79,5.92,55.26,6.76,60.92,7.55Z"/><path class="cls-12" d="M77.87,7.65a7.19,7.19,0,0,1-5.44,2.63c-4.19.13-8.51-1.2-12.64-1.77-6-.82-12.44-2-15.18-7A51.56,51.56,0,0,0,34.81,4C39,8.52,47.1,9,53.32,9.92S68.64,13,75,13.28c3,.14,3,0,5.93.1a33.77,33.77,0,0,0,5-.05A51.11,51.11,0,0,0,77.87,7.65Z"/><path class="cls-13" d="M81.34,14.48c-3.24-.13-6.52,0-9.75-.27-6.93-.52-13.61-2.58-20.5-3.46C44.9,10,37.51,9,33.62,4.4a51.83,51.83,0,0,0-8.41,4.17c4.63,2.47,9.2,5,14.37,6.25,7.17,1.68,14.55,1.86,21.69,3.73,3.49.92,7.32,2.07,11,1.49,3.16-.49,5.77-1.88,8.61-3.23a16.65,16.65,0,0,1,6.79-2L87,14.22A25,25,0,0,1,81.34,14.48Z"/><path class="cls-7" d="M88.92,16.08c-4.73-1.16-10.26,3.21-14.65,4.6-5.79,1.82-11.76-.95-17.39-2C50.27,17.37,43.41,17.3,37,15.28c-4.57-1.43-8.7-3.76-12.9-6-1.21.79-2.39,1.61-3.53,2.5,2.54,2.68,7,4.28,10,5.25,7.26,2.29,14.84,3.42,22.34,4.5,8.77,1.26,17.21,3.74,26.16,2.83,4.43-.45,8.58-2.14,12.88-3.19l1.22-.31A52.2,52.2,0,0,0,88.92,16.08Z"/><path class="cls-11" d="M93.69,21.54c-2.66.59-5.38,1.69-7.27,2.24a43.14,43.14,0,0,1-13.13,1.93c-5.16-.08-9.92-1.39-15-2.23-3-.5-6.07-.89-9.1-1.35C41.67,21,33.81,19.81,26.7,16.88a20.53,20.53,0,0,1-7.08-4.39c-.77.63-1.52,1.27-2.26,1.94,4.93,2.92,10.25,5.15,15.43,7.8,8.42,4.3,17.52,3.88,26.46,6.25,4.09,1.09,8.2,2.66,12.44,3.08,4.85.49,8.72-1.11,13.25-2.48a67.24,67.24,0,0,1,12.11-2.53A52.73,52.73,0,0,0,93.69,21.54Z"/><path class="cls-11" d="M88.19,39.78c-10.77-.17-21.51-.57-32-3.07C50.5,35.37,45,33.57,39.48,31.81,33.73,30,28.05,28.62,22.16,27.32c-4-.89-7.43-2.35-9.48-6.08-.21-.38-.42-.8-.62-1.23A51.55,51.55,0,0,0,5.61,30.1c6,3.65,11.48,8.52,18.52,10.1,9.73,2.17,19.48-1.21,29.21.34,5.19.83,10.13,2.52,15.2,3.79a57.32,57.32,0,0,0,15.37,1.81,108.32,108.32,0,0,0,19.51-2.34,54,54,0,0,0-1.55-6.35C97.91,39.69,92.73,39.86,88.19,39.78Z"/><path class="cls-11" d="M93.69,21.54c-2.66.59-5.38,1.69-7.27,2.24a43.14,43.14,0,0,1-13.13,1.93c-5.16-.08-9.92-1.39-15-2.23-3-.5-6.07-.89-9.1-1.35C41.67,21,33.81,19.81,26.7,16.88a20.53,20.53,0,0,1-7.08-4.39c-.77.63-1.52,1.27-2.26,1.94,4.93,2.92,10.25,5.15,15.43,7.8,8.42,4.3,17.52,3.88,26.46,6.25,4.09,1.09,8.2,2.66,12.44,3.08,4.85.49,8.72-1.11,13.25-2.48a67.24,67.24,0,0,1,12.11-2.53A52.73,52.73,0,0,0,93.69,21.54Z"/><path class="cls-7" d="M83.75,47.2a57.89,57.89,0,0,1-14.61-1.54C64.42,44.47,59.79,42.84,55,42c-10.38-1.89-21,2-31.29-.7-7-1.83-12.48-6.62-18.56-10.18C4.73,32,4.32,32.91,4,33.85c3.43,2.24,6.61,5.09,9.29,7,5.17,3.78,11.84,8.36,18.53,6.45,4.73-1.36,9.2-4,14.29-3.44,6.77.71,13,3.83,19.76,4.66A154.16,154.16,0,0,0,86.1,49.66c4.73-.06,10.36.11,14.64-2.26a10.94,10.94,0,0,0,2.89-2.34c0-.08,0-.16,0-.24A97.71,97.71,0,0,1,83.75,47.2Z"/><path class="cls-7" d="M16.48,49.59c-3.71-4.13-10-5.59-14.71-8.68-.22,1-.43,1.9-.6,2.87-.07.4-.12.81-.18,1.22l.4.15C5.65,46.87,11.66,51.46,16.48,49.59Z"/><path class="cls-12" d="M103.8,46.35l-.19.18C100.71,49,97,50,93.25,50.39a117,117,0,0,1-19.36,0C67.46,50,61.17,49.33,55,47.29,51.21,46,46.91,44.43,42.8,45c-3.27.45-6.12,1.83-9.22,2.83-5.71,1.85-10.72.63-15.76-2.5-4.26-2.64-8.09-5.75-12.18-8.62-.68-.48-1.42-1-2.18-1.5-.51,1.41-1,2.85-1.35,4.33A55.74,55.74,0,0,0,8.58,43c3.31,1.67,6.89,3.34,9.24,6.3a.59.59,0,0,1-.24.85C12.36,53,6.31,48.5,1.62,46.51l-.8-.32C.68,47.27.57,48.33.5,49.4c8,2.67,15.92,6,24.29,6.57,5.89.41,11-.8,16.68-2.15A50.41,50.41,0,0,1,54.6,52.57a84,84,0,0,1,15.17,1.81c4.94,1.06,9.69,2.86,14.62,3.93C91,59.73,97.47,58,104,57A51.28,51.28,0,0,0,103.8,46.35Z"/><path class="cls-11" d="M82.9,59.11C72.79,56.39,63,53.46,52.37,53.62c-9.85.15-19,4.48-28.93,3.33C15.49,56,8,53.08.44,50.57c0,.93-.07,1.85,0,2.77,2.92,1.41,5.69,3.19,8.54,4.81a41.81,41.81,0,0,0,17.58,5.47,39.87,39.87,0,0,0,19-3c4.39-1.84,9.06-4,13.9-4.33,5.23-.31,9.86,1.47,14.14,4.4C78,63.72,82.3,68,88,68.33c4.45.29,9.52-1.21,14.43-1.9.41-1.5.76-3,1-4.58.22-1.28.38-2.55.51-3.82C96.91,59,90,61,82.9,59.11Z"/><path class="cls-14" d="M103.5,61.86s-.06.32-.18.92-.26,1.51-.58,2.67a50.2,50.2,0,0,1-3.44,9.78,53.68,53.68,0,0,1-8.92,13.4A52.17,52.17,0,0,1,73.45,101,54.06,54.06,0,0,1,62,104.6a50.38,50.38,0,0,1-12.89.75,51.55,51.55,0,0,1-26-9.08A53.66,53.66,0,0,1,4.46,73.66,52.41,52.41,0,0,1,.42,59,55.85,55.85,0,0,1,0,51.36a58.63,58.63,0,0,1,.71-7.68A56.16,56.16,0,0,1,2.52,36.2a54,54,0,0,1,2.89-7.15A52.38,52.38,0,0,1,39.62,1.55,51,51,0,0,1,53.81,0c1.17.06,2.34.09,3.48.24.58.06,1.16.1,1.73.18l1.7.26c1.18.16,2.21.43,3.32.64s2.21.53,3.27.87a50.8,50.8,0,0,1,11.84,5.2,52.87,52.87,0,0,1,9.55,7.4,52.69,52.69,0,0,1,15.44,33.06A49.8,49.8,0,0,1,104,58.23c-.1,1.19-.29,2.09-.37,2.7Zm-.17,0s0-.31.13-.92.26-1.52.35-2.7a49.77,49.77,0,0,0,0-10.31,44.39,44.39,0,0,0-1.29-7.24,49.82,49.82,0,0,0-2.86-8.15A52.27,52.27,0,0,0,66.81,3.89c-1-.32-2.07-.55-3.12-.82-.55-.11-1.09-.23-1.64-.33l-.82-.17-.8-.12L58.79,2.2c-.55-.07-1.11-.11-1.67-.17-1.11-.13-2.23-.16-3.36-.21a50.67,50.67,0,0,0-6.84.27c-1.14.09-2.29.31-3.44.47s-2.3.4-3.43.72A51.58,51.58,0,0,0,1.63,43.87a57.1,57.1,0,0,0-.84,7.52A53,53,0,0,0,1.06,59a52,52,0,0,0,3.88,14.5,50.74,50.74,0,0,0,18.64,22c1,.68,2,1.24,3,1.85s2.06,1.12,3.11,1.59a50.46,50.46,0,0,0,6.41,2.53c1.09.33,2.17.68,3.26.91.54.13,1.07.28,1.62.39l1.66.32c1.07.24,2.18.34,3.25.52s2.18.24,3.26.28A52.55,52.55,0,0,0,89.83,88.12a48.2,48.2,0,0,0,5.48-6.68A44.45,44.45,0,0,0,99,75.08a49.65,49.65,0,0,0,3.53-9.68c.32-1.15.47-2.05.6-2.66S103.33,61.83,103.33,61.83Z"/><path class="cls-11" d="M75.17,68.39A52.61,52.61,0,0,1,69,62.23a19.82,19.82,0,0,0-8.29-2.88c-5.88-.47-12.34,3-17.68,5.05-.73.28-1.12,1.48-.06,1.54,3.69.23,7.32.25,10.81,1.63a50.65,50.65,0,0,0,9,2.25c3.34.67,10.11,1.88,12.95-.69C75.55,68.88,75.36,68.63,75.17,68.39Z"/><path class="cls-15" d="M68.74,66.36a8.11,8.11,0,0,0-3.64-3.13,16.35,16.35,0,0,0-4.86-1.93c-3.4-1-6,1.06-9.06,1.93-.87.24-1.15,1.61-.06,1.69a49.15,49.15,0,0,1,9.22,1.89c2.3.62,4.67,1.6,7.11,1.27C68.15,68,69.2,67.2,68.74,66.36Z"/><path class="cls-16" d="M103.39,62A51.91,51.91,0,1,1,61.3,1.83,51.91,51.91,0,0,1,103.39,62Z"/><path class="cls-17" d="M100.77,37.35s5,38.16-20.12,57.36C80.65,94.71,109.7,80,100.77,37.35Z"/><g class="cls-18"><g class="cls-18"><path class="cls-19" d="M7.17,72c-.56-2.09-.88-6,2.23-6s7.39.16,7.06-4.38c-.19-2.77-1.36-5.24-2.45-7.76-2.18-5-5.53-12.61.05-16.76,2.64-2,5.82-2.36,8.92-3.18,4.24-1.13,6.38-3.77,8.51-7.45.35-.59.93-2.31,1.74-2.51,1.49-.36.87-1.19.76-2.22-.15-1.26,1.39-3.6,2.19-4.59,2.11-2.63,7.08-1.85,10-1.49,4.12.51,27.49,5.78,25.19-3-.51-1.93-2.53-4.85.86-4.95a21.69,21.69,0,0,1,5.24.91,51.91,51.91,0,0,0-67.1,75.37C11.66,81.06,7.86,74.57,7.17,72Z"/></g></g><path class="cls-20" d="M29.17,8.92s-36.76,21.24-23,60.6C6.15,69.52-3.18,32.16,29.17,8.92Z"/><path class="cls-21" d="M96.46,30.83c-3.09-1.13-6.62-.28-9.68.62-4.46,1.3-8.09,2.13-12.79,1.91-5.06-.25-10-.29-14.89-1.56a49.79,49.79,0,0,0-11.49-1.95c-.35,0-.65.66-.21.72,4.33.57,8,2.65,12,4.24a28,28,0,0,0,8.84,1.65,41.65,41.65,0,0,0,11.1.43c4.87-.4,9.8-.29,14.53-1.67.31-.09.47-.7,0-.66a72,72,0,0,1-8.57-.05,31.7,31.7,0,0,1,3-1.11c2.55-.77,5.1-.54,7.69-.86C96.79,32.43,97.5,31.22,96.46,30.83Z"/><path class="cls-21" d="M58.61,39.67c-6.5-3.43-14.4-3.57-21.56-3.59a42,42,0,0,1-13.28-1.74c-4.2-1.36-8.58-4-12.6-5.87-.41-.2-.95.41-.52.71,7,4.74,12.94,9.63,21.6,10.5,4.21.42,8.84-.61,13-1.13,4.78-.59,8.43,1.8,12.95,2C58.63,40.6,59.07,39.91,58.61,39.67Z"/><path class="cls-21" d="M64.65,51.32c-6.54-1.63-13.58-4-20.39-3.35-3.28.32-6.44,1.56-9.62,2.31a21.25,21.25,0,0,1-15-2.31c-.09,0-.26.1-.16.18,5.74,4.94,10.77,6.38,18.14,4.37,1.8-.49,3.5-1.39,5.24-2,2.86-1.08,6-.71,9-.39,4.25.47,8.4,1,12.63,1.63C64.7,51.75,64.92,51.38,64.65,51.32Z"/><path class="cls-21" d="M49.21,56.15C43.57,56,38,58.46,32.42,59c-7,.68-14.55.15-21.07-2.57-.19-.08-.47.22-.25.35a42.81,42.81,0,0,0,18.16,5.57c3.17.16,5.16-1.16,7.84-2.7,3.42-2,8.3-2.15,12.09-2.84C49.55,56.75,49.63,56.16,49.21,56.15Z"/><path class="cls-21" d="M37.88,77.05C34.3,74.53,30.07,75.63,26,75.89c-6.63.43-11.87-4.2-17.94-5.93-.29-.08-.67.43-.33.59,4.54,2.06,8.36,5.19,13.18,6.69,5.36,1.67,11-.61,16.53.55C37.84,77.87,38.27,77.32,37.88,77.05Z"/><path class="cls-21" d="M94.8,72.5c-6.39-1.52-13.75.87-20,2.28-4.85,1.08-9.64,2-14.6,1.2C56.44,75.35,52.73,74,49,73.22c-.1,0-.18.12-.07.17,3.57,1.34,7,3,10.6,4.26s7.21,1.1,10.8.89S77.45,77,80.88,75.61a38.58,38.58,0,0,1,13.65-2.2C95,73.4,95.37,72.63,94.8,72.5Z"/><path class="cls-21" d="M79.69,85c-4.9-.42-9.44.64-14.39-.15C60.14,84.06,55,83.6,50.21,81.35c-.16-.07-.38.19-.2.29,9,5,19.63,5.22,29.56,4.13C80,85.72,80.21,85.09,79.69,85Z"/><path class="cls-21" d="M28.15,25.22c-1.6-.89-3.41-.83-5.19-1.16-2.69-.49-5.62-2.54-7.64-4.29-.25-.22-.69.14-.46.4,3.48,4.18,7.78,5.28,13,5.81C28.18,26,28.52,25.42,28.15,25.22Z"/><path class="cls-21" d="M47.7,19.16c-7.51-2.2-16.6-1.68-23-7-.25-.21-.74.29-.48.53C30,18.11,40,19,47.43,19.77,47.77,19.81,48.12,19.28,47.7,19.16Z"/><path class="cls-21" d="M49.35,15c-2.94-.77-6-.78-9-1.33A19.79,19.79,0,0,1,33.06,10c-.15-.13-.43.16-.29.31,3.76,3.93,11.14,5.33,16.27,5.72C49.58,16.09,50,15.18,49.35,15Z"/></g></g></g></svg>