<svg xmlns="http://www.w3.org/2000/svg" xmlns:xlink="http://www.w3.org/1999/xlink" viewBox="0 0 100.92 102.16"><defs><style>.cls-1{mask:url(#mask);filter:url(#luminosity-noclip-2);}.cls-10,.cls-2,.cls-6,.cls-7,.cls-8{mix-blend-mode:multiply;}.cls-2{fill:url(#radial-gradient);}.cls-3{isolation:isolate;}.cls-4{fill:#ff4617;}.cls-5{fill:#67000d;}.cls-6{fill:#b03714;}.cls-7{fill:#e0001d;}.cls-8{fill:url(#radial-gradient-2);}.cls-9{fill:#fff;}.cls-10{fill:#2c0000;opacity:0.7;}.cls-11,.cls-13{fill:#e9311f;}.cls-11,.cls-12,.cls-15{mix-blend-mode:screen;}.cls-14{mask:url(#mask-2);}.cls-15{fill:url(#radial-gradient-3);}.cls-16{filter:url(#luminosity-noclip);}</style><filter id="luminosity-noclip" x="1.6" y="-8200.51" width="79.37" height="32766" filterUnits="userSpaceOnUse" color-interpolation-filters="sRGB"><feFlood flood-color="#fff" result="bg"/><feBlend in="SourceGraphic" in2="bg"/></filter><mask id="mask" x="1.6" y="-8200.51" width="79.37" height="32766" maskUnits="userSpaceOnUse"><g class="cls-16"/></mask><radialGradient id="radial-gradient" cx="66.84" cy="70.37" r="72.24" gradientUnits="userSpaceOnUse"><stop offset="0"/><stop offset="0.22" stop-color="#030303"/><stop offset="0.36" stop-color="#0b0b0b"/><stop offset="0.47" stop-color="#191919"/><stop offset="0.57" stop-color="#2e2e2e"/><stop offset="0.66" stop-color="#484848"/><stop offset="0.74" stop-color="#696969"/><stop offset="0.82" stop-color="#909090"/><stop offset="0.9" stop-color="#bdbdbd"/><stop offset="0.97" stop-color="#eee"/><stop offset="0.99" stop-color="#fff"/></radialGradient><radialGradient id="radial-gradient-2" cx="26.87" cy="34.97" r="71.34" gradientUnits="userSpaceOnUse"><stop offset="0" stop-color="#fff"/><stop offset="0.37" stop-color="#fefdfd"/><stop offset="0.51" stop-color="#f9f6f6"/><stop offset="0.6" stop-color="#f2ebeb"/><stop offset="0.68" stop-color="#e7dada"/><stop offset="0.75" stop-color="#d9c4c4"/><stop offset="0.8" stop-color="#c8a8a8"/><stop offset="0.86" stop-color="#b38888"/><stop offset="0.91" stop-color="#9b6262"/><stop offset="0.95" stop-color="#803737"/><stop offset="0.99" stop-color="#630909"/><stop offset="1" stop-color="#5d0000"/></radialGradient><filter id="luminosity-noclip-2" x="1.6" y="2" width="79.37" height="77.59" filterUnits="userSpaceOnUse" color-interpolation-filters="sRGB"><feFlood flood-color="#fff" result="bg"/><feBlend in="SourceGraphic" in2="bg"/></filter><mask id="mask-2" x="1.6" y="2" width="79.37" height="77.59" maskUnits="userSpaceOnUse"><g class="cls-1"><path class="cls-2" d="M14.75,75.8C18.22,74,20.41,71.29,20,67.16c-.6-5.61-4.28-10.53-3.84-16.29a9.52,9.52,0,0,1,5.77-8c3.54-1.59,7.65-1.42,11.42-1.95,3.18-.45,6.4-1.25,8-4.36a28.51,28.51,0,0,1,2.88-5.22c3-3.72,8.61-3.79,12.46-1.47,2.11,1.28,4.27,4.51,6.78,4.87,4.57.64,4.65-3.56,5.83-6.59.07-.22.41-.52.68-.4,2.67,1.25,4.25,4.68,7,5.58,3.76,1.23,4.37-6.57,3.86-8.64-.6-2.49-1.65-4.78-2.47-7.19-.78-2.26-2.12-5.25-.84-7.52A49,49,0,0,0,10.78,79.59,7.48,7.48,0,0,1,14.75,75.8Z"/></g></mask><radialGradient id="radial-gradient-3" cx="66.84" cy="70.37" r="72.24" gradientUnits="userSpaceOnUse"><stop offset="0" stop-color="#2b2b2b"/><stop offset="0.24" stop-color="#2e2d2c"/><stop offset="0.38" stop-color="#36322f"/><stop offset="0.5" stop-color="#443a35"/><stop offset="0.61" stop-color="#59463d"/><stop offset="0.71" stop-color="#735647"/><stop offset="0.8" stop-color="#946a53"/><stop offset="0.89" stop-color="#bb8162"/><stop offset="0.97" stop-color="#e79b73"/><stop offset="0.99" stop-color="#f7a579"/></radialGradient></defs><g class="cls-3"><g id="Layer_2" data-name="Layer 2"><g id="Layer_1-2" data-name="Layer 1"><path class="cls-4" d="M100.83,51A50.19,50.19,0,1,1,50.64.85,50.19,50.19,0,0,1,100.83,51Z"/><path class="cls-5" d="M100.92,51s0,.31,0,.91,0,1.48-.1,2.63a48.07,48.07,0,0,1-1.64,9.88,51.53,51.53,0,0,1-6.23,14.27,49.7,49.7,0,0,1-24.38,20,48.86,48.86,0,0,1-12.14,2.9,50,50,0,0,1-26.29-4.27,51.93,51.93,0,0,1-21.5-18.4A50.94,50.94,0,0,1,2.31,65.68,54,54,0,0,1,.62,58.46,57.43,57.43,0,0,1,0,51,54.57,54.57,0,0,1,.47,43.6,51.62,51.62,0,0,1,2,36.31,50.65,50.65,0,0,1,30,4.37,49,49,0,0,1,43.21.53C44.34.39,45.45.22,46.56.17c.56,0,1.12-.1,1.68-.12l1.65,0c1.16,0,2.18,0,3.28,0s2.19.14,3.26.28a49.33,49.33,0,0,1,12.15,3A52.45,52.45,0,0,1,78.92,8.73,51.08,51.08,0,0,1,99.18,37.61a48,48,0,0,1,1.62,9.88c.1,1.16.08,2,.1,2.64S100.92,51,100.92,51Zm-.17,0,0-.91c0-.59,0-1.47-.13-2.62a48,48,0,0,0-1.73-9.81A45.12,45.12,0,0,0,96.41,31a47.41,47.41,0,0,0-4.1-7.28A50.58,50.58,0,0,0,56.24,2c-1-.13-2.07-.17-3.11-.25l-1.61,0-.82,0-.78,0-1.61,0c-.54,0-1.07.08-1.61.11-1.08.07-2.16.23-3.24.36A50.35,50.35,0,0,0,37,3.65c-1.08.29-2.13.68-3.2,1s-2.12.78-3.14,1.26A49.91,49.91,0,0,0,.91,51.05a55.65,55.65,0,0,0,.47,7.29A48.38,48.38,0,0,0,9.05,78.65,48.84,48.84,0,0,0,30.49,96.51c1,.48,2.12.84,3.18,1.25s2.15.73,3.23,1a48.51,48.51,0,0,0,6.53,1.34c1.09.12,2.17.27,3.25.32.54,0,1.06.07,1.61.09l1.63,0c1.06,0,2.13,0,3.19-.07s2.1-.13,3.14-.27A50.79,50.79,0,0,0,92.32,78.33a46.87,46.87,0,0,0,4.09-7.27,44.22,44.22,0,0,0,2.46-6.68,47.88,47.88,0,0,0,1.72-9.81c.12-1.14.1-2,.13-2.63Z"/><path class="cls-6" d="M20,90.78a50.35,50.35,0,0,0,10,6,7.37,7.37,0,0,0,4.82-1.46c5-4.8-6.94-11.08-1.34-15.39,3.09-2.38,8-1.77,11.66-1.7,2.77,0,11.8,1,11.44-3.67a10.62,10.62,0,0,0-3.58-7c-1.65-1.32-3.77-2.26-5.16-3.89-2.81-3.32-1.35-8.52,2.37-10.49,2.7-1.43,6.29-2,8.2-4.59a7.18,7.18,0,0,0-.38-9.09c-2.49-2.83-6.85-4-10.23-1.91-2.57,1.59-4.13,4.11-6.28,6.16C37,48.14,31.61,45,26,46.46c-3.63.93-8,6-4.87,9.66A18,18,0,0,1,25,62c1.63,4.65,1.83,11.85-3.34,14.61-1.72.92-9,3-10.33,5.52C13.62,85.1,18.48,90.05,20,90.78Z"/><path class="cls-6" d="M85.27,14.73a3.19,3.19,0,0,0-1.87,1.93c-2.17,5.79,3.19,10.42,5.48,15.12,1.53,3.17.53,8.78-3.61,9.53-2.52.45-5.17-1-7.62-.23A8,8,0,0,0,72,48.75c-.17,3.72,2.34,14.42,8.08,11.06,3.24-1.89,5.58-5.22,9.15-6.57s8.06-1,10.7,1.91c.23.26.44.52.65.79.16-1.61.25-3.24.25-4.9A50,50,0,0,0,85.27,14.73Z"/><path class="cls-6" d="M62.62,2.29a8.66,8.66,0,0,1-2.84,6.33c-3.47,3.05-8.83,5.64-11,9.92-1,2-.23,6.11,2.8,5.72,1.93-.24,3.44-2.07,4.84-3.27,2.66-2.31,6-4.37,9.46-2.2,2.57,1.63,4,5.13,5.78,7.5.76,1,2.43,3.66,4,3.54,2.11-.16,1.64-6.4,1.31-7.68-1.3-5-5-9.11-6-14.23a7,7,0,0,1,0-2.77A49.52,49.52,0,0,0,62.62,2.29Z"/><path class="cls-6" d="M22.57,11.29A18.85,18.85,0,0,1,29,12.44a.51.51,0,0,1,.12.8c-.42.57-2.3,2.86-.65,3.1a8.48,8.48,0,0,0,3.66-.54,43.53,43.53,0,0,0,8.4-3.59c3.23-1.77,7-4.61,7.43-8.56A7.22,7.22,0,0,0,47.75.94,49.84,49.84,0,0,0,20.4,11,16.49,16.49,0,0,0,22.57,11.29Z"/><path class="cls-6" d="M28.72,6.42c.71.43.81,1.64,1,2.34.65,2,2.58,1.77,4.16,1.13,2.48-1,6.29-2.73,6.95-5.6a10.64,10.64,0,0,0,.25-2.52A49.82,49.82,0,0,0,28.21,6.16Z"/><path class="cls-7" d="M95,53.79c-6.3-1-9.12,3.4-13.8,6.45C72.63,65.8,69,49.66,72.36,44.08a8.3,8.3,0,0,1,5.27-4c2.69-.47,7.17,1.54,9.19-.67,5.43-5.93-3.77-12-4.69-18.12-.41-2.74.11-5.77,2.42-7.21A50.86,50.86,0,0,0,71.86,5.55a5,5,0,0,0,0,.87,18,18,0,0,0,2.42,7c2.33,4.42,4.59,8.52,3.74,13.68-.33,2-1.53,5.1-4,3.32-2.84-2-4.62-5.46-6.57-8.26-2.9-4.2-6.86-3.55-10.45-.39-1.77,1.56-4.89,5-7.51,3.06-3-2.26-2.56-5.67-.29-8.31,3-3.53,7.14-5.71,10.43-8.93a7.78,7.78,0,0,0,2.12-5.47A50.48,50.48,0,0,0,50.64.85c-.59,0-1.18,0-1.76.05a6.82,6.82,0,0,1-.31,4.16c-1.73,4.26-5.11,6.82-9.08,8.78-3.08,1.55-7.25,3.86-10.83,3.63-2.77-.18-1.72-2.55-.66-4.16-2-.54-6.3-.48-8.61-1.52A47.37,47.37,0,0,0,15.7,15a7.69,7.69,0,0,0-.09,2c.32,3.52,3.18,3.52,5.64,4.82,3.53,1.87,5.72,7.25,6,11.11.26,4.35-1.91,7.58-5.29,10.15s-10.07,5-9.92,10.12c.1,3.31,2,4.26,3.27,6.92a5.46,5.46,0,0,1-.38,4.58c-1.55,3.15-6.55,3.62-9,6-.34.34-.66.7-1,1.07a49.81,49.81,0,0,0,5.69,9.5,8,8,0,0,1,2.63-2.07c4.66-2.44,11-3.17,11.72-9.62.4-3.48-.59-8-2.91-10.71-1.09-1.3-2.78-2.63-2.85-4.47a8.88,8.88,0,0,1,7.46-9.15,19.76,19.76,0,0,1,7.47-.17c4.24.78,6.52-1.64,9.09-4.55,2.83-3.22,6.77-6.31,11.36-4.74,3.68,1.26,6.72,4.89,6.3,9-.49,4.73-4.29,6.75-8.25,8.37-3.45,1.41-7.53,5.53-4.27,9.35,1.62,1.91,4,2.78,5.78,4.53,1.95,1.94,4.45,6.17,3.18,9.07-1,2.35-3.76,2.94-6.07,3.14-3.81.33-7.62-.07-11.42.1-1.7.07-3.7.12-5.22,1-2.8,1.61-.84,4.9.51,6.88,2.07,3,3.36,7.29-.64,9.53a7.94,7.94,0,0,1-2.72.82,49.85,49.85,0,0,0,18.85,3.67c.73,0,1.45,0,2.16,0-2.55-1.21-4.42-4.39-5.24-6.91-.64-1.93-1.36-5.83,1-7.09s5.15-.73,7.64-.74c3.75,0,7.52-1,9.59-4.5,2.56-4.31-2.09-7.93-4.22-11.23-1.66-2.59-1.71-5.39,1.24-7.06s10.37,0,11.23,3.5c.6,2.49,0,5.5,1.08,7.85,1.85,4,5.19.45,6.39-1.81,1.54-2.91,3.17-8.24,6.89-9.13C94,62.7,96,67.67,95.89,72.78a50,50,0,0,0,4.51-15.22A7.71,7.71,0,0,0,95,53.79Z"/><path class="cls-6" d="M92.64,65.9c-5.47-4.25-8.58,4.49-10.52,8C81,76,77.59,79.78,75,76.94c-1.55-1.72-1.45-4.24-1.59-6.41-.1-1.42-.06-3.33-1.4-4.2A12.56,12.56,0,0,0,68,64.52c-3-.67-8.37.29-6.17,4.36a35.54,35.54,0,0,0,3.1,4.3c1.93,2.54,3.72,5.72,1.88,8.82-3.23,5.43-8.37,5.43-14,5.47-1.84,0-4.52-.07-4.8,2.4a8.54,8.54,0,0,0,.77,4.45c1,2.27,2.63,5.23,5.14,6.05.33.11.31.45.16.73A50.21,50.21,0,0,0,95,74.58C95.38,71.23,94.85,67.62,92.64,65.9Z"/><path class="cls-6" d="M9.16,67.39c2.55-1.21,7.49-3.24,5-7.08-1.21-1.83-2.56-2.93-3-5.17C9,44.23,27.54,44.23,26.21,33.23c-.37-3.06-1.78-7.89-4.44-9.73C20,22.27,17.7,22.11,16,20.64a5.06,5.06,0,0,1-1.47-4.48,50.24,50.24,0,0,0-10,54.74A14.28,14.28,0,0,1,9.16,67.39Z"/><path class="cls-6" d="M37.51,58a4.35,4.35,0,0,1,0-3.43,3.29,3.29,0,0,1,1.66-1.46c.41-.21.87-.31,1.29-.49q1.29-2.3-.76-2.83C32.87,47,27.6,52.58,29,59c.22.36.44.71.65,1.07a14.52,14.52,0,0,1,1.86,6.34c.35,4.43-.17,10.11-4.36,12.7-2.43,1.5-8.19,4-5.06,7.74,1,1.21,3.12,3.2,5,1.85.87-.62.17-1.7.05-2.4a14.13,14.13,0,0,1-.25-3c.24-5.13,4.17-7.78,9.12-7.75,2.7,0,8.94.3,9.64-3.46.34-1.84-.73-3.61-1.74-5.06C41.87,64.05,38.78,61.36,37.51,58Z"/><path class="cls-6" d="M53.43,40.46a.37.37,0,0,1-.25-.34c-2.6-.94-6.06-.13-7.25,2.49-1,2.31.23,6.64,3.3,6.58C53.05,49.1,59,42.58,53.43,40.46Z"/><path class="cls-6" d="M85.59,44.43c-1.75.25-6.89-.22-6.73,2.82.16,2.82,2,5.6,5.23,4.47s5-4.55,8.14-5.5a6.22,6.22,0,0,1,4.31.26c1.14.49,2.91,1.82,4.21,1.74A50,50,0,0,0,88,17.59a12.31,12.31,0,0,0,.15,6.93C89.51,28.19,92.62,31,93.26,35,94.11,40.29,90.72,43.68,85.59,44.43Z"/><path class="cls-6" d="M61.79,10.23c-1.65,1.22-9.91,4.84-7.65,7.54s7.39-3.7,8.61-5.44a29.66,29.66,0,0,0,4.5-8.66c-.56-.19-1.11-.36-1.65-.53A10.19,10.19,0,0,1,61.79,10.23Z"/><path class="cls-6" d="M89.57,72.16c-3.65-.91-6.77,6.25-8,8.6a22.61,22.61,0,0,1-6.38,7.81c-2.9,2.14-6.27,1.13-9.57,1.06-2.69-.07-6.73.52-6.3,4.13a8.47,8.47,0,0,0,3.86,5.88A50.22,50.22,0,0,0,89.68,82.57C90.78,78.76,91.92,72.75,89.57,72.16Z"/><path class="cls-6" d="M69,69.54c-.15-.15,0-1.19-.21-1.3a.33.33,0,0,1-.41-.18,2.32,2.32,0,0,0-1-.14c-.49,0-1.24.22-1.24.83,0,1,1,2.71,2.18,2.37.94-.27,2-2,1.61-2.64C69.75,68.69,69.18,69.72,69,69.54Z"/><path class="cls-6" d="M16.79,39.35a5.2,5.2,0,0,0,1.38-3.82c-.17-1.88-2.21-.29-2.83,0-.89.46-2.26,1.35-3.34,1.1-1.46-.32-3-1.39-4.33-.16a16.76,16.76,0,0,0-2.39,2.91C4.34,40.8,2.71,43.74.82,45.07a49.08,49.08,0,0,0-.36,6A50.56,50.56,0,0,0,2.13,63.91,6.63,6.63,0,0,0,6.8,60.17c1.47-4-2.51-7.3-2-11.24C5.56,41.92,13,43.55,16.79,39.35Z"/><path class="cls-6" d="M8.78,29.62c1.58.56,2.48,2.27,4.19.39,1.25-1.37,2.87-4.16,1.3-5.93-1.88-2.12-1.47-.61-2.93-1a2.33,2.33,0,0,1-1.5-1.22,49.59,49.59,0,0,0-7,13.88C4.82,32.76,7,29,8.78,29.62Z"/><path class="cls-6" d="M83.86,75.5c-1.55-.55-3.16.66-4,1.86A4.72,4.72,0,0,0,79,79.27c0,.16,0,.33,0,.49,0-.28,0-.3,0-.07a2.46,2.46,0,0,0-.05.76,2.2,2.2,0,0,0,.67,1.49,1.75,1.75,0,0,0,1.24.45,2.24,2.24,0,0,0,2.12-.46,6.26,6.26,0,0,0,1.89-2.79C85.32,77.8,85.5,76.1,83.86,75.5Z"/><path class="cls-6" d="M87.61,72.56a1.28,1.28,0,0,0-1.88-.17,1.33,1.33,0,0,0-.77.93c0,.09,0,.18,0,.27s-.16.38-.06.2a1.18,1.18,0,0,0,.84,1.8C87.15,75.72,88.59,73.85,87.61,72.56Z"/><path class="cls-6" d="M72.54,85a1.84,1.84,0,0,0-2.38,0A2.67,2.67,0,0,0,69,87.25a1.26,1.26,0,0,0,1.16,1.28,2.3,2.3,0,0,0,2-1.2,3.51,3.51,0,0,0,.57-.79A1.3,1.3,0,0,0,72.54,85Z"/><path class="cls-6" d="M81.47,64.52A3.05,3.05,0,0,0,80,62.76a2.67,2.67,0,0,0-2.57.47,4.5,4.5,0,0,0-1.7,4.36,3.22,3.22,0,0,0,.92,1.8,1.58,1.58,0,0,0,.39.24,2,2,0,0,0,1,.49c1.34.22,2.44-1.06,3-2.11A4.55,4.55,0,0,0,81.47,64.52Z"/><path class="cls-6" d="M90.16,46.38a1.13,1.13,0,0,0-.48-.28.75.75,0,0,0-.9-.73,1.17,1.17,0,0,0-.9,1.1,5.87,5.87,0,0,0-.13,2c.18.76,1.08.74,1.58.36.2-.15.41-.29.6-.46A1.29,1.29,0,0,0,90.16,46.38Z"/><path class="cls-6" d="M97.21,41.2a2.54,2.54,0,0,0-1-1.28,2,2,0,0,0-2.32.15c-2.19,1.45-2.27,5.6-.58,7.68a1.53,1.53,0,0,0,1.86,1.18c1.95.33,3.78-1.64,3.88-3.54A5.56,5.56,0,0,0,97.21,41.2Z"/><path class="cls-6" d="M93.59,30.85c-1.17-.22-2.17,1-2.15,2.11A1.25,1.25,0,0,0,92,34a1.28,1.28,0,0,1,.11.2l.1.12a1.71,1.71,0,0,0,.11.14l0,0a1.33,1.33,0,0,0,1.85-.35,3.71,3.71,0,0,0,.56-1.49A1.35,1.35,0,0,0,93.59,30.85Z"/><path class="cls-6" d="M86.21,27.28a2.3,2.3,0,0,0-2.3-1c-.07,0-.14.05-.21.06a.91.91,0,0,0-1.14.35c-1.32,1.86-.4,6.83,2.64,5.59C87.05,31.49,87.22,28.78,86.21,27.28Z"/><path class="cls-6" d="M69.81,54.16c-.42-1.67-2.8-.75-3,.6,0,.24-.06.47-.08.69s-.11.29-.16.44a1.07,1.07,0,0,0,.6,1.29,1.94,1.94,0,0,0,2.1-.63.5.5,0,0,0,.12-.13,2.06,2.06,0,0,0,.5-1.5A2.46,2.46,0,0,0,69.81,54.16Z"/><path class="cls-6" d="M59.28,80a2.52,2.52,0,0,0-2.44-1.81,3.22,3.22,0,0,0-1.59.44,7.16,7.16,0,0,0-2.61,2.76c-1,1.6-1.69,3.93-.14,5.41s3.9-.35,5-1.47A6,6,0,0,0,59.28,80Z"/><path class="cls-6" d="M42.65,87.58A1.93,1.93,0,0,0,41.51,86c-.93-.5-2.15.12-2.89.68a4.34,4.34,0,0,0-1.78,3.06,1.84,1.84,0,0,0,1.1,1.78,2.64,2.64,0,0,0,1.55.09,4.32,4.32,0,0,0,1.7-.78,2.7,2.7,0,0,0,1-1.55,1.4,1.4,0,0,1,.09-.17A2.62,2.62,0,0,0,42.65,87.58Z"/><path class="cls-6" d="M54.91,93.16a1,1,0,0,0-.33-.44,1.36,1.36,0,0,0-1.86.36,2.5,2.5,0,0,0-.23.39A1.36,1.36,0,0,0,52.34,95s0,.06.07.1a1.12,1.12,0,0,0,.61.53c1.13.42,2.07-.69,2.12-1.72A1.13,1.13,0,0,0,54.91,93.16Z"/><path class="cls-6" d="M96.61,60.07a4.19,4.19,0,0,0,.32-1.69c-.11-1.39-1-2.7-2.55-2.36a4,4,0,0,0-2.7,3,2.88,2.88,0,0,0-.09,1.27,2.16,2.16,0,0,0,1.19,2.35c1.13.51,2.44-.31,3.09-1.21l.15-.22A3.66,3.66,0,0,0,96.61,60.07Z"/><path class="cls-6" d="M25.87,85.87a2.83,2.83,0,0,0-2.8-2.22c-.28-.14-.54-.29-.81-.41a3.77,3.77,0,0,0-2.45-.62,2.66,2.66,0,0,0-2.09,2.61,3.79,3.79,0,0,0,1.42,2.53c.92.86,2.65,2,4,1.92A3,3,0,0,0,25.87,85.87Z"/><path class="cls-6" d="M31.58,89.5a2.75,2.75,0,0,0-.37-.39,1.46,1.46,0,0,0-1.81.11c-.54.44-1.08,1.54-.52,2.19a3.25,3.25,0,0,0,.35.39,1.32,1.32,0,0,0,1.45.11,2,2,0,0,0,.91-.9A1.56,1.56,0,0,0,31.58,89.5Z"/><path class="cls-6" d="M15.28,72.2A1.28,1.28,0,0,0,14,71.58a4.08,4.08,0,0,0-2.3-1.14,2.3,2.3,0,0,0-2.17,3,4.07,4.07,0,0,0,1.61,2,2.82,2.82,0,0,0,1.34.47,2,2,0,0,0,2.55-.85,2,2,0,0,0,.27-1A2.16,2.16,0,0,0,15.28,72.2Z"/><path class="cls-6" d="M25.63,74.17a1.32,1.32,0,0,0-.65.15,1.69,1.69,0,0,0-1,2.35c.69,1.1,2.44.24,2.58-.86a5.9,5.9,0,0,0,.06-.59A1,1,0,0,0,25.63,74.17Z"/><path class="cls-6" d="M59.33,62.22a1.7,1.7,0,0,0-1,.66c-.47.49-.32,1.52.46,1.56a1.38,1.38,0,0,0,1.11-.51.87.87,0,0,0,.23-.62C60.34,62.74,60.08,62.07,59.33,62.22Z"/><path class="cls-6" d="M79.76,35.1c0-1-.51-2.76-1.79-2.74a3.21,3.21,0,0,0-2.8,2.41c-.41,1.09-.68,2.47.11,3.43a1.72,1.72,0,0,0,.07.21c.5,1.24,2,1.18,2.87.41a3.48,3.48,0,0,0,.88-1.1,2.78,2.78,0,0,0,.35-.59,2.62,2.62,0,0,0,.19-1A7.23,7.23,0,0,0,79.76,35.1Z"/><path class="cls-6" d="M37.39,52.11a1.42,1.42,0,0,0-1.27.66,1.06,1.06,0,0,0-.15.15,1.5,1.5,0,0,0-.2,1.73l0,0A1.36,1.36,0,0,0,38,54.54a2.06,2.06,0,0,0,.44-1.32A1.1,1.1,0,0,0,37.39,52.11Z"/><path class="cls-8" d="M100.83,52A50.19,50.19,0,1,1,50.64,1.79,50.19,50.19,0,0,1,100.83,52Z"/><path class="cls-9" d="M19.4,13.49S-12,39.89,7.69,75.05C7.69,75.05-7.48,41,19.4,13.49Z"/><path class="cls-10" d="M94.2,29.28s11.22,35.48-9.52,58C84.68,87.26,109.85,68.33,94.2,29.28Z"/><path class="cls-11" d="M28.33,50.07a1.75,1.75,0,0,0-1.46-.81,3.78,3.78,0,0,0-3.51,3.19,2.27,2.27,0,0,0,.2,1.35,1.85,1.85,0,0,0,2.06.87,4.17,4.17,0,0,0,2.18-1.44A2.75,2.75,0,0,0,28.33,50.07Z"/><path class="cls-11" d="M36.85,25.07c-.49-.78-1.34-.61-2-.12a1.72,1.72,0,0,0-.61.81.7.7,0,0,0-.06.19s0,0,0,0a1.41,1.41,0,0,0,0,.41,1,1,0,0,0,.54,1.11,1.38,1.38,0,0,0,.92,0,1.54,1.54,0,0,0,.63-.3A1.64,1.64,0,0,0,36.85,25.07Z"/><path class="cls-11" d="M43.93,13.1a3.08,3.08,0,0,0-2.67,1.78,4.62,4.62,0,0,0-.29.59c-.92,1-1.35,2.4-.25,3.35.75.65,2,.28,2.77-.17a4.51,4.51,0,0,0,2.19-2.89A2.09,2.09,0,0,0,43.93,13.1Z"/><path class="cls-11" d="M53.45,7.52a1.75,1.75,0,0,0-1.69,1.35,1.19,1.19,0,0,0,1,1.54,1.73,1.73,0,0,0,1.68-1.36A1.19,1.19,0,0,0,53.45,7.52Z"/><path class="cls-11" d="M32.23,34c-.19-.81-1-1-1.69-1a2.78,2.78,0,0,0-1.68,1.08,3.35,3.35,0,0,0-1.06,2.11,1.92,1.92,0,0,0,.6,1.41,1.73,1.73,0,0,0,1.52.33,2.68,2.68,0,0,0,2-2.07A2.39,2.39,0,0,0,32,35.6,2.58,2.58,0,0,0,32.23,34Z"/><path class="cls-11" d="M20.52,32.11c-1.48,0-2.32,2.65-.62,2.65C21.38,34.76,22.21,32.11,20.52,32.11Z"/><path class="cls-11" d="M65,30.45a1.63,1.63,0,0,0-1.43-.32,4.64,4.64,0,0,0-2.31,1.45c-.73.74-1.44,2-1,3.07a1.89,1.89,0,0,0,1.67,1.27,2.77,2.77,0,0,0,2.51-1.61,1.8,1.8,0,0,1,.08-.21,3.53,3.53,0,0,0,1-1.84A2,2,0,0,0,65,30.45Z"/><path class="cls-11" d="M49.92,25.51c-1.29,0-2,2.3-.53,2.3C50.68,27.81,51.41,25.51,49.92,25.51Z"/><path class="cls-11" d="M63,21a2.24,2.24,0,0,0-1.76-.31,4.79,4.79,0,0,0-2.62,1.67,2.53,2.53,0,0,0-.58,2.18,1.41,1.41,0,0,0,0,.29,1.57,1.57,0,0,0,1,1.41A3.25,3.25,0,0,0,62,25.31a4.23,4.23,0,0,0,1.67-2.45A1.93,1.93,0,0,0,63,21Z"/><path class="cls-11" d="M67.22,12.28c-1.38,0-2.18,2.49-.58,2.49C68,14.77,68.84,12.28,67.22,12.28Z"/><g class="cls-12"><path class="cls-13" d="M16.46,28.62l0,0a.94.94,0,0,1-.1.1A1.35,1.35,0,0,0,16.46,28.62Z"/><path class="cls-13" d="M15.67,24.52a2.54,2.54,0,0,0-2.28,1.53,2.47,2.47,0,0,0-.27,1.33.6.6,0,0,0-.09.13,1.45,1.45,0,0,0,1.1,2.12,3,3,0,0,0,2.31-1l.23-.25a5.11,5.11,0,0,0,.4-.65,3.62,3.62,0,0,0,.33-1.37A1.77,1.77,0,0,0,15.67,24.52Z"/><path class="cls-13" d="M16.34,28.74Z"/></g><path class="cls-11" d="M13.28,31.35c-1.25,0-1.95,2.23-.52,2.23C14,33.58,14.71,31.35,13.28,31.35Z"/><g class="cls-14"><path class="cls-15" d="M14.75,75.8C18.22,74,20.41,71.29,20,67.16c-.6-5.61-4.28-10.53-3.84-16.29a9.52,9.52,0,0,1,5.77-8c3.54-1.59,7.65-1.42,11.42-1.95,3.18-.45,6.4-1.25,8-4.36a28.51,28.51,0,0,1,2.88-5.22c3-3.72,8.61-3.79,12.46-1.47,2.11,1.28,4.27,4.51,6.78,4.87,4.57.64,4.65-3.56,5.83-6.59.07-.22.41-.52.68-.4,2.67,1.25,4.25,4.68,7,5.58,3.76,1.23,4.37-6.57,3.86-8.64-.6-2.49-1.65-4.78-2.47-7.19-.78-2.26-2.12-5.25-.84-7.52A49,49,0,0,0,10.78,79.59,7.48,7.48,0,0,1,14.75,75.8Z"/></g></g></g></g></svg>