<svg xmlns="http://www.w3.org/2000/svg" xmlns:xlink="http://www.w3.org/1999/xlink" viewBox="0 0 103.86 103.85"><defs><style>.cls-1{isolation:isolate;}.cls-2{fill:#a55227;}.cls-3,.cls-9{fill:#89451f;}.cls-4{fill:#a993b6;}.cls-11,.cls-5,.cls-6,.cls-9{mix-blend-mode:multiply;}.cls-5{opacity:0.3;}.cls-6,.cls-9{opacity:0.4;}.cls-7{fill:#e88930;}.cls-8{fill:#ef7b2f;}.cls-12,.cls-8{mix-blend-mode:screen;}.cls-10{fill:#9e5526;}.cls-11{fill:url(#radial-gradient);}.cls-12{fill:url(#radial-gradient-2);}</style><radialGradient id="radial-gradient" cx="-14.62" cy="77.39" r="85.61" gradientTransform="matrix(1, 0.03, -0.03, 1, 36.89, -45.98)" gradientUnits="userSpaceOnUse"><stop offset="0.55" stop-color="#fff"/><stop offset="0.72" stop-color="#fefefd"/><stop offset="0.78" stop-color="#fdf9f6"/><stop offset="0.82" stop-color="#f9f1eb"/><stop offset="0.86" stop-color="#f5e6da"/><stop offset="0.89" stop-color="#efd7c4"/><stop offset="0.92" stop-color="#e8c5a8"/><stop offset="0.94" stop-color="#dfb088"/><stop offset="0.96" stop-color="#d59762"/><stop offset="0.98" stop-color="#c97b39"/><stop offset="1" stop-color="#c06416"/></radialGradient><radialGradient id="radial-gradient-2" cx="28.06" cy="116.89" r="78.18" gradientTransform="matrix(1, 0.03, -0.03, 1, 36.89, -45.98)" gradientUnits="userSpaceOnUse"><stop offset="0.63"/><stop offset="0.72" stop-color="#020202"/><stop offset="0.77" stop-color="#0b0b0b"/><stop offset="0.81" stop-color="#191919"/><stop offset="0.85" stop-color="#2c2c2c"/><stop offset="0.88" stop-color="#464646"/><stop offset="0.91" stop-color="#666"/><stop offset="0.94" stop-color="#8b8b8b"/><stop offset="0.96" stop-color="#b7b7b7"/><stop offset="0.99" stop-color="#e6e6e6"/><stop offset="1" stop-color="#fff"/></radialGradient></defs><g class="cls-1"><g id="Layer_2" data-name="Layer 2"><g id="Layer_1-2" data-name="Layer 1"><path class="cls-2" d="M51.65,51.92l51.76,3.34s0-2.22,0-2.56,0-.82,0-1.45,0-1.39-.08-2.26-.13-1.87-.25-3c-.06-.53-.14-1.09-.22-1.67s-.19-1.18-.3-1.79-.24-1.25-.38-1.89-.31-1.29-.48-1.95a51.5,51.5,0,0,0-2.86-8,50.22,50.22,0,0,0-4.12-7.42c-.75-1.13-1.52-2.18-2.29-3.16S91,18.26,90.25,17.46l-1-1.14-1-1c-.62-.62-1.18-1.14-1.65-1.56l-1.09-1-.4-.33L51.88,52h0l.09-.05s.06,0-.06,0A1.5,1.5,0,0,1,51.65,51.92Z"/><path class="cls-3" d="M103.41,55.26s.06-2.51.06-3.2,0-1.62-.06-2.56c0-.46,0-.93-.08-1.36s-.07-.85-.1-1.2c-.07-.69-.12-1.16-.12-1.16l-1.88.64c-1.13.38-2.64.86-4.15,1.3s-3,.86-4.18,1.15L91,49.34l-2.8.07c-1.79.05-4.33.13-7.38.27s-6.61.33-10.42.59-7.87.58-11.92,1q-3,.28-6,.62l-.37,0h-.18l3.32-.24L62,51.21l6.67-.45-1.83.16c-1.17.1-2.84.24-4.84.39s-4.33.3-6.84.44l-1.91.1-1.46.07h-.17Z"/><path class="cls-3" d="M64.7,52.25a12.77,12.77,0,1,1-12.45-13.1A12.76,12.76,0,0,1,64.7,52.25Z"/><path class="cls-4" d="M51.91,51.9h0Z"/><path class="cls-2" d="M51.88,51.88,83.07,93l.41-.31,1.14-.92c.49-.4,1.08-.89,1.73-1.48.32-.29.67-.6,1-.94l1.1-1.08c.77-.77,1.56-1.63,2.38-2.56s1.63-1.95,2.43-3a52.67,52.67,0,0,0,4.5-7.21A53.09,53.09,0,0,0,101,67.59c.2-.66.4-1.3.57-1.93s.33-1.25.48-1.86.27-1.2.38-1.77.22-1.14.31-1.67.16-1,.23-1.54c0-.12,0-.24,0-.36l.06-.47.09-.93c.12-1.12.2-2.58.19-2.37,0-.31,0-.49,0-.49L51.66,51.59l.08.5c0,.28,0,0,.09,0l0-.08s0,0,0,0H52l-.08-.05,0,0h0Z"/><g class="cls-5"><path class="cls-3" d="M51.88,51.87h0l0,0h0l1,.63,1.23.74c.77.46,1.41.82,1.85,1.08l.69.4s-1.38-.84-3.47-2.08L52,51.93h0l2.06.88,1,.43-3-1.29,0,0h0l0,0c1.87.67,3.12,1.1,3.12,1.1L52,52h-.14a0,0,0,0,1,0,0l0,0,0,.09,0,.08a.32.32,0,0,1,0,.07h0v-.1l0-.15-.06-.41.08.5c0,.28,0,0,.09,0l0-.08s0,0,0,0H52l-.08-.05,0,0h0Z"/></g><g class="cls-6"><path class="cls-3" d="M98.62,73.76s.31-.64.59-1.3.55-1.32.55-1.32l-1.93-1c-1.17-.63-2.73-1.44-4.29-2.24s-3.15-1.57-4.34-2.14l-2-.93-2.55-1c-1.62-.63-3.94-1.51-6.72-2.56-5.58-2.1-13-4.83-20.55-7.43L52,52h0l2.41,1C61,55.7,67.75,58.26,72.8,60.1c2.53.92,4.64,1.66,6.12,2.18l2.33.8s.71.36,1.87,1,2.76,1.49,4.54,2.53,3.75,2.26,5.66,3.5S97.07,72.62,98.62,73.76Z"/><path class="cls-3" d="M101.57,65.79s.14-.46.31-1.17c.09-.36.2-.77.3-1.21s.2-.92.3-1.4c.19-.95.34-1.91.45-2.62l.12-.87c0-.27,0-.42,0-.42L86.66,56.17l-1.9-.11c-.61,0-1.35-.09-2.22-.17l-2.92-.26c-4.33-.4-10.28-1.05-16.74-2-3.23-.46-6.59-1-9.94-1.55l-1-.17H52L89,63s3.12.75,6.26,1.45S101.57,65.79,101.57,65.79Z"/><path class="cls-3" d="M83.07,93l.25-.19c.16-.13.4-.3.67-.52.55-.44,1.27-1,2-1.65s1.39-1.25,1.88-1.74l.83-.82S88,87.66,87,87s-2.32-1.53-3.61-2.43S80.83,82.74,79.88,82l-1.55-1.2-1.81-2.15c-1.15-1.36-2.8-3.29-4.81-5.59s-4.38-5-7-7.77-5.37-5.78-8.2-8.7q-2.13-2.2-4.26-4.34l-.41-.41h0l2.27,2.46,4.65,5L63.3,64.3,62,63c-.81-.85-2-2.07-3.32-3.54s-3-3.2-4.62-5.07L52.82,53l-.64-.73-.3-.35h0Z"/><path class="cls-3" d="M91.64,84.78s.28-.33.69-.84.93-1.21,1.45-1.92,1-1.43,1.35-2c.18-.27.33-.5.43-.67l.16-.25c-3.81-2.05-8.21-4.54-11.62-6.54-1.72-1-3.19-1.88-4.24-2.51s-1.65-1-1.65-1l-2-1.43c-1.28-.9-3.12-2.19-5.35-3.7S66,60.69,63.19,58.87s-5.87-3.72-8.94-5.57L52,51.93h0l0,0h0l1.17,1C58.3,57.29,63.57,61.69,67.53,65l6.6,5.48L79.61,75C82.9,77.68,87.27,81.26,91.64,84.78Z"/><path class="cls-3" d="M51.76,52.22h0v0s0,0,0-.06a1.77,1.77,0,0,1,.06-.17l0-.05,0,0h0l1.5.21,2.09.26,2.23.26q1.14.13,2.31.24c3.09.3,6.21.45,8.54.49,1.17,0,2.15,0,2.83,0h1.07L66.4,53c-3.64-.21-8.5-.48-13.36-.73l-.91,0-.37,0h0Z"/></g><path class="cls-7" d="M76,83.73l7,9.27.41-.31,1.14-.92c.49-.4,1.08-.89,1.73-1.48.32-.29.67-.6,1-.94l1.1-1.08c.77-.77,1.56-1.63,2.38-2.56s1.63-1.95,2.43-3a52.67,52.67,0,0,0,4.5-7.21A53.09,53.09,0,0,0,101,67.59c.2-.66.4-1.3.57-1.93s.33-1.25.48-1.86.27-1.2.38-1.77.22-1.14.31-1.67.16-1,.23-1.54c0-.12,0-.24,0-.36l.06-.47.09-.93c.12-1.12.2-2.58.19-2.37,0-.31,0-.49,0-.49l-11.61-.59-2.5.51-.11,0-.12.1-.25.21-.47.4c-.31.26-.61.49-.86.68-.5.39-.84.63-.84.63a.37.37,0,0,0,0,.09.61.61,0,0,0,0,.11l.06.12.31.71c.13.3.29.66.44,1s.31.8.46,1.22c.3.85.55,1.73.74,2.4l.21.81c0,.2.07.32.07.32s-.44.46-.89.91c-.22.23-.45.45-.62.61l-.29.27-3-.83c-1.49-.43-3-.88-3-.88s-.14.4-.39,1c-.12.29-.26.63-.43,1s-.35.74-.54,1.12c-.39.74-.79,1.48-1.13,2l-.4.65-.15.24-.64.27c-.38.15-.89.34-1.41.51s-1,.33-1.39.44l-.64.17.23.41c.14.26.35.64.58,1.1.47.92,1.06,2.17,1.59,3.48s1,2.63,1.3,3.66c.16.51.28.94.37,1.24l.13.48-.34.46c-.2.28-.48.65-.77,1s-.58.72-.8,1Z"/><path class="cls-8" d="M76,83.73l.4-.42.83-1,.44-.52.37-.46c.21-.26.35-.45.35-.45h0v0a44.14,44.14,0,0,0-1.71-5.29,45.33,45.33,0,0,0-2.31-4.93l.63-.17c.39-.1.89-.25,1.4-.42s1-.36,1.4-.51l.64-.26h0l.29-.45.62-1c.21-.37.42-.74.57-1l.25-.47.23-.47c.13-.28.31-.65.47-1s.32-.76.44-1,.1-.27.14-.35l0-.13,2.83.83c1.42.41,2.85.8,2.85.8l.22.06.07-.08.29-.27c.17-.17.4-.38.62-.61.45-.46.88-.93.88-.93l0,0v0l-.08-.31c0-.2-.13-.49-.22-.82-.2-.68-.47-1.55-.79-2.41-.16-.42-.32-.84-.48-1.23s-.32-.74-.46-1-.25-.55-.33-.72a.67.67,0,0,0-.06-.12l0-.1,0-.09s.33-.25.81-.64c.25-.2.53-.43.83-.69l.46-.4.24-.22.11-.1,0,0h.1l2.4-.51-2.57.5-.12,0s0,0-.06,0l-.06,0-.25.21-.49.4-.88.67c-.51.38-.86.61-.86.61l0,0,0,0s0,.14.11.3.18.41.31.71l.41,1c.14.38.28.79.42,1.21.29.84.52,1.7.69,2.36.09.33.16.61.2.81l.07.3s-.42.44-.85.86c-.21.2-.42.41-.59.56l-.27.25s-1.45-.39-2.89-.8-2.87-.83-2.87-.83L81,62.86l0,.1a1.11,1.11,0,0,0,0,.13c0,.08-.08.21-.14.35s-.29.67-.46,1-.35.75-.49,1l-.23.46s-.09.19-.24.46-.34.64-.54,1-.42.72-.58,1-.28.44-.28.44l-.62.26c-.38.15-.87.34-1.38.51-1,.35-2,.6-2,.6l-.06,0,.06.1c.22.39.45.8.66,1.21s.43.82.63,1.23c.4.83.79,1.68,1.15,2.55a51.85,51.85,0,0,1,1.87,5.39l-.32.48c-.19.29-.46.66-.73,1s-.55.74-.77,1Z"/><path class="cls-8" d="M85.42,56.1l-.65,0L84,56l-1-.09c-1.58-.13-3.83-.34-6.53-.61s-5.84-.64-9.21-1.07-6.93-.94-10.5-1.51L54,52.3,51.94,52h0l1.12.2c6.52,1.18,13.36,2.25,19.2,3,2.92.36,5.58.63,7.83.8,1.12.09,2.14.15,3,.18.45,0,.86,0,1.24,0h.55Z"/><path class="cls-8" d="M72.47,53.41,66.4,53c-3.64-.21-8.5-.48-13.36-.73l-.91,0-.37,0h0v0l0-.09h0l.62,0,1.6.08,6.47.35c2.16.12,4.28.25,6.31.38l3,.19C70.67,53.23,71.59,53.31,72.47,53.41Z"/><path class="cls-8" d="M78.83,61.57l-2.08-.78-5.49-2C66.7,57.08,60.62,54.9,54.5,52.81L52,52h0l4.91,1.63c2.73.91,5.46,1.85,8.1,2.77C70.31,58.21,75.19,60,78.83,61.57Z"/><path class="cls-8" d="M73.64,65.85,71.9,64.66c-1.1-.76-2.68-1.84-4.6-3.1-3.82-2.54-9-5.84-14.23-9l-1-.58L52,51.93h0l1.68,1c1.21.7,2.41,1.42,3.61,2.13,2.38,1.42,4.69,2.84,6.81,4.19A116.41,116.41,0,0,1,73.64,65.85Z"/><path class="cls-8" d="M71.67,73.05l-1.46-1.66c-.93-1.06-2.27-2.56-3.9-4.35-3.25-3.59-7.66-8.3-12.18-12.89l-1.7-1.72L52,52l-.11-.1,0,0h0L52,52c.49.5,1,1,1.5,1.53l3,3.12c2,2.1,4,4.2,5.8,6.21C66,66.9,69.32,70.57,71.67,73.05Z"/><path class="cls-3" d="M98.59,57.73c-.41,0-.67-.7-.6-1.45s.44-1.34.86-1.32.71.68.64,1.46S99,57.79,98.59,57.73Z"/><path class="cls-3" d="M97,59.29a.52.52,0,0,1-.34-.62c0-.3.27-.52.5-.49a.5.5,0,0,1,.34.61C97.45,59.1,97.22,59.32,97,59.29Z"/><path class="cls-3" d="M99.43,65.14a.56.56,0,0,1-.26-.7c.09-.32.34-.54.56-.48s.35.37.26.7S99.65,65.2,99.43,65.14Z"/><path class="cls-3" d="M92.08,68.79a.87.87,0,0,1-.33-1.16.85.85,0,0,1,1-.61.87.87,0,0,1,.37,1.17A.88.88,0,0,1,92.08,68.79Z"/><path class="cls-3" d="M87.86,73.13a.48.48,0,0,1-.11-.66.43.43,0,1,1,.11.66Z"/><path class="cls-3" d="M88.25,79.09a.57.57,0,1,1,.68-.19A.52.52,0,0,1,88.25,79.09Z"/><path class="cls-3" d="M82.9,86.92a.9.9,0,0,1,.24-1.23.94.94,0,0,1,1.25-.15,1.06,1.06,0,0,1-1.49,1.38Z"/><path class="cls-3" d="M78.9,76.22a2.37,2.37,0,0,1-.63-1,3.23,3.23,0,0,1-.18-1.17,4,4,0,0,1,.24-1.25A4.42,4.42,0,0,1,79,71.63a4.7,4.7,0,0,1,1-1A4.49,4.49,0,0,1,81,70a2.74,2.74,0,0,1,2.28.12,2.42,2.42,0,0,1,1.14,2,3.86,3.86,0,0,1-.18,1.4A4.6,4.6,0,0,1,83.56,75a5,5,0,0,1-1.12,1.12,4.2,4.2,0,0,1-1.28.59,2.71,2.71,0,0,1-1.23,0A2.23,2.23,0,0,1,78.9,76.22Z"/><path class="cls-9" d="M80.4,74.5a1.77,1.77,0,0,1-.61-1.38,2.92,2.92,0,0,1,.54-1.69,3,3,0,0,1,1.38-1.11,1.79,1.79,0,0,1,1.52.07A1.64,1.64,0,0,1,84,71.72a2.87,2.87,0,0,1-.54,1.84,2.92,2.92,0,0,1-1.53,1.17A1.6,1.6,0,0,1,80.4,74.5Z"/><path class="cls-3" d="M90.82,58.63A1.1,1.1,0,0,1,90,58a2.22,2.22,0,0,1-.19-.6,1.87,1.87,0,0,1,0-.34c0-.06,0-.12,0-.18v-.08a.49.49,0,0,1,0-.12A3.87,3.87,0,0,1,90.36,55a1.15,1.15,0,0,1,1-.64c.35,0,.65.31.84.77a3.65,3.65,0,0,1,.2,1.8.43.43,0,0,1,0,.12l0,.1a1.16,1.16,0,0,1,0,.18l-.12.34a2.18,2.18,0,0,1-.36.55A1.08,1.08,0,0,1,90.82,58.63Z"/><path class="cls-9" d="M91,57.54a.78.78,0,0,1-.55-.43c0-.06,0-.12-.08-.19s0-.07,0-.1a.59.59,0,0,1,0-.14,3.21,3.21,0,0,1,0-.62c.09-.86.51-1.54,1-1.52s.79.79.7,1.7a3.66,3.66,0,0,1-.14.63l0,.14-.06.09a1.09,1.09,0,0,1-.13.17A.73.73,0,0,1,91,57.54Z"/><path class="cls-3" d="M91,76.76a1.21,1.21,0,0,1-.47-1.1A3.5,3.5,0,0,1,91,74.05a3.33,3.33,0,0,1,1.14-1.23,1.25,1.25,0,0,1,1.19-.16,1.17,1.17,0,0,1,.57,1.07,3.43,3.43,0,0,1-.46,1.7,3.27,3.27,0,0,1-1.23,1.27A1.18,1.18,0,0,1,91,76.76Z"/><path class="cls-9" d="M91.73,75.55c-.44-.26-.44-1.06,0-1.81s1.09-1.16,1.55-.94.51,1.06.08,1.84S92.17,75.82,91.73,75.55Z"/><path class="cls-4" d="M51.94,51.81v0Z"/><path class="cls-2" d="M51.9,52,39.24,101.88l.51.13.61.15.82.18c.62.13,1.38.29,2.25.43l1.39.21.37,0,.19,0,.24,0c.35,0,.72.09,1.09.12l1.13.1.58,0,.58,0,.45,0h.21l1,0h1c.65,0,1.3,0,2,0a51.34,51.34,0,0,0,8.43-1A51.56,51.56,0,0,0,77,97c1-.53,1.79-1,2.54-1.52s1.38-.9,1.9-1.26.91-.66,1.18-.86l.42-.31L51.88,51.88l0,.06A.09.09,0,0,1,52,52s0,0,0,0v-.07a.13.13,0,0,1,0-.06v-.22h.24l-.12,0-.45.07.2.07.09,0h0s0,0,0,0a.09.09,0,0,1,0,0Z"/><g class="cls-5"><path class="cls-3" d="M51.9,52v0a.1.1,0,0,1,0,0h0l0,0-.07,0-.08,0h-.05l0,0h.09l.31,0,.24,0h-.31v0h0v.24c0,.42.09.82.14,1.19s.13,1,.19,1.43c.12.88.23,1.61.3,2.11s.13.79.13.79-.21-1.6-.55-4C52.1,53,52,52.49,52,52h0v0h0v0h0c.25.89.45,1.63.59,2.15.2.68.31,1.08.31,1.08L52,52h0s0,0,0,0c.63,1.87,1.07,3.12,1.07,3.12l-1-3,0-.09v0h0v0h0l0,0h0v0l0,0,0,.06A.09.09,0,0,1,52,52s0,0,0,0v-.07a.13.13,0,0,1,0-.06v-.22h.24l-.12,0-.45.07.2.07.09,0h0s0,0,0,0a.09.09,0,0,1,0,0v0Z"/></g><g class="cls-6"><path class="cls-3" d="M64,102.05l1.38-.36c.69-.18,1.37-.39,1.37-.39l-.38-2.16c-.24-1.3-.57-3-.93-4.75s-.73-3.43-1-4.72l-.5-2.13-.82-2.61c-.52-1.65-1.27-4-2.19-6.85-1.83-5.68-4.35-13.21-7-20.7L52,52s0,0,0,0l.71,2.5c2,6.89,4.17,13.72,5.88,18.82.86,2.55,1.59,4.66,2.11,6.15s.83,2.32.83,2.32.16.78.4,2.06.55,3.09.85,5.14.58,4.34.79,6.61S63.89,100.12,64,102.05Z"/><path class="cls-3" d="M72,99.39l1.12-.49c.66-.3,1.54-.71,2.4-1.16s1.71-.91,2.34-1.28l1-.62-8.7-14.09-1.07-1.57c-.68-1-1.67-2.48-2.86-4.3-2.39-3.63-5.58-8.68-8.89-14.3-1.66-2.82-3.35-5.77-5-8.75l-.49-.89h0l0,0v0L66.4,87.83s1.35,2.91,2.77,5.8S72,99.39,72,99.39Z"/><path class="cls-3" d="M39.24,101.88l1.14.28c.69.16,1.61.35,2.54.52l1.35.22.63.09.58.08,1.59.17s-.17-.79-.38-2c-.11-.59-.23-1.29-.35-2a19.52,19.52,0,0,1-.28-2.33c-.1-1.58-.17-3.15-.2-4.34s0-2,0-2l.55-2.75c.34-1.75.83-4.25,1.36-7.25s1.14-6.52,1.72-10.3,1.17-7.79,1.66-11.84c.24-2,.47-4,.67-6l0-.38v-.19s0,0,0,0h0l-.07,0-.08,0a1.42,1.42,0,0,1,.2.08l.07,0h0l-1.54,10c-.62,4-1,6.61-1,6.61s.09-.67.24-1.83.39-2.81.69-4.79.66-4.3,1.08-6.77c.1-.62.21-1.25.32-1.88,0-.32.11-.64.16-1l0-.25,0-.11h0v0Z"/><path class="cls-3" d="M51,103.46h2.19l1.27,0,1.28-.08,1.11-.1,1.09-.11c-.77-4.26-1.56-9.25-2.13-13.17-.29-2-.52-3.66-.68-4.87s-.25-1.92-.25-1.92,0-.9-.13-2.46-.23-3.81-.44-6.49-.47-5.81-.81-9.16-.75-6.9-1.22-10.46c-.11-.88-.23-1.76-.35-2.63h0a.1.1,0,0,1,0,0,.21.21,0,0,1,0-.06v-.11a.19.19,0,0,1,0-.08v0h.32s0,0,0,0h0v.14l0,.32c0,.42,0,.85-.06,1.28-.08,1.72-.16,3.43-.25,5.12,0,.84-.08,1.68-.12,2.5v.26c.08,0-.1,0-.08,0v.35c0,.2,0,.41,0,.61l0,1.22c-.06,3.21-.13,6.22-.18,8.79-.1,5.15-.16,8.58-.16,8.58s0,2.85-.12,7.1S51.05,97.85,51,103.46Z"/><path class="cls-3" d="M51.9,51.9l0,0h0c.23.4.49.82.76,1.28s.71,1.17,1.09,1.79c.77,1.25,1.6,2.56,2.46,3.86,1.7,2.6,3.49,5.15,4.87,7,.69.94,1.27,1.72,1.68,2.26l.65.85S58,60.92,52.55,52.87C52.23,52.38,51.9,51.9,51.9,51.9Z"/></g><path class="cls-7" d="M42.1,90.61l-2.86,11.27.51.13.61.15.82.18c.62.13,1.38.29,2.25.43l1.39.21.37,0,.19,0,.24,0c.35,0,.72.09,1.09.12l1.13.1.58,0,.58,0,.45,0h.21l1,0h1c.65,0,1.3,0,2,0a51.34,51.34,0,0,0,8.43-1A51.56,51.56,0,0,0,77,97c1-.53,1.79-1,2.54-1.52s1.38-.9,1.9-1.26.91-.66,1.18-.86l.42-.31-7-9.27s-.38-.09-1-.25l-1-.28-1.08-.35c-.73-.25-1.44-.52-2-.73s-.87-.37-.87-.37-.18.39-.49,1-.74,1.34-1.22,2.11-1,1.52-1.41,2.06-.7.93-.7.93l-.4,0-.87-.1-.86-.1-.39-.06s-.62-1.42-1.22-2.86-1.17-2.87-1.17-2.87l-1,.31c-.61.16-1.43.38-2.25.54s-1.66.3-2.29.39l-1,.11-.6-.33c-.36-.21-.83-.49-1.28-.78s-.88-.6-1.2-.82l-.52-.39,0,.11,0,.06s0,0,0,0v0h-.42a1.62,1.62,0,0,1,0,.19c-.06.28-.15.67-.25,1.15s-.23,1-.36,1.62c0,.15-.07.3-.1.45l-.06.23,0,.12a.25.25,0,0,1,0,.11c-.2.3-.4.61-.61.91-.42.61-.87,1.21-1.3,1.77-.22.28-.44.54-.65.79a.39.39,0,0,1-.08.1l-.06.09-.12.18-.23.35c-.3.44-.56.8-.75,1.06l-.29.4-.57,0c-.35,0-.81,0-1.28,0C43,90.66,42.1,90.61,42.1,90.61Z"/><path class="cls-8" d="M42.1,90.61s.94.08,1.86.1l1.27,0h.6l0,0c.28-.37.56-.75.83-1.13l.4-.57.1-.15a1.1,1.1,0,0,1,.11-.14l.24-.28q1-1.16,1.8-2.34l.41-.6.1-.15,0-.07,0,0v0l.07-.31.28-1.24.27-1.24.14-.62.07-.31h.43v0l0,0,0-.08.07-.15s.2.16.52.39.74.54,1.2.82.91.58,1.26.78l.6.34h0l.52-.05.54,0,.62-.09c.85-.11,1.68-.28,1.68-.28s.82-.16,1.61-.38c.4-.11.8-.22,1.09-.32l.5-.15s.54,1.37,1.11,2.73,1.15,2.73,1.15,2.73l.09.2.1,0,.39,0,.87.1.88.08.4,0h0l0,0s.29-.37.69-.94.92-1.34,1.39-2.11.9-1.56,1.2-2.15.48-1,.48-1l.86.34c.52.2,1.22.45,1.94.68l1.06.32.94.25c.55.15.93.23.93.23l-1-.27-1-.3L73,82.78c-.73-.27-1.45-.55-2-.78l-.88-.39,0,0,0,0s-.19.38-.5.95-.75,1.31-1.23,2.05-1,1.47-1.41,2l-.7.89-.38,0-.82-.1c-.59-.07-1.17-.16-1.17-.16s-.6-1.37-1.18-2.75-1.14-2.77-1.14-2.77l-.11-.27-.1,0-.5.15-.51.15-.59.15c-.81.21-1.63.37-1.63.37s-.81.18-1.63.3l-.6.09-.53.07-.51,0s-.24-.12-.59-.32S53.48,82,53,81.72s-.87-.58-1.19-.81l-.51-.37,0,0-.05.1v0h-.41v0l0,.08,0,.16-.07.32-.14.64-.28,1.27L50,84.42a1.24,1.24,0,0,1,0,.16l-.09.15-.2.31-.41.61c-.55.82-1.15,1.63-1.78,2.42a4.37,4.37,0,0,0-.42.6l-.4.59c-.27.4-.54.8-.82,1.19l-.58,0L44,90.58C43,90.62,42.1,90.61,42.1,90.61Z"/><path class="cls-8" d="M69.52,80.73S69,80,68.13,78.66s-2.12-3.2-3.58-5.48-3.15-5-4.9-7.86-3.59-6-5.37-9.16L53,53.8c-.34-.63-.69-1.25-1-1.86h0l.54,1c3.14,5.82,6.57,11.84,9.66,16.85A112.84,112.84,0,0,0,69.52,80.73Z"/><path class="cls-8" d="M63.43,69S58,60.92,52.55,52.87c-.32-.49-.65-1-.65-1h0L52,52l.22.33c.31.43.61.87.92,1.31l3.69,5.33C59.22,62.5,61.57,66,63.43,69Z"/><path class="cls-8" d="M61.16,79s-.25-.76-.68-2.11-1.07-3.26-1.84-5.57c-1.53-4.6-3.62-10.72-5.8-16.81L52,52h0l1.8,4.86c1,2.7,2,5.42,2.88,8.06C58.48,70.21,60.1,75.16,61.16,79Z"/><path class="cls-8" d="M54.57,77.58s0-.77-.14-2.1S54.19,72.24,54,70c-.4-4.57-1-10.65-1.87-16.72L52,52.1,52,52h0v0h0c.09.63.19,1.26.28,1.9.2,1.39.4,2.78.58,4.15.37,2.75.7,5.45,1,7.95A112.2,112.2,0,0,1,54.57,77.58Z"/><path class="cls-8" d="M47.74,80.54l.39-2.18c.24-1.39.58-3.38,1-5.77.77-4.77,1.72-11.15,2.41-17.56.09-.8.17-1.6.26-2.4l.06-.6v-.19h-.05l0,0-.06,0,.19.07h0s0-.08,0,.18l-.24,2.13c-.17,1.42-.35,2.86-.55,4.29-.39,2.86-.81,5.7-1.22,8.41C49,72.28,48.21,77.15,47.74,80.54Z"/><path class="cls-3" d="M76.44,92.05a1.08,1.08,0,0,1,1.73-1.11.92.92,0,0,1-.45,1.2A.93.93,0,0,1,76.44,92.05Z"/><path class="cls-3" d="M74.26,91.75a.52.52,0,0,1,.28-.65.5.5,0,0,1,.69.09.58.58,0,0,1-1,.56Z"/><path class="cls-3" d="M71.21,97.3c-.09-.22.08-.5.39-.63s.63-.07.72.14-.07.5-.38.64S71.3,97.51,71.21,97.3Z"/><path class="cls-3" d="M63.78,93.84a.89.89,0,0,1,.69-1,.88.88,0,0,1,1.13.44,1,1,0,0,1-1.82.56Z"/><path class="cls-3" d="M57.75,93.24a.47.47,0,0,1,.44-.5.48.48,0,0,1,.57.34.52.52,0,0,1-1,.16Z"/><path class="cls-3" d="M53.34,97.26a.57.57,0,0,1,1.1-.05c0,.24-.22.44-.53.46A.5.5,0,0,1,53.34,97.26Z"/><path class="cls-3" d="M43.91,98A.94.94,0,0,1,45,97.38c.55.09.95.48.9.89s-.56.69-1.12.6S43.84,98.38,43.91,98Z"/><path class="cls-3" d="M50,88.17a5.13,5.13,0,0,1,.49-2l.05-.1h0l.55,0h0l0,0,.06,0,.27-.16A4.47,4.47,0,0,1,52,85.6a5.14,5.14,0,0,1,1.34-.25,5,5,0,0,1,1.36.14,4.22,4.22,0,0,1,1.17.5,2.71,2.71,0,0,1,1.33,1.85A2.35,2.35,0,0,1,57.1,89a2.86,2.86,0,0,1-.72,1,3.83,3.83,0,0,1-1.21.73,4.75,4.75,0,0,1-1.55.32,4.4,4.4,0,0,1-1.56-.19,4.06,4.06,0,0,1-.67-.26,3.07,3.07,0,0,1-.31-.17l-.07,0,0,0h0l-.65,0h0a.3.3,0,0,0,0-.1A5.1,5.1,0,0,1,50,88.17Z"/><path class="cls-9" d="M52,88.26a1.76,1.76,0,0,1,.69-1.34,3.08,3.08,0,0,1,3.39-.24A1.75,1.75,0,0,1,57,87.91a1.63,1.63,0,0,1-.57,1.42,3.11,3.11,0,0,1-3.64.26A1.65,1.65,0,0,1,52,88.26Z"/><path class="cls-3" d="M70.92,86.52a1.13,1.13,0,0,1,0-1,2.26,2.26,0,0,1,.89-1,2.29,2.29,0,0,1,1.26-.36,1.15,1.15,0,0,1,.94.46,1.09,1.09,0,0,1,0,1,2.19,2.19,0,0,1-.92,1,2.36,2.36,0,0,1-1.33.35A1.14,1.14,0,0,1,70.92,86.52Z"/><path class="cls-9" d="M71.9,86c-.24-.4,0-1,.58-1.34s1.2-.33,1.46,0,0,1-.56,1.38S72.13,86.38,71.9,86Z"/><path class="cls-3" d="M56.84,97.93a1.23,1.23,0,0,1,.57-1.06A3.54,3.54,0,0,1,59,96.24a4,4,0,0,1,.9,0,2.7,2.7,0,0,1,.78.16,1.23,1.23,0,0,1,.87.83A1.19,1.19,0,0,1,61,98.3a2.6,2.6,0,0,1-.71.44,3.58,3.58,0,0,1-.91.26,3.23,3.23,0,0,1-1.76-.16A1.2,1.2,0,0,1,56.84,97.93Z"/><path class="cls-9" d="M58.27,97.77c-.07-.5.55-1,1.39-1.15s1.59.12,1.7.62S60.85,98.3,60,98.45,58.33,98.28,58.27,97.77Z"/><path class="cls-4" d="M52,51.87h0Z"/><path class="cls-2" d="M51.87,51.94,5,73.15l.21.47c.15.31.36.76.64,1.33.57,1.13,1.42,2.73,2.58,4.56a50.46,50.46,0,0,0,4.39,5.94,51.09,51.09,0,0,0,6,5.94,49.84,49.84,0,0,0,6.91,4.9,52.66,52.66,0,0,0,6.65,3.32c.51.21,1,.4,1.46.57l1.33.48c.83.29,1.58.51,2.18.7s1.1.3,1.42.39l.51.13L51.9,52s0,0,0,0a.88.88,0,0,1,.07-.13l0,0,0,0Z"/><g class="cls-5"><path class="cls-3" d="M51.89,51.93H52l-.9.92-1,1c-.61.64-1.11,1.18-1.46,1.56l-.54.59s1.13-1.17,2.79-2.93L52,51.87h0l0,0h0c-.57.79-1.05,1.44-1.39,1.9l-.65.91,1.93-2.67a.71.71,0,0,0,.1-.14h0l-1.86,2.92,1.85-2.9h0v0a0,0,0,0,0,0,0h0v0h0v0s0,0,0,0a.88.88,0,0,1,.07-.13l0,0,0,0h0Z"/></g><g class="cls-6"><path class="cls-3" d="M20.25,92.58s.56.44,1.13.86,1.15.82,1.15.82L24,92.61c.87-1,2-2.33,3.13-3.68s2.23-2.72,3.05-3.75l1.36-1.72,1.53-2.26c1-1.44,2.36-3.5,4-6,3.29-5,7.62-11.63,11.83-18.36l1.58-2.53c.49-.8,1-1.59,1.47-2.38h0l0-.05-1.59,2.23C46.22,60,42.23,65.93,39.31,70.45c-1.46,2.26-2.66,4.15-3.49,5.48L34.52,78s-.51.61-1.37,1.6S31.08,82,29.66,83.49s-3,3.16-4.66,4.74S21.7,91.32,20.25,92.58Z"/><path class="cls-3" d="M27.31,97.21s.43.24,1.07.57,1.53.76,2.41,1.16,1.79.77,2.47,1l1.14.43L40,84.82,40.56,83c.37-1.16.9-2.84,1.58-4.91C43.5,74,45.46,68.31,47.8,62.22c1.17-3,2.43-6.21,3.74-9.35L51.9,52h0a0,0,0,0,0,0,0v0L32.85,85.61S31.41,88.48,30,91.38,27.31,97.21,27.31,97.21Z"/><path class="cls-3" d="M5,73.15s.19.43.49,1.06c.15.32.34.69.53,1.08s.42.81.65,1.22.45.82.67,1.2l.61,1,.62,1s.56-.57,1.41-1.4,2-1.92,3.17-3,2.36-2.09,3.27-2.85l1.51-1.26L20.38,70c1.58-.82,3.83-2,6.52-3.46s5.81-3.17,9.12-5.07,6.83-3.95,10.31-6.07L52,51.9l0,0h0l-8.78,5-5.81,3.31,1.58-1c1-.6,2.44-1.45,4.18-2.46s3.77-2.16,6-3.37l1.67-.92.86-.47.32-.18h0Z"/><path class="cls-3" d="M11.09,83.37s.26.35.67.86,1,1.18,1.54,1.83,1.17,1.29,1.63,1.75l.77.78c2.84-3.26,6.24-7,9-9.89C26,77.25,27.19,76,28,75.14l1.34-1.4,1.84-1.64c1.17-1,2.83-2.56,4.8-4.39s4.24-4,6.64-6.35,4.93-4.9,7.41-7.48l1.86-2,0-.06h0l-.06,0-.13.1-1,.77c-5.48,4.14-10.93,8.31-15,11.44l-6.8,5.23-5.62,4.34C20,76.41,15.49,79.89,11.09,83.37Z"/><path class="cls-3" d="M51.89,52h0c0,.13-.1.26-.15.39-.11.29-.22.6-.34.91l-.72,2c-.49,1.37-1,2.85-1.49,4.32-1,3-1.85,6-2.47,8.2-.31,1.12-.55,2.07-.72,2.73s-.26,1-.26,1,3-9.27,5.85-18.56Z"/></g><path class="cls-7" d="M15.55,68.36,5,73.15l.21.47c.15.31.36.76.64,1.33.57,1.13,1.42,2.73,2.58,4.56a50.46,50.46,0,0,0,4.39,5.94,51.09,51.09,0,0,0,6,5.94,49.84,49.84,0,0,0,6.91,4.9,52.66,52.66,0,0,0,6.65,3.32c.51.21,1,.4,1.46.57l1.33.48c.83.29,1.58.51,2.18.7s1.1.3,1.42.39l.51.13L42.1,90.61l-.39-.9c-.24-.53-.53-1.26-.79-2s-.5-1.44-.66-2-.26-.91-.26-.91-.42.1-1.07.22-1.52.26-2.42.36-1.81.16-2.5.18-1.16,0-1.16,0l-.22-.33-.47-.74-.45-.74c-.12-.2-.19-.34-.19-.34s.73-1.37,1.48-2.73S34.52,78,34.52,78l-.25-.16-.62-.43c-.51-.37-1.18-.87-1.82-1.41l-.48-.41-.45-.4c-.29-.26-.56-.51-.78-.73-.45-.44-.74-.74-.74-.74s-.06-.27-.12-.68-.14-.94-.19-1.48S29,70.52,29,70.12c0-.19,0-.36,0-.47v-.18s-.65.19-1.66.45-2.35.55-3.74.77-2.79.38-3.86.46l-1.3.08-.49,0s-.61-.68-1.2-1.41S15.55,68.36,15.55,68.36Z"/><path class="cls-8" d="M15.55,68.36s.53.77,1.08,1.52,1.14,1.45,1.14,1.45h.05a43.58,43.58,0,0,0,10.86-1.65,1.41,1.41,0,0,1,0,.18c0,.12,0,.28,0,.48,0,.39.05.92.1,1.46s.13,1.06.19,1.47.11.68.11.68h0l.37.39c.22.22.52.52.83.81s.62.58.86.79l.4.34.4.32c.24.2.57.45.9.69s.66.49.92.66l.42.28-1.45,2.58c-.71,1.29-1.41,2.59-1.41,2.59l-.11.2.06.09a3.87,3.87,0,0,0,.2.34c.12.2.28.47.46.74s.34.53.48.73l.22.33,0,0h0s.47,0,1.17-.05,1.62-.11,2.52-.22,1.78-.27,2.43-.4L39.93,85s.1.35.27.88.42,1.23.69,1.94.57,1.41.81,1.93.4.87.4.87-.16-.37-.38-.92-.51-1.29-.76-2-.48-1.48-.63-2-.25-.92-.25-.92v0h0s-.42.09-1.06.2-1.5.23-2.37.31-1.78.13-2.46.14-1.14,0-1.14,0l-.2-.31-.43-.7c-.31-.51-.6-1-.6-1s.7-1.32,1.42-2.64S34.66,78,34.66,78l.14-.26-.08-.06s-.18-.11-.43-.29l-.92-.67c-.33-.26-.66-.51-.9-.71l-.4-.33-.39-.33c-.23-.2-.55-.47-.85-.75s-.6-.56-.82-.77l-.37-.37s-.05-.26-.11-.66-.14-.93-.2-1.46-.09-1-.11-1.43c0-.2,0-.36,0-.47v-.24l-.11,0A46.61,46.61,0,0,1,18,71.16s-.63-.66-1.24-1.36S15.55,68.36,15.55,68.36Z"/><path class="cls-8" d="M40.37,83.63l.75-2.37c.48-1.5,1.18-3.65,2.05-6.22s1.93-5.55,3.1-8.73,2.47-6.56,3.82-9.91L51.9,52h0s-.2.48-.43,1c-2.61,6.08-5.18,12.51-7.18,18.05A110.59,110.59,0,0,0,40.37,83.63Z"/><path class="cls-8" d="M45.74,71.57s3-9.27,5.85-18.56l.3-1h0c-.18.61-.36,1.23-.55,1.86l-1.87,6.21C48.21,64.22,47,68.23,45.74,71.57Z"/><path class="cls-8" d="M36.53,76l1.22-1.85L41,69.25c2.64-4.07,6.13-9.52,9.54-15l1.28-2.06.14-.24h0l-.5.82C50.7,54,50,55.2,49.2,56.43c-1.5,2.46-3,4.92-4.51,7.28C41.71,68.44,38.85,72.8,36.53,76Z"/><path class="cls-8" d="M33.54,70l1.54-1.43c1-.91,2.38-2.21,4-3.8,3.33-3.16,7.68-7.46,11.9-11.88l1-1h0l-1.39,1.5c-1,1-1.92,2-2.88,3-1.92,2-3.82,4-5.6,5.72C38.54,65.67,35.4,68.53,33.54,70Z"/><path class="cls-8" d="M27,66.49l1.94-1.06c1.24-.68,3-1.65,5.11-2.84,4.22-2.37,9.78-5.63,15.27-9L52,51.9h0L50,53.1l-3.71,2.23c-2.48,1.48-5,2.92-7.34,4.29C34.2,62.34,29.88,64.74,27,66.49Z"/><path class="cls-3" d="M35.82,96.1a1.08,1.08,0,1,1,.73,1.06C36,97,35.68,96.49,35.82,96.1Z"/><path class="cls-3" d="M34.69,94.2a.59.59,0,0,1,1.05.42.53.53,0,0,1-.69.19A.51.51,0,0,1,34.69,94.2Z"/><path class="cls-3" d="M28.44,95.26a.54.54,0,0,1,.73-.08c.29.15.44.45.34.65a.54.54,0,0,1-.74.1C28.47,95.77,28.32,95.47,28.44,95.26Z"/><path class="cls-3" d="M26.54,87.31a1,1,0,0,1,1.56,1.07,1,1,0,0,1-1.56-1.07Z"/><path class="cls-3" d="M23.28,82.25a.47.47,0,0,1,.66,0,.48.48,0,0,1,.09.66.52.52,0,0,1-.75-.69Z"/><path class="cls-3" d="M17.38,81.32a.52.52,0,0,1,.69.15.5.5,0,0,1,.05.69.5.5,0,0,1-.69-.14A.51.51,0,0,1,17.38,81.32Z"/><path class="cls-3" d="M10.93,74.36a1.07,1.07,0,0,1,1,1.76.9.9,0,0,1-1.17-.5A.9.9,0,0,1,10.93,74.36Z"/><path class="cls-3" d="M22.26,72.84a2.77,2.77,0,0,1,2.26-.32,4.41,4.41,0,0,1,2.19,1.4,4.54,4.54,0,0,1,.75,1.15,3.91,3.91,0,0,1,.34,1.22,2.73,2.73,0,0,1-.62,2.19,2.44,2.44,0,0,1-2.21.67,3.91,3.91,0,0,1-1.32-.48,5,5,0,0,1-1.22-1,4.39,4.39,0,0,1-1.13-2.72A2.42,2.42,0,0,1,22.26,72.84Z"/><path class="cls-9" d="M23.61,74.69a1.74,1.74,0,0,1,1.48-.3,3.09,3.09,0,0,1,2.3,2.49A1.79,1.79,0,0,1,27,78.34a1.58,1.58,0,0,1-1.45.44A3.07,3.07,0,0,1,23,76.1,1.63,1.63,0,0,1,23.61,74.69Z"/><path class="cls-3" d="M36.7,88.33a1.15,1.15,0,0,1,.83-.62,2.31,2.31,0,0,1,1.31.1,2.36,2.36,0,0,1,1.07.76,1.15,1.15,0,0,1,.24,1c-.21.67-1.19,1-2.18.6a2.23,2.23,0,0,1-1.11-.82A1.08,1.08,0,0,1,36.7,88.33Z"/><path class="cls-9" d="M37.73,88.77c.17-.44.8-.6,1.42-.38s1,.73.88,1.18-.79.64-1.44.41S37.56,89.2,37.73,88.77Z"/><path class="cls-3" d="M19.05,84.47a1.25,1.25,0,0,1,1.18-.22,3.49,3.49,0,0,1,1.46.82,3.45,3.45,0,0,1,.94,1.37,1.27,1.27,0,0,1-.11,1.2,1.19,1.19,0,0,1-1.17.31,3.48,3.48,0,0,1-2.5-2.28A1.2,1.2,0,0,1,19.05,84.47Z"/><path class="cls-9" d="M20.05,85.49c.36-.37,1.14-.21,1.77.36s.9,1.31.57,1.7a.79.79,0,0,1-.78.21,2,2,0,0,1-1-.53C19.93,86.65,19.7,85.86,20.05,85.49Z"/><path class="cls-4" d="M51.91,51.91h0Z"/><path class="cls-2" d="M51.87,51.91,6.07,28.38s-.33.65-.87,1.8a51.87,51.87,0,0,0-2,4.88A51.16,51.16,0,0,0,1.3,42.25c-.13.67-.24,1.34-.34,2-.06.35-.1.69-.15,1l0,.32,0,.36c0,.24,0,.48-.08.72-.05.49-.09,1-.13,1.47,0,.24,0,.49-.05.73v.19c0,.18,0,.36,0,.54l0,1v2.11c0,.71,0,1.43.08,2.13,0,.35,0,.71.07,1.06s.07.7.1,1c.07.7.14,1.38.24,2.05a52.61,52.61,0,0,0,1.56,7.28,50.55,50.55,0,0,0,1.73,5c.48,1.18.79,1.84.79,1.84L51.87,51.94l0,0h.38c0,.15,0-.32,0,.33,0-.18-.06-.36-.08-.54V51.6h0l0,.06s0,.09,0,.13l0,.07v0l0,0h-.13Z"/><g class="cls-5"><path class="cls-3" d="M51.86,51.9H52v0s0,0,0-.08h-.09l-.41,0-.78-.09-1.44-.14-2.13-.17-.8-.05s1.62.12,4,.24l.94,0,.5,0,.23,0h0s0,0,0,.08,0,.21,0,.21l0,.12s0,.08,0,.13,0,0,0,.07v0h0c0,.3,0-.4,0-.33h-.15L49.61,52l-1.12.06,3.3-.15H52l-.17,0c-2,.2-3.28.35-3.28.35l3.43-.37h-.07l0,0h.38c0,.15,0-.32,0,.33,0-.18-.06-.36-.08-.54V51.6h0l0,.06s0,.09,0,.13l0,.07v0l0,0h-.13l0,0Z"/></g><g class="cls-6"><path class="cls-3" d="M.39,52.51s0,.7,0,1.41S.5,55.33.5,55.33l2.19.1c1.32.06,3.08.12,4.84.16s3.51,0,4.83,0h2.19l2.73-.21c1.73-.14,4.2-.34,7.17-.6,5.94-.52,13.84-1.29,21.73-2.19l3-.35L51.92,52h.13l-2.81.14c-7.16.4-14.3,1-19.66,1.53-2.68.26-4.9.51-6.46.68l-2.45.29s-.8,0-2.11-.08-3.12-.14-5.19-.31S9,53.8,6.76,53.5,2.29,52.86.39,52.51Z"/><path class="cls-3" d="M1.17,60.91s0,.12.06.33l.17.86c.07.36.16.78.26,1.22s.22.92.34,1.39.24.94.37,1.38.25.85.36,1.2c.22.7.37,1.16.37,1.16l15.67-5.34,1.77-.69c1.14-.45,2.79-1.08,4.83-1.83,4.08-1.52,9.72-3.51,15.94-5.48,3.11-1,6.36-2,9.63-2.9l.89-.25h.05L13.7,58s-3.14.66-6.27,1.39S1.17,60.91,1.17,60.91Z"/><path class="cls-3" d="M6.07,28.38l-.52,1.06c-.16.32-.33.69-.52,1.09s-.37.83-.55,1.26-.37.87-.53,1.29-.3.79-.42,1.12l-.4,1.11,2,.24c1.18.14,2.75.36,4.31.61s3.11.54,4.27.78l1.92.4,2.56,1.15c1.63.72,3.95,1.75,6.77,2.95s6.1,2.57,9.64,4,7.35,2.87,11.17,4.28l6.1,2.19h0l-9.32-3.7-6.21-2.48,1.72.64c1.1.42,2.66,1,4.53,1.75s4,1.6,6.35,2.56l1.76.74,1.18.5h0Z"/><path class="cls-3" d="M1.88,39.61s0,.11-.07.3-.12.45-.18.77c-.14.64-.32,1.51-.48,2.37S.88,44.77.8,45.42c-.11.89-.17,1.49-.17,1.49C5,47,10,47.16,14,47.41c2,.12,3.69.24,4.9.34.61,0,1.09.09,1.42.12l.51.05,2.43.43c1.55.27,3.76.64,6.42,1s5.78.81,9.12,1.17,6.91.69,10.49.93l2.68.16h.14v0h0v0a1.15,1.15,0,0,1,0,.16l0,.16s0-.07,0-.18a.25.25,0,0,0,0-.08.09.09,0,0,0,0,0v0h0l0,.1a2,2,0,0,1-.07.19s0,0,0,0h-.12l-.1,0-1.25-.32c-6.65-1.69-13.3-3.36-18.3-4.6l-8.33-2.06L17,43.21C12.85,42.2,7.34,40.88,1.88,39.61Z"/><path class="cls-3" d="M51.85,52h0l-.4.12-.93.3-2,.67c-1.39.47-2.85,1-4.31,1.53-2.91,1.08-5.8,2.25-7.94,3.18l-2.59,1.13-1,.45s9.09-3.47,18.16-7Z"/></g><path class="cls-7" d="M16.42,33.7,6.07,28.38s-.33.65-.87,1.8a51.87,51.87,0,0,0-2,4.88A51.16,51.16,0,0,0,1.3,42.25c-.13.67-.24,1.34-.34,2-.06.35-.1.69-.15,1l0,.32,0,.36c0,.24,0,.48-.08.72-.05.49-.09,1-.13,1.47,0,.24,0,.49-.05.73v.19c0,.18,0,.36,0,.54l0,1v2.11c0,.71,0,1.43.08,2.13,0,.35,0,.71.07,1.06s.07.7.1,1c.07.7.14,1.38.24,2.05a52.61,52.61,0,0,0,1.56,7.28,50.55,50.55,0,0,0,1.73,5c.48,1.18.79,1.84.79,1.84l10.59-4.79s.18-.36.46-.87.66-1.2,1.06-1.85.83-1.3,1.15-1.76l.55-.77-.83-.7c-.25-.22-.55-.47-.85-.76s-.62-.59-.94-.91-.63-.65-.92-1l-.79-.87-.54-.65L13.7,58s.2-.62.41-1.21.44-1.18.44-1.18l3.06-.54c1.52-.27,3.06-.5,3.06-.5s0-.11,0-.29,0-.44,0-.76,0-.68,0-1.07,0-.8,0-1.22v-.07l0-.52v-.19c0-.09,0-.17,0-.25v-.12a1.09,1.09,0,0,0,0-.18c0-.24,0-.46.05-.66,0-.4.07-.74.1-1s0-.22,0-.28a.45.45,0,0,0,0-.08l.46-.52c.28-.3.65-.7,1-1.07s.77-.75,1.07-1l.5-.43s-.56-.39-1.39-1-1.89-1.5-2.93-2.45-2-2-2.76-2.74c-.37-.4-.67-.73-.87-1l-.33-.37s.16-.91.36-1.82S16.42,33.7,16.42,33.7Z"/><path class="cls-8" d="M16.42,33.7s-.28.89-.52,1.79-.43,1.8-.43,1.8v0l0,0a44.08,44.08,0,0,0,8,7.5l-.5.42c-.29.27-.68.62-1.07,1s-.75.77-1,1.07-.46.51-.46.51v0h0s0,.26-.08.67c0,.2-.05.45-.07.7s0,.26,0,.4l0,.37c0,.17,0,.34,0,.47s0,.12,0,.15v0c0,.18,0,.34,0,.5v.09s0,.81,0,1.62c0,.41,0,.82.06,1.13,0,.15,0,.28,0,.37s0,.14,0,.14-1.45.22-2.91.47-2.91.51-2.91.51l-.22,0,0,.1s-.23.58-.44,1.19S13.39,58,13.39,58v0l0,0,.21.25.55.64c.24.26.51.56.81.87l.46.48.48.48,1,.9c.31.29.61.54.86.75.51.43.85.7.85.7s-.21.3-.51.76S17.37,65,17,65.67,16.25,67,16,67.5l-.43.86s.19-.36.48-.88.7-1.19,1.12-1.85.86-1.3,1.2-1.77l.57-.76,0,0,0,0s-.33-.27-.81-.7c-.24-.22-.52-.47-.82-.76l-.91-.91c-.31-.32-.6-.65-.88-1s-.54-.61-.76-.87-.39-.48-.52-.64L14,58s.19-.57.39-1.13.43-1.1.43-1.1,1.47-.28,2.94-.53,3-.49,3-.49l.29-.05v-.1s0-.21,0-.52,0-.72,0-1.14,0-.82,0-1.13,0-.51,0-.51,0-.6,0-1.2l0-.36c0-.13,0-.26,0-.38s0-.48.06-.68,0-.36.05-.48,0-.17,0-.17l.45-.51c.28-.3.63-.69,1-1.06s.77-.74,1.05-1,.5-.43.5-.43l0,0-.1-.07a46.22,46.22,0,0,1-8.38-7.52s.12-.91.3-1.83S16.42,33.7,16.42,33.7Z"/><path class="cls-8" d="M19.93,62.66l2.32-.9c1.48-.56,3.6-1.35,6.15-2.27s5.54-2,8.76-3,6.66-2.15,10.12-3.19L51.84,52l-1.05.28C44.41,54,37.78,56,32.21,57.88A108.42,108.42,0,0,0,19.93,62.66Z"/><path class="cls-8" d="M32.71,59.34s9.09-3.47,18.16-7l1-.39h0l-.35.14L50,52.68,44,55.1C40,56.69,36.07,58.2,32.71,59.34Z"/><path class="cls-8" d="M23.51,54.89l2.21-.2c1.41-.12,3.42-.3,5.83-.54,4.83-.46,11.26-1.13,17.68-1.89L51.64,52l.28,0h0l-.94.12-4.26.54c-2.85.36-5.72.7-8.5,1C32.65,54.24,27.46,54.71,23.51,54.89Z"/><path class="cls-8" d="M26.32,48.87l2.08.33c1.33.2,3.22.48,5.49.78s4.94.61,7.79.89,5.9.52,9,.7l1.15.07.28,0h0v0h0v0a.69.69,0,0,1,0,.13c0,.09,0,.14,0,.14s0-.11,0-.24h0L50,51.5c-1.39-.07-2.79-.14-4.18-.23-2.76-.17-5.47-.39-8-.64A83.66,83.66,0,0,1,26.32,48.87Z"/><path class="cls-8" d="M25,41.46l2,.86c1.3.55,3.16,1.32,5.41,2.23C36.9,46.37,42.91,48.7,49,50.88l2.86,1h0l-2-.74c-1.35-.49-2.71-1-4.06-1.5-2.7-1-5.38-2.07-7.93-3.08C32.73,44.55,28.17,42.67,25,41.46Z"/><path class="cls-3" d="M7.34,66.87a.93.93,0,0,1,1.05.72A.93.93,0,0,1,8,68.81c-.38.15-.87-.16-1.07-.71A.93.93,0,0,1,7.34,66.87Z"/><path class="cls-3" d="M8.12,64.8a.59.59,0,0,1,.34,1.08c-.22.07-.48-.11-.58-.41A.52.52,0,0,1,8.12,64.8Z"/><path class="cls-3" d="M3.39,60.57c.23,0,.47.19.53.52s-.07.63-.3.67-.47-.18-.53-.51S3.16,60.61,3.39,60.57Z"/><path class="cls-3" d="M8.44,54.13A1,1,0,0,1,8.57,56a1,1,0,0,1-.13-1.89Z"/><path class="cls-3" d="M10.31,49.09a.4.4,0,0,1,.29.22.42.42,0,0,1,0,.1.14.14,0,0,1,0,.06v.05h0a.07.07,0,0,1,0,.06c0,.09-.2.15-.43.14s-.42-.09-.42-.18a.09.09,0,0,1,0-.06h0v0l0,0a.08.08,0,0,1,0,0l.06-.1A.39.39,0,0,1,10.31,49.09Z"/><path class="cls-3" d="M7.4,43.28a.49.49,0,0,1,.31.62c0,.3-.27.51-.51.47a.5.5,0,0,1-.32-.62C6.94,43.44,7.17,43.23,7.4,43.28Z"/><path class="cls-3" d="M8.85,33.82A.93.93,0,0,1,9.16,35a.94.94,0,0,1-1.07.69.93.93,0,0,1-.34-1.24C8,34,8.46,33.66,8.85,33.82Z"/><path class="cls-3" d="M17.08,41.77a2.72,2.72,0,0,1,1.65,1.57,4.14,4.14,0,0,1,.33,1.23,4.76,4.76,0,0,1-.49,2.68,2,2,0,0,1-.16.28l-.08.14-.1.18a5.06,5.06,0,0,1-.42.64,2.65,2.65,0,0,1-2.11,1.26,2.32,2.32,0,0,1-1.89-1.64,6.07,6.07,0,0,1-.26-.82c0-.07,0-.15-.05-.22s0-.12,0-.18-.05-.25-.07-.37a4.73,4.73,0,0,1,0-1.59,5,5,0,0,1,.54-1.5,3.91,3.91,0,0,1,.89-1.1A2.41,2.41,0,0,1,17.08,41.77Z"/><path class="cls-9" d="M16.47,44a1.78,1.78,0,0,1,1.16,1,2.91,2.91,0,0,1,.25.82,3.29,3.29,0,0,1,0,.94c0,.16-.07.31-.11.46s-.05.15-.08.22a1.17,1.17,0,0,0-.05.11l0,0,0,.07a4.21,4.21,0,0,1-.51.94,1.71,1.71,0,0,1-1.41.84,1.57,1.57,0,0,1-1.25-1.08,3.74,3.74,0,0,1-.28-1.13v-.15s0-.08,0-.12a2.09,2.09,0,0,1,0-.25,3.45,3.45,0,0,1,.35-1.52,2.59,2.59,0,0,1,.55-.73A1.62,1.62,0,0,1,16.47,44Z"/><path class="cls-3" d="M14,62.72c.67-.19,1.44.42,1.74,1.35a1.64,1.64,0,0,1-.58,2.13,1.11,1.11,0,0,1-1-.19,2.23,2.23,0,0,1-.8-1.14,2.27,2.27,0,0,1-.05-1.38A1.07,1.07,0,0,1,14,62.72Z"/><path class="cls-9" d="M14.28,63.79c.44-.14,1,.26,1.17.88a1.09,1.09,0,0,1-.37,1.42c-.44.17-1-.22-1.21-.87S13.83,63.93,14.28,63.79Z"/><path class="cls-3" d="M6,46.72c.38.05.69.44.89,1a4.71,4.71,0,0,1,.22,1c0,.19,0,.38,0,.58a.34.34,0,0,1,0,.14c0,.18-.17.33-.43.44l-.1,0-.06,0h0a6.21,6.21,0,1,0,0,.83h0l0,0a1.5,1.5,0,0,1-.24.21.94.94,0,0,1-.55.17A.91.91,0,0,1,5.13,51a1.65,1.65,0,0,1-.24-.22l0,0h0a6.7,6.7,0,1,1,0-.87h0l0,0-.1,0c-.24-.13-.39-.3-.38-.48a.25.25,0,0,1,0-.14,6,6,0,0,1,.12-.61,4.54,4.54,0,0,1,.38-1C5.19,47,5.57,46.68,6,46.72Z"/><path class="cls-9" d="M5.77,48.66c.25,0,.46.27.61.64.16.09.26.2.26.32s-.12.22-.29.29l-.07,0,0,0h0c0-.18-.06,1.58,0,.83h0l0,0L6,51a.72.72,0,0,1-.36.11.61.61,0,0,1-.36-.13.75.75,0,0,1-.16-.15l0,0h0c0,.77,0-1,0-.86h0l0,0-.06,0c-.17-.08-.26-.19-.26-.31s.12-.23.29-.29a1.56,1.56,0,0,1,.32-.44A.52.52,0,0,1,5.77,48.66Z"/><path class="cls-4" d="M51.93,51.91h0Z"/><path class="cls-2" d="M51.9,51.85,41.75,1.4l-.51.1c-.33.08-.82.17-1.44.33s-1.37.34-2.22.59l-1.35.41c-.47.15-1,.31-1.48.5A51.51,51.51,0,0,0,7,26.63c-.31.55-.55,1-.71,1.29s-.24.46-.24.46l45.8,23.53h0l0,0s.06,0,0,0l-.07-.13S51.9,51.85,51.9,51.85Z"/><g class="cls-5"><path class="cls-3" d="M51.9,51.83h0v0h0v0h0l-.66-1c-.29-.42-.55-.83-.8-1.2-.49-.74-.9-1.34-1.19-1.76l-.46-.66s.89,1.35,2.24,3.37L52,52h0l0,0h0l-1.58-1.8-.74-.84L52,52h0L49.5,49.48S50.75,50.73,52,52h0l0,0,0,0h0l0,0s.06,0,0,0l-.07-.13s0,0,0,0h0Z"/></g><g class="cls-6"><path class="cls-3" d="M19.3,12l-1.08.9c-.53.46-1,.94-1,.94s.51.72,1.29,1.78,1.83,2.48,2.9,3.87,2.15,2.78,3,3.8S25.72,25,25.72,25l1.87,2c1.18,1.27,2.89,3.08,4.95,5.23,4.1,4.31,9.65,10,15.28,15.61L49.93,50,52,52h0l0-.06c-.6-.66-1.19-1.33-1.79-2-4.78-5.34-9.71-10.56-13.47-14.41-1.88-1.92-3.46-3.51-4.57-4.62l-1.75-1.74s-.48-.63-1.26-1.68-1.83-2.54-3-4.25-2.42-3.66-3.6-5.6S20.21,13.72,19.3,12Z"/><path class="cls-3" d="M13.25,17.86l-.22.25-.57.67c-.46.55-1.07,1.3-1.65,2.07-.29.38-.58.78-.84,1.14l-.71,1-.67,1L22.53,33l1.64.95c1.06.62,2.58,1.52,4.44,2.64C32.33,38.8,37.4,42,42.82,45.61c2.7,1.82,5.5,3.76,8.27,5.73L52,52h0L23.33,25.84s-2.48-2-5-4S13.25,17.86,13.25,17.86Z"/><path class="cls-3" d="M41.75,1.4l-1.15.24c-.69.15-1.6.39-2.51.63s-1.81.54-2.48.76l-.81.28-.3.11,1,1.68c.63,1,1.43,2.38,2.2,3.76s1.52,2.77,2.06,3.82.89,1.75.89,1.75l.69,2.72c.45,1.72,1.1,4.18,1.91,7.13s1.8,6.37,2.9,10,2.34,7.53,3.62,11.4c1,3.07,2.09,6.15,2.09,6.15v0h0L49,42.24l-1.93-6.4s.21.63.57,1.75.87,2.7,1.46,4.62,1.26,4.16,2,6.57c.17.6.34,1.22.52,1.84.11.4.22.8.34,1.21h0v0Z"/><path class="cls-3" d="M30.36,5.11l-1,.47-1,.5-1.13.61-1.13.63-1,.57-.93.57c2.55,3.5,5.44,7.65,7.66,10.93C33,21,33.93,22.46,34.6,23.48l1.07,1.62,1.19,2.16c.76,1.37,1.87,3.32,3.22,5.65s3,5,4.72,7.88,3.68,5.89,5.65,8.89L52,52h0l0,0,0,0h0v0h0l0-.11c-.17-.39-.35-.78-.52-1.18-2.83-6.25-5.67-12.5-7.81-17.18l-3.59-7.79-3-6.45C35.17,15.3,32.77,10.18,30.36,5.11Z"/><path class="cls-3" d="M51.9,51.92h0l0,0h0l-1.25-.83c-.55-.37-1.14-.75-1.76-1.14-1.23-.79-2.55-1.62-3.88-2.42-2.66-1.61-5.37-3.13-7.43-4.24-1-.55-1.89-1-2.5-1.31l-1-.49s8.37,5,16.78,9.86l.79.45.17.1Z"/></g><path class="cls-7" d="M44.05,12.8,41.75,1.4l-.51.1c-.33.08-.82.17-1.44.33s-1.37.34-2.22.59l-1.35.41c-.47.15-1,.31-1.48.5A51.51,51.51,0,0,0,7,26.63c-.31.55-.55,1-.71,1.29s-.24.46-.24.46L16.42,33.7l1-.19c.58-.1,1.35-.22,2.11-.31S21,33,21.59,33s.94,0,.94,0,0-.43,0-1.09.09-1.53.18-2.43S23,27.66,23.1,27s.23-1.13.23-1.13l.38-.14.82-.29c.59-.2,1.19-.38,1.19-.38s1.17,1,2.33,2,2.3,2.07,2.3,2.07l.77-.7c.23-.21.51-.45.82-.7s.62-.51,1-.76.67-.51,1-.73.63-.43.89-.6.49-.31.64-.41l.25-.15.68,0c.41,0,1,.08,1.49.14s1.07.15,1.46.22l.64.12s0-.17,0-.47,0-.73-.05-1.25c0-1,0-2.43.09-3.82s.26-2.82.42-3.87c.09-.53.16-1,.22-1.28s.09-.49.09-.49l.51-.27c.31-.16.72-.38,1.14-.58l.62-.3.55-.24Z"/><path class="cls-8" d="M44.05,12.8,43.5,13l-.55.23-.63.27L41.16,14l-.52.26h0v0q-.28,1.38-.48,2.76c-.13.93-.23,1.85-.29,2.76s-.11,1.84-.12,2.74,0,1.81.05,2.71l-.65-.12c-.39-.07-.91-.16-1.44-.22s-1.08-.12-1.49-.15l-.69,0h0l-.45.28c-.28.16-.63.4-1,.63l-.52.35-.44.32-.43.31-.4.31-.87.73c-.31.26-.61.54-.84.75l-.37.35-2.19-2-2.21-1.95-.17-.15-.1,0s-.6.18-1.2.39l-.82.31-.37.14,0,0v0s-.1.46-.22,1.15-.24,1.59-.33,2.49-.13,1.79-.14,2.46,0,1.09,0,1.09l-.92.07c-.55,0-1.29.12-2,.23s-1.5.24-2.06.35l-.94.2s.39-.08,1-.17,1.37-.2,2.15-.28,1.55-.13,2.13-.15l.95,0h0v0s0-.42,0-1.07.11-1.5.22-2.37.27-1.75.39-2.42.25-1.1.25-1.1.56-.21,1.12-.4l1.13-.35,2.25,2c1.12,1,2.22,2,2.22,2l.22.2.08-.08.38-.34c.23-.21.54-.49.86-.75l.88-.72.41-.31.41-.31.42-.32.5-.35.94-.63.44-.27.67,0c.41,0,1,.07,1.47.13s1.05.14,1.43.21l.64.11.06,0v-.12C40,24.88,40,24,40,23c0-.47,0-.93,0-1.4s0-.93.06-1.4c.05-.93.14-1.88.25-2.83s.26-1.89.42-2.85c0,0,.21-.11.5-.29l1.12-.62.61-.32.54-.27Z"/><path class="cls-8" d="M23.6,33.58l2.15,1.26c1.36.81,3.3,2,5.6,3.4s5,3.12,7.82,5S45,47.08,48,49.15L52,52l-1-.72c-2.67-2-5.43-3.91-8.14-5.78S37.46,41.81,35,40.22A112.29,112.29,0,0,0,23.6,33.58Z"/><path class="cls-8" d="M34.16,41.51s8.37,5,16.78,9.86l.79.45.17.1h0l-1.74-1-5.64-3.21C40.77,45.57,37.14,43.43,34.16,41.51Z"/><path class="cls-8" d="M31.88,31.57l1.54,1.6c1,1,2.37,2.48,4.06,4.22C40.86,40.87,45.4,45.48,50,50l1.73,1.7.21.22L52,52h0l-.76-.73-3.08-3c-2.06-2-4.11-4-6.09-6C38.1,38.3,34.49,34.54,31.88,31.57Z"/><path class="cls-8" d="M38.39,30s.39.66,1,1.82,1.63,2.82,2.81,4.78c2.34,3.94,5.58,9.15,9,14.24L52,52h0L50.83,50.3C50,49.14,49.27,48,48.5,46.81c-1.53-2.31-3-4.59-4.33-6.73A114.5,114.5,0,0,1,38.39,30Z"/><path class="cls-8" d="M43.31,24.32s.21.78.59,2.14.94,3.29,1.63,5.61C46.9,36.71,48.82,42.86,50.91,49l1,2.89v0c-.23-.67-.46-1.36-.69-2q-.69-2-1.35-4.11c-.89-2.75-1.74-5.49-2.54-8.11C45.73,32.32,44.35,27.58,43.31,24.32Z"/><path class="cls-3" d="M12.46,26.36a.94.94,0,0,1,.1,1.27.93.93,0,0,1-1.17.48.91.91,0,0,1-.11-1.28C11.58,26.34,12.12,26.13,12.46,26.36Z"/><path class="cls-3" d="M14.56,25.69a.5.5,0,0,1,0,.7.51.51,0,0,1-.66.23.58.58,0,0,1,.62-.93Z"/><path class="cls-3" d="M14.9,19.39a.54.54,0,0,1-.08.73c-.21.25-.53.33-.7.18a.53.53,0,0,1,.06-.73C14.4,19.31,14.72,19.23,14.9,19.39Z"/><path class="cls-3" d="M23.06,19.32a.87.87,0,0,1-.19,1.19.88.88,0,0,1-1.2.09.85.85,0,0,1,.18-1.2A.86.86,0,0,1,23.06,19.32Z"/><path class="cls-3" d="M28.72,17.27a.47.47,0,0,1-.18.63.47.47,0,0,1-.66-.06.46.46,0,0,1,.17-.63A.47.47,0,0,1,28.72,17.27Z"/><path class="cls-3" d="M30.94,11.72a.51.51,0,0,1-.29.63.51.51,0,0,1-.69-.1.49.49,0,0,1,.29-.64A.5.5,0,0,1,30.94,11.72Z"/><path class="cls-3" d="M39.22,7c.11.4-.23.85-.76,1a.91.91,0,0,1-1.19-.41c-.14-.39.2-.86.75-1A.91.91,0,0,1,39.22,7Z"/><path class="cls-3" d="M38.14,18.34A2.71,2.71,0,0,1,38,20.61a4.16,4.16,0,0,1-.76,1,4.23,4.23,0,0,1-.51.44,5.94,5.94,0,0,1-.59.38,4.37,4.37,0,0,1-2.56.53,2.69,2.69,0,0,1-2-1.09,2.42,2.42,0,0,1-.16-2.3,4.42,4.42,0,0,1,2-2.15,6.12,6.12,0,0,1,.75-.33,5.28,5.28,0,0,1,.76-.19,3.92,3.92,0,0,1,1.41,0A2.41,2.41,0,0,1,38.14,18.34Z"/><path class="cls-9" d="M36,19.25a1.74,1.74,0,0,1,0,1.51,2.85,2.85,0,0,1-1.22,1.29,2.93,2.93,0,0,1-1.73.41,1.75,1.75,0,0,1-1.33-.72,1.64,1.64,0,0,1-.11-1.53,3,3,0,0,1,1.29-1.43,3,3,0,0,1,1.88-.39A1.63,1.63,0,0,1,36,19.25Z"/><path class="cls-3" d="M19.83,29a1.64,1.64,0,0,1,0,2.2c-.52.82-1.41,1.22-2,.87a1.1,1.1,0,0,1-.49-.93,2.31,2.31,0,0,1,.38-1.32,2.37,2.37,0,0,1,1.05-.89A1.08,1.08,0,0,1,19.83,29Z"/><path class="cls-9" d="M19.19,29.87c.39.26.39.91,0,1.46s-.94.82-1.34.59-.45-.91-.09-1.49S18.81,29.61,19.19,29.87Z"/><path class="cls-3" d="M27.48,12.65a1.2,1.2,0,0,1-.05,1.2,3.29,3.29,0,0,1-1.11,1.24,3.56,3.56,0,0,1-1.55.62,1.29,1.29,0,0,1-1.15-.38,1.2,1.2,0,0,1,0-1.21,3.26,3.26,0,0,1,1.14-1.33,3.36,3.36,0,0,1,1.65-.61A1.18,1.18,0,0,1,27.48,12.65Z"/><path class="cls-9" d="M26.27,13.41c.28.43-.06,1.15-.74,1.64s-1.48.58-1.79.17,0-1.16.71-1.68S26,13,26.27,13.41Z"/><path class="cls-4" d="M52,51.85Z"/><path class="cls-2" d="M51.88,52l33.2-39.51-.4-.33c-.26-.21-.64-.53-1.14-.92s-1.11-.84-1.83-1.35-1.54-1.07-2.46-1.64a51.34,51.34,0,0,0-6.56-3.47A50.42,50.42,0,0,0,64.62,2l-1.06-.26L62.5,1.48c-.71-.15-1.42-.29-2.12-.4L59.33.92,58.81.84l-.26,0-.31,0c-1-.11-1.89-.2-2.81-.27l-.6,0h-.61l-1,0h-.82c-.61,0-1.21,0-1.79,0L48.92.47c-2.15.13-4,.37-5.2.57l-.84.14-.62.12-.51.1L51.9,51.85v0a.93.93,0,0,0,0,.13v.18h0l-.33,0h0l.24,0,.25,0,.12,0s0,0,0,0h0A1.22,1.22,0,0,1,52,52h0v-.12h0l0,.07Z"/><g class="cls-5"><path class="cls-3" d="M51.89,52l0,0h0v0h0c.13-.36.25-.72.36-1l.45-1.36c.27-.85.49-1.55.64-2l.22-.76s-.5,1.53-1.24,3.84c-.11.38-.27.88-.43,1.38h0v0h0l.41-2.26.19-1.1L51.94,52v0h0l0-.19c.25-2,.39-3.28.39-3.28s-.14,1.29-.36,3.21L52,52h0l.11,0,.12,0h0l-.31,0-.3,0h0c.15,0-.33,0,.33,0h0V52h0v-.15a.93.93,0,0,0,0,.13v.18h0l-.33,0h0l.24,0,.25,0,.12,0s0,0,0,0h0A1.22,1.22,0,0,1,52,52h0v-.12h0l0,.07,0,0Z"/></g><g class="cls-6"><path class="cls-3" d="M62.76,1.53l-1.39-.28-1-.17L60,1s-.24.84-.59,2.12-.79,3-1.21,4.67-.83,3.42-1.11,4.7c-.15.64-.26,1.18-.36,1.55l-.14.59-.41,2.7c-.25,1.72-.61,4.18-1,7.13-.8,5.91-1.76,13.8-2.52,21.7-.09,1-.18,2-.28,3s-.17,1.93-.25,2.89h.09l-.11,0L52,52l0,0v-.08h0l.45-2.64c1.19-7.06,2.18-14.17,2.84-19.51.33-2.67.58-4.89.76-6.45s.26-2.46.26-2.46.19-.77.53-2,.84-3,1.45-5,1.35-4.16,2.14-6.3S62,3.31,62.76,1.53Z"/><path class="cls-3" d="M54.5.45h-.3l-1,0H50.59c-1,0-1.93.08-2.65.14l-1.2.11,1.69,16.46L48.71,19c.18,1.21.42,3,.71,5.12.56,4.31,1.24,10.25,1.76,16.76.27,3.25.5,6.64.68,10q0,.59.06,1.14v.16h0c-.14,0,.33,0-.33,0h.19l.17,0,.17,0,2-38.83Z"/><path class="cls-3" d="M85.08,12.46l-.9-.74c-.54-.44-1.29-1-2.05-1.56S80.6,9.09,80,8.7l-.72-.45L79,8.08s-.26.75-.66,1.86-1,2.6-1.58,4.06-1.22,2.91-1.71,4-.82,1.78-.82,1.78L72.56,22C71.49,23.43,70,25.48,68.17,28s-3.86,5.37-6,8.51S57.7,43,55.47,46.38c-1.11,1.71-2.21,3.42-3.28,5.12l-.2.31-.07.11h0l0,0h0c.63-.93,1.26-1.83,1.86-2.71l3.89-5.65,3.81-5.49s-.37.55-1,1.53-1.58,2.37-2.71,4-2.47,3.58-3.92,5.62l-1.12,1.56c-.26.37-.53.75-.81,1.13h0Z"/><path class="cls-3" d="M75.13,5.9l-1-.48-1-.48c-.37-.17-.78-.34-1.18-.51l-1.2-.5-1-.39-1-.37c-1.14,4.17-2.58,9-3.77,12.79-.59,1.9-1.12,3.53-1.5,4.69s-.6,1.84-.6,1.84l-.94,2.28c-.6,1.45-1.45,3.53-2.42,6s-2.09,5.44-3.23,8.6-2.31,6.56-3.43,10c-.27.84-.54,1.68-.8,2.47h0s0,0,0,0h0s0,0,0,0h0v0h0l.64-1.25c3.15-6.1,6.27-12.22,8.59-16.81s3.87-7.65,3.87-7.65l3.19-6.35C70.15,16,72.66,10.94,75.13,5.9Z"/><path class="cls-3" d="M51.91,51.89v0a.21.21,0,0,1,0,.06v0c0-.47-.09-1-.13-1.52s-.13-1.37-.21-2.09c-.14-1.45-.32-3-.52-4.54-.41-3.09-.91-6.17-1.32-8.46-.21-1.15-.4-2.1-.53-2.77L49,31.54s1.34,9.64,2.76,19.27l.13.9,0,.18Z"/></g><path class="cls-7" d="M77.6,21.37l7.48-8.91-.4-.33c-.26-.21-.64-.53-1.14-.92s-1.11-.84-1.83-1.35-1.54-1.07-2.46-1.64a51.34,51.34,0,0,0-6.56-3.47A50.42,50.42,0,0,0,64.62,2l-1.06-.26L62.5,1.48c-.71-.15-1.42-.29-2.12-.4L59.33.92,58.81.84l-.26,0-.31,0c-1-.11-1.89-.2-2.81-.27l-.6,0h-.61l-1,0h-.82c-.61,0-1.21,0-1.79,0L48.92.47c-2.15.13-4,.37-5.2.57l-.84.14-.62.12-.51.1,2.3,11.4.74.64c.44.38,1,.92,1.57,1.45s1.07,1.09,1.45,1.52l.62.7s.34-.27.87-.66,1.25-.89,2-1.37l1.13-.68.27-.16.13-.07,0,0h0l.64,0h0l0,0,.17-.27.37-.57.1.19,0,0,0,0,.11.06.25.11.53.25c.73.35,1.42.72,1.42.72s0,.39,0,1,0,1.36-.09,2.13c-.09,1.56-.19,3.1-.19,3.1l1,.16c.32,0,.68.13,1.06.21l.6.12.61.15c.41.11.82.21,1.19.33l1,.32c.3.09.54.19.72.25l.27.1s.17.22.41.56.53.8.82,1.25.54.93.73,1.28.31.58.31.58l.36-.32.94-.81c.8-.66,1.89-1.51,3.05-2.31s2.36-1.55,3.28-2.08c.46-.27.86-.48,1.13-.63l.44-.24.53.23,1.16.53c.42.19.83.4,1.14.56Z"/><path class="cls-8" d="M77.6,21.37l-.5-.29c-.31-.17-.71-.4-1.12-.61s-.83-.42-1.13-.57l-.52-.24h0Q73,20.31,71.82,21c-.79.48-1.58,1-2.34,1.49l-1.12.79c-.37.27-.73.55-1.09.83-.72.56-1.41,1.13-2.09,1.72l-.3-.58c-.19-.34-.45-.81-.74-1.27s-.58-.92-.81-1.26l-.4-.56h0s-.79-.3-1.61-.56c-.41-.13-.81-.25-1.12-.33l-.52-.14-.5-.12L58,20.77c-.41-.08-.81-.14-1.12-.19l-.5-.07s.1-1.47.18-3,.14-2.95.14-2.95v-.22l0,0-.07,0s-.7-.37-1.43-.72l-.54-.25-.25-.11-.12-.05,0,0s0,0,0,0A1.93,1.93,0,0,0,54.1,13v0l-.36.58a3.31,3.31,0,0,1-.18.29v0h0c-.28,0,.64,0-.64,0l-.07,0-.13.08-.27.16c-.36.22-.75.46-1.12.71-.75.49-1.48,1-2,1.41s-.87.68-.87.68l-.62-.68c-.38-.41-.9-.93-1.45-1.45s-1.12-1-1.56-1.39l-.74-.61.74.66c.44.4,1,.95,1.56,1.51s1.07,1.12,1.44,1.56l.63.73,0,0,0,0,.23-.17.63-.46c.52-.36,1.24-.86,2-1.31.37-.22.75-.45,1.11-.65l.27-.15.13-.07,0,0h0l.63,0h0l0,0c.06-.09.11-.18.17-.26l.36-.54.1.18v0l0,0,.1.05.24.11.49.24c.68.33,1.33.68,1.33.68s0,.38,0,.94c0,.28,0,.61,0,1s0,.73,0,1.1c-.07,1.5-.17,3-.17,3l0,.3h.11l.51.08c.31.05.72.12,1.12.21l1.12.24.5.13L60,22l1.1.31c.8.23,1.58.52,1.58.52l.39.55c.24.33.53.78.82,1.23s.54.9.73,1.25l.31.57,0,0,.08-.08A46.81,46.81,0,0,1,74.2,19.9l.53.2,1.18.49c.42.18.85.37,1.16.52Z"/><path class="cls-8" d="M48.62,18.34s.13.9.35,2.47.51,3.8.83,6.5.67,5.83,1,9.21.61,7,.84,10.58c.06.9.11,1.81.17,2.71L51.92,52h0v.05s0-.63-.05-1.34c-.29-6.61-.76-13.52-1.35-19.37A111.72,111.72,0,0,0,48.62,18.34Z"/><path class="cls-8" d="M49,31.54s1.34,9.64,2.76,19.27l.13.9,0,.18h0c-.1-.63-.21-1.29-.32-2-.32-2.11-.66-4.27-1-6.4C49.94,39.24,49.35,35.08,49,31.54Z"/><path class="cls-8" d="M55.27,23.55l-.3,2.2c-.18,1.4-.45,3.41-.74,5.81-.6,4.82-1.31,11.24-1.89,17.68-.08.81-.15,1.61-.22,2.41l0,.3V52h0v0c0-.35.05-.7.07-1.06.12-1.41.23-2.84.34-4.27.23-2.87.48-5.75.76-8.53C53.87,32.61,54.53,27.44,55.27,23.55Z"/><path class="cls-8" d="M60.66,27.66l-.78,2c-.49,1.24-1.18,3-2,5.17-1.62,4.29-3.67,10.06-5.55,15.88-.13.4-.26.79-.38,1.17h0c.19-.59.37-1.19.56-1.79.42-1.34.84-2.68,1.27-4,.85-2.64,1.72-5.21,2.56-7.58A113.83,113.83,0,0,1,60.66,27.66Z"/><path class="cls-8" d="M68.14,28l-1.29,1.8c-.83,1.15-2,2.79-3.38,4.77-2.78,4-6.39,9.3-9.87,14.73l-1.3,2-.32.51,0,.07,0,0h0v0h0l.06-.1L53.15,50c.78-1.2,1.58-2.41,2.38-3.61,1.59-2.41,3.21-4.78,4.76-7C63.39,34.86,66.25,30.83,68.14,28Z"/><path class="cls-3" d="M47.32,5.13c0,.42-.37.8-.93.86a.94.94,0,0,1-1.11-.61c-.06-.41.36-.82.93-.88S47.28,4.72,47.32,5.13Z"/><path class="cls-3" d="M49.15,6.36A.58.58,0,0,1,48,6.44.5.5,0,0,1,48.56,6C48.88,6,49.14,6.12,49.15,6.36Z"/><path class="cls-3" d="M54.37,2.69c0,.24-.09.42-.18.42s-.08,0-.1-.13v0h0l-.91,0h0l0-.07a.33.33,0,0,1,0-.17.25.25,0,0,1,0-.16.18.18,0,0,1,0-.07h0l.93,0h0v0s0,0,0,0,.07-.12.12-.12S54.38,2.46,54.37,2.69Z"/><path class="cls-3" d="M59.39,9a1,1,0,0,1-1.88-.29A1,1,0,0,1,59.39,9Z"/><path class="cls-3" d="M64.57,12.17a.53.53,0,0,1-1-.3.53.53,0,0,1,1,.3Z"/><path class="cls-3" d="M70.32,10.46a.58.58,0,0,1-1-.44A.49.49,0,0,1,70,9.85.51.51,0,0,1,70.32,10.46Z"/><path class="cls-3" d="M79.19,14a1.07,1.07,0,0,1-1.68-1.16A1.06,1.06,0,0,1,79.19,14Z"/><path class="cls-3" d="M69.62,20.23a2.75,2.75,0,0,1-1.9,1.26,4.53,4.53,0,0,1-1.28,0,3.85,3.85,0,0,1-.66-.13,4.26,4.26,0,0,1-.66-.22,4.55,4.55,0,0,1-2-1.68,2.7,2.7,0,0,1-.4-2.24A2.41,2.41,0,0,1,64.4,15.7a4.43,4.43,0,0,1,3,.25,4.89,4.89,0,0,1,.72.38,5.09,5.09,0,0,1,.62.48,3.91,3.91,0,0,1,.87,1.11A2.43,2.43,0,0,1,69.62,20.23Z"/><path class="cls-9" d="M67.6,19.14a1.73,1.73,0,0,1-1.22.9,2.81,2.81,0,0,1-1.77-.15,3,3,0,0,1-1.4-1.1,1.72,1.72,0,0,1-.27-1.49,1.65,1.65,0,0,1,1.13-1,3.12,3.12,0,0,1,3.41,1.35A1.65,1.65,0,0,1,67.6,19.14Z"/><path class="cls-3" d="M49.87,12.52a1.13,1.13,0,0,1-.47.93,2.36,2.36,0,0,1-1.22.47,2.22,2.22,0,0,1-1.28-.23,1,1,0,0,1-.24-1.78,2.37,2.37,0,0,1,1.28-.52C49,11.28,49.84,11.82,49.87,12.52Z"/><path class="cls-9" d="M48.77,12.58c0,.46-.46.88-1.11.95s-1.23-.23-1.29-.69.42-.92,1.1-1S48.74,12.11,48.77,12.58Z"/><path class="cls-3" d="M67.42,8.33a1.23,1.23,0,0,1-1,.71,3.39,3.39,0,0,1-1.68-.1,3.5,3.5,0,0,1-1.46-.84A1.24,1.24,0,0,1,62.88,7a1.17,1.17,0,0,1,.92-.79,3.27,3.27,0,0,1,1.77.06,3.35,3.35,0,0,1,1.51.92A1.17,1.17,0,0,1,67.42,8.33Z"/><path class="cls-9" d="M66.06,7.85c-.16.49-.94.67-1.76.44S62.92,7.49,63,7s.91-.73,1.77-.5S66.22,7.37,66.06,7.85Z"/><path class="cls-4" d="M52,51.9h0Z"/><g class="cls-5"><path class="cls-3" d="M51.75,51.92H52l.3-.11.74-.27,1.35-.5,2-.77.75-.3s-1.52.56-3.78,1.43L52,51.9H52l2-1.1,1-.54-3,1.65h0l.14-.09,2.8-1.74-2.74,1.7-.16.1,0,0h0s0,0,0,0h0l.09-.05s.06,0-.06,0a1.5,1.5,0,0,1-.28,0Z"/></g><g class="cls-6"><path class="cls-3" d="M98.09,29l-.2-.4c-.12-.24-.29-.55-.45-.86-.34-.63-.69-1.25-.69-1.25l-2,.86c-1.21.53-2.82,1.24-4.42,2s-3.18,1.48-4.37,2.06l-2,1-2.36,1.38c-1.5.87-3.64,2.14-6.2,3.66-5.11,3.06-11.89,7.2-18.6,11.45L51.9,52l.06,0h0l2.34-1.29c6.27-3.48,12.45-7.13,17-9.94,2.3-1.41,4.2-2.6,5.53-3.43l2.08-1.33s.72-.33,1.92-.85,2.88-1.23,4.81-2,4.1-1.54,6.26-2.25S96.23,29.49,98.09,29Z"/><path class="cls-3" d="M93.72,21.76s-.28-.39-.72-1-1-1.33-1.65-2.07-1.27-1.45-1.76-2L89,16.1l-.23-.23L77,27.47l-1.29,1.39c-.84.9-2,2.18-3.56,3.75-3,3.12-7.24,7.37-12,11.84-2.37,2.24-4.88,4.54-7.42,6.8l-.82.73h0L83.71,29.83s2.54-2,5-4S93.72,21.76,93.72,21.76Z"/><path class="cls-3" d="M102.38,41.37s-.09-.43-.23-1.07-.37-1.5-.6-2.35-.51-1.68-.71-2.31l-.26-.75-.11-.29c-4,1.71-8.65,3.6-12.35,5-1.85.72-3.45,1.32-4.59,1.75l-1.82.68-2.37.68c-1.5.43-3.65,1.07-6.22,1.87s-5.56,1.76-8.75,2.84S57.81,49.73,54.45,51L52,51.91h0l1.36-.27c6.73-1.35,13.46-2.72,18.5-3.76l8.4-1.75,6.95-1.46C91.37,43.78,96.9,42.59,102.38,41.37Z"/><path class="cls-3" d="M51.88,52h0L53,50.9c.48-.46,1-.95,1.5-1.46,1-1,2.14-2.13,3.22-3.25C59.88,44,62,41.64,63.51,39.88c.77-.88,1.4-1.62,1.84-2.14l.69-.82S59.34,44,52.7,51.1l-.62.66-.2.22Z"/></g><path class="cls-7" d="M91.81,53.61l11.6,1.65s0-2.22,0-2.56,0-.82,0-1.45,0-1.39-.08-2.26-.13-1.87-.25-3c-.06-.53-.14-1.09-.22-1.67s-.19-1.18-.3-1.79-.24-1.25-.38-1.89-.31-1.29-.48-1.95a51.5,51.5,0,0,0-2.86-8,50.22,50.22,0,0,0-4.12-7.42c-.75-1.13-1.52-2.18-2.29-3.16S91,18.26,90.25,17.46l-1-1.14-1-1c-.62-.62-1.18-1.14-1.65-1.56l-1.09-1-.4-.33L77.6,21.37s0,.39,0,1-.09,1.37-.17,2.13-.18,1.52-.27,2.07-.17.93-.17.93l.29.07.76.19c.63.18,1.48.42,2.33.72.42.15.85.3,1.24.46l1.08.44c.64.27,1.06.48,1.06.48s.09.63.16,1.26c0,.31.06.62.08.86s0,.39,0,.39l-2.52,1.82c-1.26.9-2.53,1.78-2.53,1.78s.22.36.52.91c.15.28.32.6.5,1l.53,1.11c.35.77.67,1.55.88,2.14l.26.72.09.28s-.07.27-.19.66-.28.92-.47,1.43-.37,1-.53,1.37-.26.6-.26.6.67.11,1.69.32,2.36.54,3.71.94,2.67.88,3.67,1.27l1.2.49.46.2s.05.22.15.55.21.78.31,1.23C91.65,52,91.81,53.61,91.81,53.61Z"/><path class="cls-8" d="M91.83,52.92s-.14-.91-.31-1.81c-.09-.45-.19-.9-.27-1.23s-.13-.56-.13-.56v0h0A44.38,44.38,0,0,0,80.59,46s.11-.24.26-.61.35-.85.54-1.36.35-1,.47-1.42.19-.66.19-.66v0s-.06-.2-.17-.5-.25-.7-.39-1.1-.32-.8-.45-1.09l-.15-.36-.06-.13s-.09-.18-.22-.47-.32-.64-.51-1-.39-.73-.55-1L79.37,36l-.08-.12s1.22-.84,2.42-1.69l2.4-1.73.18-.13v-.11s0-.15,0-.39,0-.55-.09-.86c-.07-.63-.17-1.27-.17-1.27v0h0l-.29-.13-.78-.33c-.32-.14-.7-.28-1.1-.44s-.83-.29-1.26-.44c-.86-.28-1.72-.52-2.36-.68l-.77-.19-.29-.06s.06-.36.14-.91.17-1.29.23-2,.1-1.5.12-2.08,0-.95,0-.95,0,.39-.06,1-.11,1.38-.21,2.15S77.11,26,77,26.61s-.19.94-.19.94v0h0l.28.07.75.2c.61.18,1.44.44,2.26.74l1.22.47,1,.45c.62.28,1,.49,1,.49s.08.59.14,1.18c0,.29.06.59.07.81s0,.37,0,.37l-2.42,1.76L78.8,35.87l-.24.16.06.1.26.44c.14.28.34.64.53,1s.37.75.51,1,.21.47.21.47l.06.13.16.34c.12.29.29.66.44,1.05s.3.77.41,1.07.17.49.17.49l-.18.65c-.12.39-.28.9-.46,1.4s-.36,1-.51,1.35l-.26.6,0,.06.11,0a45.17,45.17,0,0,1,5.43,1.22c.91.26,1.8.55,2.69.87s1.8.67,2.69,1l.18.55c.09.33.23.77.35,1.21C91.62,52,91.83,52.92,91.83,52.92Z"/><path class="cls-8" d="M76.11,28.38,74.4,30.19c-1.09,1.15-2.65,2.78-4.55,4.72s-4.15,4.16-6.59,6.52-5.07,4.83-7.74,7.27l-2,1.81L51.87,52h0l.94-.81c5-4.36,10.09-9,14.28-13.15A110.93,110.93,0,0,0,76.11,28.38Z"/><path class="cls-8" d="M66,36.92S59.34,44,52.7,51.1l-.62.66-.2.22h0l1.42-1.56,4.38-4.78C60.61,42.47,63.5,39.4,66,36.92Z"/><path class="cls-8" d="M76.23,36.9,74.33,38c-1.21.73-3,1.77-5,3-4.14,2.52-9.64,5.92-15.09,9.4L51.91,52h0l4.44-2.89c2.41-1.57,4.85-3.13,7.21-4.61C68.29,41.47,72.76,38.78,76.23,36.9Z"/><path class="cls-8" d="M76.35,43.62l-2,.62c-1.28.39-3.11,1-5.29,1.66-4.36,1.41-10.15,3.4-15.87,5.56L52,51.91h0l1.76-.69,3.91-1.49c2.6-1,5.15-1.9,7.53-2.72A113.87,113.87,0,0,1,76.35,43.62Z"/><path class="cls-8" d="M80.76,49.68l-2.22.11c-1.41.07-3.42.17-5.83.33-4.83.3-11.26.79-17.67,1.46l-2.4.25-.6.07h0l2.13-.21c1.43-.14,2.87-.27,4.31-.39,2.88-.25,5.75-.47,8.48-.66C72.43,50.25,77.35,50,80.76,49.68Z"/><path class="cls-3" d="M85.61,19.12a.91.91,0,0,1-1.24-.18.93.93,0,0,1-.21-1.25,1.06,1.06,0,0,1,1.45,1.43Z"/><path class="cls-3" d="M85.8,21.32a.59.59,0,0,1-.76-.83.49.49,0,0,1,.69.13A.51.51,0,0,1,85.8,21.32Z"/><path class="cls-3" d="M91.87,23c-.19.14-.5,0-.7-.23a.54.54,0,0,1,0-.74c.18-.14.5,0,.7.23S92.06,22.89,91.87,23Z"/><path class="cls-3" d="M90.13,31A.87.87,0,0,1,89,30.57a.77.77,0,1,1,1.3-.76A.86.86,0,0,1,90.13,31Z"/><path class="cls-3" d="M90.89,37a.52.52,0,0,1-.38-1,.52.52,0,0,1,.38,1Z"/><path class="cls-3" d="M95.81,40.45c-.22.06-.47-.13-.55-.43a.44.44,0,1,1,.82-.22A.5.5,0,0,1,95.81,40.45Z"/><path class="cls-3" d="M98.6,49.57c-.42,0-.78-.41-.81-1a.92.92,0,0,1,.66-1.07c.42,0,.8.39.84,1S99,49.55,98.6,49.57Z"/><path class="cls-3" d="M87.74,46a2.74,2.74,0,0,1-2.17-.7,4.06,4.06,0,0,1-.82-1,4.71,4.71,0,0,1-.56-1.27A5,5,0,0,1,84,41.7a4.62,4.62,0,0,1,.07-.65,3,3,0,0,1,.15-.61,2.69,2.69,0,0,1,1.51-1.71,2.39,2.39,0,0,1,2.28.36,3.65,3.65,0,0,1,.52.45,3.7,3.7,0,0,1,.46.57,4.84,4.84,0,0,1,.67,1.45,5.14,5.14,0,0,1,.17,1.58,4.17,4.17,0,0,1-.33,1.38A2.4,2.4,0,0,1,87.74,46Z"/><path class="cls-9" d="M87.33,43.74a1.77,1.77,0,0,1-1.46-.39,3,3,0,0,1-1-1.48,3.09,3.09,0,0,1-.14-.93,2.71,2.71,0,0,1,.13-.86,1.76,1.76,0,0,1,1-1.14,1.64,1.64,0,0,1,1.51.24,2.51,2.51,0,0,1,.65.65,3.51,3.51,0,0,1,.46.93,2.91,2.91,0,0,1,0,1.94A1.62,1.62,0,0,1,87.33,43.74Z"/><path class="cls-3" d="M81.44,25.73a1.18,1.18,0,0,1-1,.21,2.27,2.27,0,0,1-1.12-.66,2.19,2.19,0,0,1-.62-1.14,1.13,1.13,0,0,1,.23-1,1.11,1.11,0,0,1,1-.28,2.32,2.32,0,0,1,1.2.67,2.19,2.19,0,0,1,.63,1.22A1.1,1.1,0,0,1,81.44,25.73Z"/><path class="cls-9" d="M80.7,24.9A1.29,1.29,0,0,1,79,23.19c.32-.34,1-.23,1.46.25S81.05,24.58,80.7,24.9Z"/><path class="cls-3" d="M95.68,36.86a1.26,1.26,0,0,1-1.17-.32,3.5,3.5,0,0,1-1-1.37,3.43,3.43,0,0,1-.26-1.67,1.23,1.23,0,0,1,.62-1,1.19,1.19,0,0,1,1.19.23,3.29,3.29,0,0,1,1,1.42,3.18,3.18,0,0,1,.23,1.75A1.18,1.18,0,0,1,95.68,36.86Z"/><path class="cls-9" d="M95.2,35.5a.82.82,0,0,1-.78-.19,2.31,2.31,0,0,1-.66-.91c-.32-.78-.23-1.58.23-1.8a.82.82,0,0,1,.79.15,2.2,2.2,0,0,1,.69.93,2.23,2.23,0,0,1,.18,1.15A.81.81,0,0,1,95.2,35.5Z"/><path class="cls-10" d="M50.68,103.84l-1,0h-.09l-1.74-.11-1.14-.1-1.09-.12-.82-.11-1.39-.21c-.77-.12-1.46-.27-2-.39l-2.91-.69c-.31-.08-.72-.19-1.22-.34s-1.36-.42-2.2-.71c-.42-.14-.87-.3-1.34-.48s-1-.36-1.47-.58A52,52,0,0,1,8.06,79.72c-1-1.51-1.83-3.06-2.6-4.6-.28-.57-.49-1-.64-1.33l-.22-.48s-.3-.66-.79-1.85c-.65-1.61-1.24-3.3-1.74-5A51.81,51.81,0,0,1,.5,59.12c-.1-.68-.18-1.37-.25-2.07L.16,56c0-.3,0-.6-.06-.9l0-.3c0-.67-.07-1.34-.07-2,0-.35,0-.71,0-1.07V50.66L.14,48.2c0-.53.08-1,.13-1.5l.15-1.42.15-1.05c.11-.7.22-1.38.35-2.06a51.23,51.23,0,0,1,1.94-7.23,52.82,52.82,0,0,1,2-4.93c.54-1.16.88-1.8.88-1.8L6,27.74l.71-1.3c.85-1.51,1.8-3,2.82-4.46a52.78,52.78,0,0,1,4.72-5.75,51.75,51.75,0,0,1,6.34-5.68A51.2,51.2,0,0,1,27.76,6a54.35,54.35,0,0,1,6.86-3l1.5-.5,1.35-.41c.86-.25,1.62-.44,2.24-.6s1-.22,1.28-.29L42.75.81l.9-.15A51.67,51.67,0,0,1,48.9.09L50.59,0h2.62l2.24.11c.94.06,1.89.15,2.84.27l1.1.15L60.45.7c.7.11,1.41.25,2.13.4l1.07.23,1.06.26a53,53,0,0,1,8.13,2.8,53.81,53.81,0,0,1,6.62,3.5c.9.56,1.68,1.1,2.47,1.65s1.34,1,1.85,1.37.73.58,1,.79l1,.8c.27.22.64.55,1.11,1s1,.95,1.66,1.57l1,1,1.06,1.15c.67.73,1.38,1.59,2.26,2.69s1.64,2.19,2.3,3.18a53.47,53.47,0,0,1,4.16,7.47,52.67,52.67,0,0,1,2.87,8.1c.17.67.34,1.33.48,2s.27,1.28.39,1.89.21,1.22.3,1.81.16,1.15.22,1.69c.12,1.13.21,2.12.25,3s.08,1.71.08,2.28,0,1.12,0,1.46-.06,2.56-.06,2.56a.45.45,0,0,1-.05.19c0,.48-.09,1.1-.14,1.64,0,.3-.06.61-.1.93l-.11.84c-.07.5-.14,1-.23,1.55s-.19,1.1-.31,1.68-.24,1.18-.39,1.79-.3,1.24-.48,1.87-.37,1.28-.57,1.94a53,53,0,0,1-3.28,8,54,54,0,0,1-4.52,7.26c-.71,1-1.49,1.92-2.46,3s-1.69,1.88-2.4,2.58c-.38.38-.75.75-1.11,1.09s-.71.66-1,1c-.65.6-1.24,1.09-1.73,1.49s-.89.72-1.16.92l-1,.75c-.26.2-.61.45-1,.75s-1.16.79-1.91,1.27-1.64,1-2.56,1.52a52.16,52.16,0,0,1-6.78,3.17,50.72,50.72,0,0,1-8.26,2.38,51.82,51.82,0,0,1-8.49,1c-.65,0-1.29,0-1.92,0H50.68Zm-1-.81,1,0,0,.39v-.39h1c.67,0,1.3,0,1.95,0a50.93,50.93,0,0,0,16.5-3.32,53.31,53.31,0,0,0,6.68-3.12c.91-.5,1.71-1,2.53-1.51s1.36-.89,1.88-1.25l1-.73,1-.74c.27-.2.65-.51,1.14-.91s1.06-.87,1.71-1.46l1-.94L88.21,88c.69-.68,1.44-1.49,2.36-2.53s1.72-2.08,2.41-3a51.52,51.52,0,0,0,4.46-7.16,50.86,50.86,0,0,0,3.23-7.82c.2-.64.4-1.28.57-1.91s.33-1.25.47-1.85.27-1.19.38-1.76.22-1.12.31-1.65.16-1,.23-1.53l.1-.83c0-.31.07-.62.1-.92.06-.6.11-1.31.15-1.79a.34.34,0,0,1,0-.17c0-.53,0-2.09,0-2.36s0-.82,0-1.44,0-1.28-.08-2.25-.12-1.81-.25-2.92c0-.54-.13-1.09-.22-1.67s-.18-1.17-.29-1.77-.25-1.24-.38-1.88-.31-1.28-.48-1.93a50.12,50.12,0,0,0-2.83-8,52.41,52.41,0,0,0-4.09-7.36c-.65-1-1.37-2-2.27-3.14S90.62,18.44,90,17.72c-.36-.4-.7-.78-1-1.13l-1-1c-.62-.61-1.17-1.13-1.64-1.55s-.83-.74-1.08-1l-1-.8-1-.77c-.5-.38-1.1-.84-1.81-1.35S79.93,9.1,79,8.55A51,51,0,0,0,64.52,2.34l-1-.25-1-.23c-.7-.15-1.4-.29-2.1-.4l-1-.16-1.09-.15C57.26,1,56.32,1,55.4.89L53.19.79h-.8c-.61,0-1.2,0-1.78,0S49.48.83,49,.86c-1.73.1-3.47.29-5.17.56l-2.63.5c-.32.06-.74.16-1.25.29s-1.36.33-2.21.58l-1.34.41c-.47.15-1,.31-1.47.49a52.2,52.2,0,0,0-6.76,3,51.23,51.23,0,0,0-18,15.77,49.64,49.64,0,0,0-2.78,4.4c-.31.55-.55,1-.7,1.28l-.24.46s-.34.65-.87,1.78c-.72,1.54-1.38,3.17-2,4.85a53.6,53.6,0,0,0-1.9,7.13c-.13.67-.23,1.34-.34,2l-.15,1L1,46.78.91,48.22.79,50.69s0,.09,0,.09v.93c0,.36,0,.71,0,1.06,0,.67,0,1.34.07,2l0,.28c0,.3,0,.59.06.89L1,57c.07.68.14,1.36.24,2a51.39,51.39,0,0,0,1.55,7.22,49.61,49.61,0,0,0,1.72,4.94C5,72.33,5.3,73,5.3,73l.22.47.64,1.32c.75,1.51,1.62,3,2.55,4.53a52.82,52.82,0,0,0,4.36,5.89,53.55,53.55,0,0,0,6,5.9A51.37,51.37,0,0,0,25.89,96a50.7,50.7,0,0,0,6.6,3.29c.5.21,1,.39,1.44.57l1.32.47c.84.29,1.57.51,2.17.7l1.2.33,2.87.69c.57.11,1.24.25,2,.37q.65.12,1.38.21l.8.11,1.07.12,1.13.1,1.72.11.07.39Z"/><path class="cls-11" d="M103.46,52.7c0-.33,0-.82,0-1.45s0-1.39-.08-2.26-.13-1.87-.25-3c-.06-.53-.14-1.09-.22-1.67s-.19-1.18-.3-1.79-.24-1.25-.38-1.89-.31-1.29-.48-1.95a51.7,51.7,0,0,0-6.9-15.33c-.27-.32-.56-.64-.86-.95a11,11,0,0,1-.59,2.71c-1.38,3.94-4.6,6.75-8.18,8.73-.62.34-1.25.66-1.89,1a7.1,7.1,0,0,1,.25,4.37c-.23.85-1.09,2.37-.35,3.16a10,10,0,0,0,4.6,2.31c1.54.45,3.38.83,4.55,2a8.56,8.56,0,0,1,2.27,4.46,3.65,3.65,0,0,1-1.14,3.16C92.9,55,90,56.5,90.12,57c.65,2.46,2.31,6.71.57,9.06-2.43,3.28-5.5-.72-8.36.83-6,3.25-1.19,10.28-1.72,15.29A4.77,4.77,0,0,1,77,86.52a6.71,6.71,0,0,1-3.69.07c-1.47-.43-2.19.17-3.11,1.38-1.54,2-3.51,6.27-6.7,5.28a5.62,5.62,0,0,1-3.15-3.53c-.51-1.85-.62-3.82-2.84-4.28-1.31-.27-3.73-.91-5-.15-1.41.86-2.15,2.38-3,3.75-1.31,2.22-3.57,5.25-6.61,4.12-3.2-1.18-4.35-5-8-5.39-1.46-.14-5.4.06-5.91-2a16.34,16.34,0,0,1-.14-3.13A9.17,9.17,0,0,0,26.86,77c-.9-1.13-2-2.17-3-3.26A41.61,41.61,0,0,0,20.92,93.1a49.54,49.54,0,0,0,4.77,3.19,52.66,52.66,0,0,0,6.65,3.32c.51.21,1,.4,1.46.57l1.33.48c.83.29,1.58.51,2.18.7s1.1.3,1.42.39l.51.13.51.13.61.15.82.18c.62.13,1.38.29,2.25.43l1.39.21.37,0,.19,0,.24,0c.35,0,.72.09,1.09.12l1.13.1.58,0,.58,0,.45,0h.21l1,0h1c.65,0,1.3,0,2,0a51.34,51.34,0,0,0,8.43-1A51.56,51.56,0,0,0,77,97c1-.53,1.79-1,2.54-1.52s1.38-.9,1.9-1.26.91-.66,1.18-.86l.42-.31.41-.31,1.14-.92c.49-.4,1.08-.89,1.73-1.48.32-.29.67-.6,1-.94l1.1-1.08c.77-.77,1.56-1.63,2.38-2.56s1.63-1.95,2.43-3a52.67,52.67,0,0,0,4.5-7.21A53.09,53.09,0,0,0,101,67.59c.2-.66.4-1.3.57-1.93s.33-1.25.48-1.86.27-1.2.38-1.77.22-1.14.31-1.67.16-1,.23-1.54c0-.12,0-.24,0-.36l.06-.47.09-.93c.07-.61.12-1.32.15-1.81h0S103.46,53,103.46,52.7Z"/><path class="cls-12" d="M7.7,40.36c1.75-2.83,2.72-6.43,5.43-8.55,1.55-1.21,3-2.32,3.73-4.21.4-1,.7-2.11,1.18-3.11a5.69,5.69,0,0,1,3-3c1.95-.77,3.55-.42,5.57-.27,6,.41,5.17-6,7.66-9.44S40.52,8.68,44.29,9.4c2.44.47,4.78.62,6.32-1.59a7.09,7.09,0,0,1,2.86-2.68c3.05-1.26,6.91-.84,10.09-.34A56.17,56.17,0,0,1,75.47,7.64a40.5,40.5,0,0,1,15.9,11.11c-.38-.46-.75-.89-1.12-1.29l-1-1.14-1-1c-.62-.62-1.18-1.14-1.65-1.56l-1.09-1-.4-.33-.4-.33c-.26-.21-.64-.53-1.14-.92s-1.11-.84-1.83-1.35-1.54-1.07-2.46-1.64a51.34,51.34,0,0,0-6.56-3.47A50.42,50.42,0,0,0,64.62,2l-1.06-.26L62.5,1.48c-.71-.15-1.42-.29-2.12-.4L59.33.92,58.81.84l-.26,0-.31,0c-1-.11-1.89-.2-2.81-.27l-.6,0h-.61l-1,0h-.82c-.61,0-1.21,0-1.79,0L48.92.47c-2.15.13-4,.37-5.2.57l-.84.14-.62.12-.51.1-.51.1c-.33.08-.82.17-1.44.33s-1.37.34-2.22.59l-1.35.41c-.47.15-1,.31-1.48.5A51.51,51.51,0,0,0,7,26.63c-.31.55-.55,1-.71,1.29s-.24.46-.24.46-.33.65-.87,1.8a51.87,51.87,0,0,0-2,4.88A51.16,51.16,0,0,0,1.3,42.25c-.13.67-.24,1.34-.34,2-.06.35-.1.69-.15,1l0,.32,0,.36c0,.24,0,.48-.08.72-.05.49-.09,1-.13,1.47,0,.24,0,.49-.05.73v.19c0,.18,0,.36,0,.54l0,1v2.11c0,.71,0,1.43.08,2.13,0,.35,0,.71.07,1.06s.07.7.1,1c.07.7.14,1.38.24,2.05s.2,1.34.32,2A41.62,41.62,0,0,1,7.7,40.36Z"/></g></g></g></svg>