<svg xmlns="http://www.w3.org/2000/svg" xmlns:xlink="http://www.w3.org/1999/xlink" viewBox="0 0 102.63 103.64"><defs><style>.cls-1{mask:url(#mask);filter:url(#luminosity-noclip-2);}.cls-16,.cls-18,.cls-2,.cls-20{mix-blend-mode:multiply;}.cls-2{fill:url(#radial-gradient);}.cls-3{isolation:isolate;}.cls-4{fill:#009ecf;}.cls-5{fill:#0065d0;}.cls-6{fill:#007ecd;}.cls-7{fill:#78b9ca;}.cls-15,.cls-19,.cls-7,.cls-9{mix-blend-mode:screen;}.cls-8{fill:#007bc6;}.cls-9{fill:#4cadc8;}.cls-10{fill:#0b6199;}.cls-11{fill:#57c3f3;}.cls-12,.cls-19,.cls-20{fill:#0095e1;}.cls-13{fill:#242a68;}.cls-14{mask:url(#mask-2);}.cls-15{fill:url(#radial-gradient-2);}.cls-16{fill:#2b4176;opacity:0.7;}.cls-17{fill:#fff;mix-blend-mode:overlay;}.cls-18{fill:url(#radial-gradient-3);}.cls-19,.cls-20{opacity:0.3;}.cls-21{filter:url(#luminosity-noclip);}</style><filter id="luminosity-noclip" x="2.47" y="-8320.32" width="64.62" height="32766" filterUnits="userSpaceOnUse" color-interpolation-filters="sRGB"><feFlood flood-color="#fff" result="bg"/><feBlend in="SourceGraphic" in2="bg"/></filter><mask id="mask" x="2.47" y="-8320.32" width="64.62" height="32766" maskUnits="userSpaceOnUse"><g class="cls-21"/></mask><radialGradient id="radial-gradient" cx="105.78" cy="108.25" r="129.72" gradientUnits="userSpaceOnUse"><stop offset="0"/><stop offset="0.24" stop-color="#020202"/><stop offset="0.38" stop-color="#0b0b0b"/><stop offset="0.49" stop-color="#191919"/><stop offset="0.59" stop-color="#2c2c2c"/><stop offset="0.67" stop-color="#464646"/><stop offset="0.75" stop-color="#666"/><stop offset="0.83" stop-color="#8b8b8b"/><stop offset="0.9" stop-color="#b7b7b7"/><stop offset="0.97" stop-color="#e6e6e6"/><stop offset="1" stop-color="#fff"/></radialGradient><filter id="luminosity-noclip-2" x="2.47" y="2.44" width="64.62" height="93.63" filterUnits="userSpaceOnUse" color-interpolation-filters="sRGB"><feFlood flood-color="#fff" result="bg"/><feBlend in="SourceGraphic" in2="bg"/></filter><mask id="mask-2" x="2.47" y="2.44" width="64.62" height="93.63" maskUnits="userSpaceOnUse"><g class="cls-1"><path class="cls-2" d="M16.49,68.83c-1.09-.51-2.06-1.23-3.16-1.74-.4-.19-.28-.66,0-.93,6.73-6.86,19.53-2.29,25.43-10-8.44.49-17.35,2.65-25.33-1.19-4.68-2.24-1.49-5.23,1.75-6.67,4.42-2,9-2.13,13.52-3.66.5-.17,2.85-.84,2-2a3.72,3.72,0,0,0-2-1.46,12.68,12.68,0,0,0-4.79-.29c-2.71.27-5.46,1-8.2.89-.55,0-.38-.67-.14-.94,4.79-5.35,11.87-5.29,18.23-7.49,1.08-.37,5.8-1.79,3.86-3.11a9.36,9.36,0,0,0-5.31-1.33c-2.81,0-5.67.51-8.47.21-.45-.05-.47-.5-.26-.82,8.12-11.93,24-9.5,35.27-16.37-1-1.13-2.13-2-3-3.21A.63.63,0,0,1,56.05,8c3.22-2.81,7.08-3.07,11-2.95A48.95,48.95,0,0,0,31.44,96.07C21,90.06,9.48,79.84,16.49,68.83Z"/></g></mask><radialGradient id="radial-gradient-2" cx="105.78" cy="108.25" r="129.72" gradientUnits="userSpaceOnUse"><stop offset="0" stop-color="#2b2b2b"/><stop offset="0.26" stop-color="#2d2d2d"/><stop offset="0.4" stop-color="#363636"/><stop offset="0.52" stop-color="#444"/><stop offset="0.62" stop-color="#575757"/><stop offset="0.71" stop-color="#717171"/><stop offset="0.8" stop-color="#909090"/><stop offset="0.88" stop-color="#b6b6b6"/><stop offset="0.95" stop-color="#e0e0e0"/><stop offset="1" stop-color="#fff"/></radialGradient><radialGradient id="radial-gradient-3" cx="20.41" cy="39.06" r="72.41" gradientUnits="userSpaceOnUse"><stop offset="0.55" stop-color="#fff"/><stop offset="0.64" stop-color="#fcfdfe"/><stop offset="0.69" stop-color="#f3f8fc"/><stop offset="0.75" stop-color="#e4eff7"/><stop offset="0.79" stop-color="#cee2f1"/><stop offset="0.84" stop-color="#b2d1e8"/><stop offset="0.88" stop-color="#90bdde"/><stop offset="0.92" stop-color="#67a4d2"/><stop offset="0.95" stop-color="#3788c4"/><stop offset="0.99" stop-color="#0369b5"/><stop offset="0.99" stop-color="#0067b4"/></radialGradient></defs><g class="cls-3"><g id="Layer_2" data-name="Layer 2"><g id="Layer_1-2" data-name="Layer 1"><path class="cls-4" d="M102.55,51.9a51,51,0,1,1-51-51A51,51,0,0,1,102.55,51.9Z"/><path class="cls-5" d="M102.63,51.91s0,.31,0,.91,0,1.51-.11,2.68a50.15,50.15,0,0,1-1.66,10.06,53,53,0,0,1-6.34,14.5A51.48,51.48,0,0,1,80.23,94.89a52.56,52.56,0,0,1-10.52,5.49,50.26,50.26,0,0,1-12.34,3A50.86,50.86,0,0,1,30.64,99,52.57,52.57,0,0,1,0,51.9a54.73,54.73,0,0,1,.48-7.56A53.15,53.15,0,0,1,2,36.92,51.73,51.73,0,0,1,30.47,4.45,49.76,49.76,0,0,1,44,.54C45.08.4,46.22.23,47.36.17c.56,0,1.13-.1,1.69-.11l1.69,0c1.17,0,2.23,0,3.34,0s2.22.14,3.3.29a50,50,0,0,1,12.36,3,52.26,52.26,0,0,1,10.5,5.54A51.5,51.5,0,0,1,94.52,23.73a52.91,52.91,0,0,1,6.34,14.51,50,50,0,0,1,1.65,10.06c.11,1.17.08,2.07.11,2.68S102.63,51.91,102.63,51.91Zm-.18,0s0-.31,0-.91,0-1.51-.13-2.68a49.46,49.46,0,0,0-1.77-10A43.44,43.44,0,0,0,98,31.55a46.91,46.91,0,0,0-4.17-7.39A51.32,51.32,0,0,0,57.19,2.06c-1-.13-2.1-.18-3.17-.26l-1.63,0-.83,0-.8,0-1.63,0c-.54,0-1.09.08-1.63.12-1.11.06-2.19.23-3.3.36a50,50,0,0,0-6.58,1.44c-1.09.29-2.16.68-3.24,1s-2.16.79-3.2,1.28A50.77,50.77,0,0,0,.92,51.9a57.69,57.69,0,0,0,.48,7.43A53,53,0,0,0,3,66.61,51,51,0,0,0,9.2,80,49.72,49.72,0,0,0,31,98.14c1.05.5,2.16.86,3.24,1.28s2.17.73,3.28,1a48.46,48.46,0,0,0,6.63,1.36c1.11.13,2.22.28,3.31.33.56,0,1.08.07,1.63.09l1.66,0c1.09,0,2.18,0,3.25,0s2.15-.14,3.19-.28A51.7,51.7,0,0,0,93.88,79.66a46.2,46.2,0,0,0,4.17-7.4,43.44,43.44,0,0,0,2.49-6.79,47.91,47.91,0,0,0,1.76-10c.12-1.17.1-2.08.13-2.68S102.45,51.9,102.45,51.9Z"/><path class="cls-6" d="M7.66,54.24a119,119,0,0,0,14.49,2.53c5.18.41,9.74-.89,14.52-2.83,5.44-2.19,10.71-4.42,16.54-5.26A91.27,91.27,0,0,1,70.85,48c10.64.57,21.15,2.32,31.7,3.83,0-.7,0-1.39-.07-2.09-7.84-.06-15.6-1.88-23.49-2.08-9.62-.25-19.35.73-28.88-1.2-10.33-2.09-19.94-7.16-30.72-4.29C13.16,43.85,7,47.21.64,48,.54,49.31.46,50.6.46,51.9c0,.31,0,.61,0,.92C3,53.23,5.48,53.79,7.66,54.24Z"/><path class="cls-7" d="M23.71,61.43A88,88,0,0,0,39.44,58c4.87-1.59,9.44-3.93,14.23-5.74,9.11-3.43,17.94-1.65,27.23-.17,5.69.91,13.94,2.47,20.39.69C90.39,51.21,79.5,49.35,68.5,49c-6.08-.18-12.42-.11-18.39,1.23-5.34,1.19-10.2,3.6-15.31,5.48-4.31,1.58-8.29,2.56-12.89,2.13A107.81,107.81,0,0,1,10.36,56C7.49,55.37,4,54.44.51,53.85a51.86,51.86,0,0,0,.75,6.89C8.46,62.76,16.66,62.35,23.71,61.43Z"/><path class="cls-8" d="M84.82,53.84C74,52.39,63.55,49.34,53,53.63c-5.17,2.09-10.15,4.54-15.53,6.07a90.12,90.12,0,0,1-15.63,3c-6.46.66-13.74.91-20.33-.74A50.94,50.94,0,0,0,14.38,86.88c3.26-.11,6.54-.14,9.82-.18A77.67,77.67,0,0,0,39,85.33c3.9-.79,7.77-1.73,11.71-2.26,7.73-1.07,15.1.33,22.68,1.76,4.93.93,10.14,2,15.26,2.06A50.74,50.74,0,0,0,102.5,53.41C97,55.3,90.16,54.57,84.82,53.84Z"/><path class="cls-9" d="M90.13,34c-4.92,1-9.75,2.26-14.8,2.39-11.42.31-21.71-3.12-32.46-6.47-6-1.89-12.28-3.61-18.65-3.19-5.39.35-9.34,2.11-13.78,5-2.25,1.48-4.94,3.64-7.82,5.47A50.18,50.18,0,0,0,.71,47c7.42-.93,14.4-5.5,21.91-6.48,9.61-1.24,17.68,2.82,26.86,4.69,10.26,2.08,20.43.82,30.75,1.43,7.39.44,14.79,2,22.2,2.07A50.63,50.63,0,0,0,99.3,34,21.64,21.64,0,0,0,90.13,34Z"/><path class="cls-10" d="M42.4,5.68c8.52,1.08,17.36.78,25.36-2.16a51,51,0,0,0-34.62.76C36.24,4.68,39.29,5.29,42.4,5.68Z"/><path class="cls-9" d="M69.21,4c-7,2.84-14.58,3.54-22.29,3.17-5-.25-9.89-1.44-14.87-2l-1-.09A51.31,51.31,0,0,0,23.81,9L24.4,9a76.9,76.9,0,0,1,20.05.1c9.82,1.26,19.1,2.35,28.9-.13a16.86,16.86,0,0,0,3.43-1.36A51.14,51.14,0,0,0,69.21,4Z"/><path class="cls-11" d="M77.8,8.16a26,26,0,0,1-6.64,2.33c-8.32,1.6-16.33,1.26-24.65,0a79.71,79.71,0,0,0-19.4-.78c-1.69.16-3.53.37-5.34.72A51.38,51.38,0,0,0,6.53,27.79a29.57,29.57,0,0,0,8-1.57C23.24,23,31.64,21.68,40.79,24c10.07,2.6,19.63,6.19,30.11,6.9A157.79,157.79,0,0,0,97.6,30,51.38,51.38,0,0,0,77.8,8.16Z"/><path class="cls-12" d="M70.66,32c-9.55-.75-18.31-3.56-27.46-6.15-4.73-1.33-9.67-2.49-14.62-2.08a55.32,55.32,0,0,0-14.07,3.47A31.29,31.29,0,0,1,6,28.82a51.05,51.05,0,0,0-2.81,6.67c3.61-2.32,7.05-4.94,10.82-7,8.8-4.8,19.22-2.78,28.36.07,10.88,3.41,21.58,7.29,33.2,6.76,5.34-.26,10.35-1.77,15.6-2.54a23.57,23.57,0,0,1,7.06-.19l.57.11c-.23-.55-.46-1.1-.7-1.64C89,32,79.79,32.76,70.66,32Z"/><path class="cls-11" d="M52.61,83.88C43.29,85,34.5,87.67,25.05,87.79c-3.23,0-6.45,0-9.67.15.7.67,1.4,1.35,2.12,2,10.37-2.2,21.18-2.53,31.62-3.87,12.5-1.6,24.77,2.84,37.16,3.16.4-.38.79-.76,1.18-1.16C75.89,87.93,64.21,82.5,52.61,83.88Z"/><path class="cls-8" d="M49.73,87.07c-10.29,1.31-21,1.66-31.25,3.73a52.83,52.83,0,0,0,6.08,4.44,96.72,96.72,0,0,0,13.76-1.86c6.87-1.41,13.42-3.25,20.49-2.74s13.76,1.93,20.67,2.65l1.63.16a50.61,50.61,0,0,0,4-3.22C73.35,89.65,61.67,85.54,49.73,87.07Z"/><path class="cls-9" d="M59.36,91.81c-7.92-.58-15.16,1.54-22.89,3a98.11,98.11,0,0,1-10.27,1.4,52,52,0,0,0,9.24,4.14c7.87-3.16,17-4.17,25.23-4.65A34,34,0,0,1,73,97l1.46.44a53.89,53.89,0,0,0,5.2-3C72.91,93.69,66.19,92.31,59.36,91.81Z"/><path class="cls-11" d="M63.44,96.66C54.9,97,45.29,97.76,37,100.83a51,51,0,0,0,36-2.62A30.9,30.9,0,0,0,63.44,96.66Z"/><path class="cls-13" d="M102.63,51.91s0,.31,0,.91,0,1.51-.11,2.68a50.15,50.15,0,0,1-1.66,10.06,53,53,0,0,1-6.34,14.5A51.48,51.48,0,0,1,80.23,94.89a52.56,52.56,0,0,1-10.52,5.49,50.26,50.26,0,0,1-12.34,3A50.86,50.86,0,0,1,30.64,99,52.57,52.57,0,0,1,0,51.9a54.73,54.73,0,0,1,.48-7.56A53.15,53.15,0,0,1,2,36.92,51.73,51.73,0,0,1,30.47,4.45,49.76,49.76,0,0,1,44,.54C45.08.4,46.22.23,47.36.17c.56,0,1.13-.1,1.69-.11l1.69,0c1.17,0,2.23,0,3.34,0s2.22.14,3.3.29a50,50,0,0,1,12.36,3,52.26,52.26,0,0,1,10.5,5.54A51.5,51.5,0,0,1,94.52,23.73a52.91,52.91,0,0,1,6.34,14.51,50,50,0,0,1,1.65,10.06c.11,1.17.08,2.07.11,2.68S102.63,51.91,102.63,51.91Zm-.18,0s0-.31,0-.91,0-1.51-.13-2.68a49.46,49.46,0,0,0-1.77-10A43.44,43.44,0,0,0,98,31.55a46.91,46.91,0,0,0-4.17-7.39A51.32,51.32,0,0,0,57.19,2.06c-1-.13-2.1-.18-3.17-.26l-1.63,0-.83,0-.8,0-1.63,0c-.54,0-1.09.08-1.63.12-1.11.06-2.19.23-3.3.36a50,50,0,0,0-6.58,1.44c-1.09.29-2.16.68-3.24,1s-2.16.79-3.2,1.28A50.77,50.77,0,0,0,.92,51.9a57.69,57.69,0,0,0,.48,7.43A53,53,0,0,0,3,66.61,51,51,0,0,0,9.2,80,49.72,49.72,0,0,0,31,98.14c1.05.5,2.16.86,3.24,1.28s2.17.73,3.28,1a48.46,48.46,0,0,0,6.63,1.36c1.11.13,2.22.28,3.31.33.56,0,1.08.07,1.63.09l1.66,0c1.09,0,2.18,0,3.25,0s2.15-.14,3.19-.28A51.7,51.7,0,0,0,93.88,79.66a46.2,46.2,0,0,0,4.17-7.4,43.44,43.44,0,0,0,2.49-6.79,47.91,47.91,0,0,0,1.76-10c.12-1.17.1-2.08.13-2.68S102.45,51.9,102.45,51.9Z"/><g class="cls-14"><path class="cls-15" d="M16.49,68.83c-1.09-.51-2.06-1.23-3.16-1.74-.4-.19-.28-.66,0-.93,6.73-6.86,19.53-2.29,25.43-10-8.44.49-17.35,2.65-25.33-1.19-4.68-2.24-1.49-5.23,1.75-6.67,4.42-2,9-2.13,13.52-3.66.5-.17,2.85-.84,2-2a3.72,3.72,0,0,0-2-1.46,12.68,12.68,0,0,0-4.79-.29c-2.71.27-5.46,1-8.2.89-.55,0-.38-.67-.14-.94,4.79-5.35,11.87-5.29,18.23-7.49,1.08-.37,5.8-1.79,3.86-3.11a9.36,9.36,0,0,0-5.31-1.33c-2.81,0-5.67.51-8.47.21-.45-.05-.47-.5-.26-.82,8.12-11.93,24-9.5,35.27-16.37-1-1.13-2.13-2-3-3.21A.63.63,0,0,1,56.05,8c3.22-2.81,7.08-3.07,11-2.95A48.95,48.95,0,0,0,31.44,96.07C21,90.06,9.48,79.84,16.49,68.83Z"/></g><path class="cls-16" d="M96.27,30S106,66.57,83.83,88.43C83.83,88.43,110.31,70.4,96.27,30Z"/><path class="cls-17" d="M20.17,12.74S-11.8,39.6,8.24,75.35C8.24,75.35-7.17,40.77,20.17,12.74Z"/><path class="cls-18" d="M102.55,51.9a51,51,0,1,1-51-51A51,51,0,0,1,102.55,51.9Z"/><path class="cls-19" d="M15.89,48c.49-.09,1.65.62,2.07.68a22.17,22.17,0,0,0,5.46.06,46.29,46.29,0,0,0,11.14-2.1,1.34,1.34,0,0,1,.07-.18,4.34,4.34,0,0,0-1.47-.87,18.32,18.32,0,0,0-1.81-.43,23.36,23.36,0,0,0-4.51,0,28.92,28.92,0,0,0-9.1,1.8l-.7.3c-.28.16-.59.33-.86.52A1.82,1.82,0,0,0,15.89,48Z"/><path class="cls-19" d="M48,46.87c-8.23-1.16-15.67-4.93-24.14-4.38-7.6.5-14.6,4.52-21.68,7-.23.08-.31.55,0,.54,2.76-.14,5.3-1.3,7.86-2.29a3.39,3.39,0,0,0-.78,1.16,1.26,1.26,0,0,0,.22,1.52c2.87,2.07,7.82,1.29,11.17,1.29a32.84,32.84,0,0,0,13.55-3.07.44.44,0,0,0,.28-.42A37.3,37.3,0,0,1,19.52,50.8c-1-.07-6.65-.5-5-2.83A3.8,3.8,0,0,1,15,47.5s0,0,0,0h0c.14-.15.31-.29.47-.43s0,0,0,0a7.3,7.3,0,0,1,.61-.43,13.68,13.68,0,0,1,4.48-1.74l1.08-.25a28.29,28.29,0,0,1,9.37-.63,10.23,10.23,0,0,1,2.19.41,17.3,17.3,0,0,1,3.4,1.25,67.62,67.62,0,0,0,11.13,2C48.22,47.66,48.46,46.94,48,46.87Z"/><path class="cls-20" d="M41.87,48.2c-6,1.42-11,4.57-17.34,5C18,53.57,11,52.63,4.61,51.58c-.28,0-.55.51-.21.61a70.52,70.52,0,0,0,19.66,3,27.48,27.48,0,0,0,8-1.34c3.55-1.15,6.17-3.73,9.78-4.82C42.33,48.91,42.45,48.06,41.87,48.2Z"/><path class="cls-20" d="M98.47,59.41a17.54,17.54,0,0,0-6.74-1.65A57,57,0,0,1,82,56a55.6,55.6,0,0,0-18.37-2c-5.32.36-10.11,2.77-15,4.76C42,61.46,35.47,64.14,28.12,64c-.32,0-.5.54-.13.56,11.29.64,21.49-5.24,32.34-7.34a53.93,53.93,0,0,1,19.5.32c2.93.5,5.8,1.25,8.77,1.55,3.23.33,6.33.33,9.49,1.15C98.54,60.3,98.94,59.65,98.47,59.41Z"/><path class="cls-20" d="M80.85,81c-4.59-1.42-9.51-1.57-14.19-2.55a37.56,37.56,0,0,0-15.12,0c-5.66,1.16-11.29,2.55-17,3.74-5.17,1.07-12,2.42-17.23,1.5-.2,0-.35.31-.14.38,3.78,1.23,8.61.77,12.56.63,5.19-.17,10.56-1.59,15.65-2.57,6.1-1.18,11.54-2.41,17.82-2,5.77.34,11.44,1.64,17.19,2.07C81,82.15,81.49,81.16,80.85,81Z"/><path class="cls-20" d="M69.06,26.73C53.27,23.37,37.45,16.34,21.3,21.38c-.26.07-.35.57,0,.5,9-1.69,17-.86,25.83,1.17,7.2,1.64,14.33,4.06,21.75,4.44C69.31,27.52,69.54,26.83,69.06,26.73Z"/><path class="cls-20" d="M80.05,11.57C68,20.35,53,15.87,39.71,13.82c-.25,0-.39.39-.11.44,12.89,2.29,29.73,8.51,40.68-2.43A.17.17,0,1,0,80.05,11.57Z"/><path class="cls-19" d="M73.71,35.77c-7.43-.61-14.85-.87-21.85-3.68A68.74,68.74,0,0,0,32.56,27c-.31,0-.57.51-.22.62,3.15,1.09,6.31,1.82,9.3,3.34a99.61,99.61,0,0,0,11.87,5c6.63,2.39,13.27,1.18,20.1.63C74,36.55,74.18,35.81,73.71,35.77Z"/><path class="cls-19" d="M41.43,67.41c-9.55.38-19.68,5.89-29.25,2.21-.3-.11-.63.35-.36.57a14,14,0,0,0,11.28,3,38.52,38.52,0,0,0,7.8-1.78c3.59-1.35,6.41-3,10.35-3.14C41.7,68.2,42,67.39,41.43,67.41Z"/><path class="cls-19" d="M85.53,67.81c-5.41-1.59-11.17-1.34-16.71-1.06-.24,0-.4.44-.11.44a47,47,0,0,1,8.28.74c2.5.48,5.69,2,8.22,1.18C85.68,69,86.26,68,85.53,67.81Z"/></g></g></g></svg>