<svg xmlns="http://www.w3.org/2000/svg" xmlns:xlink="http://www.w3.org/1999/xlink" viewBox="0 0 100.98 100.99"><defs><style>.cls-1{mask:url(#mask);filter:url(#luminosity-noclip-2);}.cls-11,.cls-13,.cls-2,.cls-6{mix-blend-mode:multiply;}.cls-2{fill:url(#radial-gradient);}.cls-3{isolation:isolate;}.cls-4{fill:#5a5a5a;}.cls-5{fill:#2b2c2c;}.cls-10,.cls-6,.cls-9{opacity:0.6;}.cls-7{fill:#96d7f8;}.cls-7,.cls-8{mix-blend-mode:overlay;}.cls-8{fill:#fff;}.cls-10,.cls-12,.cls-15{mix-blend-mode:screen;}.cls-11{fill:url(#radial-gradient-2);}.cls-12{fill:#77ccf5;}.cls-13{fill:#94703e;}.cls-14{mask:url(#mask-2);}.cls-15{fill:url(#radial-gradient-3);}.cls-16{filter:url(#luminosity-noclip);}</style><filter id="luminosity-noclip" x="1.54" y="-8435.37" width="79.2" height="32766" filterUnits="userSpaceOnUse" color-interpolation-filters="sRGB"><feFlood flood-color="#fff" result="bg"/><feBlend in="SourceGraphic" in2="bg"/></filter><mask id="mask" x="1.54" y="-8435.37" width="79.2" height="32766" maskUnits="userSpaceOnUse"><g class="cls-16"/></mask><radialGradient id="radial-gradient" cx="63.89" cy="68.38" r="72.09" gradientUnits="userSpaceOnUse"><stop offset="0.34"/><stop offset="0.43" stop-color="#040404"/><stop offset="0.51" stop-color="#101010"/><stop offset="0.59" stop-color="#242424"/><stop offset="0.67" stop-color="#404040"/><stop offset="0.75" stop-color="#646464"/><stop offset="0.83" stop-color="#909090"/><stop offset="0.91" stop-color="#c4c4c4"/><stop offset="0.99" stop-color="#fff"/></radialGradient><radialGradient id="radial-gradient-2" cx="20.75" cy="28.44" r="80.98" gradientUnits="userSpaceOnUse"><stop offset="0" stop-color="#fff"/><stop offset="0.38" stop-color="#fdfdfd"/><stop offset="0.51" stop-color="#f6f6f6"/><stop offset="0.61" stop-color="#ebeaeb"/><stop offset="0.68" stop-color="#dadada"/><stop offset="0.75" stop-color="#c4c4c4"/><stop offset="0.81" stop-color="#a9a8a9"/><stop offset="0.86" stop-color="#898888"/><stop offset="0.91" stop-color="#646263"/><stop offset="0.96" stop-color="#3b393a"/><stop offset="0.98" stop-color="#1f1d1e"/></radialGradient><filter id="luminosity-noclip-2" x="1.54" y="0.71" width="79.2" height="77.42" filterUnits="userSpaceOnUse" color-interpolation-filters="sRGB"><feFlood flood-color="#fff" result="bg"/><feBlend in="SourceGraphic" in2="bg"/></filter><mask id="mask-2" x="1.54" y="0.71" width="79.2" height="77.42" maskUnits="userSpaceOnUse"><g class="cls-1"><path class="cls-2" d="M14.68,74.35c3.44-1.76,5.64-4.5,5.2-8.62-.62-5.6-4.28-10.52-3.84-16.26a9.5,9.5,0,0,1,5.75-7.94c3.55-1.58,7.65-1.41,11.4-1.94,3.18-.44,6.39-1.25,8-4.36A29.34,29.34,0,0,1,44.06,30c3-3.7,8.59-3.78,12.43-1.46,2.1,1.27,4.26,4.5,6.77,4.86,4.55.63,4.63-3.56,5.8-6.58.08-.22.42-.52.68-.4,2.68,1.25,4.26,4.67,7,5.57,3.75,1.22,4.35-6.56,3.85-8.63-.6-2.48-1.65-4.77-2.47-7.17S76,11,77.3,8.71A48.92,48.92,0,0,0,10.71,78.13,7.49,7.49,0,0,1,14.68,74.35Z"/></g></mask><radialGradient id="radial-gradient-3" cx="63.89" cy="68.38" r="72.09" gradientUnits="userSpaceOnUse"><stop offset="0.34" stop-color="#2b2b2b"/><stop offset="0.43" stop-color="#2e2f2f"/><stop offset="0.53" stop-color="#37393b"/><stop offset="0.62" stop-color="#464c4f"/><stop offset="0.71" stop-color="#5a656b"/><stop offset="0.8" stop-color="#75868f"/><stop offset="0.89" stop-color="#96aebb"/><stop offset="0.98" stop-color="#bcddef"/><stop offset="0.99" stop-color="#c5e8fb"/></radialGradient></defs><g class="cls-3"><g id="Layer_2" data-name="Layer 2"><g id="Layer_1-2" data-name="Layer 1"><path class="cls-4" d="M100.56,50.5A50.08,50.08,0,1,1,50.49.42,50.08,50.08,0,0,1,100.56,50.5Z"/><path class="cls-5" d="M50.49,101A50.5,50.5,0,1,1,101,50.5,50.55,50.55,0,0,1,50.49,101ZM50.49.83A49.67,49.67,0,1,0,100.14,50.5,49.72,49.72,0,0,0,50.49.83Z"/><g class="cls-6"><path class="cls-7" d="M82.64,54.59c-2.81,1.37-5.71,2.56-8.58,3.77a36.09,36.09,0,0,1-3.77,1.2c.79-1,1.44-2.06,1.88-2.68,2.69-3.79,7-6.82,8.78-11.23.41-1-.9-1.43-1.35-.51-1.76,3.66-5.91,6.67-8.88,9.33a24.12,24.12,0,0,0-1.9,2c-.07-4.18-.9-8.35-3.1-11.35-.31-.4-.86.13-.67.52,1.35,2.8.8,6.39.7,9.39A28.9,28.9,0,0,1,65.5,58c-.52-.93-.89-2.13-1.44-2.95C62.34,52.42,59.79,50.48,58,48c-.54-.76-1.62.24-1.23,1a59.61,59.61,0,0,1,4.32,8.92c.17.49.32,1.08.5,1.68-.67-.28-1.35-.57-2-.89-1.08-.55-2.12-1.16-3.21-1.7-1.34-.69-2.65-.83-3.92-1.78-.52-.4-1.21.47-.74.92,1.67,1.66,3.9,2.73,5.75,4.21l.6.47c-3.89-.31-7.77-.7-11.31-2.23-.44-.19-.85.57-.38.81a51.93,51.93,0,0,0,14.12,4.6c-1.14.29-2.28.57-3.46.81-5.17,1.06-10,3.39-15.17,4.31-.41.08-.48.77,0,.71,5.63-.63,10.9-2.55,16.57-3.12a14,14,0,0,1,1.5-.07c-5.65,3.34-10,8.19-14.86,13a.5.5,0,1,0,.66.74c3.7-3.16,6.8-6.67,11.09-9.12a42.31,42.31,0,0,1,6.37-2.48A90.52,90.52,0,0,1,57.9,83.8a.6.6,0,0,0,.92.75C63.37,81,65.59,75.65,67,70.19A92.83,92.83,0,0,1,70.82,81c.26.88,1.36.12,1.26-.59-.6-4-.93-8-1.91-12-.06-.28-.15-.54-.21-.8a10.81,10.81,0,0,0,1.33.78c1.76.87,3.32,2.64,5.44,2.58.89,0,1.89-1.65.7-2-1.72-.48-2.92-2.41-4.39-3.36A9,9,0,0,1,71,63.45a18.59,18.59,0,0,0,2.17-1.3C76.44,60,79.7,57.67,83,55.43,83.46,55.13,83.2,54.32,82.64,54.59Z"/><path class="cls-7" d="M87.44,26.83c-1.15.21-2.35-.37-3.46-.62l-.79-.16c.76-1,1.43-2.05,2.13-3.05.59-.84-.14-1.84-1.07-1.2s-1.6,1.1-2.39,1.67c-.34.24-.66.51-1,.77.12-.1-.81.55-.37.29a1.18,1.18,0,0,1-.19.11,46,46,0,0,1-1-7c-.06-.93-1.25-.49-1.28.25-.09,2.37.1,4.69-.09,7-1-2.35-2.38-5.64-4.37-7.09-.58-.42-1.36.55-.82,1C74,20,75.16,22.66,76,25c-.37-.19-.71-.37-1-.54a28.16,28.16,0,0,0-4.69-1.92c-.64-.23-1.2.79-.54,1.12A12.85,12.85,0,0,1,74,26.44a2.83,2.83,0,0,0,.23.28c-3.24.06-6.49-.11-9.53,1.15-.34.13-.51.92,0,.89a26.15,26.15,0,0,1,8.9.69h0A30.85,30.85,0,0,1,69,30.55c-.47.06-.71,1-.11,1a29.56,29.56,0,0,0,4.8-.32c-.86,1.1-1.84,2.57-3,2.9-.43.13-.74.94-.1,1,1.56.1,2.86-1.1,4-2,.9-.7,2.16-1.28,3.17-2q.41,0,.78-.12.38.77.69,1.56c.52,1.3.4,2.75,1,4.07.39.91,1.64.16,1.41-.67-.5-1.82-.5-3.65-1.13-5.44a.76.76,0,0,0-.06-.16,7.32,7.32,0,0,1,.65.47c.53.4,1.12.68,1.63,1.1A7,7,0,0,0,84.39,33c.59.24,1.27-.74.73-1.15a7.9,7.9,0,0,1-1.21-1.24c-.42-.5-1-.87-1.39-1.34-.09-.12-.21-.24-.3-.37a9.77,9.77,0,0,1,1.21-.16A8.76,8.76,0,0,0,87.62,28C88.12,27.74,88.28,26.68,87.44,26.83Z"/><path class="cls-8" d="M90.84,61.54a1.23,1.23,0,0,0-1.09-.89c-1.86,0-2.71,2-2.78,3.55A1.3,1.3,0,0,0,88,65.52l.2,0C90.18,65.74,91.39,63.2,90.84,61.54Z"/><path class="cls-8" d="M93.06,42.47a2.67,2.67,0,0,0-3.14-.64,4.55,4.55,0,0,0-1.8,1.79c-1.11,1.57-2.49,4.26-1.25,6,.88,1.25,2.5,1.06,3.75.6,2-.74,3-3.09,3.22-5.07A3.31,3.31,0,0,0,93.06,42.47Z"/><path class="cls-8" d="M82.56,74a1.41,1.41,0,0,0-1.62.6,1.7,1.7,0,0,0-.81,1.08c-.15.6.2,1.47.94,1.42a2.21,2.21,0,0,0,2-1.34A1.24,1.24,0,0,0,82.56,74Z"/><path class="cls-8" d="M70.39,88A2.44,2.44,0,0,0,67,86.57c-1.85.72-3,3.09-3.17,5a2,2,0,0,0,2,2.14A4.27,4.27,0,0,0,69,92.22,4.58,4.58,0,0,0,70.39,88Z"/><path class="cls-8" d="M24.66,26a2,2,0,0,0-2.33-2,3.59,3.59,0,0,0-2.86,2.87,3.94,3.94,0,0,0-.07,1.77A1.77,1.77,0,0,0,20.92,30a3.29,3.29,0,0,0,2.48-1.15A3.7,3.7,0,0,0,24.66,26Z"/><path class="cls-7" d="M27.35,45a21.16,21.16,0,0,1-6.07,2.31c-.46.13-1.32.6-2.08.92.66-.78,1.25-1.68,1.78-2.35a15.25,15.25,0,0,0,2.87-4.75c.23-.73-.82-.81-1.07-.23a14.17,14.17,0,0,1-3.11,3.92c-.64.65-1.5,1.32-2.21,2-.05-.48-.1-1-.16-1.45-.25-1.87-.2-3.83-.57-5.67-.09-.42-.71-.11-.68.23a40,40,0,0,1-.41,6.44A6.79,6.79,0,0,0,13,43.31c-.34-.19-.75.44-.44.69a7.62,7.62,0,0,1,2.1,3.41l-.7-.35A19.93,19.93,0,0,0,7.63,45c-.5,0-.78.82-.21.9,2,.3,4.18,1.52,6,2.36a13,13,0,0,1,1.37.77c-.83.17-1.68.34-2.51.56A21.74,21.74,0,0,0,8,51.38c-.44.23-.33.95.22.75a23.17,23.17,0,0,1,5-1.52l.32,0a19.09,19.09,0,0,0-4.78,4.66c-.29.43.09,1,.56.62,1.5-1.21,3-2.48,4.46-3.78-1.27,2.07-2.83,5.19-2.35,7.56.08.44.66.23.8-.05a50.53,50.53,0,0,1,3.42-6.72c.12-.18.24-.34.37-.51a14.38,14.38,0,0,1,.3,1.82c.09,1.21.31,2.42.42,3.64s.61,3.17.43,4.34c-.15.91.93.77,1.18.08.69-2,.43-4.63.48-6.71,0-.82,0-1.65,0-2.49a4.11,4.11,0,0,1,.34.51c.95,1.47,1.52,4.17,3,5.12.6.38,1.58-.46,1.09-1.08-1-1.28-1.24-3.46-1.94-5-.13-.29-.28-.6-.43-.92a12.23,12.23,0,0,1,3.46,1.82c.69.45,1.53-.59.95-1.16a9.38,9.38,0,0,0-3.2-2.48c-.36-.12-.72-.2-1.09-.3,2.35-1.21,4.78-1.95,6.84-3.71C28.43,45.42,28,44.62,27.35,45Z"/><path class="cls-8" d="M19.34,74.3a6.44,6.44,0,0,0-.7.68,1.46,1.46,0,0,0-.29.6A5,5,0,0,0,17.62,78c-.06.79.82,1.1,1.44.83a4.16,4.16,0,0,0,2.24-3.8C21.37,74,20,73.68,19.34,74.3Z"/><path class="cls-8" d="M32.91,67.69A2.8,2.8,0,0,0,29.18,65c-1.47.58-2.78,2.54-3.23,4.54a4,4,0,0,0-.14,1.85,3.17,3.17,0,0,0,2,2.9c2.72,1.12,4.77-1.87,5.37-4.12A3.75,3.75,0,0,0,32.91,67.69Z"/><path class="cls-8" d="M59.8,12.55a2.67,2.67,0,0,0-1.41.19.53.53,0,0,0-.33,0,3.66,3.66,0,0,0-2.25,2,5.82,5.82,0,0,0-.38.53,3.19,3.19,0,0,0,.32,4,2.73,2.73,0,0,0,2.16.55,2.79,2.79,0,0,0,.77-.18,4.52,4.52,0,0,0,.91-.44,4.85,4.85,0,0,0,2.24-3.9A2.4,2.4,0,0,0,59.8,12.55Z"/><path class="cls-8" d="M40,14.16a1,1,0,0,0-.24-.1l.09.08a1.41,1.41,0,0,0-1.73.45l0,0A1.44,1.44,0,0,0,38,16.38a.45.45,0,0,0,.06.12c.4.75,1.38.39,1.82-.15A1.25,1.25,0,0,0,40,14.16Z"/><path class="cls-8" d="M25.86,18.2c-.16,0-.18,0,0,0a1.17,1.17,0,0,0-.27,0,2,2,0,0,0-1.66,1.25,1,1,0,0,0,.53,1.14,6.68,6.68,0,0,0,.91.2c.69.12,1.35-.59,1.49-1.19A1,1,0,0,0,25.86,18.2Z"/></g><g class="cls-9"><path class="cls-8" d="M21.69,70c-5.36-8.89-10.24-19.86-10.8-30.5a.9.9,0,0,0-.09.4c0,17.57,10.4,37.53,25.27,47.44A74.44,74.44,0,0,1,21.69,70Z"/><path class="cls-8" d="M19.27,77.66C13.4,68.12,8.36,56.69,8,45.22a23,23,0,0,1-.19-2.48,47.69,47.69,0,0,1,.86-8.83.59.59,0,0,0-.25.29C3.25,49.7,10.32,65.22,18.87,78,19,78.23,19.42,77.89,19.27,77.66Z"/><path class="cls-8" d="M46.7,41.67c-2.47-1.31-5-2.59-7.39-3.86C34,35,27.94,32.27,21.78,31.07c-.26,0-.5,0-.75,0a37.29,37.29,0,0,0-4.22.33c7.58.84,15.23,4.56,21.73,8q9,4.79,17.84,10.1c-.3-.35-.6-.67-.9-1C52.64,46.09,49.69,43.86,46.7,41.67Z"/><path class="cls-8" d="M31.51,28.88c-5.12-.7-9.66-2-14.9-1.95-.13,0-.21.24-.05.24,5.11.07,9.85,1.4,14.91,1.91C31.57,29.09,31.63,28.91,31.51,28.88Z"/><path class="cls-8" d="M63.31,17.24a60.48,60.48,0,0,0-25.62-1.86,65.13,65.13,0,0,0-9.3,2.12.52.52,0,0,1-.21.14,35.44,35.44,0,0,0-8.83,4.78c-1,.71-3.07,1.63-4,2.78a.84.84,0,0,0,.23-.09c14.3-9.53,31.61-11.24,48.14-7.44a.18.18,0,0,0,.15-.05Z"/><path class="cls-8" d="M53.4,9.1h-.06a62.48,62.48,0,0,0-17.42,2.32c-1.71.77-3.4,1.59-5.05,2.49-1.2.65-2.4,1.34-3.57,2.06A66.72,66.72,0,0,1,57,9.64C55.75,9.48,54.54,9.34,53.4,9.1Z"/><path class="cls-8" d="M40.66,4.2c-8,2.05-17.23,5.41-23.42,11.44a30,30,0,0,0-3.58,5.86c3.58-4.45,7-7.93,12.07-10.83A62.88,62.88,0,0,1,40.66,4.79C41,4.71,41.05,4.1,40.66,4.2Z"/></g><g class="cls-10"><path class="cls-8" d="M83.22,53.91c-2.8,1.36-5.69,2.55-8.57,3.77a35.88,35.88,0,0,1-3.76,1.19c.78-1,1.44-2,1.87-2.67,2.69-3.79,7.07-6.83,8.78-11.24.41-1-.89-1.43-1.35-.5-1.75,3.66-5.9,6.67-8.87,9.32a24.35,24.35,0,0,0-1.9,2c-.08-4.18-.9-8.36-3.12-11.35-.3-.41-.84.13-.66.52,1.35,2.8.8,6.39.7,9.39a28.7,28.7,0,0,1-.25,2.93c-.51-.92-.89-2.12-1.43-2.95-1.73-2.6-4.27-4.54-6.07-7.08-.55-.75-1.62.24-1.23,1a59.55,59.55,0,0,1,4.33,8.91c.17.5.32,1.09.5,1.69-.67-.28-1.35-.57-2-.89-1.08-.55-2.11-1.16-3.2-1.71-1.35-.67-2.66-.83-3.93-1.77-.53-.4-1.2.47-.75.92,1.7,1.65,3.91,2.73,5.77,4.2l.6.47c-3.9-.31-7.77-.69-11.31-2.22-.44-.2-.85.56-.39.8a51.79,51.79,0,0,0,14.13,4.61c-1.14.28-2.29.57-3.46.81-5.17,1.06-10,3.38-15.18,4.31-.4.07-.48.77,0,.71,5.63-.63,10.89-2.56,16.56-3.13a14.12,14.12,0,0,1,1.5-.06c-5.66,3.33-10,8.18-14.87,13a.5.5,0,1,0,.66.75c3.72-3.16,6.81-6.67,11.1-9.13A42.52,42.52,0,0,1,63.85,68a91.47,91.47,0,0,1-5.36,15.09.6.6,0,0,0,.93.74C64,80.29,66.18,75,67.58,69.51a91.06,91.06,0,0,1,3.84,10.81c.26.88,1.36.12,1.25-.59-.6-4-.92-8.06-1.91-12-.06-.26-.14-.52-.21-.78a12.48,12.48,0,0,0,1.32.78c1.78.88,3.33,2.64,5.45,2.58.89,0,1.92-1.65.71-2-1.72-.47-2.93-2.4-4.39-3.35a9.38,9.38,0,0,1-2.08-2.18,21.91,21.91,0,0,0,2.15-1.3c3.33-2.2,6.59-4.48,9.9-6.72C84.06,54.45,83.79,53.63,83.22,53.91Z"/><path class="cls-8" d="M88,26.15c-1.14.2-2.34-.37-3.46-.62-.24-.06-.51-.11-.8-.16.78-1,1.44-2.05,2.15-3.05.58-.84-.14-1.84-1.06-1.2s-1.61,1.1-2.41,1.67c-.33.24-.65.51-1,.76.12-.09-.81.56-.38.3l-.19.1a45.8,45.8,0,0,1-1-7c-.06-.92-1.25-.49-1.29.26-.08,2.37.1,4.68-.08,7-1.06-2.34-2.4-5.63-4.38-7.08-.58-.42-1.35.54-.81,1,1.25,1.1,2.45,3.81,3.32,6.09l-1-.54a28.06,28.06,0,0,0-4.68-1.92c-.64-.23-1.2.8-.55,1.13a12.74,12.74,0,0,1,4.22,2.83,2.09,2.09,0,0,1,.22.28c-3.23.05-6.48-.12-9.53,1.14-.33.13-.52.93,0,.89a26.47,26.47,0,0,1,8.91.7h0a31.42,31.42,0,0,1-4.7,1.09c-.49.05-.72,1-.1,1a28.55,28.55,0,0,0,4.79-.31c-.86,1.1-1.84,2.57-3,2.9-.43.13-.74.94-.11,1,1.57.1,2.87-1.11,4-2,.88-.68,2.15-1.27,3.16-2a7,7,0,0,0,.78-.12c.24.52.49,1,.68,1.56.52,1.3.4,2.76,1,4.08.39.9,1.65.16,1.41-.66-.5-1.84-.5-3.66-1.13-5.46a.94.94,0,0,1-.06-.15,7.09,7.09,0,0,1,.64.46c.53.41,1.12.69,1.63,1.11A6.73,6.73,0,0,0,85,32.35c.59.24,1.28-.72.72-1.14A8.29,8.29,0,0,1,84.51,30c-.42-.51-1-.87-1.4-1.35-.09-.12-.19-.23-.3-.36A8.31,8.31,0,0,1,84,28.1a8.73,8.73,0,0,0,4.18-.75C88.72,27.05,88.88,26,88,26.15Z"/><path class="cls-8" d="M91.44,60.86a1.22,1.22,0,0,0-1.1-.89c-1.85,0-2.7,2-2.78,3.55a1.31,1.31,0,0,0,1.06,1.32l.2,0C90.78,65.05,92,62.52,91.44,60.86Z"/><path class="cls-8" d="M93.67,41.78a2.69,2.69,0,0,0-3.15-.63,4.43,4.43,0,0,0-1.8,1.79c-1.1,1.56-2.5,4.25-1.26,6,.88,1.25,2.5,1.07,3.76.61,2-.75,3-3.09,3.22-5.08A3.46,3.46,0,0,0,93.67,41.78Z"/><path class="cls-8" d="M83.16,73.29a1.44,1.44,0,0,0-1.63.6A1.72,1.72,0,0,0,80.72,75c-.13.6.21,1.47.94,1.42a2.25,2.25,0,0,0,2-1.35A1.25,1.25,0,0,0,83.16,73.29Z"/><path class="cls-8" d="M71,87.28a2.44,2.44,0,0,0-3.34-1.4c-1.85.72-3,3.1-3.17,5a2,2,0,0,0,2,2.14,4.21,4.21,0,0,0,3.07-1.44A4.54,4.54,0,0,0,71,87.28Z"/><path class="cls-8" d="M25.26,25.27a2.07,2.07,0,0,0-2.34-2,3.63,3.63,0,0,0-2.86,2.88A3.93,3.93,0,0,0,20,27.93a1.75,1.75,0,0,0,1.52,1.4A3.28,3.28,0,0,0,24,28.19,3.72,3.72,0,0,0,25.26,25.27Z"/><path class="cls-8" d="M28,44.35a21.94,21.94,0,0,1-6.08,2.31c-.45.12-1.31.59-2.07.91.65-.78,1.24-1.68,1.77-2.35a15.43,15.43,0,0,0,2.88-4.75c.24-.72-.82-.8-1.07-.22a14.36,14.36,0,0,1-3.11,3.92c-.64.65-1.5,1.32-2.21,2,0-.49-.11-1-.17-1.46-.24-1.87-.19-3.82-.57-5.66-.08-.43-.69-.12-.68.22a42.47,42.47,0,0,1-.39,6.45,6.77,6.77,0,0,0-2.62-3.14c-.34-.19-.76.44-.44.69a7.55,7.55,0,0,1,2.08,3.4c-.21-.12-.45-.23-.68-.34a19.92,19.92,0,0,0-6.36-2.06c-.5,0-.78.81-.21.9,2,.3,4.17,1.51,6,2.36a11.46,11.46,0,0,1,1.37.77c-.84.17-1.69.34-2.52.55a22.59,22.59,0,0,0-4.24,1.8c-.44.22-.33.95.21.75a23.77,23.77,0,0,1,5-1.53l.32,0a19.3,19.3,0,0,0-4.78,4.67c-.28.42.09,1,.57.63,1.49-1.23,3-2.49,4.47-3.8-1.28,2.08-2.84,5.2-2.36,7.57.08.44.66.22.8-.05a51.26,51.26,0,0,1,3.42-6.73c.11-.17.23-.33.37-.51a13,13,0,0,1,.29,1.82c.08,1.22.32,2.43.42,3.65s.62,3.17.43,4.34c-.15.91.94.76,1.18.08.69-2,.42-4.63.47-6.72,0-.82,0-1.65,0-2.49.12.18.25.34.35.51.94,1.48,1.52,4.18,3,5.13.6.37,1.57-.46,1.09-1.08-1-1.28-1.25-3.47-1.94-5-.13-.29-.28-.6-.44-.91A12.25,12.25,0,0,1,25,52.83c.68.46,1.52-.58,1-1.16a9.58,9.58,0,0,0-3.22-2.47c-.34-.12-.71-.2-1.06-.3C24,47.69,26.41,47,28.49,45.19,29,44.73,28.59,43.93,28,44.35Z"/><path class="cls-8" d="M19.94,73.62a4.52,4.52,0,0,0-.7.68,1.53,1.53,0,0,0-.3.58,5.14,5.14,0,0,0-.72,2.47,1,1,0,0,0,1.42.83,4.11,4.11,0,0,0,2.25-3.79C22,73.32,20.61,73,19.94,73.62Z"/><path class="cls-8" d="M33.5,67a2.8,2.8,0,0,0-3.72-2.66c-1.49.59-2.79,2.54-3.23,4.54a4.16,4.16,0,0,0-.15,1.86,3.22,3.22,0,0,0,2,2.9c2.72,1.11,4.77-1.87,5.37-4.12A3.73,3.73,0,0,0,33.5,67Z"/><path class="cls-8" d="M60.39,11.86a2.77,2.77,0,0,0-1.4.2.65.65,0,0,0-.34,0,3.67,3.67,0,0,0-2.25,2,5.56,5.56,0,0,0-.37.52,3.19,3.19,0,0,0,.31,4,2.74,2.74,0,0,0,2.16.55,2.61,2.61,0,0,0,.79-.19,5,5,0,0,0,.9-.44,4.84,4.84,0,0,0,2.23-3.89A2.41,2.41,0,0,0,60.39,11.86Z"/><path class="cls-8" d="M40.61,13.48a1.54,1.54,0,0,0-.24-.1l.09.07a1.43,1.43,0,0,0-1.72.45s0,0,0,0a1.4,1.4,0,0,0-.12,1.77s0,.08,0,.12c.42.75,1.41.39,1.85-.15C41.27,15.2,41.54,13.93,40.61,13.48Z"/><path class="cls-8" d="M26.46,17.51c-.17,0-.18,0,0,0l-.27-.05a1.53,1.53,0,0,0-.9.31,1.47,1.47,0,0,0-.77.94A.94.94,0,0,0,25,19.84a7.21,7.21,0,0,0,.92.21,1.49,1.49,0,0,0,1.48-1.19A1,1,0,0,0,26.46,17.51Z"/></g><path class="cls-11" d="M100.56,50.58A50.08,50.08,0,1,1,50.49.51,50.08,50.08,0,0,1,100.56,50.58Z"/><path class="cls-12" d="M19.31,12.17S-12,38.52,7.63,73.61C7.63,73.61-7.51,39.67,19.31,12.17Z"/><path class="cls-13" d="M93.94,27.93s11.21,35.4-9.49,57.86C84.45,85.79,109.57,66.9,93.94,27.93Z"/><g class="cls-14"><path class="cls-15" d="M14.68,74.35c3.44-1.76,5.64-4.5,5.2-8.62-.62-5.6-4.28-10.52-3.84-16.26a9.5,9.5,0,0,1,5.75-7.94c3.55-1.58,7.65-1.41,11.4-1.94,3.18-.44,6.39-1.25,8-4.36A29.34,29.34,0,0,1,44.06,30c3-3.7,8.59-3.78,12.43-1.46,2.1,1.27,4.26,4.5,6.77,4.86,4.55.63,4.63-3.56,5.8-6.58.08-.22.42-.52.68-.4,2.68,1.25,4.26,4.67,7,5.57,3.75,1.22,4.35-6.56,3.85-8.63-.6-2.48-1.65-4.77-2.47-7.17S76,11,77.3,8.71A48.92,48.92,0,0,0,10.71,78.13,7.49,7.49,0,0,1,14.68,74.35Z"/></g></g></g></g></svg>