<svg xmlns="http://www.w3.org/2000/svg" xmlns:xlink="http://www.w3.org/1999/xlink" viewBox="0 0 145.83 102.97"><defs><style>.cls-1{mask:url(#mask);filter:url(#luminosity-noclip-5);}.cls-2,.cls-20,.cls-24,.cls-29,.cls-31,.cls-4,.cls-6{mix-blend-mode:multiply;}.cls-2{fill:url(#radial-gradient);}.cls-3{mask:url(#mask-2);}.cls-22,.cls-4{fill:url(#radial-gradient-2);}.cls-5{mask:url(#mask-4);filter:url(#luminosity-noclip-7);}.cls-6{fill:url(#radial-gradient-4);}.cls-7{isolation:isolate;}.cls-8{fill:#00b0ef;}.cls-9{fill:#0065d0;}.cls-10{fill:#5e4395;}.cls-11{fill:#50197e;}.cls-12{fill:#be63a4;}.cls-13{fill:#fffab3;}.cls-14{fill:#f59364;}.cls-15{fill:#8c5ca3;}.cls-16{fill:#f8bcb6;}.cls-17{fill:#3865b0;}.cls-18{fill:#a843a3;}.cls-19{mask:url(#mask-5);}.cls-20{fill:url(#radial-gradient-5);}.cls-21{mask:url(#mask-6);}.cls-22,.cls-25,.cls-28{mix-blend-mode:screen;}.cls-23{fill:url(#radial-gradient-7);}.cls-24{fill:#d474ad;}.cls-25,.cls-30{fill:#fff;}.cls-25{opacity:0.6;}.cls-26{fill:#964896;}.cls-27{mask:url(#mask-8);}.cls-28{fill:url(#radial-gradient-8);}.cls-29{fill:#271053;}.cls-30{mix-blend-mode:overlay;}.cls-31{fill:#0000b9;opacity:0.7;}.cls-32{filter:url(#luminosity-noclip-4);}.cls-33{filter:url(#luminosity-noclip-2);}.cls-34{filter:url(#luminosity-noclip);}</style><filter id="luminosity-noclip" x="28.6" y="-8316.77" width="94.72" height="32766" filterUnits="userSpaceOnUse" color-interpolation-filters="sRGB"><feFlood flood-color="#fff" result="bg"/><feBlend in="SourceGraphic" in2="bg"/></filter><mask id="mask" x="28.6" y="-8316.77" width="94.72" height="32766" maskUnits="userSpaceOnUse"><g class="cls-34"/></mask><radialGradient id="radial-gradient" cx="-19.88" cy="42.99" r="95.85" gradientTransform="matrix(0.99, 0.15, -0.15, 0.99, 49.99, -19.52)" gradientUnits="userSpaceOnUse"><stop offset="0"/><stop offset="0.37" stop-color="#020202"/><stop offset="0.51" stop-color="#090909"/><stop offset="0.6" stop-color="#141414"/><stop offset="0.68" stop-color="#252525"/><stop offset="0.75" stop-color="#3b3b3b"/><stop offset="0.8" stop-color="#575757"/><stop offset="0.86" stop-color="#777"/><stop offset="0.91" stop-color="#9d9d9d"/><stop offset="0.95" stop-color="#c8c8c8"/><stop offset="0.99" stop-color="#f6f6f6"/><stop offset="1" stop-color="#fff"/></radialGradient><filter id="luminosity-noclip-2" x="29.46" y="-8316.77" width="68.29" height="32766" filterUnits="userSpaceOnUse" color-interpolation-filters="sRGB"><feFlood flood-color="#fff" result="bg"/><feBlend in="SourceGraphic" in2="bg"/></filter><mask id="mask-2" x="29.46" y="-8316.77" width="68.29" height="32766" maskUnits="userSpaceOnUse"><g class="cls-33"/></mask><radialGradient id="radial-gradient-2" cx="117.92" cy="96.87" r="104.15" gradientTransform="translate(-2.39 1.43) rotate(-0.92)" xlink:href="#radial-gradient"/><filter id="luminosity-noclip-4" x="3.85" y="-8316.77" width="79.65" height="32766" filterUnits="userSpaceOnUse" color-interpolation-filters="sRGB"><feFlood flood-color="#fff" result="bg"/><feBlend in="SourceGraphic" in2="bg"/></filter><mask id="mask-4" x="3.85" y="-8316.77" width="79.65" height="32766" maskUnits="userSpaceOnUse"><g class="cls-32"/></mask><radialGradient id="radial-gradient-4" cx="34.61" cy="8.94" r="136.05" xlink:href="#radial-gradient"/><filter id="luminosity-noclip-5" x="28.6" y="5.04" width="94.72" height="94.72" filterUnits="userSpaceOnUse" color-interpolation-filters="sRGB"><feFlood flood-color="#fff" result="bg"/><feBlend in="SourceGraphic" in2="bg"/></filter><mask id="mask-5" x="28.6" y="5.04" width="94.72" height="94.72" maskUnits="userSpaceOnUse"><g class="cls-1"><path class="cls-2" d="M122.8,59.33A47.35,47.35,0,1,1,82.89,5.55,47.34,47.34,0,0,1,122.8,59.33Z"/></g></mask><radialGradient id="radial-gradient-5" cx="-19.88" cy="42.99" r="95.85" gradientTransform="matrix(0.99, 0.15, -0.15, 0.99, 49.99, -19.52)" gradientUnits="userSpaceOnUse"><stop offset="0" stop-color="#fff"/><stop offset="0.39" stop-color="#fefdfe"/><stop offset="0.53" stop-color="#f9f6fa"/><stop offset="0.63" stop-color="#f1ebf3"/><stop offset="0.71" stop-color="#e6daea"/><stop offset="0.78" stop-color="#d7c4dd"/><stop offset="0.85" stop-color="#c5a8ce"/><stop offset="0.9" stop-color="#af88bb"/><stop offset="0.95" stop-color="#9664a7"/><stop offset="1" stop-color="#7b3b8f"/><stop offset="1" stop-color="#79388e"/></radialGradient><mask id="mask-6" x="29.46" y="5.8" width="68.29" height="74.79" maskUnits="userSpaceOnUse"><g class="cls-3"><path class="cls-4" d="M97.63,14.34c-4.82-4.2-6.58-6.52-16.72-8.09-11.77-1.83-25,2-34.43,9.62A46.3,46.3,0,0,0,32.05,36a42.74,42.74,0,0,0-2.53,12C29.1,55.9,31,63.79,33.73,71.12a22.34,22.34,0,0,0,6.38,9.47,43.77,43.77,0,0,0,5.12-1.93c-1-5.36,1.47-10.51,3.31-15.56,1.26-3.47,2.82-7,1.69-10.71-1.18-3.93-6.58-3.45-8.87-6.17-2.12-2.53,1.12-7.06,2.63-9,3-3.86,6.19-4.78,10.79-3.42,8.27,2.45,9.49-10.15,16.48-10.4,2.19-.08,4,2.07,5.78,3a7.92,7.92,0,0,0,4.91.91c1.61-.16,3.22-1.64,4.38-2.64a42.59,42.59,0,0,1,7.33-5.08,33.73,33.73,0,0,0,4-2.19A15.27,15.27,0,0,0,97.63,14.34Z"/></g></mask><filter id="luminosity-noclip-6" x="29.46" y="5.8" width="68.29" height="74.79" filterUnits="userSpaceOnUse" color-interpolation-filters="sRGB"><feFlood flood-color="#fff" result="bg"/><feBlend in="SourceGraphic" in2="bg"/></filter><radialGradient id="radial-gradient-7" cx="54.15" cy="41.98" r="149.51" gradientUnits="userSpaceOnUse"><stop offset="0.06" stop-color="#6fc6e1"/><stop offset="0.23" stop-color="#6ebddc"/><stop offset="0.5" stop-color="#6ba3ce"/><stop offset="0.84" stop-color="#667ab8"/><stop offset="1" stop-color="#6365ad"/></radialGradient><filter id="luminosity-noclip-7" x="3.85" y="64.98" width="79.65" height="35.38" filterUnits="userSpaceOnUse" color-interpolation-filters="sRGB"><feFlood flood-color="#fff" result="bg"/><feBlend in="SourceGraphic" in2="bg"/></filter><mask id="mask-8" x="3.85" y="64.98" width="79.65" height="35.38" maskUnits="userSpaceOnUse"><g class="cls-5"><path class="cls-6" d="M81.59,70.6c-4.07,1.31-7.59,3.91-11.24,6.09q-5.88,3.53-12,6.61a98.65,98.65,0,0,1-27.08,8.75c-4.32.75-20.82,4-20.08-3.75C11.56,84,15.49,79.5,18,76.22c2.71-3.6,5.55-7.07,8.47-10.49.47-.54-.31-1-.78-.61-7.56,6.11-19,13.4-21.45,23.52C1.7,99,13.47,100.57,20.9,100.34c11.28-.38,21.81-4.62,32-9.1a169.34,169.34,0,0,0,15.87-8.13c4.83-2.77,10.35-5.52,14.17-9.63C84,72.3,83.61,70,81.59,70.6Z"/></g></mask><radialGradient id="radial-gradient-8" cx="34.61" cy="8.94" r="136.05" gradientTransform="matrix(0.99, 0.15, -0.15, 0.99, 49.99, -19.52)" gradientUnits="userSpaceOnUse"><stop offset="0" stop-color="#2b2b2b"/><stop offset="0.39" stop-color="#2d2d2d"/><stop offset="0.53" stop-color="#343434"/><stop offset="0.63" stop-color="#3f3f3f"/><stop offset="0.71" stop-color="#505050"/><stop offset="0.77" stop-color="#666"/><stop offset="0.84" stop-color="#828282"/><stop offset="0.89" stop-color="#a2a2a2"/><stop offset="0.94" stop-color="#c8c8c8"/><stop offset="0.99" stop-color="#f1f1f1"/><stop offset="1" stop-color="#fff"/></radialGradient></defs><g class="cls-7"><g id="Layer_2" data-name="Layer 2"><g id="Layer_1-2" data-name="Layer 1"><path class="cls-8" d="M122.9,59.34A47.35,47.35,0,1,1,83,5.57,47.35,47.35,0,0,1,122.9,59.34Z"/><path class="cls-9" d="M123,59.35l-.15.85c-.1.55-.2,1.38-.45,2.44a45.6,45.6,0,0,1-2.89,9A48.84,48.84,0,0,1,111.7,84.1,47.63,47.63,0,0,1,96.58,95.76a48.8,48.8,0,0,1-10.39,3.62,46.24,46.24,0,0,1-11.74,1,47.15,47.15,0,0,1-23.94-7.61A49.08,49.08,0,0,1,33,72.65a48.18,48.18,0,0,1-4.06-13.24,49.4,49.4,0,0,1-.57-7,51.7,51.7,0,0,1,.44-7,53.19,53.19,0,0,1,1.46-6.87A49.12,49.12,0,0,1,32.7,32,47.76,47.76,0,0,1,63.19,6a46.26,46.26,0,0,1,12.9-1.76c1.07,0,2.13,0,3.18.12.53,0,1,.07,1.58.13l1.55.19c1.09.12,2,.34,3,.5s2,.43,3,.71a46.46,46.46,0,0,1,10.94,4.44,48.8,48.8,0,0,1,8.89,6.5A48,48,0,0,1,123.2,46.58a45,45,0,0,1,.16,9.45c-.06,1.09-.21,1.91-.27,2.48S123,59.35,123,59.35Zm-.16,0s0-.29.1-.85.2-1.38.24-2.47a44.62,44.62,0,0,0-.27-9.39,41.21,41.21,0,0,0-1.36-6.57,45.46,45.46,0,0,0-2.81-7.36A47.7,47.7,0,0,0,88,7.43c-.94-.27-1.9-.45-2.87-.67l-1.5-.26-.75-.12-.73-.09-1.5-.19c-.51,0-1-.07-1.53-.11-1-.09-2-.09-3.07-.11a46.91,46.91,0,0,0-6.23.42c-1,.12-2.08.34-3.12.51s-2.09.44-3.12.75a47.11,47.11,0,0,0-34,38,54.24,54.24,0,0,0-.57,6.87,45.72,45.72,0,0,0,4.35,20A46.32,46.32,0,0,0,51,92.07c.91.6,1.87,1.08,2.8,1.61s1.9,1,2.89,1.37a47.39,47.39,0,0,0,5.9,2.15c1,.27,2,.55,3,.74.5.1,1,.22,1.49.31l1.52.25c1,.18,2,.26,3,.39s2,.16,3,.18a48,48,0,0,0,36.69-15.43A45,45,0,0,0,116,77.41a41.34,41.34,0,0,0,3.2-5.89,45.33,45.33,0,0,0,3-8.91c.27-1.06.37-1.89.48-2.44S122.82,59.33,122.82,59.33Z"/><path class="cls-10" d="M122.9,59.34A47.35,47.35,0,1,1,83,5.57,47.35,47.35,0,0,1,122.9,59.34Z"/><path class="cls-11" d="M123,59.35l-.15.85c-.1.55-.2,1.38-.45,2.44a45.6,45.6,0,0,1-2.89,9A48.84,48.84,0,0,1,111.7,84.1,47.63,47.63,0,0,1,96.58,95.76a48.8,48.8,0,0,1-10.39,3.62,46.24,46.24,0,0,1-11.74,1,47.15,47.15,0,0,1-23.94-7.61A49.08,49.08,0,0,1,33,72.65a48.18,48.18,0,0,1-4.06-13.24,49.4,49.4,0,0,1-.57-7,51.7,51.7,0,0,1,.44-7,53.19,53.19,0,0,1,1.46-6.87A49.12,49.12,0,0,1,32.7,32,47.76,47.76,0,0,1,63.19,6a46.26,46.26,0,0,1,12.9-1.76c1.07,0,2.13,0,3.18.12.53,0,1,.07,1.58.13l1.55.19c1.09.12,2,.34,3,.5s2,.43,3,.71a46.46,46.46,0,0,1,10.94,4.44,48.8,48.8,0,0,1,8.89,6.5A48,48,0,0,1,123.2,46.58a45,45,0,0,1,.16,9.45c-.06,1.09-.21,1.91-.27,2.48S123,59.35,123,59.35Zm-.16,0s0-.29.1-.85.2-1.38.24-2.47a44.62,44.62,0,0,0-.27-9.39,41.21,41.21,0,0,0-1.36-6.57,45.46,45.46,0,0,0-2.81-7.36A47.7,47.7,0,0,0,88,7.43c-.94-.27-1.9-.45-2.87-.67l-1.5-.26-.75-.12-.73-.09-1.5-.19c-.51,0-1-.07-1.53-.11-1-.09-2-.09-3.07-.11a46.91,46.91,0,0,0-6.23.42c-1,.12-2.08.34-3.12.51s-2.09.44-3.12.75a47.11,47.11,0,0,0-34,38,54.24,54.24,0,0,0-.57,6.87,45.72,45.72,0,0,0,4.35,20A46.32,46.32,0,0,0,51,92.07c.91.6,1.87,1.08,2.8,1.61s1.9,1,2.89,1.37a47.39,47.39,0,0,0,5.9,2.15c1,.27,2,.55,3,.74.5.1,1,.22,1.49.31l1.52.25c1,.18,2,.26,3,.39s2,.16,3,.18a48,48,0,0,0,36.69-15.43A45,45,0,0,0,116,77.41a41.34,41.34,0,0,0,3.2-5.89,45.33,45.33,0,0,0,3-8.91c.27-1.06.37-1.89.48-2.44S122.82,59.33,122.82,59.33Z"/><path class="cls-12" d="M40.8,25.91A69.87,69.87,0,0,0,47,19.81a20.51,20.51,0,0,0,3.31-4.69,14.39,14.39,0,0,0,1.24-3.22A47.33,47.33,0,0,0,34.29,30.1C36.71,29.53,39.23,27.27,40.8,25.91Z"/><path class="cls-13" d="M37.25,35.09a92.34,92.34,0,0,0,10-7.9c3.29-3,6.62-5.9,9.61-9.17S63,10.89,64.33,6.54A47.19,47.19,0,0,0,52.5,11.35a19.89,19.89,0,0,1-3.72,7.71,61.88,61.88,0,0,1-9,8.78c-1.65,1.26-3.79,2.91-6,3.28a47,47,0,0,0-3,7.44A26.55,26.55,0,0,0,37.25,35.09Z"/><path class="cls-14" d="M50.85,31A77.43,77.43,0,0,0,63.58,16.67c1.54-2.34,2.89-4.79,4.24-7.23a27.19,27.19,0,0,0,1.88-4c-1.47.21-2.93.47-4.37.81-1.17,4.19-4.07,8-6.87,11.16a127.58,127.58,0,0,1-11.28,10.9c-3.9,3.44-8,6.92-12.61,9.37A22.08,22.08,0,0,1,30.5,39.5a48.59,48.59,0,0,0-1.29,6c0,.06,0,.14,0,.2A100.22,100.22,0,0,0,50.85,31Z"/><path class="cls-13" d="M34,53.71A127,127,0,0,0,52.22,39.55,93.27,93.27,0,0,0,68.05,19.7a78.55,78.55,0,0,0,5.35-11c.47-1.18.94-2.36,1.37-3.57h-.31c-1.26,2.61-2.71,5.15-4,7.66C66.79,19.56,62.83,26.37,57.5,32a93.55,93.55,0,0,1-18.12,14.7c-3.17,2-6.38,4.09-9.68,5.86l-1,.49c0,1.34.11,2.68.23,4C30.65,55.94,32.32,54.8,34,53.71Z"/><path class="cls-15" d="M83,5.57c-.52-.08-1-.15-1.57-.2-.19.57-.42,1.13-.64,1.68-1.49,3.56-3.25,7.05-5,10.47a102.32,102.32,0,0,1-16.8,23.81A94.16,94.16,0,0,1,35.56,58.62c-1.86,1-3.87,2-6,2.84a.31.31,0,0,1,0,.08c.94-.4,1.85-.84,2.75-1.24,4.2-1.92,8.38-3.83,12.39-6.12a88.27,88.27,0,0,0,21-16.13A83.2,83.2,0,0,0,81.35,14.89a92.26,92.26,0,0,0,3.59-9C84.29,5.78,83.64,5.67,83,5.57Z"/><path class="cls-12" d="M36.4,57.16c7.64-4.38,15.08-9.4,21.25-15.74a98.81,98.81,0,0,0,15.9-21.71c1.91-3.48,3.73-7,5.38-10.66.54-1.19,1.13-2.46,1.58-3.77a45.47,45.47,0,0,0-4.79-.2c-.24.67-.48,1.35-.75,2a83.27,83.27,0,0,1-5.14,11.25A94.43,94.43,0,0,1,53.51,39.48,140.73,140.73,0,0,1,33.66,54.94c-1.5,1-3,2.05-4.6,3.06.1.89.25,1.77.39,2.63A59.24,59.24,0,0,0,36.4,57.16Z"/><path class="cls-16" d="M67.68,42.51c6-5.76,11.41-12.19,14.8-19.87a75.14,75.14,0,0,0,3.78-11.41c.4-1.55.85-3.15,1.11-4.78-.51-.13-1-.26-1.58-.37a85.36,85.36,0,0,1-3.14,8A84.67,84.67,0,0,1,66.37,38.64a91.38,91.38,0,0,1-23.74,17.7c-4.06,2.14-8.22,4.09-12.42,5.9l-.41.17c.16.72.33,1.43.52,2.13A95,95,0,0,0,67.68,42.51Z"/><path class="cls-12" d="M90.41,7.29c-.71-.22-1.42-.43-2.13-.62-.15.79-.33,1.59-.52,2.37a79.38,79.38,0,0,1-4,12.83A64.79,64.79,0,0,1,68.94,42.48,98.43,98.43,0,0,1,30.56,65.41c.35,1.22.75,2.43,1.19,3.62.45-.15.9-.3,1.33-.46a94.79,94.79,0,0,0,15-6.54A96.61,96.61,0,0,0,71,43.92C79.66,34.71,90.57,20.93,90.41,7.29Z"/><path class="cls-16" d="M55.44,82.31A154.25,154.25,0,0,0,83.75,66.23c13.55-9.86,27-22.15,33-38-.71-1.19-1.46-2.36-2.28-3.48-1.45,2.15-3,4.18-4.36,6A142.15,142.15,0,0,1,84.92,55.5a124.39,124.39,0,0,1-11.43,7.92,134.38,134.38,0,0,1-26,16.38c-2.33,1.1-4.83,2.26-7.42,3.33a52.87,52.87,0,0,0,3.81,4C47.83,85.63,51.69,84,55.44,82.31Z"/><path class="cls-14" d="M95.17,68.18a106.88,106.88,0,0,0,20.77-25.77c1.31-2.35,2.75-4.85,4.11-7.44a45.4,45.4,0,0,0-2.72-5.72c-6.18,15.37-19.15,27.53-32.43,37.2A155.78,155.78,0,0,1,55.57,83.22c-3.57,1.55-7.24,3.12-11,4.54a47.07,47.07,0,0,0,5.12,4A95.67,95.67,0,0,0,95.17,68.18Z"/><path class="cls-17" d="M76.94,99.75a77.3,77.3,0,0,0,9.29-4.63,102.25,102.25,0,0,0,22-17.68,81.33,81.33,0,0,0,15.09-21.53,47.52,47.52,0,0,0-.38-10.42c-4.72,11-12.08,21.2-19.67,29.61A93.08,93.08,0,0,1,77.12,95.44c-2.55,1.31-5.27,2.63-8.09,3.8l.1,0A46.9,46.9,0,0,0,76.94,99.75Z"/><path class="cls-15" d="M108.8,78c-7.28,7.51-15.4,14.31-24.68,19.25-1.36.74-2.86,1.54-4.43,2.33A47.36,47.36,0,0,0,122.9,59.34c0-.34.09-.68.13-1A83,83,0,0,1,108.8,78Z"/><path class="cls-12" d="M78.49,93.71A92.77,92.77,0,0,0,102.63,74.5c7.77-8.72,15.37-19.26,20-30.66A46.71,46.71,0,0,0,120.44,36c-.94,1.77-1.89,3.49-2.79,5.15a107.15,107.15,0,0,1-21.18,27A98.55,98.55,0,0,1,50.82,92.45,46.72,46.72,0,0,0,67.5,99,84.06,84.06,0,0,0,78.49,93.71Z"/><path class="cls-16" d="M83.79,55.32c9.07-7.1,17.86-15,24.94-24.14,1.67-2.15,3.49-4.57,5.2-7.15a47.6,47.6,0,0,0-7.53-8,25.71,25.71,0,0,1-.74,4.58,55.66,55.66,0,0,1-6.77,15,108.36,108.36,0,0,1-20,23.22C80.54,57.75,82.19,56.57,83.79,55.32Z"/><path class="cls-15" d="M41.81,77.92c4.38-2,8.81-3.79,13.19-5.76a164,164,0,0,0,18.06-9.45c.75-.61,1.51-1.21,2.24-1.83C83.49,53.94,91.23,46,97.07,36.94c3.07-4.75,6-9.95,7.43-15.46a29,29,0,0,0,.9-6.21,49,49,0,0,0-6.18-4.15c-.56,5.84-3.54,12-6.14,16.38C87.5,37,79.8,44.67,71.4,51.68a172.1,172.1,0,0,1-28,18.92c-2.94,1.6-5.87,3.13-8.89,4.47a47.29,47.29,0,0,0,3,4.72C39,79.21,40.43,78.55,41.81,77.92Z"/><path class="cls-12" d="M54.25,73.46c-4.85,2.14-9.69,4.34-14.58,6.36L38,80.51q.72,1,1.5,1.92c2.75-1.11,5.4-2.35,7.86-3.54A136.79,136.79,0,0,0,67.7,66.8Q61.13,70.43,54.25,73.46Z"/><path class="cls-16" d="M46.46,67.89a173,173,0,0,0,25.1-17.44C79,44.12,86.18,37.21,91.32,28.78c2.92-4.81,6.61-11.72,7-18.15a47,47,0,0,0-6.92-3c-.15,13.77-11,27.65-19.79,36.89A96.17,96.17,0,0,1,46.67,63.76a94.73,94.73,0,0,1-14.59,6.12,47.43,47.43,0,0,0,2.06,4.46A119.3,119.3,0,0,0,46.46,67.89Z"/><path class="cls-18" d="M32.8,49.67c2.89-1.78,5.84-3.43,8.65-5.34A84.27,84.27,0,0,0,57.54,30.7,92.27,92.27,0,0,0,69.62,12.39c1.26-2.38,2.63-4.78,3.84-7.25-.9.05-1.8.12-2.68.22-1,3.36-3.34,6.7-4.91,9.29A74.71,74.71,0,0,1,52.81,30.34,109.27,109.27,0,0,1,29.06,46.69a49.57,49.57,0,0,0-.34,5.41C30.13,51.38,31.47,50.49,32.8,49.67Z"/><g class="cls-19"><path class="cls-20" d="M122.8,59.33A47.35,47.35,0,1,1,82.89,5.55,47.34,47.34,0,0,1,122.8,59.33Z"/></g><g class="cls-21"><g class="cls-21"><path class="cls-22" d="M97.63,14.34c-4.82-4.2-6.58-6.52-16.72-8.09-11.77-1.83-25,2-34.43,9.62A46.3,46.3,0,0,0,32.05,36a42.74,42.74,0,0,0-2.53,12C29.1,55.9,31,63.79,33.73,71.12a22.34,22.34,0,0,0,6.38,9.47,43.77,43.77,0,0,0,5.12-1.93c-1-5.36,1.47-10.51,3.31-15.56,1.26-3.47,2.82-7,1.69-10.71-1.18-3.93-6.58-3.45-8.87-6.17-2.12-2.53,1.12-7.06,2.63-9,3-3.86,6.19-4.78,10.79-3.42,8.27,2.45,9.49-10.15,16.48-10.4,2.19-.08,4,2.07,5.78,3a7.92,7.92,0,0,0,4.91.91c1.61-.16,3.22-1.64,4.38-2.64a42.59,42.59,0,0,1,7.33-5.08,33.73,33.73,0,0,0,4-2.19A15.27,15.27,0,0,0,97.63,14.34Z"/></g></g><path class="cls-23" d="M142.76,2.89c-6.61-5.79-18.52-.6-25.31,2.3A119.92,119.92,0,0,0,103,12.41a14.49,14.49,0,0,1,2.92,2.43c.71.7,1.37,1.43,2,2.17,4.55-1.94,9.1-3.86,13.8-5.4,2.88-.42,6.36-.21,5.34,3.57-1.14,4.29-3.51,8.1-6,11.7-5.87,8.47-14.15,15.58-22,22.15A184.06,184.06,0,0,1,72.63,67.16c-12.42,7.13-26,13.7-40.08,17-2.3.54-10.19,2.6-11-1-.92-4.3,2.61-9.35,5-12.58,1.3-1.76,2.58-3.5,3.9-5.23a24.42,24.42,0,0,1-1.2-5.47,112.72,112.72,0,0,0-9.41,7.21C15.06,71.23,9.28,75.77,5.32,80.69A19.82,19.82,0,0,0,.49,93.3a10.08,10.08,0,0,0,3.42,5.56c7.69,6.6,20.44,2.94,29.21.72C55.22,94,75.65,81.72,93.94,68.46c14.08-10.21,27.4-21.67,38.59-35C137.55,27.47,151.61,10.63,142.76,2.89Z"/><path class="cls-24" d="M13.84,83.59C15.35,74.9,22.47,68.42,29.78,63c-.07-.28-.11-.56-.17-.84-1.45,1.21-2.84,2.49-4.25,3.66a77.38,77.38,0,0,0-10,9.65c-2.83,3.39-7.21,8.2-7.28,12.92-.06,3.62,2.59,6.13,6,6.9,4.38,1,9.17.28,13.54-.49A92.78,92.78,0,0,0,42,91.06,173.57,173.57,0,0,0,69,78.83c25.31-13.89,50.83-30.4,65.68-55.9,2.15-3.69,6.56-10.52,4.54-15-2.51-5.61-11.78-1.37-15.66.3-1.18.51-2.37,1-3.56,1.49a31.23,31.23,0,0,1,6.59-1.12c5.67-.29,8.57,3.49,6.72,8.75-2.41,6.84-7.63,12.79-12.35,18.13A186.41,186.41,0,0,1,107.16,49.6C97.23,58.71,85.37,66.42,73.66,73,60.71,80.25,46.27,87.2,31.51,89.75,26.66,90.58,12.28,92.5,13.84,83.59Z"/><path class="cls-25" d="M21.59,83.18c-.92-4.3,2.61-9.35,5-12.58,1.3-1.76,2.58-3.5,3.9-5.23-.18-.49-.33-1-.46-1.49-5.76,4.33-11.21,9.23-14,15.71-1.45,3.45-2.27,7.67,2.12,9.16,3.22,1.08,6.82.9,10.14.51C38.7,88,49,84,58.48,79.71A198.78,198.78,0,0,0,89.9,61.78c14.47-10.06,28.43-22.18,38.38-36.89,2.5-3.7,8.71-13.5.77-15.1-6.83-1.38-14.67,2.86-21,5.1l-1.55.56c.48.52,1,1,1.42,1.56,4.55-1.94,9.1-3.86,13.8-5.4,2.88-.42,6.36-.21,5.34,3.57-1.14,4.29-3.51,8.1-6,11.7-5.87,8.47-14.15,15.58-22,22.15A184.06,184.06,0,0,1,72.63,67.16c-12.42,7.13-26,13.7-40.08,17C30.25,84.69,22.36,86.75,21.59,83.18Z"/><path class="cls-25" d="M131.39,2s14.41-3.41,12.43,11.33c0,0-.95,8.17-19.57,28,0,0,17.82-19,18.44-28.4S136.42,2.13,131.39,2Z"/><path class="cls-26" d="M29.26,59.9l-4.58,3.37c-.76.58-1.49,1.19-2.22,1.79l-2.2,1.8c-.74.6-1.44,1.23-2.17,1.84l-2.16,1.86c-1.44,1.23-2.88,2.48-4.26,3.76-.7.64-1.4,1.29-2.06,2s-1.34,1.34-2,2-1.25,1.42-1.87,2.14c-.31.34-.58.73-.87,1.11a13.47,13.47,0,0,0-.82,1.16,21,21,0,0,0-1.41,2.43c-.19.43-.4.85-.58,1.28L1.6,87.77A18,18,0,0,0,1,90.5,26.47,26.47,0,0,0,.7,93.31v-.06a10.1,10.1,0,0,0,1.42,3.3,10.39,10.39,0,0,0,2.51,2.57A15.42,15.42,0,0,0,11.25,102a27.63,27.63,0,0,0,7.27.28,57.84,57.84,0,0,0,7.25-1.15c2.39-.52,4.76-1.14,7.16-1.75L40,97.27c1.19-.32,2.33-.78,3.48-1.19l3.45-1.28C49.24,94,51.46,93,53.71,92l3.36-1.49,3.29-1.65c2.18-1.13,4.4-2.17,6.52-3.43s4.29-2.37,6.38-3.66l6.26-3.88,6.13-4.08c2-1.35,4-2.81,6-4.21,4-2.82,8-5.8,11.81-8.81,1.93-1.53,3.8-3.11,5.71-4.65s3.73-3.19,5.55-4.84C118.4,48,122,44.59,125.33,41l2.53-2.68,2.43-2.76c1.63-1.84,3.23-3.7,4.77-5.62a66.89,66.89,0,0,0,8.06-12.24,22.29,22.29,0,0,0,2.18-6.93,10.3,10.3,0,0,0-.15-3.59A7.58,7.58,0,0,0,143.56,4a4.29,4.29,0,0,0-.62-.66l-.31-.32-.36-.26a8,8,0,0,0-1.52-1l-.8-.4-.85-.29a9.82,9.82,0,0,0-1.76-.43,20.17,20.17,0,0,0-7.26.3A72.14,72.14,0,0,0,116.2,5.83,118.18,118.18,0,0,0,103,12.41a117.55,117.55,0,0,1,13.12-6.73A73.21,73.21,0,0,1,130,.65,20.18,20.18,0,0,1,137.4.28a10.28,10.28,0,0,1,1.82.44l.89.29.84.43a7.74,7.74,0,0,1,1.56,1l.4.29.33.33a5.23,5.23,0,0,1,.64.69,8.12,8.12,0,0,1,1.69,3.35,11,11,0,0,1,.19,3.74,23,23,0,0,1-2.21,7.08,66.18,66.18,0,0,1-8.09,12.37c-1.52,1.93-3.12,3.81-4.74,5.66l-2.43,2.78-2.53,2.69c-3.37,3.59-6.94,7-10.56,10.33-1.83,1.65-3.71,3.25-5.56,4.87s-3.78,3.14-5.71,4.68c-3.88,3.06-7.78,6-11.79,8.88-2,1.41-4,2.88-6.06,4.24l-6.15,4.08-6.3,3.87c-2.1,1.28-4.28,2.43-6.42,3.65s-4.36,2.29-6.55,3.41l-3.3,1.65L54,92.56c-2.27,1-4.49,2-6.84,2.82l-3.48,1.27a36,36,0,0,1-3.5,1.18l-7.09,2c-2.38.6-4.77,1.22-7.18,1.73a54.6,54.6,0,0,1-7.32,1.13,28.31,28.31,0,0,1-7.41-.3A12.94,12.94,0,0,1,9.34,102a10.84,10.84,0,0,1-1.76-.63,10.14,10.14,0,0,1-1.68-.84,10.14,10.14,0,0,1-1.54-1,10.68,10.68,0,0,1-2.6-2.68A10.45,10.45,0,0,1,.28,93.35v0a24.72,24.72,0,0,1,.28-2.86,22.29,22.29,0,0,1,.65-2.8l.49-1.36c.19-.44.39-.87.6-1.3A19.9,19.9,0,0,1,3.76,82.5c.27-.4.54-.79.84-1.16s.57-.76.89-1.11c.63-.71,1.23-1.46,1.91-2.13s1.32-1.37,2-2,1.38-1.31,2.09-1.94c1.4-1.28,2.86-2.5,4.31-3.73L18,68.59c.74-.61,1.45-1.24,2.19-1.83L22.41,65c.74-.59,1.47-1.19,2.23-1.77Z"/><g class="cls-27"><path class="cls-28" d="M81.59,70.6c-4.07,1.31-7.59,3.91-11.24,6.09q-5.88,3.53-12,6.61a98.65,98.65,0,0,1-27.08,8.75c-4.32.75-20.82,4-20.08-3.75C11.56,84,15.49,79.5,18,76.22c2.71-3.6,5.55-7.07,8.47-10.49.47-.54-.31-1-.78-.61-7.56,6.11-19,13.4-21.45,23.52C1.7,99,13.47,100.57,20.9,100.34c11.28-.38,21.81-4.62,32-9.1a169.34,169.34,0,0,0,15.87-8.13c4.83-2.77,10.35-5.52,14.17-9.63C84,72.3,83.61,70,81.59,70.6Z"/></g><path class="cls-29" d="M123.17,48.14l-.22-2c-.09-.65-.2-1.31-.31-2,0,0,0,0,0-.05,1.36-1.39,2.72-2.78,4-4.22.67-.71,1.33-1.43,2-2.16s1.31-1.44,1.94-2.19c1.27-1.48,2.54-2.95,3.76-4.47s2.42-3.06,3.55-4.64a53.09,53.09,0,0,0,5.87-10.06,20.51,20.51,0,0,0,1.54-5.57,9.29,9.29,0,0,0-.92-5.55,8.87,8.87,0,0,0-4.18-3.73,13,13,0,0,0-5.59-1,35.54,35.54,0,0,0-11.26,2.58c-1.82.68-3.61,1.44-5.4,2.21l-2.66,1.19q-1.35.57-2.67,1.2c-.87.42-1.75.83-2.62,1.26l-2.6,1.33c-.87.43-1.7.93-2.55,1.41s-1.69.92-2.5,1.47a.32.32,0,0,1-.34,0h0l-1.09-.69c-.37-.22-.72-.47-1.1-.68-.76-.41-1.48-.87-2.26-1.24s-1.53-.79-2.33-1.12-1.57-.7-2.38-1L91.66,8l-1.23-.4c-.41-.13-.81-.28-1.23-.38L88,6.87c-.83-.24-1.68-.39-2.52-.58s-1.7-.32-2.55-.48h0l-1.53-.19.26-.14a.36.36,0,0,0,0-.11l-.28.25-2.71-.24c-.9,0-1.8-.08-2.71-.09a49.13,49.13,0,0,0-5.43.3c-.9.12-1.81.2-2.7.38s-1.78.32-2.66.54l-1.32.31-1.31.38c-.88.24-1.74.53-2.6.82a47.05,47.05,0,0,0-5,2.05c-.82.41-1.62.84-2.41,1.26s-1.57.93-2.33,1.42a46,46,0,0,0-8.37,6.94,42.21,42.21,0,0,0-3.5,4.17c-.55.74-1.06,1.48-1.56,2.24l-1.45,2.32c-.43.79-.88,1.58-1.3,2.38s-.81,1.63-1.17,2.47a48,48,0,0,0-1.9,5.1,49.09,49.09,0,0,0-2,10.68,52,52,0,0,0-.06,5.44,49.12,49.12,0,0,0,.57,5.41.22.22,0,0,1-.1.21c-1.74,1.23-3.46,2.49-5.14,3.79S20.87,66.58,19.25,68l-4.87,4.16c-1.6,1.41-3.2,2.82-4.71,4.31a52.74,52.74,0,0,0-4.28,4.7A26.75,26.75,0,0,0,2.1,86.51a12.93,12.93,0,0,0-1.37,6,9.46,9.46,0,0,0,2.7,5.4,13.91,13.91,0,0,0,5.26,3.26,20.82,20.82,0,0,0,6.18,1.06,50.13,50.13,0,0,0,12.57-1.63c2.07-.48,4.14-1,6.2-1.55s4.1-1.13,6.13-1.77c4-1.29,8-2.81,12-4.47a.44.44,0,0,1,.34,0h0a48.5,48.5,0,0,0,5.19,2.62,43.92,43.92,0,0,0,5.46,2c.93.26,1.86.54,2.82.73s1.89.4,2.85.56l.73.12.7.09,1.45.18c1,.07,1.92.17,2.9.21s1.93,0,2.91,0,1.93-.05,2.9-.13a44.62,44.62,0,0,0,5.76-.82,48.28,48.28,0,0,0,5.61-1.51c.93-.34,1.83-.64,2.73-1l1.36-.56,1.31-.63a48.33,48.33,0,0,0,5.07-2.84,50,50,0,0,0,4.7-3.47c.73-.63,1.49-1.26,2.17-1.94s1.41-1.36,2-2.09a39.94,39.94,0,0,0,3.71-4.5,47.75,47.75,0,0,0,3.12-4.94A46.25,46.25,0,0,0,120,69.61a45.65,45.65,0,0,0,1.81-5.56,48.82,48.82,0,0,0,1.1-5.74l.16,0,0,0a.07.07,0,0,1-.1,0,.09.09,0,0,1,0-.07l.26-2.4v0l0,0v0l.1-1.94c0-.65,0-1.29,0-1.95s0-1.29,0-1.94Zm.09,0,.13,1.95c0,.65,0,1.3,0,1.94s0,1.3,0,1.95l-.08,2v0l0,0,0,0-.24,2.4-.15,0v0a.08.08,0,0,1,.15,0A47.93,47.93,0,0,1,117.83,75a48.36,48.36,0,0,1-3.11,5A41.61,41.61,0,0,1,111,84.6c-.64.75-1.35,1.42-2,2.11s-1.44,1.34-2.18,2a53.19,53.19,0,0,1-4.68,3.54A50.2,50.2,0,0,1,97,95.17l-1.33.65-1.34.57c-.89.41-1.85.73-2.75,1.08a51.51,51.51,0,0,1-5.68,1.59,46,46,0,0,1-5.84.88c-1,.1-2,.13-3,.16s-2,.05-2.94,0-2-.1-3-.19l-1.45-.17L69,99.62l-.71-.11c-1-.17-1.94-.34-2.9-.58s-1.91-.47-2.86-.73a47.8,47.8,0,0,1-5.55-2,47.28,47.28,0,0,1-5.26-2.68l.34,0c-4,1.67-8,3.19-12,4.48-2,.64-4.11,1.25-6.17,1.78s-4.14,1.07-6.22,1.55A50.23,50.23,0,0,1,14.85,103a21.44,21.44,0,0,1-6.39-1.1,14.69,14.69,0,0,1-5.54-3.44A10.23,10.23,0,0,1,0,92.58a13.3,13.3,0,0,1,1.46-6.35,27.83,27.83,0,0,1,3.4-5.5A50.16,50.16,0,0,1,9.26,76C10.78,74.5,12.4,73.1,14,71.7l4.9-4.13c1.63-1.38,3.28-2.74,5-4s3.43-2.55,5.19-3.77L29,60a52.56,52.56,0,0,1-.54-5.46A50.29,50.29,0,0,1,28.54,49,49.22,49.22,0,0,1,30.6,38.27a48.65,48.65,0,0,1,1.93-5.13c.37-.83.79-1.64,1.19-2.47s.89-1.6,1.33-2.4L36.51,26c.51-.76,1-1.51,1.57-2.25a50.45,50.45,0,0,1,3.53-4.19,46.7,46.7,0,0,1,8.38-7c.76-.5,1.54-1,2.33-1.43s1.61-.87,2.43-1.28a44,44,0,0,1,5.07-2.1c.86-.3,1.73-.59,2.6-.84l1.32-.39,1.33-.32c.89-.24,1.79-.4,2.69-.56s1.81-.28,2.71-.41A50.24,50.24,0,0,1,76,4.82c.91,0,1.83,0,2.74.07l2.74.23-.28.25a.2.2,0,0,1,0-.11.26.26,0,0,1,.26-.14l.76.09.39,0,.19,0H83c.85.15,1.7.27,2.56.46s1.71.34,2.55.58l1.27.34c.42.1.83.26,1.24.38l1.25.4,1.23.46c.81.29,1.62.64,2.41,1s1.58.74,2.36,1.13,1.54.83,2.3,1.25c.39.2.75.45,1.12.68l1.11.69H102c.8-.55,1.68-1,2.52-1.51s1.69-1,2.57-1.43l2.59-1.35c.88-.44,1.76-.86,2.65-1.28,1.75-.87,3.55-1.61,5.35-2.4s3.6-1.51,5.44-2.18A35.74,35.74,0,0,1,134.63,0a13.7,13.7,0,0,1,5.81,1.11,9.41,9.41,0,0,1,4.37,4,9.73,9.73,0,0,1,.92,5.81,20.45,20.45,0,0,1-1.62,5.65,52.71,52.71,0,0,1-6,10.06c-2.32,3.14-4.82,6.13-7.39,9.08-.63.74-1.29,1.45-1.94,2.18s-1.31,1.45-2,2.15c-1.32,1.43-2.69,2.82-4.06,4.21v0c.1.66.21,1.32.3,2Z"/><path class="cls-29" d="M108,17c1.1.93,2.13,1.94,3.14,3s2,2.1,2.89,3.23c.23.27.44.57.67.85s.43.57.64.87c.43.58.83,1.19,1.22,1.8.2.31.37.63.56.94s.36.63.53,1,.33.64.46,1l.41,1-.56-.12A57.69,57.69,0,0,0,124,22.34a26.59,26.59,0,0,0,2.26-4.53,11.33,11.33,0,0,0,.63-2.4,5.09,5.09,0,0,0-.15-2.37A2,2,0,0,0,125,12a9.81,9.81,0,0,0-2.47.11,31.92,31.92,0,0,0-4.94,1.25c-1.62.54-3.22,1.14-4.82,1.75Zm0,0c3.09-1.47,6.2-3,9.44-4.12a32.39,32.39,0,0,1,5-1.42,9.73,9.73,0,0,1,2.65-.16,4,4,0,0,1,1.35.38,2.2,2.2,0,0,1,.6.45,1.28,1.28,0,0,1,.24.32,1.13,1.13,0,0,1,.18.34,5.79,5.79,0,0,1,.21,2.7,12.4,12.4,0,0,1-.64,2.57,24.75,24.75,0,0,1-2.31,4.67c-.91,1.47-1.91,2.88-3,4.25s-2.14,2.7-3.31,4a.33.33,0,0,1-.47,0,.35.35,0,0,1-.08-.13h0l-.38-1a10.57,10.57,0,0,0-.43-1,9.4,9.4,0,0,0-.48-.95c-.17-.31-.33-.63-.52-.93-.36-.61-.73-1.23-1.15-1.81-.19-.3-.4-.59-.61-.88s-.41-.58-.64-.86A62.16,62.16,0,0,0,108,17Z"/><path class="cls-29" d="M30.46,65.37c.26.75.55,1.5.85,2.24s.59,1.48.93,2.21l.49,1.1c.16.36.35.72.53,1.07.36.72.68,1.45,1.07,2.15l1.16,2.09c.39.69.86,1.34,1.28,2l.65,1c.22.34.48.64.72,1l1.45,1.88v0a.33.33,0,0,1-.06.47l-.09.05c-1.56.59-3.13,1.1-4.72,1.56a44.91,44.91,0,0,1-4.85,1.14,18,18,0,0,1-5,.25,5.73,5.73,0,0,1-2.49-.79,3.18,3.18,0,0,1-.53-.44c-.09-.1-.15-.14-.26-.28l-.16-.26a4.11,4.11,0,0,1-.31-.63A3.82,3.82,0,0,1,21,82.5a7,7,0,0,1,.19-2.58A14.81,14.81,0,0,1,22,77.55a32.94,32.94,0,0,1,2.39-4.37,54.09,54.09,0,0,1,6.09-7.81Zm0,0a67.31,67.31,0,0,0-5.7,8,31.92,31.92,0,0,0-2.22,4.36,15.83,15.83,0,0,0-.75,2.3,6.06,6.06,0,0,0-.15,2.31,2.44,2.44,0,0,0,.12.55,2.9,2.9,0,0,0,.23.47l.17.26.17.17a2.72,2.72,0,0,0,.42.34,5.16,5.16,0,0,0,2.19.67,18.17,18.17,0,0,0,4.81-.3A54.7,54.7,0,0,0,39.21,82l-.14.54-1.46-1.94c-.24-.33-.5-.64-.7-1l-.64-1c-.41-.7-.87-1.37-1.23-2.09l-1.12-2.14c-.19-.35-.34-.72-.51-1.09l-.49-1.1c-.16-.37-.34-.73-.48-1.1L32,69.92c-.3-.74-.57-1.5-.83-2.26S30.68,66.13,30.46,65.37Z"/><path class="cls-29" d="M39.32,82.3l1-.35c.66-.23,1.61-.6,2.83-1.06s2.68-1.06,4.36-1.74,3.56-1.49,5.59-2.42l3.17-1.43,3.36-1.61c1.15-.54,2.32-1.14,3.51-1.76l3.65-1.87,3.72-2c1.26-.69,2.54-1.37,3.79-2.14,2.51-1.5,5.09-3,7.56-4.64l3.74-2.4c1.23-.83,2.43-1.69,3.62-2.52s2.4-1.66,3.55-2.52,2.26-1.74,3.35-2.59,2.2-1.68,3.24-2.52l3-2.55,2.83-2.41c.91-.78,1.72-1.61,2.54-2.38l4.41-4.19c1.23-1.33,2.31-2.48,3.2-3.43l2.81-3-2.7,3.08-3.1,3.53c-1.27,1.3-2.73,2.74-4.32,4.32-.8.77-1.6,1.63-2.5,2.42l-2.8,2.47-3,2.61c-1,.87-2.13,1.69-3.23,2.56l-3.35,2.63c-1.14.86-2.35,1.69-3.54,2.54s-2.4,1.72-3.62,2.56L82.3,61.9c-2.49,1.65-5.09,3.12-7.62,4.61-1.25.76-2.54,1.44-3.81,2.13l-3.74,2c-2.51,1.24-4.9,2.5-7.24,3.54L56.5,75.76c-1.11.47-2.18.93-3.2,1.38-2,.9-4,1.61-5.66,2.28S44.45,80.61,43.22,81s-2.2.75-2.87,1Z"/><path class="cls-30" d="M47.43,15.36S17.78,40.27,36.37,73.45C36.37,73.45,22.06,41.37,47.43,15.36Z"/><path class="cls-31" d="M122,54.58s-8.13,34.16-35.83,42.31C86.18,96.89,115.73,93.78,122,54.58Z"/></g></g></g></svg>