<svg xmlns="http://www.w3.org/2000/svg" xmlns:xlink="http://www.w3.org/1999/xlink" viewBox="0 0 117.63 117.12"><defs><style>.cls-1{mask:url(#mask);filter:url(#luminosity-noclip-2);}.cls-10,.cls-13,.cls-17,.cls-2,.cls-6{mix-blend-mode:multiply;}.cls-2{fill:url(#radial-gradient);}.cls-3{isolation:isolate;}.cls-4{fill:#35b5b8;}.cls-5{fill:#00597f;}.cls-6{opacity:0.9;}.cls-7,.cls-8,.cls-9{fill:#1cb6f0;}.cls-8{opacity:0.5;}.cls-13,.cls-9{opacity:0.7;}.cls-10{fill:url(#radial-gradient-2);}.cls-11{mask:url(#mask-2);}.cls-12{mix-blend-mode:screen;fill:url(#radial-gradient-3);}.cls-13{fill:#2b4176;}.cls-14,.cls-18{fill:#fff;}.cls-14{mix-blend-mode:overlay;}.cls-15{fill:#49bff2;}.cls-16{fill:url(#radial-gradient-4);}.cls-17{opacity:0.8;fill:url(#radial-gradient-5);}.cls-19{filter:url(#luminosity-noclip);}</style><filter id="luminosity-noclip" x="15.64" y="-8210.17" width="91.07" height="32766" filterUnits="userSpaceOnUse" color-interpolation-filters="sRGB"><feFlood flood-color="#fff" result="bg"/><feBlend in="SourceGraphic" in2="bg"/></filter><mask id="mask" x="15.64" y="-8210.17" width="91.07" height="32766" maskUnits="userSpaceOnUse"><g class="cls-19"/></mask><radialGradient id="radial-gradient" cx="33.73" cy="1783.68" r="127.48" gradientTransform="matrix(0.7, 0.7, -0.71, 0.7, 1299.57, -1145.25)" gradientUnits="userSpaceOnUse"><stop offset="0"/><stop offset="0.24" stop-color="#020202"/><stop offset="0.38" stop-color="#0b0b0b"/><stop offset="0.49" stop-color="#191919"/><stop offset="0.59" stop-color="#2c2c2c"/><stop offset="0.67" stop-color="#464646"/><stop offset="0.75" stop-color="#666"/><stop offset="0.83" stop-color="#8b8b8b"/><stop offset="0.9" stop-color="#b7b7b7"/><stop offset="0.97" stop-color="#e6e6e6"/><stop offset="1" stop-color="#fff"/></radialGradient><radialGradient id="radial-gradient-2" cx="-44.05" cy="1716.77" r="71.17" gradientTransform="matrix(0.7, 0.7, -0.71, 0.7, 1299.57, -1145.25)" gradientUnits="userSpaceOnUse"><stop offset="0.55" stop-color="#fff"/><stop offset="0.64" stop-color="#fcfdfe"/><stop offset="0.69" stop-color="#f3f8fc"/><stop offset="0.75" stop-color="#e4eff7"/><stop offset="0.79" stop-color="#cee2f1"/><stop offset="0.84" stop-color="#b2d1e8"/><stop offset="0.88" stop-color="#90bdde"/><stop offset="0.92" stop-color="#67a4d2"/><stop offset="0.95" stop-color="#3788c4"/><stop offset="0.99" stop-color="#0369b5"/><stop offset="0.99" stop-color="#0067b4"/></radialGradient><filter id="luminosity-noclip-2" x="15.64" y="15.92" width="91.07" height="65.08" filterUnits="userSpaceOnUse" color-interpolation-filters="sRGB"><feFlood flood-color="#fff" result="bg"/><feBlend in="SourceGraphic" in2="bg"/></filter><mask id="mask-2" x="15.64" y="15.92" width="91.07" height="65.08" maskUnits="userSpaceOnUse"><g class="cls-1"><path class="cls-2" d="M27.4,51.77c-.4-1.11-.56-2.29-1-3.4-.15-.42.25-.65.62-.66,9.42-.08,15.05,11.95,24.47,10.71-6.16-5.5-13.79-10.18-16.62-18.36-1.65-4.81,2.63-4.66,5.87-3.42,4.42,1.69,7.7,4.8,11.85,6.84.46.23,2.55,1.39,2.76,0a3.6,3.6,0,0,0-.34-2.37A12.39,12.39,0,0,0,52,37.55c-2.05-1.69-4.46-3.09-6.26-5.06-.37-.41.19-.73.56-.75,7-.38,11.86,4.56,17.76,7.45,1,.49,5.25,2.77,4.83.52a9.14,9.14,0,0,0-2.73-4.61c-1.93-2-4.26-3.58-6-5.73-.27-.34,0-.67.4-.74C74.45,26,83.71,38.71,96.24,41.71c.12-1.43-.06-2.86.17-4.3a.62.62,0,0,1,.67-.41c4.17.28,7,2.77,9.64,5.6a47.4,47.4,0,0,0-9-12.63A48.17,48.17,0,0,0,18.68,81C15.7,69.61,14.89,54.54,27.4,51.77Z"/></g></mask><radialGradient id="radial-gradient-3" cx="33.73" cy="1783.68" r="127.48" gradientTransform="matrix(0.7, 0.7, -0.71, 0.7, 1299.57, -1145.25)" gradientUnits="userSpaceOnUse"><stop offset="0" stop-color="#2b2b2b"/><stop offset="0.26" stop-color="#2d2d2d"/><stop offset="0.4" stop-color="#363636"/><stop offset="0.52" stop-color="#444"/><stop offset="0.62" stop-color="#575757"/><stop offset="0.71" stop-color="#717171"/><stop offset="0.8" stop-color="#909090"/><stop offset="0.88" stop-color="#b6b6b6"/><stop offset="0.95" stop-color="#e0e0e0"/><stop offset="1" stop-color="#fff"/></radialGradient><radialGradient id="radial-gradient-4" cx="-19.08" cy="1729.33" r="57.92" gradientTransform="matrix(0.7, 0.71, -0.71, 0.7, 1300.31, -1145.48)" gradientUnits="userSpaceOnUse"><stop offset="0.06" stop-color="#6fc6e1"/><stop offset="0.23" stop-color="#6ebddc"/><stop offset="0.5" stop-color="#6ba3ce"/><stop offset="0.84" stop-color="#667ab8"/><stop offset="1" stop-color="#6365ad"/></radialGradient><radialGradient id="radial-gradient-5" cx="-74.06" cy="1731.41" r="99.32" gradientTransform="matrix(0.7, 0.71, -0.71, 0.7, 1300.31, -1145.48)" gradientUnits="userSpaceOnUse"><stop offset="0.52" stop-color="#fff"/><stop offset="0.6" stop-color="#c6ddee"/><stop offset="0.71" stop-color="#80b4da"/><stop offset="0.8" stop-color="#4993ca"/><stop offset="0.89" stop-color="#217bbe"/><stop offset="0.95" stop-color="#096cb7"/><stop offset="0.99" stop-color="#0067b4"/></radialGradient></defs><g class="cls-3"><g id="Layer_2" data-name="Layer 2"><g id="Layer_1-2" data-name="Layer 1"><path class="cls-4" d="M98.54,99.44a50.17,50.17,0,1,1,.23-70.95A50.16,50.16,0,0,1,98.54,99.44Z"/><path class="cls-5" d="M98.6,99.49l-.66.63c-.44.4-1,1-1.94,1.79a47.82,47.82,0,0,1-8.16,5.8,51.74,51.74,0,0,1-14.51,5.63,50.44,50.44,0,0,1-20.22.31A51.44,51.44,0,0,1,42,110.13a49.14,49.14,0,0,1-10.6-6.56A49.88,49.88,0,0,1,15.91,81.92a51.73,51.73,0,0,1-2.12-28.21,50.35,50.35,0,0,1,5-13.8,51.29,51.29,0,0,1,3.92-6.3,56.42,56.42,0,0,1,4.84-5.67A55.68,55.68,0,0,1,33.1,23,52.25,52.25,0,0,1,39.36,19a50.67,50.67,0,0,1,42.33-2.68A49.14,49.14,0,0,1,93.75,23c.89.7,1.79,1.37,2.62,2.11.42.38.85.73,1.26,1.11l1.2,1.15c.84.79,1.51,1.58,2.26,2.36s1.45,1.64,2.11,2.5a50,50,0,0,1,6.47,10.7,51.39,51.39,0,0,1,3.41,11.15,50.71,50.71,0,0,1-.46,20.24,51.43,51.43,0,0,1-5.73,14.48A48.23,48.23,0,0,1,101,96.92c-.74.88-1.4,1.48-1.8,1.92Zm-.11-.11s.2-.23.61-.66,1-1.06,1.77-1.94a49,49,0,0,0,5.74-8.14,44.58,44.58,0,0,0,3-6.44,46.94,46.94,0,0,0,2.28-8,50.48,50.48,0,0,0-10-40.89c-.64-.82-1.33-1.59-2-2.38q-.56-.6-1.11-1.17l-.56-.59-.56-.54-1.16-1.11c-.4-.37-.82-.71-1.22-1.06-.8-.73-1.68-1.37-2.54-2.05a48.25,48.25,0,0,0-5.55-3.58c-1-.57-2-1-3-1.55s-2.05-.95-3.11-1.34A49.88,49.88,0,0,0,28.13,28.6a53.6,53.6,0,0,0-4.84,5.47,48,48,0,0,0-9,19.75A48.81,48.81,0,0,0,16.74,81.6c.39,1.08.9,2.1,1.35,3.13s1,2,1.58,3a46.74,46.74,0,0,0,3.65,5.56c.68.86,1.33,1.74,2.06,2.53.36.41.7.82,1.08,1.21s.75.79,1.13,1.18c.71.78,1.53,1.48,2.28,2.22s1.58,1.39,2.41,2a50.95,50.95,0,0,0,40.91,10.18,49.15,49.15,0,0,0,8-2.23,43.7,43.7,0,0,0,6.45-3,48,48,0,0,0,8.17-5.68c.9-.72,1.51-1.37,2-1.77Z"/><g class="cls-6"><path class="cls-7" d="M23.09,45.64c6.28-4.55,11.42-9.83,16.71-15.44s10.47-10.82,16-15.94c-1.08.15-2.14.35-3.2.58-1.82,2-4,3.81-6,5.71-4,3.88-7.86,7.87-12.06,11.52A131.55,131.55,0,0,1,21.18,42.31c-1.28.85-2.9,1.77-4.54,2.79a50.28,50.28,0,0,0-2.06,6.37C17.44,49.56,20.31,47.67,23.09,45.64Z"/><path class="cls-8" d="M39.19,53.11C50.78,40.56,61,26.91,72.86,14.65A51,51,0,0,0,57.46,14C51.12,19.89,45,26,39.15,32.37A100.43,100.43,0,0,1,23.8,46.31c-3.13,2.23-6.34,4.36-9.54,6.49a50.31,50.31,0,0,0,.48,24.08c.11-.11.22-.2.34-.3C23.15,68.79,31.58,61.36,39.19,53.11ZM27.73,54.92a.72.72,0,0,1-.82.13.39.39,0,0,1-.1-.63l.25-.25a.73.73,0,0,1,.82-.13.39.39,0,0,1,.09.63Zm14.35-13.7c-.21.05-.63,0-.64-.34a5.51,5.51,0,0,1,4.64-5.41.48.48,0,0,1,.56.26,4.35,4.35,0,0,1,1-.07c.24,0,.56.2.49.48C47.46,38.92,44.74,40.71,42.08,41.22Z"/><path class="cls-7" d="M85.8,41c3.63-4.83,6.84-10,10.3-15A49.91,49.91,0,0,0,74,14.88C62.63,26.67,52.71,39.77,41.62,52,34.3,60,26.26,67.33,18.36,74.81c-1.11,1-2.22,2-3.36,3a49.92,49.92,0,0,0,5.28,12c2.07-1.37,4.15-2.58,5.61-3.72C35.8,78.4,47.32,73.41,57.73,66.48S78.21,51.16,85.8,41ZM42.26,56.15a1.39,1.39,0,0,1-1.1.48,4.19,4.19,0,0,1-1.23.23c-.29,0-.64-.3-.45-.6a9.59,9.59,0,0,1,1.68-1.91A8.26,8.26,0,0,1,44,52.19c.27-.15,1.06-.17.92.36A5.74,5.74,0,0,1,42.26,56.15ZM31.53,71.28c-.38-.09-.94-.29-.73-.8a1,1,0,0,1,.26-.31c.09-.08.12-.09.13-.13,0-.35.5-.49.82-.39.36-.08.91.12.68.56-.14.26-.26.53-.39.79A.71.71,0,0,1,31.53,71.28Zm17.52-2.53c-.92.45-2.32.58-2.79-.59s.68-2.46,1.39-3.17,2.1-1.82,3.36-1.37a1.49,1.49,0,0,1,.59,0c1.17.17,1.17,1.45.65,2.27A8.25,8.25,0,0,1,49.05,68.75Z"/><path class="cls-9" d="M36.56,89c9.08-5.32,18.92-9.25,27.88-14.79a96.68,96.68,0,0,0,25-23c4.58-5.88,8.12-12.83,13-18.55a53.7,53.7,0,0,0-3.7-4.18c-.62-.61-1.23-1.18-1.86-1.75-3.2,4.63-6.19,9.43-9.56,13.93A110.46,110.46,0,0,1,62.9,64.09c-9.86,7-21,12-30.95,18.8-3.41,2.34-6.76,4.8-10.13,7.2l-1,.67A51.43,51.43,0,0,0,25.52,97,53.69,53.69,0,0,1,36.56,89Z"/><path class="cls-8" d="M111.9,75.73a50.41,50.41,0,0,0-.44-25.38,77.62,77.62,0,0,0-7,13.62c-3.07,7.21-6.18,14.1-10.76,20.53-4.84,6.78-9.88,13.09-13.36,20.74-1,2.24-2,4.5-3,6.75a50.87,50.87,0,0,0,10-4.15A102,102,0,0,1,111.9,75.73Zm-3.71-6.35-.73.58c-.31.31-1.3.22-1-.39s.83-1.27,1.18-1.95c.26-.5,1.39-.31,1.07.29l0,0a.39.39,0,0,1,.22.54,1.46,1.46,0,0,1-.16.3.09.09,0,0,1,0,0C108.79,69.16,108.48,69.35,108.19,69.38Z"/><path class="cls-7" d="M111.45,77.48A102,102,0,0,0,89,106.88a50.4,50.4,0,0,0,9.57-7.44A49.85,49.85,0,0,0,111.45,77.48Z"/><path class="cls-7" d="M79.66,104c3.63-7.62,8.82-13.79,13.57-20.7s7.63-14,10.93-21.47a69.48,69.48,0,0,1,6.93-12.78,49,49,0,0,0-3.6-8.7c-1.43,3-2.69,6.13-4.18,9.14a126.07,126.07,0,0,1-17,25.08c-6.95,8.22-14.12,15.8-23,22-4.37,3.06-8.87,6-13.45,8.73a51.53,51.53,0,0,0-6.77,4.53,50.31,50.31,0,0,0,32.82,2.55C77.16,109.59,78.36,106.79,79.66,104Zm1.47-11.5A.73.73,0,0,1,79.9,93c-.26-.23-.13-.48.1-.62C80.16,91.91,81.18,91.93,81.13,92.53Zm-9.57,10.7c-.25.1-.78,0-.81-.31a5.09,5.09,0,0,1,2.59-4.48q.42-.36.78-.63c.32-.22,1-.12.93.37A5.87,5.87,0,0,1,71.56,103.23Z"/><path class="cls-8" d="M86.1,73.28A123.11,123.11,0,0,0,104.33,44.5q1.2-2.73,2.53-5.3a50.28,50.28,0,0,0-3.75-5.69C98.42,39.18,95,46,90.41,51.72,84,59.8,76.62,67.42,67.94,73.09,59,78.92,49.13,82.93,39.87,88.16c-4.47,2.52-9.87,5.5-13.71,9.52.47.52.94,1,1.44,1.54a50.14,50.14,0,0,0,14.51,10.17,39.57,39.57,0,0,1,5.45-3.79c4.47-2.72,8.92-5.49,13.25-8.45C70.6,90.43,78.55,82.38,86.1,73.28ZM36.89,98.93a4.78,4.78,0,0,1-1.82.71c-.24.06-.63-.07-.65-.35A1.62,1.62,0,0,1,35,97.6c.42-.26.92-.18,1.37-.36a.67.67,0,0,1,.19,0,4,4,0,0,1,.46-.28c.36-.18,1.14-.09.89.49A3.92,3.92,0,0,1,36.89,98.93Zm15.38-8.62c.21-.39.46-.81,1-.79h0a5.47,5.47,0,0,0,.65-.48.73.73,0,0,1,.82-.13.39.39,0,0,1,.09.63l-.12.12a.4.4,0,0,1,0,.25c-.09.62-.79.81-1.38.71a.48.48,0,0,0-.11.09.83.83,0,0,1-.38.16.23.23,0,0,1-.23,0C52.35,90.84,52.09,90.66,52.27,90.31Zm-7,9c-.77-.7-.42-1.5.4-2a6.87,6.87,0,0,1,1.09-.53,3.88,3.88,0,0,1,2.49-1.28c.33,0,.66.12.64.47a2.71,2.71,0,0,1-.08.54l0,0c.17.11.32.32.18.52a4.37,4.37,0,0,1-.83.92C48.28,99.44,46.67,100.59,45.23,99.28ZM71.14,80.66c-.39-.45.08-1,.4-1.33s1.43,0,.91.49c-.09.11-.28.28-.29.4C72.3,80.67,71.47,81,71.14,80.66Z"/><path class="cls-7" d="M30.26,34.42c5-4.05,9.54-8.5,14.08-13,2.08-2.07,4.51-4,6.56-6.19a50.14,50.14,0,0,0-33.71,28.6C21.65,40.82,26.09,37.83,30.26,34.42Z"/></g><path class="cls-10" d="M98.44,99.64a49.85,49.85,0,1,1,.44-70.71A50,50,0,0,1,98.44,99.64Z"/><g class="cls-11"><path class="cls-12" d="M27.4,51.77c-.4-1.11-.56-2.29-1-3.4-.15-.42.25-.65.62-.66,9.42-.08,15.05,11.95,24.47,10.71-6.16-5.5-13.79-10.18-16.62-18.36-1.65-4.81,2.63-4.66,5.87-3.42,4.42,1.69,7.7,4.8,11.85,6.84.46.23,2.55,1.39,2.76,0a3.6,3.6,0,0,0-.34-2.37A12.39,12.39,0,0,0,52,37.55c-2.05-1.69-4.46-3.09-6.26-5.06-.37-.41.19-.73.56-.75,7-.38,11.86,4.56,17.76,7.45,1,.49,5.25,2.77,4.83.52a9.14,9.14,0,0,0-2.73-4.61c-1.93-2-4.26-3.58-6-5.73-.27-.34,0-.67.4-.74C74.45,26,83.71,38.71,96.24,41.71c.12-1.43-.06-2.86.17-4.3a.62.62,0,0,1,.67-.41c4.17.28,7,2.77,9.64,5.6a47.4,47.4,0,0,0-9-12.63A48.17,48.17,0,0,0,18.68,81C15.7,69.61,14.89,54.54,27.4,51.77Z"/></g><path class="cls-13" d="M109.41,80.12S90.58,112.19,60.08,112C60.08,112,90.88,117.85,109.41,80.12Z"/><path class="cls-14" d="M69,15.44S28.3,11.92,17.17,50.58C17.17,50.58,30.67,15.93,69,15.44Z"/><path class="cls-15" d="M102.8,56.41c6-9,11-18.66,13.57-28.81a43.81,43.81,0,0,0,1.2-7.68,25.6,25.6,0,0,0-.6-7.66c-.19-.61-.34-1.24-.57-1.84a16,16,0,0,0-.76-1.75,15.16,15.16,0,0,0-1-1.65l-.58-.81c-.18-.25-.39-.45-.59-.68a14.62,14.62,0,0,0-6.16-4,21.86,21.86,0,0,0-7-1.09,37.06,37.06,0,0,0-6.8.66A64,64,0,0,0,81.25,4.89a111.24,111.24,0,0,0-15.79,8.36l.38.08A99,99,0,0,1,81.46,5.4,61.43,61.43,0,0,1,93.68,1.87a35.53,35.53,0,0,1,6.63-.51A20.78,20.78,0,0,1,107,2.53a13.48,13.48,0,0,1,5.59,3.83c.2.23.41.45.58.69l.47.7a12.1,12.1,0,0,1,.85,1.51c.28.51.43,1.08.66,1.62s.32,1.14.49,1.71c1,4.67.35,9.72-.9,14.59A75,75,0,0,1,109,41.51a128.12,128.12,0,0,1-8.12,13.63A173.93,173.93,0,0,1,80.07,80a173.43,173.43,0,0,1-24.93,20.68,125,125,0,0,1-13.68,8,74.88,74.88,0,0,1-14.38,5.56c-4.86,1.23-9.92,1.89-14.59.81A14.32,14.32,0,0,1,6.28,112a13.34,13.34,0,0,1-3.78-5.6,20.32,20.32,0,0,1-1.13-6.67,34.6,34.6,0,0,1,.54-6.62A62.58,62.58,0,0,1,5.52,80.88a100.18,100.18,0,0,1,8.06-15.64c0-.14,0-.27-.05-.41A110.34,110.34,0,0,0,5,80.66,63.14,63.14,0,0,0,1.1,92.91,36.1,36.1,0,0,0,.4,99.7a21.55,21.55,0,0,0,1,7,14.6,14.6,0,0,0,4,6.19,15.54,15.54,0,0,0,6.71,3.51,25.21,25.21,0,0,0,7.65.65,43.8,43.8,0,0,0,7.69-1.14,76.49,76.49,0,0,0,14.85-5.4,123.92,123.92,0,0,0,14-8A168.07,168.07,0,0,0,81.82,81.71,167.08,167.08,0,0,0,102.8,56.41Z"/><path class="cls-16" d="M102.4,56c6-9,11-18.67,13.57-28.81a44.92,44.92,0,0,0,1.2-7.68,25.25,25.25,0,0,0-.6-7.66c-.19-.61-.34-1.24-.57-1.84a18.13,18.13,0,0,0-.76-1.75,12.24,12.24,0,0,0-1-1.66l-.56-.79c-.2-.26-.41-.47-.6-.69a14.59,14.59,0,0,0-6.16-4,21.55,21.55,0,0,0-7-1.09,36.13,36.13,0,0,0-6.8.66A64.49,64.49,0,0,0,80.85,4.49a109.23,109.23,0,0,0-15.79,8.36l.37.07A101.75,101.75,0,0,1,81.06,5,63.21,63.21,0,0,1,93.28,1.46,36.4,36.4,0,0,1,99.91,1a20.73,20.73,0,0,1,6.65,1.17A13.36,13.36,0,0,1,112.16,6c.18.23.41.45.57.68l.47.72A9.74,9.74,0,0,1,114,8.85a16.42,16.42,0,0,1,.67,1.63c.2.55.32,1.13.49,1.7,1,4.68.36,9.73-.9,14.59a75.11,75.11,0,0,1-5.66,14.34,122.33,122.33,0,0,1-8.13,13.62A173.87,173.87,0,0,1,79.68,79.55a172.86,172.86,0,0,1-25,20.67,121.65,121.65,0,0,1-13.68,8,73.94,73.94,0,0,1-14.37,5.57c-4.86,1.23-9.92,1.89-14.58.81a14.35,14.35,0,0,1-6.21-3.07A13.52,13.52,0,0,1,2.1,106,20.37,20.37,0,0,1,1,99.28a36.44,36.44,0,0,1,.53-6.62A63.5,63.5,0,0,1,5.12,80.47a100.68,100.68,0,0,1,8.07-15.64l-.06-.4A109.81,109.81,0,0,0,4.61,80.26,62.24,62.24,0,0,0,.71,92.51,34.52,34.52,0,0,0,0,99.3a21.29,21.29,0,0,0,1.05,7,14.52,14.52,0,0,0,4,6.19A15.74,15.74,0,0,0,11.76,116a25.57,25.57,0,0,0,7.66.66,45.66,45.66,0,0,0,7.68-1.15A75.92,75.92,0,0,0,42,110.13a125.64,125.64,0,0,0,14-8A168,168,0,0,0,81.43,81.32,168.18,168.18,0,0,0,102.4,56Z"/><path class="cls-17" d="M88.12,49.87A100,100,0,0,0,98.83,29.43a10.34,10.34,0,0,1-.89-1.2c-.15-.1-.28-.21-.43-.32A82.55,82.55,0,0,1,94,35.82a117.94,117.94,0,0,1-7.66,12.85,163.88,163.88,0,0,1-19.65,23.4A163.67,163.67,0,0,1,43.17,91.56a116.27,116.27,0,0,1-12.9,7.58c-.57.29-1.16.57-1.74.85.59.43,1.15.86,1.73,1.31l.87-.4a117.81,117.81,0,0,0,13.24-7.54,158.83,158.83,0,0,0,24-19.63A158,158,0,0,0,88.12,49.87Z"/><path class="cls-18" d="M109.7,42s-.66,1.31-2,3.55c-.66,1.11-1.46,2.47-2.41,4s-2,3.24-3.32,5.05-2.66,3.78-4.16,5.84c-.72,1-1.56,2-2.36,3.1s-1.65,2.14-2.54,3.2c-1.8,2.11-3.58,4.36-5.57,6.49-1,1.07-2,2.17-2.94,3.26s-2.07,2.11-3.09,3.18-2.06,2.12-3.15,3.12-2.16,2-3.22,3c-2.1,2-4.34,3.8-6.45,5.6s-4.27,3.39-6.3,4.92l-3,2.22c-1,.67-2,1.3-2.88,1.92-1.86,1.22-3.53,2.37-5.06,3.31s-2.93,1.68-4,2.32l-3.53,2,3.44-2.15,4-2.44c1.51-1,3.14-2.19,5-3.44l2.84-2c.93-.74,1.91-1.49,2.9-2.26,2-1.58,4.14-3.16,6.21-5s4.3-3.6,6.39-5.63l3.18-3c1.08-1,2.07-2.09,3.12-3.13s2.08-2.08,3.09-3.14l3-3.23c2-2.11,3.78-4.33,5.58-6.43.91-1,1.71-2.13,2.56-3.16s1.68-2,2.42-3c1.53-2,3-3.91,4.26-5.73s2.43-3.47,3.44-5,1.85-2.81,2.54-3.9,1.21-2,1.56-2.56S109.7,42,109.7,42Z"/></g></g></g></svg>