<svg xmlns="http://www.w3.org/2000/svg" viewBox="0 0 1974.64 1629.72"><defs><style>.cls-1{fill:#fff;}.cls-2{fill:#ffdd0e;}.cls-3{fill:#f8ad00;}.cls-4{fill:#f4991b;}.cls-5{fill:#f59a1e;}</style></defs><g id="Layer_2" data-name="Layer 2"><g id="Layer_1-2" data-name="Layer 1"><path class="cls-1" d="M537,1236.81c0-73.09-.17-146.19.1-219.29,0-8-1.51-11.09-10.29-11.14A1318.5,1318.5,0,0,1,391,999c-97.21-10.55-193.18-26.84-283.31-67.09C72.09,916,38.6,896.59,15,863.86c-6.91-9.59-9.9-20.9-15-31.25V802.33c15.54-46.9,52.51-72.16,93.94-92.8,31.47-15.68,64.38-27.6,98.27-36.86A85.82,85.82,0,0,0,205,702.74c-30,9.46-60.05,19-88.55,32.65C94.36,746,73.11,758,55.2,775,24.54,804,25.77,834.93,58,862.51c38.82,33.25,85.44,50.63,133.3,65.18C254.65,947,319.69,957.76,385.48,965c89.07,9.81,178.31,10.77,267.61,5.76,66.07-3.7,131.73-11.58,196.51-25.7.08,11.57,6.71,21.16,9.62,31.87-36.27,7.21-72.61,13.88-109.4,18.13-53.68,6.21-107.44,10.65-161.52,10.91-17.7.09-17.69.46-17.7,17.84q0,106.5-.08,213A83.4,83.4,0,0,0,537,1236.81Z"/><path class="cls-2" d="M537,1236.81a83.4,83.4,0,0,1,33.53,0c22.78,7.49,39.73,21.39,47.49,44.64,12.37,37-8.13,75.71-45.6,87-2.63.79-5.92,0-7.84,2.79H540.78c-12.14-5.83-25-9.92-35-20.06-35-35.56-21.79-95.17,25.2-112C533,1238.48,535,1237.61,537,1236.81Z"/><path class="cls-1" d="M326.36,644.45c38.25-6.64,76.88-10.13,115.56-12.68,28.33-1.87,56.76-2.59,85.15-3.15,7.91-.16,10.09-2.24,10-10.34-.33-73.39-.16-146.77-.13-220.16a83,83,0,0,0,33.53,0q0,158.4.08,316.8c0,17.94,0,17.33,18.49,18.29,49,2.54,97.13,9.7,142.37,30.11,11.87,5.35,22.72,12.33,31.85,21.8,19.47,20.21,19.4,44.88-.39,65-16.09,16.38-36.5,25.35-57.86,32-56.24,17.39-114,22.26-172.62,20.31-44-1.46-87.32-7-129.46-20.16-18.25-5.68-35.67-13.21-50.8-25.21-30.24-24-30-55.6.42-79.53a134.37,134.37,0,0,1,37.72-20.42c43.29-15.61,88.16-23,134-23.86,10.47-.19,13.4-3.14,12.82-13.46-.94-16.52-.48-33.15-.14-49.72.13-6-.63-8.75-7.94-8.68a1342.85,1342.85,0,0,0-139,8.35c-21.07,2.38-42.13,4.85-63.19,7.28Q326.61,660.73,326.36,644.45Zm210.55,173c0-14.75-.27-29.51.14-44.25.16-6-1.39-7.89-7.65-7.82-17.31.2-34.45,2.26-51.5,4.61-33.4,4.61-66.39,11.22-96.21,28.14-7.94,4.51-18.16,8.73-18.13,19.37s10.14,15,18.19,19.32c46.86,24.85,98.07,30.14,149.86,32.68,5.65.28,5.35-2.91,5.33-6.72C536.87,847.66,536.91,832.55,536.91,817.44Zm33.69-.93c0,15.11.29,30.22-.14,45.32-.17,6.12,1.63,7.78,7.75,7.73,17.31-.15,34.44-2.28,51.49-4.62,33.78-4.62,67.08-11.44,97.19-28.61,23.4-13.33,23.57-24.86-.25-37.75-47-25.43-98.67-30.58-150.83-33.13-5.77-.29-5.24,3.1-5.23,6.81C570.63,787,570.6,801.76,570.6,816.51Z"/><path class="cls-1" d="M978,905.69c27.63-12.38,54.5-26,76.24-47.73,8.72-8.71,16-18.49,18.79-30.83,5-21.7-5.93-37.45-20.09-51.47-21.54-21.35-48.12-35-75.66-46.65-60.48-25.48-124-40-188.58-50.19-51.59-8.15-103.43-13.75-155.64-15.44-8.65-.28-11.43-2.73-10.65-12,1.9-22.72,1.3-22,25.28-20.68a1369.38,1369.38,0,0,1,162.9,18.12c71.89,12.6,142.53,29.76,208,63.24,29,14.82,56,32.63,74.45,60.62,21.59,32.71,18.54,70.69-7.64,100.22-27.47,31-62.77,49.76-100.22,65.31C985.41,926.82,980.76,916.46,978,905.69Z"/><path class="cls-3" d="M978,905.69c2.72,10.77,7.37,21.13,7.21,32.54-1.17,26.83-12.64,47.54-36.62,60.4-27.19,14.59-60.82,8.5-81.75-14.35-2.39-2.61-4.06-6-7.67-7.35-2.9-10.71-9.53-20.3-9.61-31.87-1.46-29.69,10-52.49,36.51-66.68,28.11-15.07,63.66-7.43,83.75,17.39C972.56,899.1,975.32,902.38,978,905.69Z"/><path class="cls-3" d="M326.36,644.45q.25,16.29.5,32.56c-6.54,17.41-15.41,33-32.12,42.86-30.33,17.84-63.22,11.61-89.71-17.13a85.82,85.82,0,0,1-12.82-30.07c-1.09-17.59.61-34.54,11.39-49.42,16.59-22.91,39.31-32.35,66.86-28.35,24.65,3.59,41.72,18.2,51.91,40.87C323.68,638.67,325,641.56,326.36,644.45Z"/><path class="cls-2" d="M570.52,398.12a83,83,0,0,1-33.53,0c-24.93-8.25-43-23.87-48.93-50-6.17-27.07,1-50.83,23-68.71,20.78-16.89,44.43-20.56,68.89-10,24.63,10.65,38.79,29.84,41.23,57.29C623.66,354.79,608.13,386.16,570.52,398.12Z"/><path class="cls-1" d="M883.3,765.09c-18.07,0-18.07,0-18.07-17.71,0-16,0-16,16.58-16,18.07,0,18.07,0,18.07,17.72C899.88,765.09,899.88,765.09,883.3,765.09Z"/><path class="cls-1" d="M242.29,817.45c0,16.87,0,16.87-21.94,16.86-12.72,0-12.72,0-12.71-20.91,0-12.79.07-11.74,23-13.12C247.82,799.24,240.83,810.82,242.29,817.45Z"/><path class="cls-1" d="M1860.94,0c20,12.32,36.36,26.7,35.08,53.3-1.23,25.61-22.07,47.33-47.64,48.47-5.3.23-10.61.06-15.91.06H832.88c3.48,5.26,5.65,9.17,8.4,12.61Q1104,443,1366.87,771.38c27.24,34,27.4,52.6.68,86q-297.12,371.3-594.1,742.69c-11.12,13.91-22.46,27.22-41.57,29.27-22.08,2.36-40.06-5.55-51.15-24.86-11.31-19.71-10.11-39.83,4.27-57.92q74.7-94,149.85-187.62Q1047.93,1092.55,1261,826.21c2.64-3.31,5.14-6.73,8.74-11.44-11.57-14.63-23.22-29.52-35-44.29Q965.52,434,696.23,97.47c-34.32-42.86-31.36-67,12.54-97.47Z"/><path class="cls-3" d="M1436.8,1629.57q-202.8,0-405.61,0c-26.12,0-48.31-18.6-51.6-42.57-3.56-25.88,10.66-49.27,35.27-56.91,5.92-1.83,12.48-2.19,18.75-2.19q404-.15,808-.07c32.12,0,54.42,21.23,54.27,51.3-.14,29.8-22.58,50.47-55.1,50.48Q1638.82,1629.62,1436.8,1629.57Z"/><path class="cls-1" d="M1463.68,760.24c9.31,0,18.7-.78,27.91.19,13.09,1.38,26.16.89,39.19.59,8.06-.19,16.14-.77,24.22-.74,1.37,0,3.55-1,3.49,2,0,2.21-.5,3.26-3,4.1-9.51,3.16-19.22,6.53-22.29,17.76A88.83,88.83,0,0,0,1530.6,798c-.63,5.89-.83,11.82-1.06,17.74-1.91,50.35-.76,100.72-.91,151.07a159.56,159.56,0,0,0,2.11,23.47c1.59,10.84,9.46,16.54,18.67,20.5,2.24,1,4.51,2.35,7.34,2.39,2.5,0,2.87,2.38,2.77,4.77-.12,3-2.23,2.12-3.55,2-15.43-1.94-31-1.27-46.45-1.5-12.55-.19-25.35-.47-38,1.46-2.63.41-6.83,1.69-5.93-4a3.06,3.06,0,0,1,2.66-2.94c13.54-3.6,22.49-10.87,23.56-26.3.64-9.16,1.43-18.3,1.82-27.5,2.12-49.85.41-99.72.82-149.58a87.46,87.46,0,0,0-3-24.18c-1.71-6.1-6-10.53-11.74-13.57a74.15,74.15,0,0,0-16-6.51Z"/><path class="cls-1" d="M1720,1121.78c-23.67-2-47.4-1.07-71.08-.79-9.72.12-19.46.79-29.2.77-1.45,0-3.64.83-3.4-2.09.14-1.8-.69-3.46,2.58-4.07a62.19,62.19,0,0,0,23.6-9.38c7.22-4.81,8.83-12,9.71-19.62,3.25-27.9,1.72-55.93,2-83.9.15-15.48.38-31-.07-46.43-.48-16.4-.27-32.84-1.18-49.19-.71-12.93.32-25.88-.87-38.71-1.28-13.76.23-27.56-1-41.21-1.24-13.28.26-26.55-1-39.72-1.27-13.76.23-27.55-1-41.21-1.15-12.27-.12-24.51-.84-36.73-1.09-18.38-6.76-35-18.65-49.48-15.35-18.68-35.54-29.84-57.46-38.61-16.69-6.68-34.16-10.4-51.69-13.93-2.07-.42-4.3.53-6.31-.78-1.64-1.08-4.75,1-5.28-1.24-.73-3.16-.24-6.61-.15-9.94,0-1.07,1.06-1.12,1.88-1,4.43.33,8.92-.76,13.32.62a9.18,9.18,0,0,0,2.91.34c21.88-.43,43.74.76,65.6,1.24,36.51.8,73,1.23,109.49.51,18.38-.37,36.81.33,55.12-1,15.09-1.05,30.15.06,45.17-.88,10.9-.68,21.79-.83,32.7-1,2.75,0,4.1.25,4.05,3.65-.11,8.25.1,8.18-9,9.4-26.41,3.55-51.8,10.76-75.38,23.23-20.47,10.83-38,25.14-48,46.87-4.58,9.94-7.37,20.47-7.32,31.45.11,21.07-.91,42.12-1.4,63.17-.29,12.9.38,25.87-.81,38.71-1.28,13.76.21,27.55-1,41.2-1.19,12.94.23,25.89-1,38.72-1.28,13.76.22,27.55-1,41.21-1.19,12.94-.63,25.83-.74,38.73-.22,26.64-.6,53.3.15,79.92.41,14.5.66,29.15,3.76,43.49,2,9.1,7.73,14.27,16.37,16.64,5.73,1.57,11.07,4.45,17.1,5,2.5.25,1.2,2.27,1.43,3.52.28,1.49-.12,2.53-2,2.47C1726.67,1121.71,1723.34,1121.78,1720,1121.78Z"/><path class="cls-1" d="M1777,885.9c0-18,.53-36-.15-53.91-.65-16.9-.75-33.8-.86-50.7,0-7.59-4.1-12.63-11-14.87-3-1-3.12-2.53-2.88-4.69.32-2.79,2.6-1.33,4-1.43,11.75-.87,23.43,1,35.17,1.06,9.44.07,18.77-1.73,28.2-1.09,1.4.09,3.63-1,3.47,2-.1,1.85.37,3.31-2.44,4.3-7.1,2.52-9.92,8-10.73,15.69-1.44,13.76-.14,27.5-.84,41.22-1.27,24.71-.92,49.44-1,74.16,0,12.75,1,25.46,1.17,38.21.18,17.19,5.35,32.84,17.7,45.52,7,7.21,15.77,10.68,25.49,11.47,12.71,1,25-.76,36.33-7.23,14.91-8.49,23.8-21.22,27-37.88a145.87,145.87,0,0,0,2.11-28c-.1-31.94.3-63.9-.2-95.84-.21-13.24-.1-26.63-2.88-39.71-2-9.42-9.57-13.75-17.29-17.71-1.24-.64-2.73-.33-2.7-2.58,0-2.53.27-3.69,3.38-3.82,9.94-.41,19.8.84,29.69,1.19,10.61.37,21.12-1.27,31.69-1,1.7,0,4.43-1.76,5.17,1.75.65,3-1,4.07-3.51,5.11-9.51,4-14.33,11.2-15.63,21.56-.85,6.79-.29,13.53-.86,20.25-1.5,17.71,0,35.51-1.19,53.17-1,15.27-.63,30.49-.63,45.72,0,10.94-.58,21.87-1.39,32.7-1.36,18.22-5.83,35.91-18.19,50.2-10.9,12.6-24.89,20.75-40.95,25.06a109.67,109.67,0,0,1-33.9,4c-20.35-1-40-4.81-56.14-18.36-12.64-10.6-20-24.63-23.11-40.71-4-20.67-1.31-41.61-2-62.41C1776.83,894.23,1777,890.06,1777,885.9Z"/><path class="cls-4" d="M1718.66,510.1c18.87-17,16.23-37.56,9.47-58.82,6.55,2,15.13,10.38,19.24,19.43,9.93,21.9,9.17,43.17-5.07,63.06-10.71,15-26.35,22.88-43.27,28.6-11,3.71-22.31,4-33.84,3.44-12.92-.57-25.29-3.72-36.13-10-16-9.27-27.1-23.26-30.67-42-3.92-20.63.9-40.16,8.38-59.24,1-2.46,2.09-4.86,3.17-7.28.47-1,1-2,2-4,.71,5.58,1.14,10.34,2.38,15,4.33,16,14.38,26.9,29.49,33.38,2.82,1.22,4.23,1.47,4.93-2.39,1.31-7.32,1.45-14.34-1.06-21.5-5.09-14.51-10.23-29-13.85-44-5.59-23.15,4.35-47.1,24.12-57.93.35,2.82-1.22,5.1-1.71,7.58-3.49,17.49,4,31.34,14.46,44.22,10.09,12.52,22.62,22.47,35,32.51,12.68,10.28,16.53,23.83,15.86,39.33A143.22,143.22,0,0,1,1718.66,510.1Z"/><path class="cls-5" d="M1688.74,310.9c17.7,8.42,24.8,25.31,18.9,44.74-1.24,4.08-2.56,8.43-5,11.8-8.83,12.06-8.1,25-4.78,38.47,1.73,7,4.4,13.77,7.16,21.95-6.35-5.23-12.26-8.95-16.68-14-8.75-10-16.35-20.84-16.13-35.1.15-9.49,4-17.68,9.14-25.34C1692.36,337,1693.61,330.33,1688.74,310.9Z"/><path class="cls-1" d="M1870.5,1210.92c-6.18,5.61-13.15,7.49-19.27,10.93-1.47.82-1.91,1.32-2.54-.89-2.79-9.86-6-19.6-8.81-29.45-.88-3.07.82-6.07,2.83-8,2.73-2.55,2.62,1.38,3,2.34,2.53,7.41,5,14.85,6.92,22.43.6,2.36,1.29,1.89,2.59,1.29,2.77-1.26,5.44-2.72,8.25-3.87,3.51-1.46,4-3.89,2.8-7.14-.56-1.5-.68-3.24-1.53-4.53-5.19-7.87-1.31-15.85.78-23.08,1.67-5.77,6.9-10.55,12.46-13.91,1.43-.87,3-.73,2.79,1.7s-.53,4.91-2.29,6.69c-2.53,2.58-4.55,5.77-7.22,8-4.16,3.47-4.14,7-2.47,11.4,2.1,5.54,4.43,11,5.8,16.76.93,3.83,2.56,3.23,4.7,1.85,4-2.57,9.08-3.4,12.37-7.4a6.27,6.27,0,0,0-.65-.28c-2.73-.45-6.14,2-8.09-1.73-1.11-2.14,1.47-11.61,3.44-13.25,3.06-2.56,7.43-1.21,9.4,3.34,4.56,10.48,2.57,21.78-11.18,27.09a54.63,54.63,0,0,0-7.44,3.36C1873.69,1216.53,1870.47,1217.67,1870.5,1210.92Z"/><path class="cls-1" d="M1656.2,1249.58c1-3.83,3-5.36,4.7-7.11a3.32,3.32,0,0,0,1.15-2c0-1.14-1.21-.86-2-.81-16.4,1.08-31.5-4.86-47-8.66a9.67,9.67,0,0,0-1.91-.33c-1.46-.05-2.93,0-4.61,0,2.36,7.37,8.92,7.74,14.5,8.84,6.84,1.36,13.88,2.2,20.9.24.92-.26,2.74-1,3.23,1a3.83,3.83,0,0,1-1.87,4.24c-4.23,2.9-9.26,3.91-14.07,4.44-6.6.71-13.46.86-19.8-1.89-4.42-1.91-8.93-3.87-10.15-9.47-1.73-7.93,3.06-14.23,11.22-14.42,6.88-.15,13.52,1.43,20.14,3,13.68,3.23,27.47,5.36,41.58,5,1.26,0,3.16-1.08,3.84,1,.58,1.77-1,2.68-2.1,3.6C1668.68,1240.89,1663.35,1245.51,1656.2,1249.58Z"/><path class="cls-1" d="M1523.07,1217.7c-10.8-6-10.82-9.59-1.13-15.8,2.72-1.74,5.66-1.08,6.39,1.54,2.23,8,9,7.36,14.68,8,4.11.48,7.23.72,9.71,4.75,4.1,6.68,12,6.15,18.41,8.43.75.27,1.75.13,2.32.59,1.47,1.19,5.55-.88,4.53,3.21a6.26,6.26,0,0,1-7.32,4.79c-4.9-.7-9.67-2.21-14.52-3.28-2.67-.59-5.23-1.53-8,.63-2.15,1.7-6.35-1.87-7.68-6.25-1.54-5.08-10-7.6-14-4.14-8.29,7.29-23.76,6.69-32.17-1.34-1.73-1.64-3.76-3.11-5.12-6C1500.88,1212.05,1511.09,1217.56,1523.07,1217.7Z"/><path class="cls-1" d="M1765.2,1238.38c3.76-1.17,7.4-2.36,11.08-3.43s7.38-2,11.07-3.06c1.38,7,1,8.13-5.67,10.71s-13.59,4.68-20.43,6.92c-1.17.38-2,.2-2.31-1.52-1.67-10.37-2.64-20.83-4.66-31.15-.46-2.4,2-5.25,4.12-6.75s2.32,1.81,2.38,2.46c.55,6.32,2.12,12.44,3.2,18.65C1764.4,1233.59,1764.79,1236,1765.2,1238.38Z"/><path class="cls-1" d="M1675.19,1157.2c0-5.56.06-10,0-14.53,0-1.91.15-3,2.59-3,2.6,0,2.45,1.39,2.44,3.14,0,6.47,0,13-.07,19.42,0,1.19,1.09,3.25-1.38,3.46-1.74.15-3.34.27-4.59-1.8-3.27-5.39-6.91-10.56-10.93-16.61,0,5.78,0,10.55,0,15.32,0,1.28.78,3.07-1.81,3.18-2.92.11-2.12-1.89-2.13-3.36,0-6.31-.09-12.62,0-18.93,0-1.23-1.07-3.21,1.16-3.65a3.94,3.94,0,0,1,4.73,2.18C1668,1146.94,1671.42,1151.57,1675.19,1157.2Z"/><path class="cls-1" d="M1732.69,1165.73c-6.62,0-6.62,0-6.62-6.8,0-5.47.09-10.93,0-16.4-.06-2.13.52-3,2.75-2.81,2.8.19,5.63,0,8.44.06,6.17.23,8.72,4.88,5.76,10.47-.42.79-1.62,1.43-.33,2.39,3.76,2.79,3.13,6.87,1.67,10s-5.34,3.16-8.65,3.11C1734.67,1165.72,1733.68,1165.73,1732.69,1165.73Zm1.32-4c4.93,0,7.48-1.38,6.94-3.85-.87-4-4.3-3.79-7.47-4.2-3.57-.47-3.3,1.54-3.51,4C1729.67,1161.38,1731.09,1162.46,1734,1161.74Zm.64-12.06c2,.38,5.08.48,5.14-2.66s-2.87-3.53-5.5-3.24c-1.81.19-4.27-1.22-4.37,2.68S1731.84,1149.9,1734.65,1149.68Z"/><path class="cls-1" d="M1706.84,1253.59c-4.79.71-7.64-2.28-6.49-8.24a32,32,0,0,1,6.67-14.23,7.11,7.11,0,0,1,8.46-2.16c3.3,1.23,4.67,5.27,4.28,8.08-.7,5.11-1.69,10.55-6.53,14C1711.19,1252.57,1709.31,1254,1706.84,1253.59Zm3-9.07c1.06-.6,4-1.08,4-3.69.06-2.28-2.14-3.3-4.66-3.23a4.54,4.54,0,0,0-4.55,4.26C1704.46,1243.88,1706.58,1244.84,1709.86,1244.52Z"/><path class="cls-1" d="M1509.3,1183.85c1.13,7.71-.42,14.05-7.64,18.35-5.13,3.06-10.21.92-15.2.23a20.12,20.12,0,0,1-5.5-1.56c-4.09-1.9-4.3-2.7-1.12-6,4-4.08,8.25-1.16,12.39-.85a24.18,24.18,0,0,1,2.78.67c6.11,1.29,6.1,1.32,6.58-4.63C1501.85,1186.92,1502.79,1186.15,1509.3,1183.85Z"/><path class="cls-1" d="M1728.32,1257.62c-1.91,0-3.23.06-4.55,0-1.54-.09-3.85.72-4.17-1.34-.26-1.66,1.93-2.31,3.36-3,7.53-3.89,15.06-7.77,22.56-11.7a9.92,9.92,0,0,0,3.15-2.16c.77-.94,0-3.45,2.42-2.59,1.86.67.88,2.6.87,3.9-.1,9.93-8.11,12.46-15.09,15.95C1734,1258.06,1730.81,1257.49,1728.32,1257.62Z"/><path class="cls-1" d="M1810,1233.55c7.83-5.62,15.59-11.35,23.57-16.75a38.74,38.74,0,0,0,4-3.46c.78-.69-.54-3.25,1.89-2.42,1.37.47,1.2,2.07,1.42,3.4,1.56,9.48-5.8,14.22-16.44,19.28-4.46,2.12-9.32.62-14,1.14C1810.28,1234.34,1810.11,1234,1810,1233.55Z"/><path class="cls-1" d="M1638.27,1149.83c0,1.82.09,3.66,0,5.48-.23,3.74.42,6.39,5.15,6.52s6.46-2.55,6.77-6.51c.3-3.63-.15-7.32.17-11,.14-1.53-1.82-4.39,1.77-4.57,3.74-.18,1.92,2.81,2,4.32.27,3.8.09,7.64.09,11.46,0,7.45-3.27,11-10.35,11.14-5.73.15-10.21-4-10.55-10.12-.27-4.81,0-9.64-.1-14.46-.06-2.09.82-2.39,2.64-2.44,2.09,0,2.5.83,2.42,2.65C1638.19,1144.84,1638.27,1147.33,1638.27,1149.83Z"/><path class="cls-1" d="M1724,1165.4c-3.3.87-5.69.72-6.37-3.5-.8-4.91-4.75-4-8.28-4.27-3.85-.35-3.69,2.54-4.14,4.52-.84,3.7-2.87,4.22-6.15,3.16,2.84-7.54,5.65-15,8.47-22.44.74-2,1.72-3.25,4.26-3.2s2.66,1.88,3.27,3.4C1718.06,1150.45,1721,1157.86,1724,1165.4Zm-9.24-10.79c-1.11-2.95-2.15-5.73-3.58-9.55l-3.13,9.55Z"/><path class="cls-1" d="M1610.34,1151.6c.38-3.32-1.78-8.73.82-11.12,2.21-2,7.53-.68,11.47-.7,4.39,0,7.5,3.13,7.66,7.59s-2.68,7.93-7,8.37c-.33,0-.66,0-1,0-7.33.26-7.36.26-7.93,7.47-.11,1.37.08,2.55-2,2.57s-2.07-1-2.05-2.48C1610.37,1159.66,1610.34,1156,1610.34,1151.6Zm9.47-7.84c-2.67.15-5.93-1.3-5.67,4,.18,3.8,1.49,4.25,4.63,4.08s6.45.13,6.56-4.57C1625.44,1142.79,1622.27,1143.93,1619.81,1143.76Z"/><path class="cls-1" d="M1903.64,1168c3,9.57,6.34,19,8.78,28.75.87,3.46-1.12,7.16-4.17,9.8-3-9.71-6.06-19.19-9-28.7C1898,1173.67,1901.56,1171.26,1903.64,1168Z"/><path class="cls-1" d="M1697.14,1151.46c0,2.32,0,4.65,0,7,0,5.24-1.83,7.88-6.7,8.12-3.47.17-6.33-1.65-7.52-5.45-.39-1.25-1.6-2.64.11-3.18,1.13-.35,3.59-1.44,4,1.06s1.81,3,3.84,2.7c2.55-.36,2.24-2.4,2.24-4.21,0-5,0-10,0-15,0-1.6-.08-2.91,2.24-2.8s1.74,1.54,1.75,2.76C1697.16,1145.47,1697.14,1148.46,1697.14,1151.46Z"/><path class="cls-1" d="M1785.69,1205.91c.41,6.79-5.87,11.49-12.35,9.8-1.4-.36-1.6-1.14-1.33-2.08.53-1.82.09-4.27,2.68-5C1778.26,1207.74,1781.86,1206.87,1785.69,1205.91Z"/><path class="cls-1" d="M1581.46,1213.7c-3.48.1-5.64-1.87-5.86-4.46-.27-3.29,3.56-4.74,5.6-5.18,2.41-.51,4.73,2.9,4.78,5.2C1586,1211,1584.36,1214,1581.46,1213.7Z"/><path class="cls-1" d="M1888.5,1172.4c-1.19,1.33.31,5.76-3.89,5.07-1.45-.24-5.66.09-4.46-3.37.75-2.18-.73-6.84,4-6.21C1885.92,1168.12,1889.55,1167.75,1888.5,1172.4Z"/><path class="cls-1" d="M1748,1225.08c-1.84,2-.69,6.63-4.73,6.35-1.63-.12-5.67-.07-4.84-3.18.57-2.16.15-6.71,4.34-6.09C1744.31,1222.39,1747.83,1221.42,1748,1225.08Z"/></g></g></svg>